<svg width="435" height="189" viewBox="0 0 435 189" fill="none" xmlns="http://www.w3.org/2000/svg">
<path d="M435 0H0V189H435V0Z" fill="black"/>
<path d="M304.4 39.2998H43.7V126.2H304.4H391.2V39.2998H304.4Z" fill="black"/>
<path d="M304.4 128.7H41.2V36.7998H304.4V39.2998V41.7998H46.2V123.7H304.4H388.7V41.7998H304.4V39.2998V36.7998H393.7V128.7H304.4Z" fill="white"/>
<path d="M210.5 149C208.3 149 207.2 147.6 207.2 145.1V140H208.5V145.1C208.5 146.8 209.2 147.7 210.5 147.7C211.9 147.7 212.5 146.8 212.5 145.2V140H213.8V145.2C213.8 147.7 212.6 149 210.5 149Z" fill="white"/>
<path d="M222.2 148.9L218.7 143.4C218.5 143.1 218.2 142.5 218 142.3C218 142.6 218 143.9 218 144.3V148.9H216.7V140.1H218.1L221.5 145.5C221.7 145.9 222.1 146.5 222.2 146.7C222.2 146.4 222.2 145.1 222.2 144.6V140H223.5V148.8H222.2V148.9Z" fill="white"/>
<path d="M232.2 148.9L231.4 146.8H227.9L227.2 148.9H225.8L229 140.1H230.4L233.6 148.9H232.2ZM230.3 143.6C230.1 143 229.7 141.9 229.6 141.6C229.5 142 229.2 143 229 143.6L228.3 145.6H231L230.3 143.6Z" fill="white"/>
<path d="M240 148.9V140.1H245.7V141.4H241.4V143.5H243.9V144.8H241.4V147.6H245.9V148.9H240Z" fill="white"/>
<path d="M255 148.9V144.2C255 143.7 255 142.9 255 142.6C254.9 142.9 254.6 143.5 254.4 144L252.3 149L250.2 144C250 143.5 249.7 142.9 249.6 142.6C249.6 142.9 249.6 143.6 249.6 144.2V148.9H248.3V140.1H249.7L251.7 144.8C251.9 145.3 252.2 146 252.3 146.3C252.4 145.9 252.7 145.3 252.9 144.8L254.8 140.1H256.2V148.9H255Z" fill="white"/>
<path d="M262.9 145.6H260.6V148.9H259.3V140.1H263C264.6 140.1 265.8 141 265.8 142.9C265.8 144.7 264.6 145.6 262.9 145.6ZM262.9 141.3H260.5V144.3H262.9C263.9 144.3 264.4 143.7 264.4 142.8C264.4 141.9 263.9 141.3 262.9 141.3Z" fill="white"/>
<path d="M272.9 145.3L274.7 148.9H273.2L271.4 145.4H269.4V148.9H268.1V140.1H272C273.5 140.1 274.8 140.9 274.8 142.7C274.9 144.1 274.1 145 272.9 145.3ZM272 141.3H269.4V144.1H272C272.9 144.1 273.5 143.6 273.5 142.7C273.5 141.8 272.9 141.3 272 141.3Z" fill="white"/>
<path d="M277.5 148.9V140.1H283.2V141.4H278.9V143.5H281.4V144.8H278.9V147.6H283.4V148.9H277.5Z" fill="white"/>
<path d="M288.4 149C287.1 149 286 148.4 285.3 147.6L286.2 146.7C286.8 147.3 287.7 147.7 288.5 147.7C289.7 147.7 290.3 147.3 290.3 146.4C290.3 145.7 289.8 145.4 288.3 144.9C286.4 144.3 285.5 143.9 285.5 142.3C285.5 140.8 286.8 139.8 288.4 139.8C289.6 139.8 290.5 140.2 291.3 141L290.4 141.9C289.8 141.3 289.2 141.1 288.3 141.1C287.3 141.1 286.8 141.6 286.8 142.2C286.8 142.8 287.2 143.1 288.7 143.6C290.4 144.1 291.5 144.7 291.5 146.3C291.7 148 290.7 149 288.4 149Z" fill="white"/>
<path d="M299.8 148.9L299.1 146.8H295.6L294.9 148.9H293.5L296.7 140.1H298.1L301.3 148.9H299.8ZM297.9 143.6C297.7 143 297.3 141.9 297.2 141.6C297.1 142 296.8 143 296.6 143.6L295.9 145.6H298.6L297.9 143.6Z" fill="white"/>
<path d="M308.9 141.4V143.7H311.5V145H308.9V148.9H307.6V140.1H313.3V141.4H308.9Z" fill="white"/>
<path d="M315.6 148.9V140.1H321.3V141.4H316.9V143.5H319.5V144.8H316.9V147.6H321.5V148.9H315.6Z" fill="white"/>
<path d="M328.8 145.3L330.6 148.9H329L327.2 145.4H325.2V148.9H324V140.1H327.9C329.4 140.1 330.7 140.9 330.7 142.7C330.7 144.1 330 145 328.8 145.3ZM327.9 141.3H325.3V144.1H327.9C328.8 144.1 329.4 143.6 329.4 142.7C329.4 141.8 328.8 141.3 327.9 141.3Z" fill="white"/>
<path d="M338.2 145.3L340 148.9H338.5L336.7 145.4H334.7V148.9H333.4V140.1H337.3C338.8 140.1 340.1 140.9 340.1 142.7C340.1 144.1 339.4 145 338.2 145.3ZM337.3 141.3H334.7V144.1H337.3C338.2 144.1 338.8 143.6 338.8 142.7C338.8 141.8 338.2 141.3 337.3 141.3Z" fill="white"/>
<path d="M342.8 148.9V140.1H348.5V141.4H344.1V143.5H346.7V144.8H344.1V147.6H348.7V148.9H342.8Z" fill="white"/>
<path d="M354.8 145.4V148.9H353.5V145.4L350.3 140.1H351.9L353.3 142.5C353.6 143 354.1 143.9 354.2 144.3C354.4 144 354.8 143.1 355.1 142.6L356.5 140.2H358L354.8 145.4Z" fill="white"/>
<path d="M362.9 149C360.6 149 359.2 147.1 359.2 144.4C359.2 141.7 360.7 139.8 362.9 139.8C364.3 139.8 365.3 140.4 365.9 141.5L364.7 142.2C364.2 141.5 363.8 141.1 362.9 141.1C361.4 141.1 360.5 142.3 360.5 144.3C360.5 146.3 361.3 147.5 362.9 147.5C363.8 147.5 364.4 147.1 364.8 146.4L365.9 147.1C365.3 148.4 364.2 149 362.9 149Z" fill="white"/>
<path d="M371.5 149C369.2 149 367.8 147.1 367.8 144.4C367.8 141.7 369.2 139.8 371.5 139.8C373.8 139.8 375.2 141.7 375.2 144.4C375.3 147.2 373.8 149 371.5 149ZM371.5 141.3C370 141.3 369.1 142.5 369.1 144.5C369.1 146.5 369.9 147.7 371.5 147.7C373.1 147.7 373.9 146.5 373.9 144.5C373.9 142.5 373.1 141.3 371.5 141.3Z" fill="white"/>
<path d="M382.5 145.3L384.3 148.9H382.8L381 145.4H379V148.9H377.7V140.1H381.6C383.1 140.1 384.4 140.9 384.4 142.7C384.5 144.1 383.7 145 382.5 145.3ZM381.6 141.3H379V144.1H381.6C382.5 144.1 383.1 143.6 383.1 142.7C383.1 141.8 382.5 141.3 381.6 141.3Z" fill="white"/>
<path d="M390.8 145.6H388.5V148.9H387.2V140.1H390.9C392.5 140.1 393.7 141 393.7 142.9C393.7 144.7 392.5 145.6 390.8 145.6ZM390.8 141.3H388.4V144.3H390.8C391.8 144.3 392.3 143.7 392.3 142.8C392.3 141.9 391.8 141.3 390.8 141.3Z" fill="white"/>
<path d="M304.3 39.9004H43.7V126.8H304.3V39.9004Z" fill="#FBBC00"/>
<path d="M391.3 39.9004H304.4V126.8H391.3V39.9004Z" fill="black"/>
<path d="M331.7 97.9002C333.3 96.5002 333.6 94.9002 333.6 93.3002V87.0002H324.7V95.6002C324.7 96.8002 323.7 97.8002 322.5 97.8002C321.3 97.8002 320.3 96.8002 320.3 95.6002V71.1002C320.3 69.9002 321.2 68.9002 322.5 68.9002C323.7 68.9002 324.7 69.9002 324.7 71.1002V79.8002H333.6V70.8002C333.6 65.8002 330.3 61.7002 322.4 61.7002C314.2 61.7002 311.1 65.8002 311.1 70.8002V96.3002C311.1 101.2 315 105 320.1 105H322.9L331.7 97.9002Z" fill="white"/>
<path d="M366.9 98.8996V70.7996H360.7V62.5996H383V70.7996H376.8V105H374.2L366.9 98.8996Z" fill="white"/>
<path d="M355.4 62.5996H343L335.8 94.8996L349.3 84.0996L363.4 95.7996L355.4 62.5996ZM346.8 81.9996L349.2 69.7996L351.6 81.9996H346.8Z" fill="white"/>
<path d="M384.7 64.8002C384.7 63.3002 385.9 62.2002 387.4 62.2002C388.9 62.2002 390.1 63.4002 390.1 64.8002C390.1 66.3002 388.9 67.4002 387.4 67.4002C385.9 67.5002 384.7 66.3002 384.7 64.8002ZM389.6 64.8002C389.6 63.6002 388.6 62.6002 387.4 62.6002C386.2 62.6002 385.2 63.6002 385.2 64.8002C385.2 66.0002 386.2 67.0002 387.4 67.0002C388.6 67.0002 389.6 66.0002 389.6 64.8002ZM386.8 65.0002V66.3002H386.3V63.2002H387.3C387.9 63.2002 388.5 63.4002 388.5 64.1002C388.5 64.5002 388.3 64.7002 387.9 64.8002C388.3 64.9002 388.4 65.1002 388.4 65.4002C388.4 65.7002 388.5 66.0002 388.6 66.3002H388C388 66.1002 387.9 65.9002 387.9 65.7002C387.9 65.4002 387.9 65.2002 387.7 65.0002C387.6 64.9002 387.4 64.9002 387.2 64.9002H386.8V65.0002ZM387.3 64.5002C387.8 64.5002 387.9 64.3002 387.9 64.1002C387.9 63.9002 387.8 63.7002 387.4 63.7002H386.8V64.5002H387.3Z" fill="white"/>
<path fill-rule="evenodd" clip-rule="evenodd" d="M371.7 105.1H325.9L349.1 86.5996L371.7 105.1Z" fill="#FBBC00"/>
<path d="M222.3 73.4002H217.5H216.9L216.7 73.9002L213 83.7002L209.5 73.9002L209.3 73.3002H208.7H203.5H202.2L202.7 74.5002L209.7 91.4002C210 91.9002 209.9 92.7002 209.6 93.2002C209.4 93.6002 208.9 94.2002 207.8 94.2002C207 94.2002 206.6 94.1002 206.5 94.1002L205.2 93.4002V94.8002V98.4002V99.0002L205.8 99.2002C206.8 99.5002 208 99.6002 209 99.6002C212.4 99.6002 214 96.6002 215.7 92.8002L223 74.3002L223.4 73.2002H222.3V73.4002Z" fill="black"/>
<path d="M144.7 87.3004H130.5C130.5 90.2004 132.4 92.8004 136.5 92.8004C139 92.8004 141.5 91.9004 143.3 90.9004L143.4 96.4004C141 97.3004 138.3 97.8004 135.8 97.8004C127.3 97.8004 123.6 92.7004 123.6 85.3004C123.6 78.8004 127.4 72.9004 134.3 72.9004C136.5 72.9004 144.8 72.9004 144.8 85.5004V87.3004H144.7ZM138.1 83.3004C138.1 80.2004 137.3 77.4004 134.3 77.4004C130.5 77.4004 130.5 82.0004 130.5 83.3004H138.1Z" fill="black"/>
<path d="M147.7 78.4C147.7 76.1 147.7 74.6 147.5 73.4H154.2C154.2 74.8 154.3 76.3 154.4 77.7H154.5C156 75.1 157 73 161.2 73H162.3V79.8C161.5 79.6 160.9 79.5 159.8 79.5C155.5 79.5 155 83.2 155 86.7V97.5H147.7V78.4Z" fill="black"/>
<path d="M165.2 78.4C165.2 76.1 165.2 74.6 165 73.4H171.7C171.7 74.8 171.8 76.3 171.9 77.7H172C173.5 75.1 174.5 73 178.7 73H179.8V79.8C179 79.6 178.4 79.5 177.3 79.5C173 79.5 172.5 83.2 172.5 86.7V97.5H165.2V78.4Z" fill="black"/>
<path d="M202 87.3004H187.8C187.8 90.2004 189.7 92.8004 193.8 92.8004C196.3 92.8004 198.8 91.9004 200.6 90.9004L200.7 96.4004C198.3 97.3004 195.6 97.8004 193 97.8004C184.5 97.8004 180.8 92.7004 180.8 85.3004C180.8 78.8004 184.6 72.9004 191.5 72.9004C193.7 72.9004 202 72.9004 202 85.5004V87.3004ZM195.4 83.3004C195.4 80.2004 194.6 77.4004 191.6 77.4004C187.8 77.4004 187.8 82.0004 187.8 83.3004H195.4Z" fill="black"/>
<path d="M225.8 78.4C225.8 76.1 225.8 74.6 225.6 73.4H232.3C232.3 74.8 232.5 76.3 232.5 77.7H232.6C234.1 75.1 235.1 73 239.3 73H240.4V79.8C239.6 79.6 239 79.5 237.9 79.5C233.6 79.5 233.1 83.2 233.1 86.7V97.5H225.8V78.4Z" fill="black"/>
<path d="M252.5 72.9004C259.9 72.9004 263.9 78.0004 263.9 85.3004C263.9 92.6004 260 97.8004 252.5 97.8004C245.1 97.8004 241.1 92.6004 241.1 85.3004C241.1 78.1004 245.1 72.9004 252.5 72.9004ZM252.5 92.8004C255.1 92.8004 256.3 90.0004 256.3 85.3004C256.3 80.6004 255.1 77.9004 252.5 77.9004C249.9 77.9004 248.7 80.5004 248.7 85.3004C248.7 90.1004 249.9 92.8004 252.5 92.8004Z" fill="black"/>
<path d="M281.2 79.4C279.2 78.6 277.4 78.1 275.3 78.1C273.4 78.1 272.6 79 272.6 79.9C272.6 81.4 273.7 81.9 277.7 83.4C280.2 84.3 282.7 85.9 282.7 90.4C282.7 95.8 278.7 97.9 273.8 97.9C271.7 97.9 268.4 97.7 265.9 96.8L266 91C267.8 92.1 270 92.7 272 92.7C275.4 92.7 275.7 91.5 275.7 90.4C275.7 89.3 273.8 88.9 270.6 87.6C268 86.5 265.5 84.5 265.5 80.2C265.5 77.6 267.3 73 274.5 73C277.5 73 280 73.6 281.2 74V79.4Z" fill="black"/>
<path d="M121.2 64.2998H99V78.1998H87.2V87.2998H99V98.9998H108.9V87.2998H121.2V78.1998H108.9V73.3998H121.2V64.2998Z" fill="black"/>
</svg>
