<svg width="349" height="110" viewBox="0 0 349 110" fill="none" xmlns="http://www.w3.org/2000/svg">
<path d="M165 110C162.8 110 161.7 108.6 161.7 106.1V101H163V106.1C163 107.8 163.7 108.7 165 108.7C166.4 108.7 167 107.8 167 106.2V101H168.3V106.2C168.4 108.7 167.2 110 165 110Z" fill="black"/>
<path d="M176.7 109.9L173.2 104.4C173 104.1 172.7 103.5 172.5 103.3C172.5 103.6 172.5 104.9 172.5 105.3V109.9H171.2V101.1H172.6L176 106.5C176.2 106.9 176.6 107.5 176.7 107.7C176.7 107.4 176.7 106.1 176.7 105.6V101H178V109.8H176.7V109.9Z" fill="black"/>
<path d="M186.7 109.901L185.9 107.801H182.4L181.7 109.901H180.3L183.5 101.101H184.9L188.1 109.901H186.7ZM184.9 104.601C184.7 104.001 184.3 102.901 184.2 102.601C184.1 103.001 183.8 104.001 183.6 104.601L182.9 106.601H185.6L184.9 104.601Z" fill="black"/>
<path d="M194.6 109.901V101.101H200.3V102.401H195.9V104.501H198.4V105.801H195.9V108.601H200.5V109.901H194.6Z" fill="black"/>
<path d="M209.6 109.901V105.201C209.6 104.701 209.6 103.901 209.6 103.601C209.5 103.901 209.2 104.501 209 105.001L206.9 110.001L204.8 105.001C204.6 104.501 204.3 103.901 204.2 103.601C204.2 103.901 204.2 104.601 204.2 105.201V109.901H203V101.101H204.4L206.4 105.801C206.6 106.301 206.9 107.001 207 107.301C207.1 106.901 207.4 106.301 207.6 105.801L209.5 101.101H210.9V109.901H209.6Z" fill="black"/>
<path d="M217.4 106.601H215.1V109.901H213.8V101.101H217.5C219.1 101.101 220.3 102.001 220.3 103.901C220.3 105.701 219.1 106.601 217.4 106.601ZM217.5 102.301H215.1V105.301H217.5C218.5 105.301 219 104.701 219 103.801C219 102.901 218.4 102.301 217.5 102.301Z" fill="black"/>
<path d="M227.5 106.301L229.3 109.901H227.8L226 106.401H224V109.901H222.7V101.101H226.6C228.1 101.101 229.4 101.901 229.4 103.701C229.4 105.101 228.7 106.001 227.5 106.301ZM226.6 102.301H224V105.101H226.6C227.5 105.101 228.1 104.601 228.1 103.701C228.1 102.801 227.5 102.301 226.6 102.301Z" fill="black"/>
<path d="M232.1 109.901V101.101H237.8V102.401H233.4V104.501H235.9V105.801H233.4V108.601H238V109.901H232.1Z" fill="black"/>
<path d="M242.9 110.001C241.6 110.001 240.5 109.401 239.8 108.601L240.7 107.701C241.3 108.301 242.2 108.701 243 108.701C244.2 108.701 244.8 108.301 244.8 107.401C244.8 106.701 244.3 106.401 242.8 105.901C240.9 105.301 240 104.901 240 103.301C240 101.801 241.3 100.801 242.9 100.801C244.1 100.801 245 101.201 245.8 102.001L244.9 102.901C244.3 102.301 243.7 102.101 242.8 102.101C241.8 102.101 241.3 102.601 241.3 103.201C241.3 103.801 241.7 104.101 243.2 104.601C244.9 105.101 246 105.701 246 107.301C246.2 109.001 245.2 110.001 242.9 110.001Z" fill="black"/>
<path d="M254.3 109.901L253.6 107.801H250.1L249.4 109.901H248L251.2 101.101H252.6L255.8 109.901H254.3ZM252.5 104.601C252.3 104.001 251.9 102.901 251.8 102.601C251.7 103.001 251.4 104.001 251.2 104.601L250.5 106.601H253.2L252.5 104.601Z" fill="black"/>
<path d="M263.5 102.401V104.701H266V106.001H263.5V109.901H262.2V101.101H267.9V102.401H263.5Z" fill="black"/>
<path d="M270.2 109.901V101.101H275.8V102.401H271.5V104.501H274V105.801H271.5V108.601H276V109.901H270.2Z" fill="black"/>
<path d="M283.3 106.301L285.1 109.901H283.6L281.8 106.401H279.8V109.901H278.5V101.101H282.4C283.9 101.101 285.2 101.901 285.2 103.701C285.3 105.101 284.5 106.001 283.3 106.301ZM282.4 102.301H279.8V105.101H282.4C283.3 105.101 283.9 104.601 283.9 103.701C283.9 102.801 283.3 102.301 282.4 102.301Z" fill="black"/>
<path d="M292.7 106.301L294.5 109.901H293L291.2 106.401H289.2V109.901H287.9V101.101H291.8C293.3 101.101 294.6 101.901 294.6 103.701C294.7 105.101 293.9 106.001 292.7 106.301ZM291.8 102.301H289.2V105.101H291.8C292.7 105.101 293.3 104.601 293.3 103.701C293.3 102.801 292.7 102.301 291.8 102.301Z" fill="black"/>
<path d="M297.3 109.901V101.101H303V102.401H298.7V104.501H301.2V105.801H298.7V108.601H303.2V109.901H297.3Z" fill="black"/>
<path d="M309.3 106.401V109.901H308V106.401L304.8 101.101H306.4L307.8 103.501C308.1 104.001 308.6 104.901 308.7 105.301C308.9 105.001 309.3 104.101 309.6 103.601L311 101.201H312.5L309.3 106.401Z" fill="black"/>
<path d="M317.4 110.001C315.1 110.001 313.7 108.101 313.7 105.401C313.7 102.701 315.2 100.801 317.4 100.801C318.8 100.801 319.8 101.401 320.4 102.501L319.2 103.201C318.7 102.501 318.3 102.101 317.4 102.101C315.9 102.101 315 103.301 315 105.301C315 107.301 315.8 108.501 317.4 108.501C318.3 108.501 318.9 108.101 319.3 107.401L320.4 108.101C319.9 109.401 318.8 110.001 317.4 110.001Z" fill="black"/>
<path d="M326.1 110.001C323.8 110.001 322.4 108.101 322.4 105.401C322.4 102.701 323.8 100.801 326.1 100.801C328.4 100.801 329.8 102.701 329.8 105.401C329.8 108.201 328.3 110.001 326.1 110.001ZM326.1 102.301C324.6 102.301 323.7 103.501 323.7 105.501C323.7 107.501 324.5 108.701 326.1 108.701C327.7 108.701 328.5 107.501 328.5 105.501C328.5 103.501 327.6 102.301 326.1 102.301Z" fill="black"/>
<path d="M337.1 106.301L338.9 109.901H337.4L335.6 106.401H333.6V109.901H332.3V101.101H336.2C337.7 101.101 339 101.901 339 103.701C339 105.101 338.3 106.001 337.1 106.301ZM336.2 102.301H333.6V105.101H336.2C337.1 105.101 337.7 104.601 337.7 103.701C337.7 102.801 337.1 102.301 336.2 102.301Z" fill="black"/>
<path d="M345.3 106.601H343V109.901H341.7V101.101H345.4C347 101.101 348.2 102.001 348.2 103.901C348.2 105.701 347 106.601 345.3 106.601ZM345.4 102.301H343V105.301H345.4C346.4 105.301 346.9 104.701 346.9 103.801C346.9 102.901 346.3 102.301 345.4 102.301Z" fill="black"/>
<path d="M261.3 0.900391H0.699951V87.8004H261.3V0.900391Z" fill="#FBBC00"/>
<path d="M348.3 0.900391H261.4V87.8004H348.3V0.900391Z" fill="black"/>
<path d="M288.7 58.9002C290.3 57.5002 290.6 55.9002 290.6 54.3002V48.0002H281.7V56.6002C281.7 57.8002 280.7 58.8002 279.5 58.8002C278.3 58.8002 277.3 57.8002 277.3 56.6002V32.1002C277.3 30.9002 278.2 29.9002 279.5 29.9002C280.7 29.9002 281.7 30.9002 281.7 32.1002V40.8002H290.6V31.8002C290.6 26.8002 287.3 22.7002 279.4 22.7002C271.2 22.7002 268.1 26.8002 268.1 31.8002V57.3002C268.1 62.2002 272 66.0002 277.1 66.0002H279.9L288.7 58.9002Z" fill="white"/>
<path d="M323.9 59.9006V31.8006H317.7V23.6006H340V31.8006H333.8V66.0006H331.2L323.9 59.9006Z" fill="white"/>
<path d="M312.4 23.6006H300L292.8 55.9006L306.3 45.1006L320.4 56.8006L312.4 23.6006ZM303.8 43.0006L306.2 30.8006L308.6 43.0006H303.8Z" fill="white"/>
<path d="M341.7 25.8002C341.7 24.3002 342.9 23.2002 344.4 23.2002C345.9 23.2002 347.1 24.4002 347.1 25.8002C347.1 27.3002 345.9 28.4002 344.4 28.4002C342.9 28.5002 341.7 27.3002 341.7 25.8002ZM346.6 25.8002C346.6 24.6002 345.6 23.6002 344.4 23.6002C343.2 23.6002 342.2 24.6002 342.2 25.8002C342.2 27.0002 343.2 28.0002 344.4 28.0002C345.6 28.0002 346.6 27.0002 346.6 25.8002ZM343.8 26.0002V27.4002H343.3V24.3002H344.3C344.9 24.3002 345.5 24.5002 345.5 25.2002C345.5 25.6002 345.3 25.8002 344.9 25.9002C345.3 26.0002 345.4 26.2002 345.4 26.5002C345.4 26.8002 345.5 27.1002 345.6 27.4002H345C345 27.2002 344.9 27.0002 344.9 26.8002C344.9 26.5002 344.9 26.3002 344.7 26.1002C344.6 26.0002 344.4 26.0002 344.2 26.0002H343.8ZM344.3 25.5002C344.8 25.5002 344.9 25.3002 344.9 25.1002C344.9 24.9002 344.8 24.7002 344.4 24.7002H343.8V25.5002H344.3Z" fill="white"/>
<path fill-rule="evenodd" clip-rule="evenodd" d="M328.7 66.1006H282.9L306.1 47.6006L328.7 66.1006Z" fill="#FBBC00"/>
<path d="M179.3 34.4002H174.5H173.9L173.7 34.9002L170 44.7002L166.5 34.9002L166.3 34.3002H165.7H160.5H159.2L159.7 35.5002L166.7 52.4002C167 52.9002 166.9 53.7002 166.6 54.2002C166.4 54.6002 165.9 55.2002 164.8 55.2002C164 55.2002 163.6 55.1002 163.5 55.1002L162.2 54.4002V55.8002V59.4002V60.0002L162.8 60.2002C163.8 60.5002 165 60.6002 166 60.6002C169.4 60.6002 171 57.6002 172.7 53.8002L180 35.3002L180.4 34.2002H179.3V34.4002Z" fill="black"/>
<path d="M101.7 48.3004H87.5C87.5 51.2004 89.4 53.8004 93.5 53.8004C96 53.8004 98.5 52.9004 100.3 51.9004L100.4 57.4004C98 58.3004 95.3 58.8004 92.8 58.8004C84.3 58.8004 80.6 53.7004 80.6 46.3004C80.6 39.8004 84.4 33.9004 91.3 33.9004C93.5 33.9004 101.8 33.9004 101.8 46.5004V48.3004H101.7ZM95.1 44.3004C95.1 41.2004 94.3 38.4004 91.3 38.4004C87.5 38.4004 87.5 43.0004 87.5 44.3004H95.1Z" fill="black"/>
<path d="M104.7 39.4C104.7 37.1 104.7 35.6 104.5 34.4H111.2C111.2 35.8 111.3 37.3 111.4 38.7H111.5C113 36.1 114 34 118.2 34H119.3V40.8C118.5 40.6 117.9 40.5 116.8 40.5C112.5 40.5 112 44.2 112 47.7V58.5H104.7V39.4Z" fill="black"/>
<path d="M122.2 39.4C122.2 37.1 122.2 35.6 122 34.4H128.7C128.7 35.8 128.8 37.3 128.9 38.7H129C130.5 36.1 131.5 34 135.7 34H136.8V40.8C136 40.6 135.4 40.5 134.3 40.5C130 40.5 129.5 44.2 129.5 47.7V58.5H122.2V39.4Z" fill="black"/>
<path d="M159 48.3004H144.8C144.8 51.2004 146.7 53.8004 150.8 53.8004C153.3 53.8004 155.8 52.9004 157.6 51.9004L157.7 57.4004C155.3 58.3004 152.6 58.8004 150 58.8004C141.5 58.8004 137.8 53.7004 137.8 46.3004C137.8 39.8004 141.6 33.9004 148.5 33.9004C150.7 33.9004 159 33.9004 159 46.5004V48.3004ZM152.4 44.3004C152.4 41.2004 151.6 38.4004 148.6 38.4004C144.8 38.4004 144.8 43.0004 144.8 44.3004H152.4Z" fill="black"/>
<path d="M182.8 39.4C182.8 37.1 182.8 35.6 182.6 34.4H189.3C189.3 35.8 189.5 37.3 189.5 38.7H189.6C191.1 36.1 192.1 34 196.3 34H197.4V40.8C196.6 40.6 196 40.5 194.9 40.5C190.6 40.5 190.1 44.2 190.1 47.7V58.5H182.8V39.4Z" fill="black"/>
<path d="M209.5 33.9004C216.9 33.9004 220.9 39.1004 220.9 46.3004C220.9 53.6004 217 58.8004 209.5 58.8004C202.1 58.8004 198.1 53.6004 198.1 46.3004C198.1 39.1004 202.1 33.9004 209.5 33.9004ZM209.5 53.8004C212.1 53.8004 213.3 51.0004 213.3 46.3004C213.3 41.6004 212.1 38.9004 209.5 38.9004C206.9 38.9004 205.7 41.5004 205.7 46.3004C205.7 51.1004 206.9 53.8004 209.5 53.8004Z" fill="black"/>
<path d="M238.2 40.4C236.2 39.6 234.4 39.1 232.3 39.1C230.4 39.1 229.6 40 229.6 40.9C229.6 42.4 230.7 42.9 234.7 44.4C237.2 45.3 239.7 46.9 239.7 51.4C239.7 56.8 235.7 58.9 230.8 58.9C228.7 58.9 225.4 58.7 222.9 57.8L223 52C224.8 53.1 227 53.7 229 53.7C232.4 53.7 232.7 52.5 232.7 51.4C232.7 50.3 230.8 49.9 227.6 48.6C225 47.5 222.5 45.5 222.5 41.2C222.5 38.6 224.3 34 231.5 34C234.5 34 237 34.6 238.2 35V40.4Z" fill="black"/>
<path d="M78.2 25.3008H56V39.2008H44.2V48.3008H56V60.0008H65.9V48.3008H78.2V39.2008H65.9V34.4008H78.2V25.3008Z" fill="black"/>
</svg>
