<svg width="353" height="112" viewBox="0 0 353 112" fill="none" xmlns="http://www.w3.org/2000/svg">
<path d="M263.3 2.90039H2.69995V89.8004H263.3V2.90039Z" stroke="white" stroke-width="4" stroke-miterlimit="10"/>
<path d="M350.3 2.90039H263.4V89.8004H350.3V2.90039Z" stroke="white" stroke-width="4" stroke-miterlimit="10"/>
<path d="M167 112C164.8 112 163.7 110.6 163.7 108.1V103H165V108.1C165 109.8 165.7 110.7 167 110.7C168.4 110.7 169 109.8 169 108.2V103H170.3V108.2C170.4 110.7 169.2 112 167 112Z" fill="white"/>
<path d="M178.7 111.9L175.2 106.4C175 106.1 174.7 105.5 174.5 105.3C174.5 105.6 174.5 106.9 174.5 107.3V111.9H173.2V103.1H174.6L178 108.5C178.2 108.9 178.6 109.5 178.7 109.7C178.7 109.4 178.7 108.1 178.7 107.6V103H180V111.8H178.7V111.9Z" fill="white"/>
<path d="M188.7 111.901L187.9 109.801H184.4L183.7 111.901H182.3L185.5 103.101H186.9L190.1 111.901H188.7ZM186.9 106.601C186.7 106.001 186.3 104.901 186.2 104.601C186.1 105.001 185.8 106.001 185.6 106.601L184.9 108.601H187.6L186.9 106.601Z" fill="white"/>
<path d="M196.6 111.901V103.101H202.3V104.401H197.9V106.501H200.4V107.801H197.9V110.601H202.5V111.901H196.6Z" fill="white"/>
<path d="M211.6 111.901V107.201C211.6 106.701 211.6 105.901 211.6 105.601C211.5 105.901 211.2 106.501 211 107.001L208.9 112.001L206.8 107.001C206.6 106.501 206.3 105.901 206.2 105.601C206.2 105.901 206.2 106.601 206.2 107.201V111.901H205V103.101H206.4L208.4 107.801C208.6 108.301 208.9 109.001 209 109.301C209.1 108.901 209.4 108.301 209.6 107.801L211.5 103.101H212.9V111.901H211.6Z" fill="white"/>
<path d="M219.4 108.601H217.1V111.901H215.8V103.101H219.5C221.1 103.101 222.3 104.001 222.3 105.901C222.3 107.701 221.1 108.601 219.4 108.601ZM219.5 104.301H217.1V107.301H219.5C220.5 107.301 221 106.701 221 105.801C221 104.901 220.4 104.301 219.5 104.301Z" fill="white"/>
<path d="M229.5 108.301L231.3 111.901H229.8L228 108.401H226V111.901H224.7V103.101H228.6C230.1 103.101 231.4 103.901 231.4 105.701C231.4 107.101 230.7 108.001 229.5 108.301ZM228.6 104.301H226V107.101H228.6C229.5 107.101 230.1 106.601 230.1 105.701C230.1 104.801 229.5 104.301 228.6 104.301Z" fill="white"/>
<path d="M234.1 111.901V103.101H239.8V104.401H235.4V106.501H237.9V107.801H235.4V110.601H240V111.901H234.1Z" fill="white"/>
<path d="M244.9 112.001C243.6 112.001 242.5 111.401 241.8 110.601L242.7 109.701C243.3 110.301 244.2 110.701 245 110.701C246.2 110.701 246.8 110.301 246.8 109.401C246.8 108.701 246.3 108.401 244.8 107.901C242.9 107.301 242 106.901 242 105.301C242 103.801 243.3 102.801 244.9 102.801C246.1 102.801 247 103.201 247.8 104.001L246.9 104.901C246.3 104.301 245.7 104.101 244.8 104.101C243.8 104.101 243.3 104.601 243.3 105.201C243.3 105.801 243.7 106.101 245.2 106.601C246.9 107.101 248 107.701 248 109.301C248.2 111.001 247.2 112.001 244.9 112.001Z" fill="white"/>
<path d="M256.3 111.901L255.6 109.801H252.1L251.4 111.901H250L253.2 103.101H254.6L257.8 111.901H256.3ZM254.5 106.601C254.3 106.001 253.9 104.901 253.8 104.601C253.7 105.001 253.4 106.001 253.2 106.601L252.5 108.601H255.2L254.5 106.601Z" fill="white"/>
<path d="M265.5 104.401V106.701H268V108.001H265.5V111.901H264.2V103.101H269.9V104.401H265.5Z" fill="white"/>
<path d="M272.2 111.901V103.101H277.8V104.401H273.5V106.501H276V107.801H273.5V110.601H278V111.901H272.2Z" fill="white"/>
<path d="M285.3 108.301L287.1 111.901H285.6L283.8 108.401H281.8V111.901H280.5V103.101H284.4C285.9 103.101 287.2 103.901 287.2 105.701C287.3 107.101 286.5 108.001 285.3 108.301ZM284.4 104.301H281.8V107.101H284.4C285.3 107.101 285.9 106.601 285.9 105.701C285.9 104.801 285.3 104.301 284.4 104.301Z" fill="white"/>
<path d="M294.7 108.301L296.5 111.901H295L293.2 108.401H291.2V111.901H289.9V103.101H293.8C295.3 103.101 296.6 103.901 296.6 105.701C296.7 107.101 295.9 108.001 294.7 108.301ZM293.8 104.301H291.2V107.101H293.8C294.7 107.101 295.3 106.601 295.3 105.701C295.3 104.801 294.7 104.301 293.8 104.301Z" fill="white"/>
<path d="M299.3 111.901V103.101H305V104.401H300.7V106.501H303.2V107.801H300.7V110.601H305.2V111.901H299.3Z" fill="white"/>
<path d="M311.3 108.401V111.901H310V108.401L306.8 103.101H308.4L309.8 105.501C310.1 106.001 310.6 106.901 310.7 107.301C310.9 107.001 311.3 106.101 311.6 105.601L313 103.201H314.5L311.3 108.401Z" fill="white"/>
<path d="M319.4 112.001C317.1 112.001 315.7 110.101 315.7 107.401C315.7 104.701 317.2 102.801 319.4 102.801C320.8 102.801 321.8 103.401 322.4 104.501L321.2 105.201C320.7 104.501 320.3 104.101 319.4 104.101C317.9 104.101 317 105.301 317 107.301C317 109.301 317.8 110.501 319.4 110.501C320.3 110.501 320.9 110.101 321.3 109.401L322.4 110.101C321.9 111.401 320.8 112.001 319.4 112.001Z" fill="white"/>
<path d="M328.1 112.001C325.8 112.001 324.4 110.101 324.4 107.401C324.4 104.701 325.8 102.801 328.1 102.801C330.4 102.801 331.8 104.701 331.8 107.401C331.8 110.201 330.3 112.001 328.1 112.001ZM328.1 104.301C326.6 104.301 325.7 105.501 325.7 107.501C325.7 109.501 326.5 110.701 328.1 110.701C329.7 110.701 330.5 109.501 330.5 107.501C330.5 105.501 329.6 104.301 328.1 104.301Z" fill="white"/>
<path d="M339.1 108.301L340.9 111.901H339.4L337.6 108.401H335.6V111.901H334.3V103.101H338.2C339.7 103.101 341 103.901 341 105.701C341 107.101 340.3 108.001 339.1 108.301ZM338.2 104.301H335.6V107.101H338.2C339.1 107.101 339.7 106.601 339.7 105.701C339.7 104.801 339.1 104.301 338.2 104.301Z" fill="white"/>
<path d="M347.3 108.601H345V111.901H343.7V103.101H347.4C349 103.101 350.2 104.001 350.2 105.901C350.2 107.701 349 108.601 347.3 108.601ZM347.4 104.301H345V107.301H347.4C348.4 107.301 348.9 106.701 348.9 105.801C348.9 104.901 348.3 104.301 347.4 104.301Z" fill="white"/>
<path d="M263.3 2.90039H2.69995V89.8004H263.3V2.90039Z" fill="#FBBC00"/>
<path d="M350.3 2.90039H263.4V89.8004H350.3V2.90039Z" fill="black"/>
<path d="M290.7 60.9002C292.3 59.5002 292.6 57.9002 292.6 56.3002V50.0002H283.7V58.6002C283.7 59.8002 282.7 60.8002 281.5 60.8002C280.3 60.8002 279.3 59.8002 279.3 58.6002V34.1002C279.3 32.9002 280.2 31.9002 281.5 31.9002C282.7 31.9002 283.7 32.9002 283.7 34.1002V42.8002H292.6V33.8002C292.6 28.8002 289.3 24.7002 281.4 24.7002C273.2 24.7002 270.1 28.8002 270.1 33.8002V59.3002C270.1 64.2002 274 68.0002 279.1 68.0002H281.9L290.7 60.9002Z" fill="white"/>
<path d="M325.9 61.9006V33.8006H319.7V25.6006H342V33.8006H335.8V68.0006H333.2L325.9 61.9006Z" fill="white"/>
<path d="M314.4 25.6006H302L294.8 57.9006L308.3 47.1006L322.4 58.8006L314.4 25.6006ZM305.8 45.0006L308.2 32.8006L310.6 45.0006H305.8Z" fill="white"/>
<path d="M343.7 27.8002C343.7 26.3002 344.9 25.2002 346.4 25.2002C347.9 25.2002 349.1 26.4002 349.1 27.8002C349.1 29.3002 347.9 30.4002 346.4 30.4002C344.9 30.5002 343.7 29.3002 343.7 27.8002ZM348.6 27.8002C348.6 26.6002 347.6 25.6002 346.4 25.6002C345.2 25.6002 344.2 26.6002 344.2 27.8002C344.2 29.0002 345.2 30.0002 346.4 30.0002C347.6 30.0002 348.6 29.0002 348.6 27.8002ZM345.8 28.0002V29.4002H345.3V26.3002H346.3C346.9 26.3002 347.5 26.5002 347.5 27.2002C347.5 27.6002 347.3 27.8002 346.9 27.9002C347.3 28.0002 347.4 28.2002 347.4 28.5002C347.4 28.8002 347.5 29.1002 347.6 29.4002H347C347 29.2002 346.9 29.0002 346.9 28.8002C346.9 28.5002 346.9 28.3002 346.7 28.1002C346.6 28.0002 346.4 28.0002 346.2 28.0002H345.8ZM346.3 27.5002C346.8 27.5002 346.9 27.3002 346.9 27.1002C346.9 26.9002 346.8 26.7002 346.4 26.7002H345.8V27.5002H346.3Z" fill="white"/>
<path fill-rule="evenodd" clip-rule="evenodd" d="M330.7 68.1006H284.9L308.1 49.6006L330.7 68.1006Z" fill="#FBBC00"/>
<path d="M181.3 36.4002H176.5H175.9L175.7 36.9002L172 46.7002L168.5 36.9002L168.3 36.3002H167.7H162.5H161.2L161.7 37.5002L168.7 54.4002C169 54.9002 168.9 55.7002 168.6 56.2002C168.4 56.6002 167.9 57.2002 166.8 57.2002C166 57.2002 165.6 57.1002 165.5 57.1002L164.2 56.4002V57.8002V61.4002V62.0002L164.8 62.2002C165.8 62.5002 167 62.6002 168 62.6002C171.4 62.6002 173 59.6002 174.7 55.8002L182 37.3002L182.4 36.2002H181.3V36.4002Z" fill="black"/>
<path d="M103.7 50.3004H89.5C89.5 53.2004 91.4 55.8004 95.5 55.8004C98 55.8004 100.5 54.9004 102.3 53.9004L102.4 59.4004C100 60.3004 97.3 60.8004 94.8 60.8004C86.3 60.8004 82.6 55.7004 82.6 48.3004C82.6 41.8004 86.4 35.9004 93.3 35.9004C95.5 35.9004 103.8 35.9004 103.8 48.5004V50.3004H103.7ZM97.1 46.3004C97.1 43.2004 96.3 40.4004 93.3 40.4004C89.5 40.4004 89.5 45.0004 89.5 46.3004H97.1Z" fill="black"/>
<path d="M106.7 41.4C106.7 39.1 106.7 37.6 106.5 36.4H113.2C113.2 37.8 113.3 39.3 113.4 40.7H113.5C115 38.1 116 36 120.2 36H121.3V42.8C120.5 42.6 119.9 42.5 118.8 42.5C114.5 42.5 114 46.2 114 49.7V60.5H106.7V41.4Z" fill="black"/>
<path d="M124.2 41.4C124.2 39.1 124.2 37.6 124 36.4H130.7C130.7 37.8 130.8 39.3 130.9 40.7H131C132.5 38.1 133.5 36 137.7 36H138.8V42.8C138 42.6 137.4 42.5 136.3 42.5C132 42.5 131.5 46.2 131.5 49.7V60.5H124.2V41.4Z" fill="black"/>
<path d="M161 50.3004H146.8C146.8 53.2004 148.7 55.8004 152.8 55.8004C155.3 55.8004 157.8 54.9004 159.6 53.9004L159.7 59.4004C157.3 60.3004 154.6 60.8004 152 60.8004C143.5 60.8004 139.8 55.7004 139.8 48.3004C139.8 41.8004 143.6 35.9004 150.5 35.9004C152.7 35.9004 161 35.9004 161 48.5004V50.3004ZM154.4 46.3004C154.4 43.2004 153.6 40.4004 150.6 40.4004C146.8 40.4004 146.8 45.0004 146.8 46.3004H154.4Z" fill="black"/>
<path d="M184.8 41.4C184.8 39.1 184.8 37.6 184.6 36.4H191.3C191.3 37.8 191.5 39.3 191.5 40.7H191.6C193.1 38.1 194.1 36 198.3 36H199.4V42.8C198.6 42.6 198 42.5 196.9 42.5C192.6 42.5 192.1 46.2 192.1 49.7V60.5H184.8V41.4Z" fill="black"/>
<path d="M211.5 35.9004C218.9 35.9004 222.9 41.1004 222.9 48.3004C222.9 55.6004 219 60.8004 211.5 60.8004C204.1 60.8004 200.1 55.6004 200.1 48.3004C200.1 41.1004 204.1 35.9004 211.5 35.9004ZM211.5 55.8004C214.1 55.8004 215.3 53.0004 215.3 48.3004C215.3 43.6004 214.1 40.9004 211.5 40.9004C208.9 40.9004 207.7 43.5004 207.7 48.3004C207.7 53.1004 208.9 55.8004 211.5 55.8004Z" fill="black"/>
<path d="M240.2 42.4C238.2 41.6 236.4 41.1 234.3 41.1C232.4 41.1 231.6 42 231.6 42.9C231.6 44.4 232.7 44.9 236.7 46.4C239.2 47.3 241.7 48.9 241.7 53.4C241.7 58.8 237.7 60.9 232.8 60.9C230.7 60.9 227.4 60.7 224.9 59.8L225 54C226.8 55.1 229 55.7 231 55.7C234.4 55.7 234.7 54.5 234.7 53.4C234.7 52.3 232.8 51.9 229.6 50.6C227 49.5 224.5 47.5 224.5 43.2C224.5 40.6 226.3 36 233.5 36C236.5 36 239 36.6 240.2 37V42.4Z" fill="black"/>
<path d="M80.2 27.3008H58V41.2008H46.2V50.3008H58V62.0008H67.9V50.3008H80.2V41.2008H67.9V36.4008H80.2V27.3008Z" fill="black"/>
</svg>
