<svg width="353" height="112" fill="none" xmlns="http://www.w3.org/2000/svg" viewBox="0 0 353 112"><path d="M263.3 2.9H2.7v86.9h260.6V2.9zM350.3 2.9h-86.9v86.9h86.9V2.9z" stroke="#fff" stroke-width="4" stroke-miterlimit="10"/><path d="M167 112c-2.2 0-3.3-1.4-3.3-3.9V103h1.3v5.1c0 1.7.7 2.6 2 2.6 1.4 0 2-.9 2-2.5V103h1.3v5.2c.1 2.5-1.1 3.8-3.3 3.8zM178.7 111.9l-3.5-5.5c-.2-.3-.5-.9-.7-1.1v6.6h-1.3v-8.8h1.4l3.4 5.4c.2.4.6 1 .7 1.2V103h1.3v8.8h-1.3v.1zM188.7 111.901l-.8-2.1h-3.5l-.7 2.1h-1.4l3.2-8.8h1.4l3.2 8.8h-1.4zm-1.8-5.3c-.2-.6-.6-1.7-.7-2-.1.4-.4 1.4-.6 2l-.7 2h2.7l-.7-2zM196.6 111.901v-8.8h5.7v1.3h-4.4v2.1h2.5v1.3h-2.5v2.8h4.6v1.3h-5.9zM211.6 111.901v-4.7-1.6c-.1.3-.4.9-.6 1.4l-2.1 5-2.1-5c-.2-.5-.5-1.1-.6-1.4V111.901H205v-8.8h1.4l2 4.7c.2.5.5 1.2.6 1.5.1-.4.4-1 .6-1.5l1.9-4.7h1.4v8.8h-1.3zM219.4 108.601h-2.3v3.3h-1.3v-8.8h3.7c1.6 0 2.8.9 2.8 2.8 0 1.8-1.2 2.7-2.9 2.7zm.1-4.3h-2.4v3h2.4c1 0 1.5-.6 1.5-1.5s-.6-1.5-1.5-1.5zM229.5 108.301l1.8 3.6h-1.5l-1.8-3.5h-2v3.5h-1.3v-8.8h3.9c1.5 0 2.8.8 2.8 2.6 0 1.4-.7 2.3-1.9 2.6zm-.9-4H226v2.8h2.6c.9 0 1.5-.5 1.5-1.4 0-.9-.6-1.4-1.5-1.4zM234.1 111.901v-8.8h5.7v1.3h-4.4v2.1h2.5v1.3h-2.5v2.8h4.6v1.3h-5.9zM244.9 112.001c-1.3 0-2.4-.6-3.1-1.4l.9-.9c.6.6 1.5 1 2.3 1 1.2 0 1.8-.4 1.8-1.3 0-.7-.5-1-2-1.5-1.9-.6-2.8-1-2.8-2.6 0-1.5 1.3-2.5 2.9-2.5 1.2 0 2.1.4 2.9 1.2l-.9.9c-.6-.6-1.2-.8-2.1-.8-1 0-1.5.5-1.5 1.1 0 .6.4.9 1.9 1.4 1.7.5 2.8 1.1 2.8 2.7.2 1.7-.8 2.7-3.1 2.7zM256.3 111.901l-.7-2.1h-3.5l-.7 2.1H250l3.2-8.8h1.4l3.2 8.8h-1.5zm-1.8-5.3c-.2-.6-.6-1.7-.7-2-.1.4-.4 1.4-.6 2l-.7 2h2.7l-.7-2zM265.5 104.401v2.3h2.5v1.3h-2.5v3.9h-1.3v-8.8h5.7v1.3h-4.4zM272.2 111.901v-8.8h5.6v1.3h-4.3v2.1h2.5v1.3h-2.5v2.8h4.5v1.3h-5.8zM285.3 108.301l1.8 3.6h-1.5l-1.8-3.5h-2v3.5h-1.3v-8.8h3.9c1.5 0 2.8.8 2.8 2.6.1 1.4-.7 2.3-1.9 2.6zm-.9-4h-2.6v2.8h2.6c.9 0 1.5-.5 1.5-1.4 0-.9-.6-1.4-1.5-1.4zM294.7 108.301l1.8 3.6H295l-1.8-3.5h-2v3.5h-1.3v-8.8h3.9c1.5 0 2.8.8 2.8 2.6.1 1.4-.7 2.3-1.9 2.6zm-.9-4h-2.6v2.8h2.6c.9 0 1.5-.5 1.5-1.4 0-.9-.6-1.4-1.5-1.4zM299.3 111.901v-8.8h5.7v1.3h-4.3v2.1h2.5v1.3h-2.5v2.8h4.5v1.3h-5.9zM311.3 108.401v3.5H310v-3.5l-3.2-5.3h1.6l1.4 2.4c.3.5.8 1.4.9 1.8.2-.3.6-1.2.9-1.7l1.4-2.4h1.5l-3.2 5.2zM319.4 112.001c-2.3 0-3.7-1.9-3.7-4.6 0-2.7 1.5-4.6 3.7-4.6 1.4 0 2.4.6 3 1.7l-1.2.7c-.5-.7-.9-1.1-1.8-1.1-1.5 0-2.4 1.2-2.4 3.2s.8 3.2 2.4 3.2c.9 0 1.5-.4 1.9-1.1l1.1.7c-.5 1.3-1.6 1.9-3 1.9zM328.1 112.001c-2.3 0-3.7-1.9-3.7-4.6 0-2.7 1.4-4.6 3.7-4.6 2.3 0 3.7 1.9 3.7 4.6 0 2.8-1.5 4.6-3.7 4.6zm0-7.7c-1.5 0-2.4 1.2-2.4 3.2s.8 3.2 2.4 3.2c1.6 0 2.4-1.2 2.4-3.2s-.9-3.2-2.4-3.2zM339.1 108.301l1.8 3.6h-1.5l-1.8-3.5h-2v3.5h-1.3v-8.8h3.9c1.5 0 2.8.8 2.8 2.6 0 1.4-.7 2.3-1.9 2.6zm-.9-4h-2.6v2.8h2.6c.9 0 1.5-.5 1.5-1.4 0-.9-.6-1.4-1.5-1.4zM347.3 108.601H345v3.3h-1.3v-8.8h3.7c1.6 0 2.8.9 2.8 2.8 0 1.8-1.2 2.7-2.9 2.7zm.1-4.3H345v3h2.4c1 0 1.5-.6 1.5-1.5s-.6-1.5-1.5-1.5z" fill="#fff"/><path d="M263.3 2.9H2.7v86.9h260.6V2.9z" fill="#FBBC00"/><path d="M350.3 2.9h-86.9v86.9h86.9V2.9z" fill="#000"/><path d="M290.7 60.9c1.6-1.4 1.9-3 1.9-4.6V50h-8.9v8.6c0 1.2-1 2.2-2.2 2.2-1.2 0-2.2-1-2.2-2.2V34.1c0-1.2.9-2.2 2.2-2.2 1.2 0 2.2 1 2.2 2.2v8.7h8.9v-9c0-5-3.3-9.1-11.2-9.1-8.2 0-11.3 4.1-11.3 9.1v25.5c0 4.9 3.9 8.7 9 8.7h2.8l8.8-7.1zM325.9 61.9V33.8h-6.2v-8.2H342v8.2h-6.2V68h-2.6l-7.3-6.1zM314.4 25.6H302l-7.2 32.3 13.5-10.8 14.1 11.7-8-33.2zM305.8 45l2.4-12.2 2.4 12.2h-4.8zM343.7 27.8c0-1.5 1.2-2.6 2.7-2.6 1.5 0 2.7 1.2 2.7 2.6 0 1.5-1.2 2.6-2.7 2.6-1.5.1-2.7-1.1-2.7-2.6zm4.9 0c0-1.2-1-2.2-2.2-2.2-1.2 0-2.2 1-2.2 2.2 0 1.2 1 2.2 2.2 2.2 1.2 0 2.2-1 2.2-2.2zm-2.8.2v1.4h-.5v-3.1h1c.6 0 1.2.2 1.2.9 0 .4-.2.6-.6.7.4.1.5.3.5.6s.1.6.2.9h-.6c0-.2-.1-.4-.1-.6 0-.3 0-.5-.2-.7-.1-.1-.3-.1-.5-.1h-.4zm.5-.5c.5 0 .6-.2.6-.4s-.1-.4-.5-.4h-.6v.8h.5z" fill="#fff"/><path fill-rule="evenodd" clip-rule="evenodd" d="M330.7 68.1h-45.8l23.2-18.5 22.6 18.5z" fill="#FBBC00"/><path d="M181.3 36.4H175.9l-.2.5-3.7 9.8-3.5-9.8-.2-.6h-7.1l.5 1.2 7 16.9c.3.5.2 1.3-.1 1.8-.2.4-.7 1-1.8 1-.8 0-1.2-.1-1.3-.1l-1.3-.7V62l.6.2c1 .3 2.2.4 3.2.4 3.4 0 5-3 6.7-6.8l7.3-18.5.4-1.1h-1.1v.2zM103.7 50.3H89.5c0 2.9 1.9 5.5 6 5.5 2.5 0 5-.9 6.8-1.9l.1 5.5c-2.4.9-5.1 1.4-7.6 1.4-8.5 0-12.2-5.1-12.2-12.5 0-6.5 3.8-12.4 10.7-12.4 2.2 0 10.5 0 10.5 12.6v1.8h-.1zm-6.6-4c0-3.1-.8-5.9-3.8-5.9-3.8 0-3.8 4.6-3.8 5.9h7.6zM106.7 41.4c0-2.3 0-3.8-.2-5h6.7c0 1.4.1 2.9.2 4.3h.1c1.5-2.6 2.5-4.7 6.7-4.7h1.1v6.8c-.8-.2-1.4-.3-2.5-.3-4.3 0-4.8 3.7-4.8 7.2v10.8h-7.3V41.4zM124.2 41.4c0-2.3 0-3.8-.2-5h6.7c0 1.4.1 2.9.2 4.3h.1c1.5-2.6 2.5-4.7 6.7-4.7h1.1v6.8c-.8-.2-1.4-.3-2.5-.3-4.3 0-4.8 3.7-4.8 7.2v10.8h-7.3V41.4zM161 50.3h-14.2c0 2.9 1.9 5.5 6 5.5 2.5 0 5-.9 6.8-1.9l.1 5.5c-2.4.9-5.1 1.4-7.7 1.4-8.5 0-12.2-5.1-12.2-12.5 0-6.5 3.8-12.4 10.7-12.4 2.2 0 10.5 0 10.5 12.6v1.8zm-6.6-4c0-3.1-.8-5.9-3.8-5.9-3.8 0-3.8 4.6-3.8 5.9h7.6zM184.8 41.4c0-2.3 0-3.8-.2-5h6.7c0 1.4.2 2.9.2 4.3h.1c1.5-2.6 2.5-4.7 6.7-4.7h1.1v6.8c-.8-.2-1.4-.3-2.5-.3-4.3 0-4.8 3.7-4.8 7.2v10.8h-7.3V41.4zM211.5 35.9c7.4 0 11.4 5.2 11.4 12.4 0 7.3-3.9 12.5-11.4 12.5-7.4 0-11.4-5.2-11.4-12.5 0-7.2 4-12.4 11.4-12.4zm0 19.9c2.6 0 3.8-2.8 3.8-7.5s-1.2-7.4-3.8-7.4c-2.6 0-3.8 2.6-3.8 7.4 0 4.8 1.2 7.5 3.8 7.5zM240.2 42.4c-2-.8-3.8-1.3-5.9-1.3-1.9 0-2.7.9-2.7 1.8 0 1.5 1.1 2 5.1 3.5 2.5.9 5 2.5 5 7 0 5.4-4 7.5-8.9 7.5-2.1 0-5.4-.2-7.9-1.1l.1-5.8c1.8 1.1 4 1.7 6 1.7 3.4 0 3.7-1.2 3.7-2.3 0-1.1-1.9-1.5-5.1-2.8-2.6-1.1-5.1-3.1-5.1-7.4 0-2.6 1.8-7.2 9-7.2 3 0 5.5.6 6.7 1v5.4zM80.2 27.3H58v13.9H46.2v9.1H58V62h9.9V50.3h12.3v-9.1H67.9v-4.8h12.3v-9.1z" fill="#000"/></svg>