<svg width="24" height="24" viewBox="0 0 24 24" fill="none" xmlns="http://www.w3.org/2000/svg">
<path d="M17 13.1838V9.99977C17 9.73455 16.8946 9.4802 16.7071 9.29266C16.5196 9.10512 16.2652 8.99977 16 8.99977V2.41377C16.0001 2.00248 15.8949 1.598 15.6946 1.23878C15.4943 0.879563 15.2055 0.577531 14.8556 0.361387C14.5056 0.145243 14.1063 0.0221678 13.6954 0.00385679C13.2845 -0.0144542 12.8758 0.0726071 12.508 0.256768L9.886 1.56677C9.3182 1.84914 8.84069 2.28468 8.50741 2.82418C8.17414 3.36368 7.99838 3.98563 8 4.61977V8.99977C7.73478 8.99977 7.48043 9.10512 7.29289 9.29266C7.10536 9.4802 7 9.73455 7 9.99977V13.1838C6.41709 13.3899 5.91209 13.771 5.55409 14.2751C5.19608 14.7791 5.00256 15.3815 5 15.9998V18.9998C5.00159 20.3254 5.52888 21.5962 6.46622 22.5335C7.40356 23.4709 8.67441 23.9982 10 23.9998H14C15.3256 23.9982 16.5964 23.4709 17.5338 22.5335C18.4711 21.5962 18.9984 20.3254 19 18.9998V15.9998C18.9974 15.3815 18.8039 14.7791 18.4459 14.2751C18.0879 13.771 17.5829 13.3899 17 13.1838ZM9 12.9998V10.9998H15V12.9998H9ZM10 4.61977C9.99927 4.35719 10.072 4.09965 10.21 3.87627C10.3481 3.65289 10.5458 3.47259 10.781 3.35577L13.4 2.04577C13.4629 2.0132 13.5331 1.99744 13.6039 2C13.6746 2.00256 13.7435 2.02335 13.8039 2.06038C13.8643 2.0974 13.914 2.14939 13.9484 2.2113C13.9827 2.27322 14.0005 2.34296 14 2.41377V8.99977H10V4.61977ZM17 18.9998C17 19.7954 16.6839 20.5585 16.1213 21.1211C15.5587 21.6837 14.7956 21.9998 14 21.9998H10C9.20435 21.9998 8.44129 21.6837 7.87868 21.1211C7.31607 20.5585 7 19.7954 7 18.9998V15.9998C7 15.7346 7.10536 15.4802 7.29289 15.2927C7.48043 15.1051 7.73478 14.9998 8 14.9998H16C16.2652 14.9998 16.5196 15.1051 16.7071 15.2927C16.8946 15.4802 17 15.7346 17 15.9998V18.9998Z" fill="black"/>
</svg>
