<svg width="24" height="24" viewBox="0 0 24 24" fill="none" xmlns="http://www.w3.org/2000/svg">
<path d="M23.229 0.771121C22.7564 0.300927 22.1234 0.0271545 21.4571 0.00489044C20.7908 -0.0173736 20.1409 0.213523 19.638 0.651121L5.472 13.1331C3.137 13.5731 0 14.8741 0 17.6001C0.00185286 19.2969 0.676732 20.9237 1.87656 22.1236C3.07639 23.3234 4.70318 23.9983 6.4 24.0001C9.125 24.0001 10.427 20.8641 10.867 18.5291L23.352 4.35812C23.7887 3.85541 24.0188 3.20595 23.996 2.54043C23.9732 1.87491 23.6991 1.24273 23.229 0.771121ZM10.141 16.3271L7.673 13.8591L9.678 12.0921L11.908 14.3221L10.141 16.3271ZM6.4 22.0001C5.23345 21.9988 4.11507 21.5348 3.29019 20.7099C2.46532 19.8851 2.00132 18.7667 2 17.6001C2 16.0921 4.639 15.3131 6.049 15.0631L8.937 17.9501C8.686 19.3611 7.908 22.0001 6.4 22.0001ZM21.849 3.04012L13.233 12.8181L11.181 10.7671L20.956 2.15412C21.0764 2.05083 21.2312 1.99665 21.3897 2.00238C21.5482 2.00811 21.6988 2.07332 21.8114 2.18503C21.924 2.29674 21.9904 2.44676 21.9973 2.60522C22.0043 2.76367 21.9513 2.91895 21.849 3.04012Z" fill="black"/>
</svg>
