<svg width="24" height="24" viewBox="0 0 24 24" fill="none" xmlns="http://www.w3.org/2000/svg">
<g clip-path="url(#clip0)">
<path d="M13.8448 17.267L10.5828 20.529C9.6357 21.4507 8.36379 21.9625 7.04222 21.9537C5.72066 21.9448 4.45572 21.416 3.52109 20.4816C2.58645 19.5473 2.05727 18.2825 2.04804 16.9609C2.03881 15.6393 2.55028 14.3673 3.47178 13.42L6.73378 10.155C6.92128 9.96732 7.02657 9.71287 7.02648 9.4476C7.02638 9.18233 6.92092 8.92796 6.73328 8.74046C6.54564 8.55295 6.29119 8.44766 6.02592 8.44775C5.76065 8.44785 5.50628 8.55332 5.31878 8.74096L2.05778 12.006C0.740048 13.3243 1.96491e-05 15.1122 0.000488504 16.9762C0.000957359 18.8402 0.741885 20.6277 2.06028 21.9455C3.37867 23.2632 5.16653 24.0032 7.03054 24.0027C8.89456 24.0023 10.682 23.2613 11.9998 21.943L15.2618 18.681C15.4439 18.4924 15.5447 18.2398 15.5424 17.9776C15.5402 17.7154 15.435 17.4645 15.2496 17.2791C15.0642 17.0937 14.8134 16.9886 14.5512 16.9863C14.289 16.984 14.0364 17.0848 13.8478 17.267H13.8448Z" fill="black"/>
<path d="M21.944 2.06102C21.2933 1.40584 20.519 0.886303 19.666 0.532521C18.8131 0.178738 17.8984 -0.00225646 16.975 2.46408e-05C16.052 -0.00242709 15.1378 0.178103 14.2851 0.531176C13.4323 0.884249 12.658 1.40286 12.007 2.05702L8.73998 5.32002C8.55234 5.50753 8.44687 5.7619 8.44678 6.02717C8.44668 6.29244 8.55197 6.54688 8.73948 6.73452C8.92699 6.92217 9.18136 7.02763 9.44663 7.02773C9.7119 7.02782 9.96634 6.92253 10.154 6.73502L13.419 3.47302C13.8845 3.00467 14.4384 2.63333 15.0484 2.38048C15.6585 2.12764 16.3126 1.99833 16.973 2.00002C17.9672 2.00035 18.9391 2.29546 19.7657 2.84802C20.5922 3.40059 21.2364 4.18582 21.6168 5.10444C21.9972 6.02307 22.0967 7.03384 21.9027 8.009C21.7087 8.98416 21.23 9.87991 20.527 10.583L17.265 13.845C17.0773 14.0327 16.9719 14.2872 16.9719 14.5525C16.9719 14.8179 17.0773 15.0724 17.265 15.26C17.4526 15.4477 17.7071 15.5531 17.9725 15.5531C18.2378 15.5531 18.4923 15.4477 18.68 15.26L21.942 12C23.258 10.6811 23.9973 8.89413 23.9977 7.03094C23.998 5.16775 23.2595 3.38046 21.944 2.06102Z" fill="black"/>
<path d="M14.2931 8.29292L8.29308 14.2929C8.19757 14.3852 8.12139 14.4955 8.06898 14.6175C8.01657 14.7395 7.98898 14.8707 7.98783 15.0035C7.98668 15.1363 8.01198 15.268 8.06226 15.3909C8.11254 15.5138 8.18679 15.6254 8.28069 15.7193C8.37458 15.8132 8.48623 15.8875 8.60913 15.9377C8.73202 15.988 8.8637 16.0133 8.99648 16.0122C9.12926 16.011 9.26048 15.9834 9.38249 15.931C9.50449 15.8786 9.61483 15.8024 9.70708 15.7069L15.7071 9.70692C15.8892 9.51832 15.99 9.26571 15.9878 9.00352C15.9855 8.74132 15.8803 8.49051 15.6949 8.3051C15.5095 8.11969 15.2587 8.01452 14.9965 8.01224C14.7343 8.00997 14.4817 8.11076 14.2931 8.29292Z" fill="black"/>
</g>
<defs>
<clipPath id="clip0">
<rect width="24" height="24" fill="white"/>
</clipPath>
</defs>
</svg>
