<svg width="24" height="24" viewBox="0 0 24 24" fill="none" xmlns="http://www.w3.org/2000/svg">
<g clip-path="url(#clip0)">
<path d="M12 0C9.62663 0 7.30655 0.703788 5.33316 2.02236C3.35977 3.34094 1.8217 5.21509 0.913451 7.4078C0.00519943 9.60051 -0.232441 12.0133 0.230582 14.3411C0.693605 16.6689 1.83649 18.8071 3.51472 20.4853C5.19295 22.1635 7.33115 23.3064 9.65892 23.7694C11.9867 24.2324 14.3995 23.9948 16.5922 23.0866C18.7849 22.1783 20.6591 20.6402 21.9776 18.6668C23.2962 16.6935 24 14.3734 24 12C23.9966 8.81846 22.7312 5.76821 20.4815 3.51852C18.2318 1.26883 15.1815 0.00344108 12 0V0ZM12 22C10.0222 22 8.08879 21.4135 6.4443 20.3147C4.79981 19.2159 3.51809 17.6541 2.76121 15.8268C2.00433 13.9996 1.8063 11.9889 2.19215 10.0491C2.578 8.10929 3.53041 6.32746 4.92894 4.92893C6.32746 3.53041 8.10929 2.578 10.0491 2.19215C11.9889 1.8063 13.9996 2.00433 15.8268 2.7612C17.6541 3.51808 19.2159 4.79981 20.3147 6.4443C21.4135 8.08879 22 10.0222 22 12C21.9971 14.6513 20.9426 17.1931 19.0679 19.0679C17.1931 20.9426 14.6513 21.9971 12 22Z" fill="black"/>
<path d="M15.536 8.464C15.7246 8.64616 15.9772 8.74696 16.2394 8.74468C16.5016 8.7424 16.7524 8.63723 16.9378 8.45182C17.1232 8.26641 17.2284 8.0156 17.2307 7.7534C17.2329 7.49121 17.1321 7.23861 16.95 7.05C15.971 6.07111 14.7237 5.40449 13.3659 5.13445C12.008 4.86442 10.6006 5.00308 9.32154 5.53291C8.0425 6.06275 6.94929 6.95996 6.18015 8.11109C5.41101 9.26221 5.00049 10.6156 5.00049 12C5.00049 13.3844 5.41101 14.7378 6.18015 15.8889C6.94929 17.04 8.0425 17.9373 9.32154 18.4671C10.6006 18.9969 12.008 19.1356 13.3659 18.8656C14.7237 18.5955 15.971 17.9289 16.95 16.95C17.1321 16.7614 17.2329 16.5088 17.2307 16.2466C17.2284 15.9844 17.1232 15.7336 16.9378 15.5482C16.7524 15.3628 16.5016 15.2576 16.2394 15.2553C15.9772 15.2531 15.7246 15.3538 15.536 15.536C14.8367 16.2351 13.9458 16.7112 12.9759 16.904C12.006 17.0968 11.0007 16.9978 10.0872 16.6193C9.17364 16.2408 8.39282 15.5999 7.84348 14.7777C7.29413 13.9555 7.00092 12.9889 7.00092 12C7.00092 11.0112 7.29413 10.0445 7.84348 9.22229C8.39282 8.40007 9.17364 7.75921 10.0872 7.38073C11.0007 7.00225 12.006 6.90316 12.9759 7.09598C13.9458 7.2888 14.8367 7.76487 15.536 8.464Z" fill="black"/>
</g>
<defs>
<clipPath id="clip0">
<rect width="24" height="24" fill="white"/>
</clipPath>
</defs>
</svg>
