<svg width="24" height="24" viewBox="0 0 24 24" fill="none" xmlns="http://www.w3.org/2000/svg">
<g clip-path="url(#clip0)">
<path d="M11.9999 17.1687C11.3433 17.1699 10.6929 17.0414 10.0861 16.7905C9.47925 16.5396 8.92798 16.1713 8.46392 15.7067L0.292919 7.53472C0.110761 7.34612 0.00996641 7.09351 0.0122448 6.83132C0.0145233 6.56912 0.119692 6.31831 0.3051 6.1329C0.490508 5.94749 0.741321 5.84232 1.00352 5.84004C1.26571 5.83777 1.51832 5.93856 1.70692 6.12072L9.87792 14.2927C10.4412 14.8545 11.2043 15.17 11.9999 15.17C12.7955 15.17 13.5586 14.8545 14.1219 14.2927L22.2929 6.12072C22.3852 6.02521 22.4955 5.94903 22.6175 5.89662C22.7395 5.84421 22.8707 5.81662 23.0035 5.81547C23.1363 5.81431 23.268 5.83962 23.3909 5.8899C23.5138 5.94018 23.6254 6.01443 23.7193 6.10832C23.8132 6.20222 23.8875 6.31387 23.9377 6.43676C23.988 6.55966 24.0133 6.69134 24.0122 6.82412C24.011 6.9569 23.9834 7.08812 23.931 7.21012C23.8786 7.33213 23.8024 7.44247 23.7069 7.53472L15.5359 15.7067C15.0719 16.1713 14.5206 16.5396 13.9138 16.7905C13.307 17.0414 12.6566 17.1699 11.9999 17.1687Z" fill="black"/>
</g>
<defs>
<clipPath id="clip0">
<rect width="24" height="24" fill="white"/>
</clipPath>
</defs>
</svg>
