<svg width="24" height="24" viewBox="0 0 24 24" fill="none" xmlns="http://www.w3.org/2000/svg">
<g clip-path="url(#clip0)">
<path d="M13 3V1C13 0.734784 12.8946 0.48043 12.7071 0.292893C12.5196 0.105357 12.2652 0 12 0C11.7348 0 11.4804 0.105357 11.2929 0.292893C11.1054 0.48043 11 0.734784 11 1V3C9.14413 3.00212 7.36489 3.7403 6.05259 5.05259C4.7403 6.36489 4.00212 8.14413 4 10V16C4 18.1217 4.84285 20.1566 6.34315 21.6569C7.84344 23.1571 9.87827 24 12 24C14.1217 24 16.1566 23.1571 17.6569 21.6569C19.1571 20.1566 20 18.1217 20 16V10C19.9979 8.14413 19.2597 6.36489 17.9474 5.05259C16.6351 3.7403 14.8559 3.00212 13 3ZM18 16C18 17.5913 17.3679 19.1174 16.2426 20.2426C15.1174 21.3679 13.5913 22 12 22C10.4087 22 8.88258 21.3679 7.75736 20.2426C6.63214 19.1174 6 17.5913 6 16V10C6.00159 8.67441 6.52888 7.40356 7.46622 6.46622C8.40356 5.52888 9.67441 5.00159 11 5H13C14.3256 5.00159 15.5964 5.52888 16.5338 6.46622C17.4711 7.40356 17.9984 8.67441 18 10V16Z" fill="black"/>
<path d="M12 7C11.7348 7 11.4804 7.10536 11.2929 7.29289C11.1054 7.48043 11 7.73478 11 8V10C11 10.2652 11.1054 10.5196 11.2929 10.7071C11.4804 10.8946 11.7348 11 12 11C12.2652 11 12.5196 10.8946 12.7071 10.7071C12.8946 10.5196 13 10.2652 13 10V8C13 7.73478 12.8946 7.48043 12.7071 7.29289C12.5196 7.10536 12.2652 7 12 7Z" fill="black"/>
</g>
<defs>
<clipPath id="clip0">
<rect width="24" height="24" fill="white"/>
</clipPath>
</defs>
</svg>
