<svg width="24" height="24" viewBox="0 0 24 24" fill="none" xmlns="http://www.w3.org/2000/svg">
<path d="M10.8798 17.715C10.9728 17.6222 11.0466 17.5119 11.0969 17.3905C11.1472 17.2691 11.1731 17.1389 11.1731 17.0075C11.1731 16.8761 11.1472 16.746 11.0969 16.6246C11.0466 16.5032 10.9728 16.3929 10.8798 16.3L7.58784 13.007L17.9998 13C18.2651 13 18.5194 12.8947 18.7069 12.7071C18.8945 12.5196 18.9998 12.2652 18.9998 12C18.9998 11.7348 18.8945 11.4805 18.7069 11.2929C18.5194 11.1054 18.2651 11 17.9998 11L7.58584 11.007L10.8798 7.71503C11.0675 7.52752 11.1729 7.27315 11.173 7.00788C11.1731 6.74261 11.0678 6.48817 10.8803 6.30053C10.6928 6.11289 10.4385 6.00742 10.1732 6.00732C9.90792 6.00723 9.65348 6.11252 9.46584 6.30003L5.87984 9.88603C5.60121 10.1646 5.38018 10.4953 5.22939 10.8594C5.07859 11.2234 5.00098 11.6135 5.00098 12.0075C5.00098 12.4015 5.07859 12.7917 5.22939 13.1557C5.38018 13.5197 5.60121 13.8504 5.87984 14.129L9.46584 17.715C9.65336 17.9025 9.90767 18.0078 10.1728 18.0078C10.438 18.0078 10.6923 17.9025 10.8798 17.715Z" fill="black"/>
</svg>
