<svg width="24" height="24" viewBox="0 0 24 24" fill="none" xmlns="http://www.w3.org/2000/svg">
<g clip-path="url(#clip0)">
<path d="M20.5058 20.4543C22.7433 18.2097 23.9996 15.1696 23.9996 12.0003C23.9996 8.83099 22.7433 5.79093 20.5058 3.54629C20.4968 3.53629 20.4948 3.52429 20.4848 3.51529C20.4748 3.50629 20.4638 3.50329 20.4538 3.49429C18.2092 1.25716 15.1694 0.000976562 12.0003 0.000976562C8.83125 0.000976562 5.79141 1.25716 3.54682 3.49429C3.53682 3.50329 3.52382 3.50629 3.51482 3.51629C3.50582 3.52629 3.50182 3.53829 3.49282 3.54829C1.25599 5.79284 0 8.83248 0 12.0013C0 15.1701 1.25599 18.2097 3.49282 20.4543C3.50182 20.4643 3.50482 20.4773 3.51482 20.4863C3.52482 20.4953 3.53682 20.4993 3.54682 20.5083C5.79141 22.7454 8.83125 24.0016 12.0003 24.0016C15.1694 24.0016 18.2092 22.7454 20.4538 20.5083C20.4638 20.4993 20.4758 20.4973 20.4848 20.4873C20.4938 20.4773 20.4998 20.4643 20.5058 20.4543ZM2.05682 13.0543C3.9928 13.2547 5.82717 14.0197 7.33182 15.2543L4.26182 18.3243C3.02826 16.822 2.26171 14.9913 2.05682 13.0583V13.0543ZM4.25682 5.67229L10.5858 12.0003L8.74882 13.8373C6.85899 12.2357 4.51716 11.2626 2.04882 11.0533C2.235 9.08068 3.00554 7.20849 4.26182 5.67629L4.25682 5.67229ZM21.9378 10.9383C20.002 10.7375 18.1677 9.97248 16.6628 8.73829L19.7328 5.66829C20.9696 7.17221 21.738 9.00594 21.9428 10.9423L21.9378 10.9383ZM15.2488 7.32829C14.0142 5.82365 13.2492 3.98928 13.0488 2.05329C14.9813 2.25674 16.8119 3.02153 18.3148 4.25329L15.2488 7.32829ZM13.8358 8.75029L11.9998 10.5863L5.67582 4.26229C7.20789 3.00565 9.0801 2.23476 11.0528 2.04829C11.2622 4.51703 12.2349 6.85938 13.8358 8.75029ZM8.74582 16.6683C9.98041 18.1729 10.7455 20.0073 10.9458 21.9433C9.0128 21.7384 7.18211 20.9719 5.67982 19.7383L8.74582 16.6683ZM10.1628 15.2513L11.9998 13.4143L18.3238 19.7383C16.792 20.9954 14.9197 21.7663 12.9468 21.9523C12.7377 19.4836 11.7646 17.1414 10.1628 15.2513ZM13.4138 12.0003L15.2498 10.1643C17.1402 11.7648 19.4818 12.7375 21.9498 12.9473C21.7633 14.92 20.9925 16.7922 19.7358 18.3243L13.4138 12.0003Z" fill="black"/>
</g>
<defs>
<clipPath id="clip0">
<rect width="24" height="24" fill="white"/>
</clipPath>
</defs>
</svg>
