<svg width="24" height="24" viewBox="0 0 24 24" fill="none" xmlns="http://www.w3.org/2000/svg">
<g clip-path="url(#clip0)">
<path d="M7 22H5C4.20435 22 3.44129 21.6839 2.87868 21.1213C2.31607 20.5587 2 19.7956 2 19V5C2 4.20435 2.31607 3.44129 2.87868 2.87868C3.44129 2.31607 4.20435 2 5 2H7C7.26522 2 7.51957 1.89464 7.70711 1.70711C7.89464 1.51957 8 1.26522 8 1C8 0.734784 7.89464 0.48043 7.70711 0.292893C7.51957 0.105357 7.26522 0 7 0L5 0C3.67441 0.00158786 2.40356 0.528882 1.46622 1.46622C0.528882 2.40356 0.00158786 3.67441 0 5L0 19C0.00158786 20.3256 0.528882 21.5964 1.46622 22.5338C2.40356 23.4711 3.67441 23.9984 5 24H7C7.26522 24 7.51957 23.8946 7.70711 23.7071C7.89464 23.5196 8 23.2652 8 23C8 22.7348 7.89464 22.4804 7.70711 22.2929C7.51957 22.1054 7.26522 22 7 22Z" fill="black"/>
<path d="M10.462 5.29259L5.87498 9.87859C5.31428 10.4421 4.99951 11.2047 4.99951 11.9996C4.99951 12.7945 5.31428 13.5571 5.87498 14.1206L10.461 18.7066C10.5532 18.8021 10.6636 18.8783 10.7856 18.9307C10.9076 18.9831 11.0388 19.0107 11.1716 19.0118C11.3044 19.013 11.436 18.9877 11.5589 18.9374C11.6818 18.8871 11.7935 18.8129 11.8874 18.719C11.9813 18.6251 12.0555 18.5134 12.1058 18.3905C12.1561 18.2676 12.1814 18.136 12.1802 18.0032C12.1791 17.8704 12.1515 17.7392 12.0991 17.6172C12.0467 17.4952 11.9705 17.3848 11.875 17.2926L7.58398 12.9996H23C23.2652 12.9996 23.5196 12.8942 23.7071 12.7067C23.8946 12.5192 24 12.2648 24 11.9996C24 11.7344 23.8946 11.48 23.7071 11.2925C23.5196 11.1049 23.2652 10.9996 23 10.9996H7.58298L11.876 6.70659C11.9715 6.61435 12.0477 6.504 12.1001 6.382C12.1525 6.25999 12.1801 6.12877 12.1812 5.99599C12.1824 5.86321 12.1571 5.73154 12.1068 5.60864C12.0565 5.48574 11.9823 5.37409 11.8884 5.2802C11.7945 5.18631 11.6828 5.11205 11.5599 5.06177C11.437 5.01149 11.3054 4.98619 11.1726 4.98734C11.0398 4.9885 10.9086 5.01608 10.7866 5.06849C10.6646 5.1209 10.5542 5.19708 10.462 5.29259Z" fill="black"/>
</g>
<defs>
<clipPath id="clip0">
<rect width="24" height="24" fill="white"/>
</clipPath>
</defs>
</svg>
