<svg width="24" height="24" viewBox="0 0 24 24" fill="none" xmlns="http://www.w3.org/2000/svg">
<path d="M23.7069 16.2928L15.5359 8.12081C14.5972 7.1848 13.3256 6.65918 11.9999 6.65918C10.6743 6.65918 9.40268 7.1848 8.46392 8.12081L0.292919 16.2928C0.110761 16.4814 0.00996641 16.734 0.0122448 16.9962C0.0145233 17.2584 0.119692 17.5092 0.3051 17.6946C0.490508 17.88 0.741321 17.9852 1.00352 17.9875C1.26571 17.9898 1.51832 17.889 1.70692 17.7068L9.87792 9.53481C10.4416 8.97373 11.2046 8.65875 11.9999 8.65875C12.7953 8.65875 13.5582 8.97373 14.1219 9.53481L22.2929 17.7068C22.4815 17.889 22.7341 17.9898 22.9963 17.9875C23.2585 17.9852 23.5093 17.88 23.6947 17.6946C23.8801 17.5092 23.9853 17.2584 23.9876 16.9962C23.9899 16.734 23.8891 16.4814 23.7069 16.2928Z" fill="black"/>
</svg>
