<svg width="24" height="24" viewBox="0 0 24 24" fill="none" xmlns="http://www.w3.org/2000/svg">
<g clip-path="url(#clip0)">
<path d="M16.6301 2.90012C15.8431 2.23312 15.0181 1.53212 14.1781 0.768117C13.8597 0.478595 13.4819 0.262168 13.0712 0.133996C12.6604 0.00582367 12.2266 -0.0309955 11.8001 0.0261174C11.3868 0.0807109 10.9906 0.225449 10.6395 0.450093C10.2883 0.674737 9.99085 0.973797 9.76807 1.32612C8.57603 3.3181 7.73323 5.49917 7.27607 7.77512C7.09666 7.51611 6.93752 7.24363 6.80007 6.96012C6.65853 6.6619 6.44537 6.40336 6.17962 6.20755C5.91387 6.01174 5.60378 5.88475 5.27702 5.83791C4.95026 5.79108 4.61698 5.82585 4.30693 5.93913C3.99687 6.05241 3.71968 6.24067 3.50007 6.48712C1.82273 8.20117 0.892868 10.51 0.914066 12.9081C0.890885 15.3578 1.68761 17.7449 3.17748 19.6896C4.66735 21.6343 6.76477 23.0249 9.13607 23.6401C10.0439 23.8685 10.976 23.9867 11.9121 23.9921C11.9421 23.9921 11.9711 24.0001 12.0011 24.0001C12.1321 24.0001 12.2611 23.9891 12.3901 23.9801C15.2617 23.8871 17.9844 22.68 19.9816 20.6145C21.9788 18.549 23.0937 15.7873 23.0901 12.9141C23.0861 8.38412 20.0941 5.84412 16.6301 2.90012ZM12.2301 21.9741C12.1161 21.9741 12.0021 21.9861 11.8871 21.9851C11.1428 21.9285 10.4332 21.6475 9.85207 21.1791C9.42247 20.8891 9.05932 20.5112 8.78661 20.0704C8.5139 19.6296 8.33784 19.136 8.27007 18.6221C8.10007 17.0001 9.10007 14.8791 11.1431 12.4831C11.2489 12.3595 11.3804 12.2604 11.5284 12.1927C11.6764 12.125 11.8373 12.0903 12.0001 12.0911C12.1606 12.0899 12.3195 12.1243 12.4652 12.1917C12.611 12.2592 12.74 12.358 12.8431 12.4811C14.7151 14.7031 15.7431 16.7531 15.7431 18.2541C15.7403 19.2043 15.3759 20.1178 14.724 20.8091C14.0721 21.5004 13.1815 21.9177 12.2331 21.9761L12.2301 21.9741ZM17.5761 20.0831C17.5171 20.1291 17.4521 20.1661 17.3921 20.2101C17.6228 19.583 17.7416 18.9203 17.7431 18.2521C17.7431 15.7251 15.9081 13.0171 14.3701 11.1901C14.0793 10.8458 13.7171 10.569 13.3084 10.3791C12.8998 10.1891 12.4547 10.0905 12.0041 10.0901H12.0001C11.5485 10.0893 11.1021 10.1866 10.6919 10.3754C10.2816 10.5641 9.91729 10.8397 9.62407 11.1831C7.17907 14.0471 6.05607 16.6201 6.28607 18.8311C6.34068 19.3444 6.4718 19.8466 6.67507 20.3211C5.50464 19.4731 4.55322 18.3582 3.89968 17.069C3.24613 15.7799 2.90929 14.3535 2.91707 12.9081C2.90752 11.9652 3.08691 11.0299 3.44467 10.1574C3.80242 9.28491 4.33129 8.49291 5.00007 7.82812C5.23074 8.30764 5.50772 8.76348 5.82707 9.18912C6.04165 9.47923 6.33652 9.70012 6.67525 9.82453C7.01397 9.94893 7.38172 9.97138 7.73307 9.88912C8.09146 9.80984 8.41922 9.62844 8.67672 9.36686C8.93421 9.10528 9.11043 8.77471 9.18407 8.41512C9.58583 6.2915 10.3536 4.25385 11.4531 2.39312C11.5199 2.28807 11.6091 2.19914 11.7145 2.13274C11.8198 2.06634 11.9385 2.02412 12.0621 2.00912C12.2002 1.99052 12.3408 2.00247 12.4738 2.04411C12.6069 2.08575 12.7292 2.15607 12.8321 2.25012C13.6901 3.03012 14.5321 3.75012 15.3321 4.42712C18.6701 7.26212 21.0831 9.31012 21.0831 12.9141C21.0873 14.298 20.7736 15.6643 20.166 16.9076C19.5585 18.151 18.6734 19.2381 17.5791 20.0851L17.5761 20.0831Z" fill="black"/>
</g>
<defs>
<clipPath id="clip0">
<rect width="24" height="24" fill="white"/>
</clipPath>
</defs>
</svg>
