<svg width="24" height="24" viewBox="0 0 24 24" fill="none" xmlns="http://www.w3.org/2000/svg">
<g clip-path="url(#clip0)">
<path d="M15.9998 16C15.9998 16.1978 15.9411 16.3911 15.8312 16.5556C15.7214 16.72 15.5652 16.8482 15.3825 16.9239C15.1997 16.9996 14.9987 17.0194 14.8047 16.9808C14.6107 16.9422 14.4325 16.847 14.2927 16.7071C14.1528 16.5673 14.0576 16.3891 14.019 16.1951C13.9804 16.0011 14.0002 15.8 14.0759 15.6173C14.1516 15.4346 14.2798 15.2784 14.4442 15.1685C14.6087 15.0586 14.802 15 14.9998 15C15.265 15 15.5193 15.1054 15.7069 15.2929C15.8944 15.4804 15.9998 15.7348 15.9998 16ZM18.9998 15C18.802 15 18.6087 15.0586 18.4442 15.1685C18.2798 15.2784 18.1516 15.4346 18.0759 15.6173C18.0002 15.8 17.9804 16.0011 18.019 16.1951C18.0576 16.3891 18.1528 16.5673 18.2927 16.7071C18.4325 16.847 18.6107 16.9422 18.8047 16.9808C18.9987 17.0194 19.1997 16.9996 19.3825 16.9239C19.5652 16.8482 19.7214 16.72 19.8312 16.5556C19.9411 16.3911 19.9998 16.1978 19.9998 16C19.9998 15.7348 19.8944 15.4804 19.7069 15.2929C19.5193 15.1054 19.265 15 18.9998 15ZM16.9998 12C16.802 12 16.6087 12.0586 16.4442 12.1685C16.2798 12.2784 16.1516 12.4346 16.0759 12.6173C16.0002 12.8 15.9804 13.0011 16.019 13.1951C16.0576 13.3891 16.1528 13.5673 16.2927 13.7071C16.4325 13.847 16.6107 13.9422 16.8047 13.9808C16.9987 14.0194 17.1997 13.9996 17.3825 13.9239C17.5652 13.8482 17.7214 13.72 17.8312 13.5556C17.9411 13.3911 17.9998 13.1978 17.9998 13C17.9998 12.7348 17.8944 12.4804 17.7069 12.2929C17.5193 12.1054 17.265 12 16.9998 12ZM23.9998 16C24.0017 17.5294 23.5647 19.0272 22.7405 20.3156C21.9164 21.6039 20.7398 22.6287 19.3506 23.2682C17.9613 23.9077 16.4176 24.135 14.903 23.9231C13.3883 23.7112 11.9663 23.0691 10.8058 22.073C10.4494 22.6602 9.94802 23.1458 9.3498 23.4833C8.75158 23.8207 8.07662 23.9987 7.38978 24H4.60978C3.8496 24.0006 3.10498 23.7846 2.46315 23.3773C1.82132 22.9699 1.30885 22.3881 0.985776 21.7C0.317465 20.2243 -0.0191056 18.6199 -0.000223863 17C0.119846 15.0638 0.716163 13.1873 1.73578 11.537C2.41741 10.4679 2.84943 9.25897 2.99978 8C2.88574 7.25882 2.7002 6.53042 2.44578 5.825C2.21769 5.23887 2.06773 4.62527 1.99978 4C1.99978 2.93913 2.4212 1.92172 3.17135 1.17157C3.92149 0.421427 4.93891 0 5.99978 0C7.06064 0 8.07806 0.421427 8.8282 1.17157C9.57835 1.92172 9.99978 2.93913 9.99978 4C9.93182 4.62527 9.78187 5.23887 9.55378 5.825C9.29935 6.53042 9.11382 7.25882 8.99978 8C9.08513 9.00243 9.39513 9.97276 9.90678 10.839C10.963 9.58638 12.3789 8.68891 13.9625 8.26831C15.5461 7.8477 17.2208 7.92432 18.7593 8.48776C20.2979 9.0512 21.626 10.0742 22.5634 11.418C23.5008 12.7619 24.0023 14.3615 23.9998 16ZM3.99978 4C4.01578 4.15 4.21078 4.772 4.35378 5.226C4.69167 6.11777 4.90893 7.05069 4.99978 8H6.99978C7.09062 7.05069 7.30788 6.11777 7.64578 5.226C7.78637 4.81505 7.90454 4.39677 7.99978 3.973C7.9962 3.44257 7.78205 2.93528 7.40444 2.56274C7.02684 2.1902 6.51671 1.98292 5.98628 1.9865C5.45584 1.99008 4.94856 2.20423 4.57602 2.58183C4.20348 2.95944 3.9962 3.46957 3.99978 4ZM9.19978 20.856C9.7452 19.6446 10.0183 18.3284 9.99978 17C9.86703 15.3867 9.34847 13.829 8.48778 12.458C8.0547 11.6672 7.68036 10.8457 7.36778 10H4.63178C4.31919 10.8457 3.94485 11.6672 3.51178 12.458C2.65108 13.829 2.13252 15.3867 1.99978 17C1.98139 18.3287 2.25446 19.6452 2.79978 20.857C2.96218 21.1994 3.21853 21.4887 3.53898 21.691C3.85943 21.8934 4.23078 22.0006 4.60978 22H7.38978C7.76888 22.0005 8.14031 21.8932 8.46077 21.6906C8.78123 21.4881 9.03752 21.1986 9.19978 20.856ZM21.9998 16C22.0015 14.6964 21.578 13.4278 20.7935 12.3866C20.0091 11.3455 18.9064 10.5886 17.6528 10.2309C16.3992 9.87315 15.0632 9.93407 13.8473 10.4044C12.6315 10.8747 11.6023 11.7288 10.9158 12.837C11.5856 14.1255 11.9561 15.5485 11.9998 17C12 18.0332 11.8628 19.0619 11.5918 20.059C12.4084 20.9487 13.4749 21.5709 14.6512 21.8441C15.8276 22.1172 17.0591 22.0286 18.1843 21.5898C19.3094 21.151 20.2757 20.3825 20.9566 19.385C21.6374 18.3876 22.0011 17.2077 21.9998 16Z" fill="black"/>
</g>
<defs>
<clipPath id="clip0">
<rect width="24" height="24" fill="white"/>
</clipPath>
</defs>
</svg>
