<svg width="24" height="24" viewBox="0 0 24 24" fill="none" xmlns="http://www.w3.org/2000/svg">
<path d="M22.0001 15.184V8C21.9986 6.67441 21.4713 5.40356 20.5339 4.46622C19.5966 3.52888 18.3257 3.00159 17.0001 3H7.00014C5.67455 3.00159 4.4037 3.52888 3.46636 4.46622C2.52902 5.40356 2.00173 6.67441 2.00014 8V15.184C1.33346 15.4188 0.771398 15.882 0.413503 16.4915C0.0556093 17.1011 -0.075019 17.8176 0.044755 18.5142C0.164529 19.2108 0.526976 19.8425 1.0679 20.2975C1.60882 20.7525 2.29332 21.0013 3.00014 21H21.0001C21.707 21.0013 22.3915 20.7525 22.9324 20.2975C23.4733 19.8425 23.8358 19.2108 23.9555 18.5142C24.0753 17.8176 23.9447 17.1011 23.5868 16.4915C23.2289 15.882 22.6668 15.4188 22.0001 15.184ZM7.00014 5H17.0001C17.7958 5 18.5589 5.31607 19.1215 5.87868C19.6841 6.44129 20.0001 7.20435 20.0001 8V15H15.8491C15.5583 14.9998 15.2709 15.0631 15.007 15.1853C14.7431 15.3076 14.509 15.486 14.3211 15.708L14.0741 16H9.92514L9.67914 15.708C9.49125 15.486 9.2572 15.3076 8.99329 15.1853C8.72939 15.0631 8.442 14.9998 8.15114 15H4.00014V8C4.00014 7.20435 4.31621 6.44129 4.87882 5.87868C5.44143 5.31607 6.20449 5 7.00014 5ZM21.0001 19H3.00014C2.73493 19 2.48057 18.8946 2.29304 18.7071C2.1055 18.5196 2.00014 18.2652 2.00014 18C2.00014 17.7348 2.1055 17.4804 2.29304 17.2929C2.48057 17.1054 2.73493 17 3.00014 17H8.15214L8.39814 17.292C8.58592 17.5139 8.81982 17.6922 9.08354 17.8145C9.34725 17.9367 9.63446 18 9.92514 18H14.0741C14.365 18.0002 14.6524 17.9369 14.9163 17.8147C15.1802 17.6924 15.4143 17.514 15.6021 17.292L15.8491 17H21.0001C21.2654 17 21.5197 17.1054 21.7073 17.2929C21.8948 17.4804 22.0001 17.7348 22.0001 18C22.0001 18.2652 21.8948 18.5196 21.7073 18.7071C21.5197 18.8946 21.2654 19 21.0001 19Z" fill="black"/>
</svg>
