<svg width="24" height="24" viewBox="0 0 24 24" fill="none" xmlns="http://www.w3.org/2000/svg">
<path d="M23.1118 5.16485C23.3928 4.88394 23.6158 4.5504 23.7679 4.1833C23.92 3.81619 23.9983 3.42272 23.9983 3.02535C23.9983 2.62798 23.92 2.23451 23.7679 1.86741C23.6158 1.5003 23.3928 1.16677 23.1118 0.885852C22.5361 0.335474 21.7703 0.0283203 20.9738 0.0283203C20.1773 0.0283203 19.4115 0.335474 18.8358 0.885852L16.3998 3.32385C15.3878 4.33685 13.2768 4.11285 11.8208 3.31085C11.2694 3.01236 10.6288 2.92317 10.0168 3.0597C9.40489 3.19623 8.8629 3.54929 8.4907 4.05384C8.1185 4.55838 7.94116 5.18044 7.99134 5.8054C8.04152 6.43037 8.31585 7.01616 8.76379 7.45485L10.1798 8.87085L2.02479 17.0249C1.4895 17.5544 1.14189 18.2444 1.03484 18.9898C0.927799 19.7351 1.06718 20.495 1.43179 21.1539L0.292786 22.2929C0.105315 22.4804 0 22.7347 0 22.9999C0 23.265 0.105315 23.5193 0.292786 23.7069C0.480314 23.8943 0.734622 23.9996 0.999786 23.9996C1.26495 23.9996 1.51926 23.8943 1.70679 23.7069L2.84579 22.5679C3.50462 22.9325 4.26453 23.0718 5.00988 22.9648C5.75522 22.8577 6.44519 22.5101 6.97479 21.9749L15.1288 13.8199L16.5448 15.2359C16.9835 15.6838 17.5693 15.9581 18.1942 16.0083C18.8192 16.0585 19.4413 15.8811 19.9458 15.5089C20.4504 15.1367 20.8034 14.5947 20.9399 13.9828C21.0765 13.3709 20.9873 12.7302 20.6888 12.1789C19.8888 10.7229 19.6638 8.61085 20.6758 7.59885L23.1118 5.16485ZM5.55979 20.5609C5.27406 20.8336 4.89426 20.9857 4.49929 20.9857C4.10431 20.9857 3.72451 20.8336 3.43879 20.5609C3.15758 20.2796 2.99961 19.8981 2.99961 19.5004C2.99961 19.1026 3.15758 18.7211 3.43879 18.4399L11.5938 10.2859L13.7148 12.4069L5.55979 20.5609ZM19.2598 6.18485C17.5008 7.94385 17.7598 11.0169 18.9348 13.1429C18.9905 13.2538 19.009 13.3797 18.9876 13.502C18.9662 13.6243 18.9059 13.7365 18.8158 13.8219C18.7002 13.9325 18.5463 13.9943 18.3863 13.9943C18.2262 13.9943 18.0724 13.9325 17.9568 13.8219L10.1778 6.04085C10.0937 5.95536 10.0367 5.84707 10.0136 5.72943C9.99057 5.61178 10.0026 5.48995 10.0482 5.37908C10.0938 5.2682 10.1709 5.17315 10.27 5.10573C10.3692 5.03832 10.4859 5.0015 10.6058 4.99985C10.6934 4.99945 10.7797 5.02112 10.8568 5.06285C12.9828 6.23285 16.0568 6.49685 17.8148 4.73785L20.2538 2.29985C20.4483 2.11344 20.7073 2.00937 20.9768 2.00937C21.2462 2.00937 21.5052 2.11344 21.6998 2.29985C21.795 2.39495 21.8705 2.50789 21.9221 2.63221C21.9736 2.75652 22.0001 2.88978 22.0001 3.02435C22.0001 3.15893 21.9736 3.29218 21.9221 3.4165C21.8705 3.54081 21.795 3.65375 21.6998 3.74885L19.2598 6.18485Z" fill="black"/>
</svg>
