<svg width="24" height="24" viewBox="0 0 24 24" fill="none" xmlns="http://www.w3.org/2000/svg">
<g clip-path="url(#clip0)">
<path d="M21.5 24H2.5C2.1717 24 1.84661 23.9353 1.54329 23.8097C1.23998 23.6841 0.964379 23.4999 0.732233 23.2678C0.500087 23.0356 0.315938 22.76 0.190301 22.4567C0.0646644 22.1534 0 21.8283 0 21.5H0C0 20.837 0.263392 20.2011 0.732233 19.7322C1.20107 19.2634 1.83696 19 2.5 19H21.5C21.8283 19 22.1534 19.0647 22.4567 19.1903C22.76 19.3159 23.0356 19.5001 23.2678 19.7322C23.4999 19.9644 23.6841 20.24 23.8097 20.5433C23.9353 20.8466 24 21.1717 24 21.5C24 21.8283 23.9353 22.1534 23.8097 22.4567C23.6841 22.76 23.4999 23.0356 23.2678 23.2678C23.0356 23.4999 22.76 23.6841 22.4567 23.8097C22.1534 23.9353 21.8283 24 21.5 24ZM24 14C24 13.4696 23.7893 12.9609 23.4142 12.5858C23.0391 12.2107 22.5304 12 22 12H2C1.46957 12 0.960859 12.2107 0.585786 12.5858C0.210714 12.9609 0 13.4696 0 14C0 14.5304 0.210714 15.0391 0.585786 15.4142C0.960859 15.7893 1.46957 16 2 16H22C22.5304 16 23.0391 15.7893 23.4142 15.4142C23.7893 15.0391 24 14.5304 24 14ZM24 7.5C24 7.10218 23.842 6.72064 23.5607 6.43934C23.2794 6.15804 22.8978 6 22.5 6H1.5C1.10218 6 0.720644 6.15804 0.43934 6.43934C0.158035 6.72064 0 7.10218 0 7.5H0C0 7.89782 0.158035 8.27936 0.43934 8.56066C0.720644 8.84196 1.10218 9 1.5 9H22.5C22.8978 9 23.2794 8.84196 23.5607 8.56066C23.842 8.27936 24 7.89782 24 7.5ZM24 2C24 1.73478 23.8946 1.48043 23.7071 1.29289C23.5196 1.10536 23.2652 1 23 1H1C0.734784 1 0.48043 1.10536 0.292893 1.29289C0.105357 1.48043 0 1.73478 0 2C0 2.26522 0.105357 2.51957 0.292893 2.70711C0.48043 2.89464 0.734784 3 1 3H23C23.2652 3 23.5196 2.89464 23.7071 2.70711C23.8946 2.51957 24 2.26522 24 2Z" fill="black"/>
</g>
<defs>
<clipPath id="clip0">
<rect width="24" height="24" fill="white"/>
</clipPath>
</defs>
</svg>
