<svg width="24" height="24" viewBox="0 0 24 24" fill="none" xmlns="http://www.w3.org/2000/svg">
<g clip-path="url(#clip0)">
<path d="M10.9999 22.9998C10.9999 22.802 11.0585 22.6087 11.1684 22.4442C11.2783 22.2798 11.4345 22.1516 11.6172 22.0759C11.7999 22.0002 12.001 21.9804 12.195 22.019C12.389 22.0576 12.5671 22.1529 12.707 22.2927C12.8468 22.4326 12.9421 22.6107 12.9807 22.8047C13.0193 22.9987 12.9995 23.1998 12.9238 23.3825C12.8481 23.5652 12.7199 23.7214 12.5555 23.8313C12.391 23.9412 12.1977 23.9998 11.9999 23.9998C11.7347 23.9998 11.4803 23.8945 11.2928 23.7069C11.1052 23.5194 10.9999 23.265 10.9999 22.9998ZM15.5349 20.8778C15.7224 20.6903 15.8277 20.436 15.8277 20.1708C15.8277 19.9057 15.7224 19.6513 15.5349 19.4638C14.5973 18.5265 13.3257 17.9999 11.9999 17.9999C10.6741 17.9999 9.40253 18.5265 8.46489 19.4638C8.28273 19.6524 8.18194 19.905 8.18422 20.1672C8.18649 20.4294 8.29166 20.6802 8.47707 20.8656C8.66248 21.051 8.91329 21.1562 9.17549 21.1585C9.43769 21.1608 9.69029 21.06 9.87889 20.8778C10.4506 20.3329 11.2101 20.0289 11.9999 20.0289C12.7897 20.0289 13.5492 20.3329 14.1209 20.8778C14.3084 21.0653 14.5627 21.1706 14.8279 21.1706C15.0931 21.1706 15.3474 21.0653 15.5349 20.8778ZM18.3639 18.0498C18.5514 17.8623 18.6567 17.608 18.6567 17.3428C18.6567 17.0777 18.5514 16.8233 18.3639 16.6358C16.6748 14.9504 14.386 14.0039 11.9999 14.0039C9.61373 14.0039 7.32502 14.9504 5.63589 16.6358C5.45373 16.8244 5.35294 17.077 5.35522 17.3392C5.35749 17.6014 5.46266 17.8522 5.64807 18.0376C5.83348 18.223 6.08429 18.3282 6.34649 18.3305C6.60868 18.3328 6.86129 18.232 7.04989 18.0498C8.36409 16.7396 10.1441 16.0039 11.9999 16.0039C13.8556 16.0039 15.6357 16.7396 16.9499 18.0498C17.1374 18.2373 17.3917 18.3426 17.6569 18.3426C17.9221 18.3426 18.1764 18.2373 18.3639 18.0498ZM5.98689 22.1608C6.00804 22.0312 6.00345 21.8987 5.97338 21.7708C5.94332 21.643 5.88837 21.5223 5.81166 21.4157C5.73496 21.3091 5.63801 21.2187 5.52635 21.1495C5.41469 21.0804 5.29051 21.034 5.16089 21.0128C4.40525 20.8933 3.7031 20.549 3.14589 20.0248C2.58868 19.5006 2.20224 18.8208 2.03689 18.0738C1.92929 17.3596 2.04706 16.6295 2.3738 15.9854C2.70055 15.3412 3.22002 14.8149 3.85989 14.4798C4.32051 14.2271 4.66318 13.8032 4.81381 13.2998C4.96444 12.7965 4.91095 12.2541 4.66489 11.7898C4.27605 11.0493 4.04634 10.2356 3.9905 9.40108C3.93465 8.56654 4.05391 7.72953 4.34062 6.94379C4.62733 6.15806 5.07515 5.44094 5.65534 4.83848C6.23554 4.23601 6.93529 3.76151 7.70967 3.44543C8.48406 3.12934 9.31598 2.97866 10.152 3.00304C10.9881 3.02743 11.8098 3.22635 12.5645 3.58703C13.3191 3.94771 13.99 4.46219 14.5341 5.09745C15.0782 5.73271 15.4835 6.4747 15.7239 7.27582C15.8719 7.75852 16.1355 8.19778 16.4919 8.5554C16.8483 8.91301 17.2867 9.17817 17.7689 9.32782C19.0753 9.72551 20.2059 10.5589 20.9723 11.6891C21.7388 12.8193 22.0947 14.178 21.9809 15.5388C21.8915 16.5607 21.5273 17.5394 20.927 18.3712C20.3267 19.203 19.5126 19.857 18.5709 20.2638C18.3377 20.3814 18.1597 20.5855 18.0751 20.8326C17.9904 21.0796 18.0058 21.35 18.1178 21.5859C18.2299 21.8218 18.4298 22.0044 18.6748 22.0949C18.9198 22.1853 19.1904 22.1763 19.4289 22.0698C20.6917 21.5164 21.7812 20.6315 22.5817 19.5089C23.3823 18.3864 23.864 17.068 23.9759 15.6938C24.1269 13.8795 23.6514 12.0682 22.6288 10.562C21.6061 9.05585 20.098 7.94574 18.3559 7.41682C18.1843 7.36351 18.0286 7.2686 17.9027 7.14053C17.7767 7.01246 17.6844 6.85522 17.6339 6.68282C17.1045 4.9829 16.0232 3.50816 14.5611 2.49211C13.099 1.47606 11.3398 0.976765 9.56198 1.0733C7.78415 1.16982 6.08933 1.85666 4.74588 3.02504C3.40242 4.19342 2.48712 5.77657 2.14489 7.52382C1.7953 9.29171 2.07029 11.1261 2.92289 12.7138C1.9179 13.2393 1.10175 14.0651 0.588062 15.0761C0.0743713 16.0872 -0.111302 17.2333 0.0568892 18.3548C0.285373 19.5229 0.866154 20.593 1.72109 21.4212C2.57602 22.2493 3.66409 22.7957 4.83889 22.9868C4.9685 23.008 5.10102 23.0034 5.22886 22.9733C5.3567 22.9432 5.47737 22.8883 5.58397 22.8116C5.69057 22.7349 5.78102 22.6379 5.85016 22.5263C5.91929 22.4146 5.96575 22.2904 5.98689 22.1608Z" fill="black"/>
</g>
<defs>
<clipPath id="clip0">
<rect width="24" height="24" fill="white"/>
</clipPath>
</defs>
</svg>
