<svg width="24" height="24" viewBox="0 0 24 24" fill="none" xmlns="http://www.w3.org/2000/svg">
<g clip-path="url(#clip0)">
<path d="M17 8.00038H7V7.00038C6.99969 5.89179 7.36782 4.81452 8.04652 3.93796C8.72521 3.06139 9.67597 2.43524 10.7493 2.15794C11.8227 1.88064 12.9578 1.96793 13.9761 2.40607C14.9944 2.84421 15.8383 3.60836 16.375 4.57838C16.4388 4.69322 16.5245 4.79438 16.6274 4.87608C16.7302 4.95778 16.8481 5.01843 16.9744 5.05455C17.1007 5.09067 17.2329 5.10157 17.3634 5.08661C17.4939 5.07165 17.6202 5.03114 17.735 4.96738C17.8498 4.90363 17.951 4.81787 18.0327 4.71502C18.1144 4.61217 18.175 4.49424 18.2112 4.36795C18.2473 4.24166 18.2582 4.10949 18.2432 3.979C18.2283 3.8485 18.1878 3.72222 18.124 3.60738C17.3723 2.2497 16.1907 1.1803 14.765 0.567297C13.3393 -0.0457083 11.7504 -0.167566 10.2479 0.220879C8.74538 0.609325 7.41457 1.48605 6.46463 2.71324C5.51469 3.94042 4.99948 5.44849 5 7.00038V8.42438C4.10936 8.81309 3.35129 9.45291 2.8185 10.2656C2.28571 11.0783 2.00128 12.0286 2 13.0004V19.0004C2.00159 20.326 2.52888 21.5968 3.46622 22.5342C4.40356 23.4715 5.67441 23.9988 7 24.0004H17C18.3256 23.9988 19.5964 23.4715 20.5338 22.5342C21.4711 21.5968 21.9984 20.326 22 19.0004V13.0004C21.9984 11.6748 21.4711 10.4039 20.5338 9.4666C19.5964 8.52927 18.3256 8.00197 17 8.00038ZM20 19.0004C20 19.796 19.6839 20.5591 19.1213 21.1217C18.5587 21.6843 17.7956 22.0004 17 22.0004H7C6.20435 22.0004 5.44129 21.6843 4.87868 21.1217C4.31607 20.5591 4 19.796 4 19.0004V13.0004C4 12.2047 4.31607 11.4417 4.87868 10.8791C5.44129 10.3165 6.20435 10.0004 7 10.0004H17C17.7956 10.0004 18.5587 10.3165 19.1213 10.8791C19.6839 11.4417 20 12.2047 20 13.0004V19.0004Z" fill="black"/>
<path d="M12 14C11.7348 14 11.4804 14.1054 11.2929 14.2929C11.1054 14.4804 11 14.7348 11 15V17C11 17.2652 11.1054 17.5196 11.2929 17.7071C11.4804 17.8946 11.7348 18 12 18C12.2652 18 12.5196 17.8946 12.7071 17.7071C12.8946 17.5196 13 17.2652 13 17V15C13 14.7348 12.8946 14.4804 12.7071 14.2929C12.5196 14.1054 12.2652 14 12 14Z" fill="black"/>
</g>
<defs>
<clipPath id="clip0">
<rect width="24" height="24" fill="white"/>
</clipPath>
</defs>
</svg>
