<svg width="24" height="24" viewBox="0 0 24 24" fill="none" xmlns="http://www.w3.org/2000/svg">
<g clip-path="url(#clip0)">
<path d="M19 14.0001C18.177 14.0055 17.3684 14.217 16.648 14.6151L13.3 10.6001L20.767 1.64012C20.9293 1.43561 21.0051 1.17576 20.9784 0.916076C20.9516 0.65639 20.8244 0.417462 20.6238 0.250336C20.4233 0.0832089 20.1653 0.00113538 19.9051 0.0216489C19.6448 0.0421624 19.4029 0.163636 19.231 0.36012L12 9.03812L4.768 0.36012C4.59611 0.163636 4.3542 0.0421624 4.09394 0.0216489C3.83369 0.00113538 3.57573 0.0832089 3.37518 0.250336C3.17463 0.417462 3.04739 0.65639 3.02063 0.916076C2.99388 1.17576 3.06974 1.43561 3.232 1.64012L10.7 10.6001L7.352 14.6151C6.63146 14.2174 5.82299 14.006 5 14.0001C4.0111 14.0001 3.0444 14.2934 2.22215 14.8428C1.39991 15.3922 0.759043 16.1731 0.380605 17.0867C0.00216642 18.0003 -0.0968503 19.0057 0.0960759 19.9756C0.289002 20.9455 0.765206 21.8364 1.46447 22.5357C2.16373 23.2349 3.05465 23.7111 4.02455 23.904C4.99446 24.097 5.99979 23.998 6.91342 23.6195C7.82705 23.2411 8.60794 22.6002 9.15735 21.778C9.70676 20.9557 10 19.989 10 19.0001C9.99428 17.8701 9.60185 16.7761 8.888 15.9001L12 12.1621L15.111 15.9001C14.3981 16.7766 14.0061 17.8703 14 19.0001C14 19.989 14.2932 20.9557 14.8427 21.778C15.3921 22.6002 16.173 23.2411 17.0866 23.6195C18.0002 23.998 19.0055 24.097 19.9755 23.904C20.9454 23.7111 21.8363 23.2349 22.5355 22.5357C23.2348 21.8364 23.711 20.9455 23.9039 19.9756C24.0969 19.0057 23.9978 18.0003 23.6194 17.0867C23.241 16.1731 22.6001 15.3922 21.7779 14.8428C20.9556 14.2934 19.9889 14.0001 19 14.0001ZM5 22.0001C4.40666 22.0001 3.82664 21.8242 3.33329 21.4945C2.83994 21.1649 2.45543 20.6963 2.22836 20.1482C2.0013 19.6 1.94189 18.9968 2.05765 18.4148C2.1734 17.8329 2.45912 17.2984 2.87868 16.8788C3.29824 16.4592 3.83279 16.1735 4.41473 16.0578C4.99667 15.942 5.59987 16.0014 6.14805 16.2285C6.69623 16.4555 7.16477 16.8401 7.49441 17.3334C7.82406 17.8268 8 18.4068 8 19.0001C8 19.7958 7.68393 20.5588 7.12132 21.1214C6.55871 21.684 5.79565 22.0001 5 22.0001ZM19 22.0001C18.4067 22.0001 17.8266 21.8242 17.3333 21.4945C16.8399 21.1649 16.4554 20.6963 16.2284 20.1482C16.0013 19.6 15.9419 18.9968 16.0576 18.4148C16.1734 17.8329 16.4591 17.2984 16.8787 16.8788C17.2982 16.4592 17.8328 16.1735 18.4147 16.0578C18.9967 15.942 19.5999 16.0014 20.1481 16.2285C20.6962 16.4555 21.1648 16.8401 21.4944 17.3334C21.8241 17.8268 22 18.4068 22 19.0001C22 19.7958 21.6839 20.5588 21.1213 21.1214C20.5587 21.684 19.7957 22.0001 19 22.0001Z" fill="black"/>
</g>
<defs>
<clipPath id="clip0">
<rect width="24" height="24" fill="white"/>
</clipPath>
</defs>
</svg>
