<svg width="24" height="24" viewBox="0 0 24 24" fill="none" xmlns="http://www.w3.org/2000/svg">
<g clip-path="url(#clip0)">
<path d="M11.8281 16.462C10.4775 14.6174 9.24668 12.6881 8.14309 10.686C9.66509 7.709 11.0001 4.189 11.0001 1C11.0001 0.734784 10.8947 0.48043 10.7072 0.292893C10.5197 0.105357 10.2653 0 10.0001 0C9.73487 0 9.48052 0.105357 9.29298 0.292893C9.10545 0.48043 9.00009 0.734784 9.00009 1C8.85786 3.58859 8.17846 6.11924 7.00509 8.431C5.82855 6.11989 5.14575 3.58926 5.00009 1C5.00009 0.734784 4.89473 0.48043 4.7072 0.292893C4.51966 0.105357 4.26531 0 4.00009 0C3.73487 0 3.48052 0.105357 3.29298 0.292893C3.10545 0.48043 3.00009 0.734784 3.00009 1C3.00009 4.174 4.34209 7.7 5.86809 10.685C4.76838 12.692 3.53389 14.622 2.17309 16.462C1.64871 16.7292 1.18999 17.1091 0.829882 17.5746C0.469774 18.0401 0.217209 18.5796 0.090325 19.1542C-0.0365591 19.7289 -0.034614 20.3246 0.0960207 20.8984C0.226655 21.4722 0.482738 22.01 0.845879 22.4731C1.20902 22.9363 1.67021 23.3132 2.19632 23.577C2.72244 23.8407 3.30043 23.9847 3.88878 23.9985C4.47714 24.0124 5.06126 23.8957 5.5992 23.6571C6.13715 23.4184 6.61556 23.0635 7.00009 22.618C7.38486 23.0624 7.86316 23.4161 8.40073 23.6539C8.9383 23.8917 9.52181 24.0076 10.1094 23.9933C10.6971 23.979 11.2743 23.8349 11.7997 23.5714C12.325 23.3078 12.7856 22.9312 13.1484 22.4687C13.5111 22.0062 13.767 21.4691 13.8978 20.8961C14.0286 20.323 14.031 19.7281 13.9048 19.154C13.7786 18.5799 13.527 18.0408 13.1679 17.5754C12.8089 17.11 12.3514 16.7298 11.8281 16.462ZM4.00009 22C3.60453 22 3.21785 21.8827 2.88895 21.6629C2.56005 21.4432 2.3037 21.1308 2.15233 20.7654C2.00095 20.3999 1.96135 19.9978 2.03852 19.6098C2.11569 19.2219 2.30617 18.8655 2.58587 18.5858C2.86558 18.3061 3.22195 18.1156 3.60991 18.0384C3.99787 17.9613 4.4 18.0009 4.76546 18.1522C5.13091 18.3036 5.44326 18.56 5.66303 18.8889C5.88279 19.2178 6.00009 19.6044 6.00009 20C6.00009 20.5304 5.78938 21.0391 5.4143 21.4142C5.03923 21.7893 4.53052 22 4.00009 22ZM4.88309 16.105C5.46809 15.261 6.22009 14.114 7.00509 12.763C7.78909 14.113 8.53909 15.263 9.12209 16.104C8.29692 16.2937 7.55365 16.7413 7.00009 17.382C6.44747 16.7429 5.70619 16.2957 4.88309 16.105ZM10.0001 22C9.60453 22 9.21785 21.8827 8.88895 21.6629C8.56005 21.4432 8.3037 21.1308 8.15233 20.7654C8.00095 20.3999 7.96135 19.9978 8.03852 19.6098C8.11569 19.2219 8.30617 18.8655 8.58588 18.5858C8.86558 18.3061 9.22195 18.1156 9.60991 18.0384C9.99787 17.9613 10.4 18.0009 10.7655 18.1522C11.1309 18.3036 11.4433 18.56 11.663 18.8889C11.8828 19.2178 12.0001 19.6044 12.0001 20C12.0001 20.5304 11.7894 21.0391 11.4143 21.4142C11.0392 21.7893 10.5305 22 10.0001 22ZM18.0001 6V8H23.0001C23.2653 8 23.5197 8.10536 23.7072 8.29289C23.8947 8.48043 24.0001 8.73478 24.0001 9C24.0001 9.26522 23.8947 9.51957 23.7072 9.70711C23.5197 9.89464 23.2653 10 23.0001 10H18.0001V12H23.0001C23.2653 12 23.5197 12.1054 23.7072 12.2929C23.8947 12.4804 24.0001 12.7348 24.0001 13C24.0001 13.2652 23.8947 13.5196 23.7072 13.7071C23.5197 13.8946 23.2653 14 23.0001 14H18.0001V16H23.0001C23.2653 16 23.5197 16.1054 23.7072 16.2929C23.8947 16.4804 24.0001 16.7348 24.0001 17C24.0001 17.2652 23.8947 17.5196 23.7072 17.7071C23.5197 17.8946 23.2653 18 23.0001 18H18.0001V23C18.0001 23.2652 17.8947 23.5196 17.7072 23.7071C17.5197 23.8946 17.2653 24 17.0001 24C16.7349 24 16.4805 23.8946 16.293 23.7071C16.1054 23.5196 16.0001 23.2652 16.0001 23V5C16.0017 3.67441 16.529 2.40356 17.4663 1.46622C18.4036 0.528882 19.6745 0.00158786 21.0001 0L23.0001 0C23.2653 0 23.5197 0.105357 23.7072 0.292893C23.8947 0.48043 24.0001 0.734784 24.0001 1C24.0001 1.26522 23.8947 1.51957 23.7072 1.70711C23.5197 1.89464 23.2653 2 23.0001 2H21.0001C20.3818 2.00256 19.7795 2.19608 19.2754 2.55409C18.7713 2.91209 18.3902 3.41709 18.1841 4H23.0001C23.2653 4 23.5197 4.10536 23.7072 4.29289C23.8947 4.48043 24.0001 4.73478 24.0001 5C24.0001 5.26522 23.8947 5.51957 23.7072 5.70711C23.5197 5.89464 23.2653 6 23.0001 6H18.0001Z" fill="black"/>
</g>
<defs>
<clipPath id="clip0">
<rect width="24" height="24" fill="white"/>
</clipPath>
</defs>
</svg>
