<svg width="24" height="24" viewBox="0 0 24 24" fill="none" xmlns="http://www.w3.org/2000/svg">
<path d="M20.4852 3.51486C18.8074 1.8386 16.6703 0.69739 14.344 0.235507C12.0176 -0.226376 9.60663 0.0117995 7.41567 0.919926C5.2247 1.82805 3.35216 3.36536 2.03474 5.33752C0.717313 7.30968 0.0141602 9.62815 0.0141602 11.9999C0.0141602 14.3716 0.717313 16.69 2.03474 18.6622C3.35216 20.6344 5.2247 22.1717 7.41567 23.0798C9.60663 23.9879 12.0176 24.2261 14.344 23.7642C16.6703 23.3023 18.8074 22.1611 20.4852 20.4849C22.7323 18.2328 23.9943 15.1813 23.9943 11.9999C23.9943 8.81846 22.7323 5.76696 20.4852 3.51486ZM21.9342 10.9319C20.7351 11.0773 19.5185 10.9481 18.3767 10.554C17.2348 10.1598 16.1976 9.51111 15.3435 8.6569C14.4893 7.8027 13.8407 6.76539 13.4467 5.62349C13.0527 4.48159 12.9236 3.26502 13.0692 2.06586C15.339 2.30449 17.4579 3.3153 19.0716 4.92917C20.6853 6.54305 21.6959 8.66211 21.9342 10.9319ZM2.06624 13.0679C3.26541 12.9224 4.48196 13.0516 5.62382 13.4458C6.76567 13.8399 7.80291 14.4886 8.65702 15.3428C9.51113 16.197 10.1597 17.2343 10.5537 18.3762C10.9478 19.5181 11.0768 20.7347 10.9312 21.9339C8.66151 21.6952 6.54256 20.6844 4.92886 19.0706C3.31517 17.4567 2.30461 15.3376 2.06624 13.0679ZM19.0712 19.0679C17.4283 20.7144 15.2604 21.7331 12.9442 21.9469C13.0877 20.4801 12.9043 18.9998 12.4072 17.6125C11.9101 16.2251 11.1116 14.9652 10.0692 13.9234C9.02687 12.8816 7.76653 12.0839 6.3789 11.5875C4.99128 11.0911 3.51088 10.9086 2.04424 11.0529C2.26175 8.73715 3.28133 6.57016 4.92681 4.92632C6.5723 3.28248 8.74031 2.26506 11.0562 2.04986C10.9218 3.43642 11.0789 4.83577 11.5175 6.15798C11.9561 7.48019 12.6665 8.696 13.603 9.72728C14.5395 10.7586 15.6815 11.5825 16.9554 12.1461C18.2294 12.7097 19.6072 13.0005 21.0002 12.9999C21.3172 12.9999 21.6352 12.9839 21.9532 12.9539C21.736 15.2668 20.7165 17.4308 19.0712 19.0709V19.0679Z" fill="black"/>
</svg>
