<svg width="24" height="24" viewBox="0 0 24 24" fill="none" xmlns="http://www.w3.org/2000/svg">
<g clip-path="url(#clip0)">
<path d="M6.96221 5.81836C7.12797 5.81836 7.28694 5.75251 7.40415 5.6353C7.52136 5.51809 7.58721 5.35912 7.58721 5.19336C7.58721 5.0276 7.52136 4.86863 7.40415 4.75142C7.28694 4.63421 7.12797 4.56836 6.96221 4.56836H4.76221C4.59645 4.56836 4.43748 4.63421 4.32027 4.75142C4.20306 4.86863 4.13721 5.0276 4.13721 5.19336V10.4074C4.13721 10.5731 4.20306 10.7321 4.32027 10.8493C4.43748 10.9665 4.59645 11.0324 4.76221 11.0324H6.96221C7.12797 11.0324 7.28694 10.9665 7.40415 10.8493C7.52136 10.7321 7.58721 10.5731 7.58721 10.4074C7.58721 10.2416 7.52136 10.0826 7.40415 9.96542C7.28694 9.84821 7.12797 9.78236 6.96221 9.78236H5.39121V8.42536H6.80021C6.96597 8.42536 7.12494 8.35951 7.24215 8.2423C7.35936 8.12509 7.42521 7.96612 7.42521 7.80036C7.42521 7.6346 7.35936 7.47563 7.24215 7.35842C7.12494 7.24121 6.96597 7.17536 6.80021 7.17536H5.39121V5.81836H6.96221Z" fill="black"/>
<path d="M10.9391 4.54395H9.47507C9.30922 4.54451 9.15033 4.61065 9.03307 4.72795C9.02507 4.73595 9.02207 4.74795 9.01407 4.75695C8.96623 4.80731 8.92733 4.86548 8.89907 4.92895C8.87849 4.98656 8.86636 5.04685 8.86307 5.10794C8.86307 5.12894 8.85107 5.14795 8.85107 5.16895V10.4309C8.85107 10.5967 8.91692 10.7557 9.03413 10.8729C9.15134 10.9901 9.31031 11.0559 9.47607 11.0559C9.64183 11.0559 9.80081 10.9901 9.91802 10.8729C10.0352 10.7557 10.1011 10.5967 10.1011 10.4309V8.76794H10.9401C11.4997 8.76794 12.0364 8.54564 12.4321 8.14994C12.8278 7.75424 13.0501 7.21755 13.0501 6.65795C13.0501 6.09834 12.8278 5.56165 12.4321 5.16595C12.0364 4.77025 11.4997 4.54795 10.9401 4.54795L10.9391 4.54395ZM10.9391 7.51395H10.1071V5.78995H10.9441C11.057 5.78995 11.1688 5.81219 11.2732 5.85541C11.3775 5.89863 11.4723 5.96197 11.5522 6.04183C11.632 6.12169 11.6954 6.2165 11.7386 6.32084C11.7818 6.42518 11.8041 6.53701 11.8041 6.64995C11.8041 6.76288 11.7818 6.87471 11.7386 6.97905C11.6954 7.08339 11.632 7.1782 11.5522 7.25806C11.4723 7.33792 11.3775 7.40126 11.2732 7.44448C11.1688 7.4877 11.057 7.50995 10.9441 7.50995L10.9391 7.51395Z" fill="black"/>
<path d="M19 0H5C3.67441 0.00158786 2.40356 0.528882 1.46622 1.46622C0.528882 2.40356 0.00158786 3.67441 0 5L0 19C0.00158786 20.3256 0.528882 21.5964 1.46622 22.5338C2.40356 23.4711 3.67441 23.9984 5 24H16.343C16.9999 24.0019 17.6507 23.8735 18.2576 23.6222C18.8646 23.3709 19.4157 23.0017 19.879 22.536L22.535 19.878C23.0007 19.4149 23.37 18.864 23.6215 18.2572C23.873 17.6504 24.0016 16.9998 24 16.343V5C23.9984 3.67441 23.4711 2.40356 22.5338 1.46622C21.5964 0.528882 20.3256 0.00158786 19 0V0ZM2 19V5C2 4.20435 2.31607 3.44129 2.87868 2.87868C3.44129 2.31607 4.20435 2 5 2H19C19.7956 2 20.5587 2.31607 21.1213 2.87868C21.6839 3.44129 22 4.20435 22 5V15H18C17.2044 15 16.4413 15.3161 15.8787 15.8787C15.3161 16.4413 15 17.2044 15 18V22H5C4.20435 22 3.44129 21.6839 2.87868 21.1213C2.31607 20.5587 2 19.7956 2 19ZM18.465 21.122C18.063 21.523 17.5547 21.8006 17 21.922V18C17 17.7348 17.1054 17.4804 17.2929 17.2929C17.4804 17.1054 17.7348 17 18 17H21.925C21.8013 17.5535 21.524 18.0609 21.125 18.464L18.465 21.122Z" fill="black"/>
<path d="M16.8572 7.25455C16.5842 7.16155 16.3012 7.11055 16.0222 7.03755C15.8008 6.99287 15.5956 6.88922 15.4282 6.73755C15.3464 6.65992 15.2885 6.56041 15.2616 6.45085C15.2346 6.34129 15.2397 6.2263 15.2762 6.11955C15.3229 6.02719 15.3926 5.94844 15.4786 5.89097C15.5646 5.8335 15.6641 5.79925 15.7672 5.79155C15.9736 5.7787 16.1803 5.80902 16.3742 5.88055C16.653 5.96748 16.9265 6.07065 17.1932 6.18955C17.4882 6.31855 17.8342 6.39555 18.0722 6.11555C18.1573 6.01305 18.2065 5.88552 18.2123 5.75244C18.218 5.61936 18.1801 5.48804 18.1042 5.37855C18.0005 5.22792 17.8606 5.10583 17.6972 5.02355C17.3348 4.81076 16.9338 4.67194 16.5174 4.61512C16.101 4.5583 15.6774 4.58462 15.2712 4.69255C14.8379 4.8297 14.4717 5.12446 14.2452 5.51855C14.139 5.7055 14.0688 5.91071 14.0382 6.12355C13.9825 6.50639 14.0655 6.89656 14.2722 7.22355C14.5056 7.56517 14.8424 7.82282 15.2332 7.95855C15.6422 8.12655 16.0502 8.28955 16.4652 8.44155C16.6439 8.49776 16.8083 8.5919 16.9472 8.71755C17.024 8.79029 17.0788 8.88315 17.1053 8.98553C17.1318 9.08791 17.129 9.19569 17.0972 9.29655C17.0556 9.39387 16.9931 9.48085 16.9141 9.55135C16.8351 9.62185 16.7416 9.67415 16.6402 9.70455C16.328 9.82194 15.9861 9.83422 15.6662 9.73955C15.355 9.62693 15.0674 9.45738 14.8182 9.23955C14.7922 9.21855 14.7072 9.15455 14.6912 9.13955C14.5782 9.05876 14.4407 9.01968 14.3021 9.02899C14.1635 9.03829 14.0324 9.09539 13.9312 9.19055C13.8704 9.2457 13.8211 9.31229 13.786 9.38651C13.7509 9.46074 13.7308 9.54115 13.7268 9.62315C13.7228 9.70514 13.735 9.78713 13.7627 9.86441C13.7904 9.94169 13.8331 10.0128 13.8882 10.0736C14.1834 10.3869 14.5399 10.6361 14.9356 10.8056C15.3314 10.9751 15.7578 11.0612 16.1882 11.0586C16.688 11.0805 17.1797 10.9265 17.5776 10.6234C17.9756 10.3203 18.2546 9.8872 18.3662 9.39955C18.414 9.10012 18.3838 8.79345 18.2788 8.50903C18.1737 8.22462 17.9972 7.97202 17.7662 7.77555C17.5007 7.54343 17.1917 7.36634 16.8572 7.25455Z" fill="black"/>
</g>
<defs>
<clipPath id="clip0">
<rect width="24" height="24" fill="white"/>
</clipPath>
</defs>
</svg>
