<svg width="24" height="24" viewBox="0 0 24 24" fill="none" xmlns="http://www.w3.org/2000/svg">
<path d="M20.494 7.96787L10.954 0.967865C10.2089 0.42225 9.32722 0.0936595 8.40676 0.0185285C7.48631 -0.0566025 6.56302 0.124662 5.7393 0.542223C4.91557 0.959783 4.22358 1.59732 3.74006 2.38415C3.25654 3.17098 3.00039 4.07635 3 4.99987V18.9999C3.00016 19.9238 3.25633 20.8296 3.74007 21.6168C4.22382 22.404 4.91621 23.0417 5.74042 23.4593C6.56463 23.8768 7.48841 24.0578 8.40925 23.9822C9.33008 23.9066 10.212 23.5773 10.957 23.0309L20.497 16.0309C21.1303 15.5665 21.6452 14.9594 22.0002 14.2589C22.3552 13.5584 22.5401 12.7842 22.5401 11.9989C22.5401 11.2136 22.3552 10.4393 22.0002 9.73881C21.6452 9.03831 21.1303 8.43127 20.497 7.96687L20.494 7.96787ZM19.31 14.4179L9.77 21.4179C9.32302 21.7445 8.79437 21.9411 8.24257 21.9858C7.69078 22.0306 7.13736 21.9218 6.64357 21.6715C6.14978 21.4212 5.73488 21.0391 5.4448 20.5676C5.15472 20.0961 5.00078 19.5535 5 18.9999V4.99987C4.99445 4.44521 5.14549 3.90025 5.43578 3.42759C5.72606 2.95493 6.1438 2.57376 6.641 2.32787C7.06389 2.11276 7.53154 2.00038 8.006 1.99987C8.64189 2.00229 9.26022 2.20875 9.77 2.58887L19.31 9.58887C19.6895 9.86756 19.9981 10.2317 20.2107 10.6517C20.4234 11.0718 20.5343 11.536 20.5343 12.0069C20.5343 12.4777 20.4234 12.9419 20.2107 13.362C19.9981 13.7821 19.6895 14.1462 19.31 14.4249V14.4179Z" fill="black"/>
</svg>
