<svg width="24" height="24" viewBox="0 0 24 24" fill="none" xmlns="http://www.w3.org/2000/svg">
<path d="M19 22H5C3.67441 21.9984 2.40356 21.4711 1.46622 20.5338C0.528882 19.5964 0.00158786 18.3256 0 17L0 7C0.00158786 5.67441 0.528882 4.40356 1.46622 3.46622C2.40356 2.52888 3.67441 2.00159 5 2H19C20.3256 2.00159 21.5964 2.52888 22.5338 3.46622C23.4711 4.40356 23.9984 5.67441 24 7V17C23.9984 18.3256 23.4711 19.5964 22.5338 20.5338C21.5964 21.4711 20.3256 21.9984 19 22ZM5 4C4.20435 4 3.44129 4.31607 2.87868 4.87868C2.31607 5.44129 2 6.20435 2 7V17C2 17.7956 2.31607 18.5587 2.87868 19.1213C3.44129 19.6839 4.20435 20 5 20H19C19.7956 20 20.5587 19.6839 21.1213 19.1213C21.6839 18.5587 22 17.7956 22 17V7C22 6.20435 21.6839 5.44129 21.1213 4.87868C20.5587 4.31607 19.7956 4 19 4H5Z" fill="black"/>
<path d="M19 13H11C10.7348 13 10.4804 12.8946 10.2929 12.7071C10.1054 12.5196 10 12.2652 10 12C10 11.7348 10.1054 11.4804 10.2929 11.2929C10.4804 11.1054 10.7348 11 11 11H19C19.2652 11 19.5196 11.1054 19.7071 11.2929C19.8946 11.4804 20 11.7348 20 12C20 12.2652 19.8946 12.5196 19.7071 12.7071C19.5196 12.8946 19.2652 13 19 13Z" fill="black"/>
<path d="M7 13H5C4.73478 13 4.48043 12.8946 4.29289 12.7071C4.10536 12.5196 4 12.2652 4 12C4 11.7348 4.10536 11.4804 4.29289 11.2929C4.48043 11.1054 4.73478 11 5 11H7C7.26522 11 7.51957 11.1054 7.70711 11.2929C7.89464 11.4804 8 11.7348 8 12C8 12.2652 7.89464 12.5196 7.70711 12.7071C7.51957 12.8946 7.26522 13 7 13Z" fill="black"/>
<path d="M13 18H5C4.73478 18 4.48043 17.8946 4.29289 17.7071C4.10536 17.5196 4 17.2652 4 17C4 16.7348 4.10536 16.4804 4.29289 16.2929C4.48043 16.1054 4.73478 16 5 16H13C13.2652 16 13.5196 16.1054 13.7071 16.2929C13.8946 16.4804 14 16.7348 14 17C14 17.2652 13.8946 17.5196 13.7071 17.7071C13.5196 17.8946 13.2652 18 13 18Z" fill="black"/>
<path d="M19 18H17C16.7348 18 16.4804 17.8946 16.2929 17.7071C16.1054 17.5196 16 17.2652 16 17C16 16.7348 16.1054 16.4804 16.2929 16.2929C16.4804 16.1054 16.7348 16 17 16H19C19.2652 16 19.5196 16.1054 19.7071 16.2929C19.8946 16.4804 20 16.7348 20 17C20 17.2652 19.8946 17.5196 19.7071 17.7071C19.5196 17.8946 19.2652 18 19 18Z" fill="black"/>
</svg>
