<svg width="24" height="24" viewBox="0 0 24 24" fill="none" xmlns="http://www.w3.org/2000/svg">
<g clip-path="url(#clip0)">
<path d="M15 3.849C15.0031 4.04787 15.0643 4.24148 15.1761 4.406C15.2879 4.57053 15.4453 4.69879 15.629 4.775C17.2712 5.49759 18.66 6.69451 19.617 8.21211C20.574 9.72971 21.0556 11.4987 21 13.292C20.9613 15.679 19.9759 17.9528 18.2607 19.6132C16.5455 21.2737 14.2409 22.1847 11.854 22.146C9.46703 22.1073 7.19323 21.1219 5.53278 19.4067C3.87233 17.6915 2.96126 15.387 2.99998 13C3.00229 11.2562 3.51113 9.55068 4.46463 8.09068C5.41814 6.63069 6.77525 5.47913 8.37098 4.776C8.55477 4.69933 8.71219 4.57068 8.82392 4.40584C8.93565 4.24099 8.99684 4.04712 8.99998 3.848C9.00024 3.68421 8.96026 3.52287 8.88356 3.37815C8.80686 3.23343 8.69578 3.10976 8.5601 3.01802C8.42441 2.92628 8.26827 2.86927 8.10539 2.852C7.94251 2.83474 7.77788 2.85775 7.62598 2.919C5.30526 3.92514 3.4022 5.70035 2.23734 7.9456C1.07249 10.1908 0.717009 12.7689 1.23079 15.2457C1.74457 17.7224 3.09621 19.9463 5.05805 21.543C7.01989 23.1396 9.47204 24.0113 12.0015 24.0113C14.5309 24.0113 16.9831 23.1396 18.9449 21.543C20.9067 19.9463 22.2584 17.7224 22.7722 15.2457C23.286 12.7689 22.9305 10.1908 21.7656 7.9456C20.6008 5.70035 18.6977 3.92514 16.377 2.919C16.2248 2.85708 16.0598 2.83358 15.8964 2.85059C15.7331 2.8676 15.5764 2.92458 15.4403 3.01651C15.3042 3.10844 15.1928 3.23249 15.116 3.37768C15.0392 3.52288 14.9994 3.68475 15 3.849Z" fill="black"/>
<path d="M13 1C13 0.447715 12.5523 0 12 0C11.4477 0 11 0.447715 11 1V7C11 7.55228 11.4477 8 12 8C12.5523 8 13 7.55228 13 7V1Z" fill="black"/>
</g>
<defs>
<clipPath id="clip0">
<rect width="24" height="24" fill="white"/>
</clipPath>
</defs>
</svg>
