<svg width="24" height="24" viewBox="0 0 24 24" fill="none" xmlns="http://www.w3.org/2000/svg">
<g clip-path="url(#clip0)">
<path d="M20.466 1.9673L14.78 0.221299C13.5249 -0.160941 12.17 -0.035708 11.0063 0.570099C9.84251 1.17591 8.96277 2.21396 8.556 3.4613L8.368 4.0003H5C3.67441 4.00189 2.40356 4.52918 1.46622 5.46652C0.528882 6.40386 0.00158786 7.6747 0 9.0003L0 19.0003C0.00158786 20.3259 0.528882 21.5967 1.46622 22.5341C2.40356 23.4714 3.67441 23.9987 5 24.0003H11C11.7575 23.9977 12.5044 23.822 13.1838 23.4869C13.8631 23.1517 14.457 22.6658 14.92 22.0663C15.1482 22.0994 15.3784 22.1168 15.609 22.1183C16.6828 22.1191 17.7281 21.7726 18.5887 21.1304C19.4493 20.4882 20.0791 19.5849 20.384 18.5553L23.8 8.1563C24.1649 6.8936 24.0202 5.53814 23.3968 4.38098C22.7735 3.22383 21.7212 2.35724 20.466 1.9673ZM11 22.0003H5C4.20435 22.0003 3.44129 21.6842 2.87868 21.1216C2.31607 20.559 2 19.7959 2 19.0003V9.0003C2 8.20465 2.31607 7.44159 2.87868 6.87898C3.44129 6.31637 4.20435 6.0003 5 6.0003H11C11.7956 6.0003 12.5587 6.31637 13.1213 6.87898C13.6839 7.44159 14 8.20465 14 9.0003V19.0003C14 19.7959 13.6839 20.559 13.1213 21.1216C12.5587 21.6842 11.7956 22.0003 11 22.0003ZM21.887 7.5633L18.475 17.9633C18.3054 18.5386 17.9669 19.0497 17.5033 19.4302C17.0396 19.8108 16.4723 20.0432 15.875 20.0973C15.9571 19.7374 15.999 19.3695 16 19.0003V9.0003C15.9984 7.6747 15.4711 6.40386 14.5338 5.46652C13.5964 4.52918 12.3256 4.00189 11 4.0003H10.493C10.7511 3.27287 11.2797 2.67293 11.9688 2.32521C12.6579 1.97749 13.4545 1.90876 14.193 2.1333L19.879 3.8793C20.6279 4.1104 21.2569 4.62486 21.632 5.31303C22.0071 6.0012 22.0986 6.80865 21.887 7.5633ZM12 13.0003C12 14.4503 10.456 16.3913 9.286 17.3783C8.92652 17.6824 8.47088 17.8493 8 17.8493C7.52912 17.8493 7.07348 17.6824 6.714 17.3783C5.544 16.3913 4 14.4503 4 13.0003C4 12.4699 4.21071 11.9612 4.58579 11.5861C4.96086 11.211 5.46957 11.0003 6 11.0003C6.53043 11.0003 7.03914 11.211 7.41421 11.5861C7.78929 11.9612 8 12.4699 8 13.0003C8 12.4699 8.21071 11.9612 8.58579 11.5861C8.96086 11.211 9.46957 11.0003 10 11.0003C10.5304 11.0003 11.0391 11.211 11.4142 11.5861C11.7893 11.9612 12 12.4699 12 13.0003Z" fill="black"/>
</g>
<defs>
<clipPath id="clip0">
<rect width="24" height="24" fill="white"/>
</clipPath>
</defs>
</svg>
