<svg width="24" height="24" viewBox="0 0 24 24" fill="none" xmlns="http://www.w3.org/2000/svg">
<g clip-path="url(#clip0)">
<path d="M12 0C9.62663 0 7.30655 0.703788 5.33316 2.02236C3.35977 3.34094 1.8217 5.21509 0.913451 7.4078C0.00519943 9.60051 -0.232441 12.0133 0.230582 14.3411C0.693605 16.6689 1.83649 18.8071 3.51472 20.4853C5.19295 22.1635 7.33115 23.3064 9.65892 23.7694C11.9867 24.2324 14.3995 23.9948 16.5922 23.0866C18.7849 22.1783 20.6591 20.6402 21.9776 18.6668C23.2962 16.6935 24 14.3734 24 12C23.9966 8.81846 22.7312 5.76821 20.4815 3.51852C18.2318 1.26883 15.1815 0.00344108 12 0V0ZM12 22C10.0222 22 8.08879 21.4135 6.4443 20.3147C4.79981 19.2159 3.51809 17.6541 2.76121 15.8268C2.00433 13.9996 1.8063 11.9889 2.19215 10.0491C2.578 8.10929 3.53041 6.32746 4.92894 4.92893C6.32746 3.53041 8.10929 2.578 10.0491 2.19215C11.9889 1.8063 13.9996 2.00433 15.8268 2.7612C17.6541 3.51808 19.2159 4.79981 20.3147 6.4443C21.4135 8.08879 22 10.0222 22 12C21.9971 14.6513 20.9426 17.1931 19.0679 19.0679C17.1931 20.9426 14.6513 21.9971 12 22Z" fill="black"/>
<path d="M10.6381 12.5059C10.504 12.3717 10.4286 12.1897 10.4286 12C10.4286 11.8103 10.504 11.6283 10.6381 11.4941L13.9189 8.21264C14.0492 8.07768 14.1214 7.89694 14.1197 7.70932C14.1181 7.52171 14.0428 7.34224 13.9102 7.20958C13.7775 7.07691 13.598 7.00166 13.4104 7.00003C13.2228 6.9984 13.0421 7.07052 12.9071 7.20086L9.6285 10.4823C9.22607 10.8849 9 11.4308 9 12C9 12.5692 9.22607 13.1151 9.6285 13.5177L12.91 16.7991C13.0449 16.9295 13.2257 17.0016 13.4133 17C13.6009 16.9983 13.7804 16.9231 13.913 16.7904C14.0457 16.6578 14.121 16.4783 14.1226 16.2907C14.1242 16.1031 14.0521 15.9223 13.9218 15.7874L10.6381 12.5059Z" fill="black"/>
</g>
<defs>
<clipPath id="clip0">
<rect width="24" height="24" fill="white"/>
</clipPath>
</defs>
</svg>
