<svg width="24" height="24" viewBox="0 0 24 24" fill="none" xmlns="http://www.w3.org/2000/svg">
<g clip-path="url(#clip0)">
<path d="M21 8.00021H17C16.2044 8.00021 15.4413 8.31628 14.8787 8.87889C14.3161 9.4415 14 10.2046 14 11.0002V16.0002H12V12.0002C11.9994 10.9267 11.7108 9.8731 11.1643 8.94916C10.6178 8.02521 9.83344 7.2648 8.893 6.74721C9.43391 6.18072 9.7966 5.46789 9.93607 4.69715C10.0755 3.92641 9.98567 3.13168 9.67759 2.41155C9.36952 1.69143 8.8568 1.07759 8.20304 0.646207C7.54928 0.214821 6.78326 -0.0151367 6 -0.0151367C5.21674 -0.0151367 4.45072 0.214821 3.79696 0.646207C3.1432 1.07759 2.63048 1.69143 2.32241 2.41155C2.01433 3.13168 1.92445 3.92641 2.06393 4.69715C2.2034 5.46789 2.56609 6.18072 3.107 6.74721C2.16656 7.2648 1.3822 8.02521 0.835712 8.94916C0.289224 9.8731 0.000622181 10.9267 0 12.0002L0 23.0002C0 23.2654 0.105357 23.5198 0.292893 23.7073C0.48043 23.8949 0.734784 24.0002 1 24.0002C1.26522 24.0002 1.51957 23.8949 1.70711 23.7073C1.89464 23.5198 2 23.2654 2 23.0002V18.0002H22V23.0002C22 23.2654 22.1054 23.5198 22.2929 23.7073C22.4804 23.8949 22.7348 24.0002 23 24.0002C23.2652 24.0002 23.5196 23.8949 23.7071 23.7073C23.8946 23.5198 24 23.2654 24 23.0002V11.0002C24 10.2046 23.6839 9.4415 23.1213 8.87889C22.5587 8.31628 21.7956 8.00021 21 8.00021ZM4 4.00021C4 3.60465 4.1173 3.21797 4.33706 2.88907C4.55682 2.56017 4.86918 2.30382 5.23463 2.15245C5.60009 2.00107 6.00222 1.96147 6.39018 2.03864C6.77814 2.11581 7.13451 2.30629 7.41421 2.58599C7.69392 2.8657 7.8844 3.22207 7.96157 3.61003C8.03874 3.99799 7.99913 4.40012 7.84776 4.76558C7.69638 5.13103 7.44004 5.44338 7.11114 5.66315C6.78224 5.88291 6.39556 6.00021 6 6.00021C5.46957 6.00021 4.96086 5.78949 4.58579 5.41442C4.21071 5.03935 4 4.53064 4 4.00021ZM6 8.00021C7.06087 8.00021 8.07828 8.42164 8.82843 9.17178C9.57857 9.92193 10 10.9393 10 12.0002V16.0002H2V12.0002C2 10.9393 2.42143 9.92193 3.17157 9.17178C3.92172 8.42164 4.93913 8.00021 6 8.00021ZM16 16.0002V11.0002C16 10.735 16.1054 10.4806 16.2929 10.2931C16.4804 10.1056 16.7348 10.0002 17 10.0002H18V11.0002C18 11.2654 18.1054 11.5198 18.2929 11.7073C18.4804 11.8949 18.7348 12.0002 19 12.0002C19.2652 12.0002 19.5196 11.8949 19.7071 11.7073C19.8946 11.5198 20 11.2654 20 11.0002V10.0002H21C21.2652 10.0002 21.5196 10.1056 21.7071 10.2931C21.8946 10.4806 22 10.735 22 11.0002V16.0002H16Z" fill="black"/>
</g>
<defs>
<clipPath id="clip0">
<rect width="24" height="24" fill="white"/>
</clipPath>
</defs>
</svg>
