<svg width="24" height="24" viewBox="0 0 24 24" fill="none" xmlns="http://www.w3.org/2000/svg">
<path d="M13.0999 19.0002C12.9021 19.0004 12.7086 18.9418 12.5441 18.832C12.3795 18.7222 12.2512 18.5661 12.1754 18.3833C12.0996 18.2006 12.0797 17.9995 12.1183 17.8054C12.1568 17.6114 12.252 17.4331 12.3919 17.2932L16.9779 12.7072C17.1654 12.5197 17.2707 12.2654 17.2707 12.0002C17.2707 11.735 17.1654 11.4807 16.9779 11.2932L12.3999 6.7072C12.2124 6.51956 12.1071 6.26512 12.1072 5.99985C12.1073 5.73458 12.2128 5.48021 12.4004 5.2927C12.588 5.10519 12.8425 4.99991 13.1078 5C13.373 5.00009 13.6274 5.10556 13.8149 5.2932L18.3999 9.8792C18.9623 10.4418 19.2783 11.2047 19.2783 12.0002C19.2783 12.7957 18.9623 13.5586 18.3999 14.1212L13.8139 18.7072C13.7202 18.8009 13.6089 18.8751 13.4863 18.9254C13.3637 18.9757 13.2324 19.0011 13.0999 19.0002Z" fill="black"/>
<path d="M6.10023 19.0004C5.90308 18.999 5.71074 18.9393 5.5474 18.8289C5.38406 18.7185 5.257 18.5623 5.1822 18.3798C5.10739 18.1974 5.08818 17.997 5.12697 17.8037C5.16577 17.6104 5.26084 17.4328 5.40023 17.2934L10.6892 12.0004L5.40023 6.7074C5.22767 6.51736 5.13479 6.26824 5.14084 6.01161C5.14688 5.75498 5.25138 5.51051 5.4327 5.3288C5.61402 5.1471 5.85828 5.04208 6.11489 5.03549C6.37151 5.0289 6.62083 5.12124 6.81123 5.2934L12.8112 11.2934C12.9987 11.4809 13.104 11.7352 13.104 12.0004C13.104 12.2656 12.9987 12.5199 12.8112 12.7074L6.81123 18.7074C6.71792 18.8007 6.60705 18.8747 6.48503 18.925C6.363 18.9753 6.23222 19.0009 6.10023 19.0004Z" fill="black"/>
</svg>
