<svg width="24" height="24" viewBox="0 0 24 24" fill="none" xmlns="http://www.w3.org/2000/svg">
<g clip-path="url(#clip0)">
<path d="M18 7.00014C18 7.19792 17.9414 7.39126 17.8315 7.55571C17.7216 7.72016 17.5654 7.84833 17.3827 7.92402C17.2 7.99971 16.9989 8.01951 16.8049 7.98093C16.6109 7.94234 16.4327 7.8471 16.2929 7.70725C16.153 7.5674 16.0578 7.38921 16.0192 7.19523C15.9806 7.00125 16.0004 6.80018 16.0761 6.61746C16.1518 6.43473 16.28 6.27855 16.4444 6.16867C16.6089 6.05879 16.8022 6.00014 17 6.00014C17.2652 6.00014 17.5196 6.1055 17.7071 6.29303C17.8946 6.48057 18 6.73492 18 7.00014ZM14 9.00014C13.8022 9.00014 13.6089 9.05879 13.4444 9.16867C13.28 9.27855 13.1518 9.43473 13.0761 9.61746C13.0004 9.80018 12.9806 10.0013 13.0192 10.1952C13.0578 10.3892 13.153 10.5674 13.2929 10.7072C13.4327 10.8471 13.6109 10.9423 13.8049 10.9809C13.9989 11.0195 14.2 10.9997 14.3827 10.924C14.5654 10.8483 14.7216 10.7202 14.8315 10.5557C14.9414 10.3913 15 10.1979 15 10.0001C15 9.73492 14.8946 9.48057 14.7071 9.29303C14.5196 9.1055 14.2652 9.00014 14 9.00014ZM11 12.0001C10.8022 12.0001 10.6089 12.0588 10.4444 12.1687C10.28 12.2786 10.1518 12.4347 10.0761 12.6175C10.0004 12.8002 9.98063 13.0013 10.0192 13.1952C10.0578 13.3892 10.153 13.5674 10.2929 13.7072C10.4327 13.8471 10.6109 13.9423 10.8049 13.9809C10.9989 14.0195 11.2 13.9997 11.3827 13.924C11.5654 13.8483 11.7216 13.7202 11.8315 13.5557C11.9414 13.3913 12 13.1979 12 13.0001C12 12.7349 11.8946 12.4806 11.7071 12.293C11.5196 12.1055 11.2652 12.0001 11 12.0001ZM23.866 2.95814L23.791 3.16914C22.289 7.33714 20.848 11.3001 18 14.8201V15.0001C17.9982 16.5318 17.6772 18.0464 17.0574 19.447C16.4375 20.8477 15.5325 22.1038 14.4 23.1351C13.8005 23.6882 13.0157 23.9968 12.2 24.0001C11.3511 23.9975 10.5378 23.6587 9.93806 23.0578C9.33834 22.457 9.00105 21.6431 9 20.7941V19.6431C8.26209 19.4052 7.59039 18.9972 7.039 18.4521L7 18.4141L4.707 20.7071C4.5184 20.8893 4.2658 20.9901 4.0036 20.9878C3.7414 20.9855 3.49059 20.8804 3.30518 20.695C3.11977 20.5096 3.0146 20.2587 3.01233 19.9965C3.01005 19.7343 3.11084 19.4817 3.293 19.2931L5.586 17.0001L5.547 16.9621C5.00157 16.4101 4.59269 15.7382 4.353 15.0001H3.363C2.47149 14.9993 1.61671 14.6449 0.98623 14.0146C0.355746 13.3843 0.00105907 12.5296 0 11.6381C0.00176888 10.7675 0.337503 9.93062 0.938 9.30014C1.9835 8.2264 3.23879 7.37931 4.62576 6.81159C6.01272 6.24387 7.50169 5.96765 9 6.00014H9.18C12.7 3.15314 16.66 1.71214 20.826 0.211141L21.042 0.134141C21.4362 -0.0107777 21.8636 -0.0398336 22.2738 0.0504066C22.684 0.140647 23.0598 0.346412 23.3568 0.643389C23.6537 0.940366 23.8595 1.31615 23.9497 1.72633C24.04 2.13651 24.0109 2.56395 23.866 2.95814ZM3.363 13.0001H4.1C4.17512 12.1191 4.48258 11.2736 4.991 10.5501C5.54904 9.74725 6.15305 8.97729 6.8 8.24414C5.12253 8.59136 3.58896 9.43691 2.4 10.6701C2.14706 10.9293 2.00379 11.276 2 11.6381C2.00053 11.9994 2.14433 12.3457 2.39986 12.601C2.65539 12.8563 3.00176 12.9999 3.363 13.0001ZM15.7 17.2521C14.9827 17.88 14.2309 18.4673 13.448 19.0111C12.7239 19.5146 11.8791 19.8169 11 19.8871V20.7941C11.0005 21.114 11.1279 21.4206 11.3542 21.6467C11.5804 21.8728 11.8871 21.9999 12.207 22.0001C12.5241 21.9955 12.828 21.8724 13.059 21.6551C14.3482 20.475 15.2659 18.9451 15.7 17.2521ZM21.937 2.06314C21.9104 2.0335 21.8751 2.01294 21.8362 2.00433C21.7973 1.99572 21.7567 1.9995 21.72 2.01514L21.505 2.09314C16.661 3.83814 12.478 5.34614 8.876 8.94714C8.04974 9.7992 7.29768 10.7202 6.628 11.7001C6.22066 12.2783 6.03069 12.9818 6.09162 13.6864C6.15255 14.391 6.46046 15.0515 6.961 15.5511L8.453 17.0411C8.95242 17.5413 9.6124 17.8491 10.3166 17.9102C11.0208 17.9713 11.7239 17.7818 12.302 17.3751C13.2814 16.7056 14.2017 15.9535 15.053 15.1271C18.653 11.5271 20.163 7.34014 21.909 2.49414L21.985 2.28314C22.0012 2.24609 22.0053 2.20487 21.9966 2.16537C21.988 2.12586 21.9671 2.09009 21.937 2.06314Z" fill="black"/>
</g>
<defs>
<clipPath id="clip0">
<rect width="24" height="24" fill="white"/>
</clipPath>
</defs>
</svg>
