<svg width="24" height="24" viewBox="0 0 24 24" fill="none" xmlns="http://www.w3.org/2000/svg">
<g clip-path="url(#clip0)">
<path d="M23.8362 8.79395C23.6316 8.14285 23.223 7.57486 22.6706 7.17399C22.1183 6.77311 21.4516 6.56062 20.7692 6.56795H16.4002L15.0732 2.43195C14.8645 1.78091 14.4545 1.21297 13.9022 0.81002C13.3499 0.407071 12.6839 0.189941 12.0002 0.189941C11.3165 0.189941 10.6505 0.407071 10.0982 0.81002C9.54593 1.21297 9.13587 1.78091 8.92719 2.43195L7.60019 6.56795H3.23119C2.55094 6.56892 1.88838 6.78484 1.33817 7.18486C0.787961 7.58488 0.378234 8.14854 0.167514 8.79534C-0.043205 9.44214 -0.0441377 10.139 0.16485 10.7863C0.373837 11.4337 0.782054 11.9985 1.33119 12.4L4.88719 15L3.53519 19.187C3.3167 19.8363 3.31394 20.539 3.5273 21.19C3.74067 21.8411 4.15874 22.4058 4.71919 22.8C5.27004 23.2067 5.93759 23.4247 6.62235 23.4212C7.30711 23.4178 7.97244 23.1932 8.51919 22.781L12.0002 20.219L15.4822 22.778C16.032 23.1824 16.696 23.4021 17.3786 23.4054C18.0611 23.4087 18.7272 23.1955 19.281 22.7965C19.8347 22.3974 20.2477 21.833 20.4605 21.1844C20.6733 20.5359 20.6749 19.8365 20.4652 19.187L19.1132 15L22.6732 12.4C23.2286 12.0035 23.6416 11.4388 23.8511 10.7893C24.0605 10.1398 24.0553 9.44021 23.8362 8.79395ZM21.4932 10.785L17.3492 13.814C17.179 13.9381 17.0523 14.1129 16.9873 14.3133C16.9223 14.5137 16.9223 14.7295 16.9872 14.93L18.5622 19.8C18.6419 20.047 18.6412 20.3129 18.5602 20.5595C18.4793 20.8061 18.3222 21.0206 18.1116 21.1723C17.901 21.324 17.6477 21.405 17.3882 21.4037C17.1287 21.4024 16.8762 21.3188 16.6672 21.165L12.5922 18.165C12.4206 18.0389 12.2132 17.9709 12.0002 17.9709C11.7872 17.9709 11.5798 18.0389 11.4082 18.165L7.33319 21.165C7.12428 21.3209 6.87113 21.4062 6.61046 21.4086C6.34978 21.4109 6.09513 21.3302 5.88342 21.1781C5.67171 21.026 5.51394 20.8104 5.43299 20.5626C5.35204 20.3148 5.35211 20.0477 5.43319 19.8L7.01319 14.93C7.07811 14.7295 7.07806 14.5137 7.01305 14.3133C6.94805 14.1129 6.8214 13.9381 6.65119 13.814L2.50719 10.785C2.2985 10.6321 2.14343 10.4173 2.06413 10.1711C1.98484 9.92489 1.98538 9.65993 2.06568 9.41405C2.14597 9.16817 2.30192 8.95396 2.51123 8.80201C2.72055 8.65005 2.97254 8.56814 3.23119 8.56795H8.33119C8.54291 8.56795 8.74916 8.50075 8.92024 8.37603C9.09132 8.25131 9.21841 8.07551 9.28319 7.87395L10.8332 3.04295C10.9128 2.79574 11.0687 2.58015 11.2786 2.4272C11.4885 2.27426 11.7415 2.19186 12.0012 2.19186C12.2609 2.19186 12.5139 2.27426 12.7238 2.4272C12.9337 2.58015 13.0896 2.79574 13.1692 3.04295L14.7192 7.87395C14.784 8.07551 14.9111 8.25131 15.0821 8.37603C15.2532 8.50075 15.4595 8.56795 15.6712 8.56795H20.7712C21.0299 8.56814 21.2818 8.65005 21.4912 8.80201C21.7005 8.95396 21.8564 9.16817 21.9367 9.41405C22.017 9.65993 22.0175 9.92489 21.9383 10.1711C21.859 10.4173 21.7039 10.6321 21.4952 10.785H21.4932Z" fill="black"/>
</g>
<defs>
<clipPath id="clip0">
<rect width="24" height="24" fill="white"/>
</clipPath>
</defs>
</svg>
