<svg width="24" height="24" viewBox="0 0 24 24" fill="none" xmlns="http://www.w3.org/2000/svg">
<g clip-path="url(#clip0)">
<path d="M9.99977 7.99958C10.3953 7.99958 10.782 8.11688 11.1109 8.33664C11.4398 8.55641 11.6962 8.86876 11.8475 9.23422C11.9989 9.59967 12.0385 10.0018 11.9613 10.3898C11.8842 10.7777 11.6937 11.1341 11.414 11.4138C11.1343 11.6935 10.7779 11.884 10.39 11.9612C10.002 12.0383 9.59986 11.9987 9.2344 11.8473C8.86895 11.696 8.55659 11.4396 8.33683 11.1107C8.11707 10.7818 7.99977 10.3951 7.99977 9.99958C7.99977 9.46915 8.21049 8.96044 8.58556 8.58537C8.96063 8.2103 9.46934 7.99958 9.99977 7.99958ZM23.9998 9.99958C23.9898 13.2932 22.8407 16.482 20.7476 19.0249C18.6544 21.5679 15.746 23.3086 12.5158 23.9516C12.088 24.0297 11.6482 24.0123 11.228 23.9007C10.8077 23.789 10.4173 23.5858 10.0848 23.3056C9.74512 23.0228 9.47185 22.6687 9.28434 22.2684C9.09683 21.8682 8.99968 21.4316 8.99977 20.9896V19.9486C7.31696 19.7806 5.70424 19.1885 4.31243 18.2278C2.92063 17.2671 1.79521 15.9691 1.04142 14.4552C0.287634 12.9413 -0.0698929 11.261 0.00227432 9.57132C0.0744415 7.88168 0.573946 6.23794 1.45407 4.79383C2.3342 3.34971 3.5662 2.1524 5.03485 1.31386C6.50351 0.475318 8.16083 0.0229452 9.85185 -0.000954314C11.5429 -0.0248539 13.2123 0.3805 14.7041 1.1772C16.1958 1.9739 17.4612 3.13592 18.3818 4.55458C18.4534 4.66502 18.5026 4.7885 18.5265 4.91794C18.5504 5.04739 18.5486 5.18028 18.5212 5.30903C18.4937 5.43778 18.4412 5.55986 18.3666 5.66831C18.292 5.77676 18.1967 5.86945 18.0863 5.94108C17.9758 6.01272 17.8524 6.0619 17.7229 6.08582C17.5935 6.10974 17.4606 6.10793 17.3318 6.08049C17.2031 6.05305 17.081 6.00052 16.9725 5.9259C16.8641 5.85128 16.7714 5.75602 16.6998 5.64558C15.7606 4.19798 14.3786 3.09282 12.7599 2.49502C11.1412 1.89721 9.37265 1.8388 7.71804 2.3285C6.06343 2.8182 4.61151 3.82976 3.57891 5.21224C2.54631 6.59473 1.98839 8.27403 1.98839 9.99958C1.98839 11.7251 2.54631 13.4044 3.57891 14.7869C4.61151 16.1694 6.06343 17.181 7.71804 17.6707C9.37265 18.1604 11.1412 18.102 12.7599 17.5041C14.3786 16.9063 15.7606 15.8012 16.6998 14.3536C16.7714 14.2435 16.864 14.1485 16.9724 14.0742C17.0807 13.9999 17.2026 13.9477 17.3311 13.9204C17.4596 13.8932 17.5922 13.8916 17.7214 13.9157C17.8505 13.9397 17.9737 13.9889 18.0838 14.0606C18.1939 14.1322 18.2888 14.2248 18.3631 14.3332C18.4374 14.4415 18.4897 14.5634 18.5169 14.6919C18.5441 14.8204 18.5457 14.953 18.5217 15.0822C18.4977 15.2113 18.4484 15.3345 18.3768 15.4446C17.5632 16.6991 16.4776 17.7543 15.2006 18.5319C13.9235 19.3095 12.4877 19.7896 10.9998 19.9366V20.9896C10.9999 21.1387 11.0328 21.286 11.0962 21.421C11.1597 21.556 11.252 21.6753 11.3668 21.7706C11.4743 21.863 11.6012 21.9301 11.7381 21.9669C11.875 22.0038 12.0184 22.0095 12.1578 21.9836C14.4342 21.5324 16.5346 20.4408 18.2121 18.8372C19.8896 17.2335 21.0746 15.1844 21.6278 12.9306C21.4215 12.976 21.211 12.9991 20.9998 12.9996C20.4064 12.9996 19.8264 12.8236 19.3331 12.494C18.8397 12.1643 18.4552 11.6958 18.2281 11.1476C18.0011 10.5995 17.9417 9.99626 18.0574 9.41431C18.1732 8.83237 18.4589 8.29782 18.8785 7.87826C19.298 7.45871 19.8326 7.17298 20.4145 7.05723C20.9964 6.94147 21.5996 7.00088 22.1478 7.22794C22.696 7.45501 23.1645 7.83952 23.4942 8.33287C23.8238 8.82622 23.9998 9.40624 23.9998 9.99958ZM21.9998 9.99958C21.9998 9.8018 21.9411 9.60846 21.8312 9.44401C21.7214 9.27956 21.5652 9.15139 21.3825 9.0757C21.1997 9.00002 20.9987 8.98021 20.8047 9.0188C20.6107 9.05738 20.4325 9.15262 20.2927 9.29248C20.1528 9.43233 20.0576 9.61051 20.019 9.80449C19.9804 9.99847 20.0002 10.1995 20.0759 10.3823C20.1516 10.565 20.2798 10.7212 20.4442 10.8311C20.6087 10.9409 20.802 10.9996 20.9998 10.9996C21.265 10.9996 21.5193 10.8942 21.7069 10.7067C21.8944 10.5192 21.9998 10.2648 21.9998 9.99958Z" fill="black"/>
</g>
<defs>
<clipPath id="clip0">
<rect width="24" height="24" fill="white"/>
</clipPath>
</defs>
</svg>
