<svg width="24" height="24" viewBox="0 0 24 24" fill="none" xmlns="http://www.w3.org/2000/svg">
<g clip-path="url(#clip0)">
<path d="M9 24H1C0.734784 24 0.48043 23.8946 0.292893 23.7071C0.105357 23.5196 0 23.2652 0 23C0 22.7348 0.105357 22.4804 0.292893 22.2929C0.48043 22.1054 0.734784 22 1 22H9C9.26522 22 9.51957 22.1054 9.70711 22.2929C9.89464 22.4804 10 22.7348 10 23C10 23.2652 9.89464 23.5196 9.70711 23.7071C9.51957 23.8946 9.26522 24 9 24Z" fill="black"/>
<path d="M7 20H1C0.734784 20 0.48043 19.8946 0.292893 19.7071C0.105357 19.5196 0 19.2652 0 19C0 18.7348 0.105357 18.4804 0.292893 18.2929C0.48043 18.1054 0.734784 18 1 18H7C7.26522 18 7.51957 18.1054 7.70711 18.2929C7.89464 18.4804 8 18.7348 8 19C8 19.2652 7.89464 19.5196 7.70711 19.7071C7.51957 19.8946 7.26522 20 7 20Z" fill="black"/>
<path d="M5 16H1C0.734784 16 0.48043 15.8946 0.292893 15.7071C0.105357 15.5196 0 15.2652 0 15C0 14.7348 0.105357 14.4804 0.292893 14.2929C0.48043 14.1054 0.734784 14 1 14H5C5.26522 14 5.51957 14.1054 5.70711 14.2929C5.89464 14.4804 6 14.7348 6 15C6 15.2652 5.89464 15.5196 5.70711 15.7071C5.51957 15.8946 5.26522 16 5 16Z" fill="black"/>
<path d="M13 23.9549C12.7348 23.9667 12.4757 23.8726 12.2798 23.6934C12.084 23.5142 11.9673 23.2646 11.9555 22.9994C11.9437 22.7342 12.0377 22.4751 12.2169 22.2792C12.3961 22.0833 12.6458 21.9667 12.911 21.9549C14.8034 21.7817 16.6074 21.0729 18.1115 19.9115C19.6156 18.75 20.7577 17.184 21.4039 15.3969C22.0501 13.6098 22.1737 11.6755 21.7602 9.82068C21.3467 7.96584 20.4133 6.26722 19.0692 4.92377C17.7252 3.58032 16.0261 2.64767 14.1711 2.23504C12.3161 1.82241 10.3819 1.9469 8.59505 2.59393C6.80823 3.24096 5.24276 4.38373 4.082 5.8884C2.92125 7.39306 2.21327 9.19733 2.04098 11.0899C2.02916 11.2207 1.9917 11.3479 1.93072 11.4642C1.86975 11.5805 1.78646 11.6837 1.68562 11.7678C1.58477 11.8519 1.46835 11.9154 1.34298 11.9545C1.21762 11.9936 1.08578 12.0077 0.95498 11.9959C0.824183 11.984 0.696995 11.9466 0.580678 11.8856C0.464361 11.8246 0.361192 11.7414 0.277062 11.6405C0.192932 11.5397 0.129489 11.4232 0.0903544 11.2979C0.05122 11.1725 0.037161 11.0407 0.0489799 10.9099C0.327869 7.83318 1.78258 4.98257 4.11031 2.95144C6.43803 0.920301 9.45942 -0.134865 12.5455 0.00558262C15.6316 0.14603 18.5447 1.47127 20.6783 3.70544C22.8119 5.93961 24.0017 8.91056 24 11.9999C24.0153 14.9982 22.9014 17.8925 20.8799 20.1069C18.8583 22.3213 16.0773 23.6936 13.09 23.9509C13.06 23.9539 13.029 23.9549 13 23.9549Z" fill="black"/>
<path d="M12 6C11.7348 6 11.4804 6.10536 11.2929 6.29289C11.1054 6.48043 11 6.73478 11 7V12C11.0001 12.2652 11.1055 12.5195 11.293 12.707L14.293 15.707C14.4816 15.8892 14.7342 15.99 14.9964 15.9877C15.2586 15.9854 15.5094 15.8802 15.6948 15.6948C15.8802 15.5094 15.9854 15.2586 15.9877 14.9964C15.99 14.7342 15.8892 14.4816 15.707 14.293L13 11.586V7C13 6.73478 12.8946 6.48043 12.7071 6.29289C12.5196 6.10536 12.2652 6 12 6Z" fill="black"/>
</g>
<defs>
<clipPath id="clip0">
<rect width="24" height="24" fill="white"/>
</clipPath>
</defs>
</svg>
