<svg width="24" height="24" viewBox="0 0 24 24" fill="none" xmlns="http://www.w3.org/2000/svg">
<path d="M15.4001 9.8794L10.8111 5.2934C10.6207 5.12124 10.3714 5.0289 10.1148 5.03549C9.85817 5.04208 9.61391 5.1471 9.43259 5.3288C9.25127 5.51051 9.14677 5.75498 9.14073 6.01161C9.13468 6.26824 9.22756 6.51736 9.40012 6.7074L13.9861 11.2934C14.1736 11.4809 14.2789 11.7352 14.2789 12.0004C14.2789 12.2656 14.1736 12.5199 13.9861 12.7074L9.40012 17.2934C9.21262 17.481 9.10733 17.7355 9.10742 18.0008C9.10752 18.266 9.21298 18.5204 9.40062 18.7079C9.58827 18.8954 9.84271 19.0007 10.108 19.0006C10.3732 19.0005 10.6276 18.895 10.8151 18.7074L15.4001 14.1214C15.9625 13.5588 16.2785 12.7959 16.2785 12.0004C16.2785 11.2049 15.9625 10.442 15.4001 9.8794Z" fill="black"/>
</svg>
