<svg width="24" height="24" viewBox="0 0 24 24" fill="none" xmlns="http://www.w3.org/2000/svg">
<path d="M12 5C10.6155 5 9.26216 5.41054 8.11101 6.17971C6.95987 6.94888 6.06266 8.04213 5.53285 9.32122C5.00303 10.6003 4.86441 12.0078 5.13451 13.3656C5.4046 14.7235 6.07129 15.9708 7.05026 16.9497C8.02922 17.9287 9.2765 18.5954 10.6344 18.8655C11.9922 19.1356 13.3997 18.997 14.6788 18.4672C15.9579 17.9373 17.0511 17.0401 17.8203 15.889C18.5895 14.7378 19 13.3845 19 12C18.9979 10.1441 18.2597 8.36489 16.9474 7.05259C15.6351 5.7403 13.8559 5.00212 12 5ZM12 17C11.0111 17 10.0444 16.7068 9.22215 16.1573C8.39991 15.6079 7.75904 14.827 7.38061 13.9134C7.00217 12.9998 6.90315 11.9945 7.09608 11.0245C7.289 10.0546 7.76521 9.16373 8.46447 8.46447C9.16373 7.7652 10.0546 7.289 11.0246 7.09607C11.9945 6.90315 12.9998 7.00216 13.9134 7.3806C14.8271 7.75904 15.6079 8.3999 16.1574 9.22215C16.7068 10.0444 17 11.0111 17 12C16.9984 13.3256 16.4711 14.5964 15.5338 15.5338C14.5964 16.4711 13.3256 16.9984 12 17Z" fill="black"/>
</svg>
