<svg width="20" height="20" viewBox="0 0 20 20" fill="none" xmlns="http://www.w3.org/2000/svg">
<g clip-path="url(#clip0)">
<path d="M6.9152 0C10.6425 0 13.6749 3.03242 13.6749 6.75973C13.6749 7.58836 13.5277 8.39359 13.237 9.15828L19.7004 15.6222C19.7928 15.7146 19.8447 15.8399 19.8447 15.9705V19.5074C19.8447 19.7795 19.6242 20 19.3521 20H16.4374C16.3069 20 16.1818 19.9482 16.0894 19.856L15.1071 18.8753C15.0146 18.7829 14.9626 18.6574 14.9626 18.5266V17.3205H13.758C13.4859 17.3205 13.2654 17.1 13.2654 16.8279V16.3451H12.7825C12.5105 16.3451 12.2899 16.1246 12.2899 15.8525V14.7925H11.2299C11.0993 14.7925 10.974 14.7406 10.8816 14.6482L9.31437 13.081C8.54957 13.372 7.74422 13.5194 6.91527 13.5194C3.18797 13.5194 0.155546 10.487 0.155546 6.75965C0.155508 3.03242 3.18789 0 6.9152 0ZM6.9152 12.5341C7.72152 12.5341 8.50137 12.3713 9.23312 12.05C9.42234 11.967 9.63543 12.0127 9.77496 12.1487C9.77648 12.1501 9.77797 12.1513 9.77945 12.1528L11.4339 13.8073H12.7825C13.0545 13.8073 13.2751 14.0278 13.2751 14.2999V15.3599H13.7579C14.03 15.3599 14.2505 15.5804 14.2505 15.8525V16.3353H15.4552C15.7272 16.3353 15.9478 16.5559 15.9478 16.8279V18.3223L16.6412 19.0147H18.8594V18.3186L12.8383 12.2975C12.6651 12.1243 12.6651 11.8436 12.8383 11.6705C13.0114 11.4974 13.2921 11.4973 13.4654 11.6705L18.8594 17.0646V16.1746L12.3088 9.62352C12.3073 9.62203 12.3062 9.62066 12.3048 9.61922C12.1688 9.4798 12.1229 9.26672 12.206 9.07734C12.5269 8.34562 12.6896 7.56582 12.6896 6.75977C12.6896 3.5757 10.0991 0.985273 6.91508 0.985273C3.73102 0.985273 1.14066 3.57566 1.14066 6.75977C1.14074 9.94375 3.73121 12.5341 6.9152 12.5341Z" fill="black"/>
<path d="M4.85793 2.85693C5.87539 2.85693 6.70312 3.68467 6.70312 4.70213C6.70312 5.71959 5.87539 6.54732 4.85793 6.54732C3.84047 6.54732 3.01274 5.71959 3.01274 4.70213C3.01274 3.68467 3.84043 2.85693 4.85793 2.85693ZM4.85793 5.56209C5.33211 5.56209 5.71789 5.17631 5.71789 4.70213C5.71789 4.22795 5.33211 3.84217 4.85793 3.84217C4.38375 3.84217 3.99797 4.22795 3.99797 4.70213C3.99797 5.17631 4.38375 5.56209 4.85793 5.56209Z" fill="black"/>
</g>
<defs>
<clipPath id="clip0">
<rect width="20" height="20" fill="white" transform="matrix(-1 0 0 1 20 0)"/>
</clipPath>
</defs>
</svg>
