<svg width="24" height="24" viewBox="0 0 24 24" fill="none" xmlns="http://www.w3.org/2000/svg">
<g clip-path="url(#clip0)">
<path d="M23 20.0002H14.816C14.6666 19.582 14.4262 19.2021 14.1122 18.8881C13.7981 18.574 13.4182 18.3336 13 18.1842V14.0222C14.344 14.0222 15.52 14.0102 16.095 13.9992C16.4539 13.9925 16.8111 13.9486 17.161 13.8682C18.0618 13.6586 18.8858 13.2009 19.5397 12.5469C20.1937 11.893 20.6514 11.069 20.861 10.1682C21.1631 8.90174 20.9606 7.56741 20.2964 6.44759C19.6321 5.32777 18.5583 4.51032 17.302 4.16821L17.13 4.13021C16.83 4.06321 16.679 4.03021 16.542 3.70121C16.0582 2.53414 15.2183 1.54958 14.142 0.887861C13.0658 0.22614 11.8082 -0.0789736 10.5484 0.0160082C9.28854 0.11099 8.09086 0.60122 7.12601 1.41683C6.16116 2.23243 5.47839 3.33179 5.175 4.55821C4.95847 5.45401 4.93902 6.38615 5.118 7.29021C4.4523 7.57664 3.89193 8.06266 3.51424 8.68117C3.13655 9.29968 2.96017 10.0202 3.00945 10.7432C3.05873 11.4662 3.33123 12.1562 3.78934 12.7177C4.24746 13.2793 4.86859 13.6847 5.567 13.8782C5.83911 13.9505 6.11859 13.9914 6.4 14.0002C7.055 14.0182 8.934 14.0262 10.894 14.0262H11V18.1852C10.5819 18.3345 10.2021 18.5748 9.88802 18.8886C9.57398 19.2025 9.33353 19.5821 9.184 20.0002H1C0.734784 20.0002 0.48043 20.1056 0.292893 20.2931C0.105357 20.4806 0 20.735 0 21.0002C0 21.2654 0.105357 21.5198 0.292893 21.7073C0.48043 21.8949 0.734784 22.0002 1 22.0002H9.184C9.38765 22.5848 9.76816 23.0914 10.2727 23.45C10.7773 23.8085 11.381 24.0012 12 24.0012C12.619 24.0012 13.2227 23.8085 13.7273 23.45C14.2318 23.0914 14.6124 22.5848 14.816 22.0002H23C23.2652 22.0002 23.5196 21.8949 23.7071 21.7073C23.8946 21.5198 24 21.2654 24 21.0002C24 20.735 23.8946 20.4806 23.7071 20.2931C23.5196 20.1056 23.2652 20.0002 23 20.0002ZM6.456 12.0002C6.32759 11.9956 6.20011 11.9765 6.076 11.9432C5.83291 11.875 5.61142 11.7455 5.4328 11.567C5.25419 11.3886 5.12443 11.1672 5.056 10.9242C4.95317 10.572 4.98298 10.1944 5.13979 9.86266C5.29661 9.53096 5.56956 9.26825 5.907 9.12421C6.34215 8.94003 6.69873 8.60879 6.91443 8.18837C7.13012 7.76795 7.1912 7.2851 7.087 6.82421C6.97476 6.29201 6.97223 5.74252 7.07957 5.20931C7.18692 4.67611 7.40188 4.17039 7.71131 3.72309C8.02075 3.27578 8.41816 2.89628 8.87924 2.60779C9.34033 2.3193 9.85541 2.12787 10.393 2.04521C10.588 2.01637 10.7849 2.00133 10.982 2.00021C11.7765 1.99746 12.554 2.23062 13.2159 2.67016C13.8778 3.1097 14.3943 3.73583 14.7 4.46921C14.8735 4.9002 15.1574 5.27787 15.5233 5.5642C15.8891 5.85053 16.324 6.03541 16.784 6.10021C17.5398 6.30949 18.1846 6.80428 18.5824 7.48009C18.9802 8.15591 19.0998 8.95986 18.916 9.72221C18.7869 10.2548 18.5131 10.7414 18.1248 11.1282C17.7366 11.515 17.2491 11.787 16.716 11.9142C16.5002 11.9648 16.2796 11.9923 16.058 11.9962C15.365 12.0092 13.8 12.0182 12.119 12.0212C12.0798 12.0117 12.0401 12.0047 12 12.0002C11.9592 12.0056 11.9188 12.0136 11.879 12.0242C9.618 12.0282 7.211 12.0202 6.456 12.0002ZM12 22.0002C11.8022 22.0002 11.6089 21.9416 11.4444 21.8317C11.28 21.7218 11.1518 21.5656 11.0761 21.3829C11.0004 21.2002 10.9806 20.9991 11.0192 20.8051C11.0578 20.6111 11.153 20.433 11.2929 20.2931C11.4327 20.1532 11.6109 20.058 11.8049 20.0194C11.9989 19.9808 12.2 20.0006 12.3827 20.0763C12.5654 20.152 12.7216 20.2802 12.8315 20.4446C12.9414 20.6091 13 20.8024 13 21.0002C13 21.2654 12.8946 21.5198 12.7071 21.7073C12.5196 21.8949 12.2652 22.0002 12 22.0002Z" fill="black"/>
</g>
<defs>
<clipPath id="clip0">
<rect width="24" height="24" fill="white"/>
</clipPath>
</defs>
</svg>
