<svg width="24" height="24" viewBox="0 0 24 24" fill="none" xmlns="http://www.w3.org/2000/svg">
<g clip-path="url(#clip0)">
<path d="M19.9 3.09096C19.7771 2.56261 19.5479 2.06479 19.2265 1.62778C18.9052 1.19076 18.4982 0.823684 18.0305 0.548865C17.5629 0.274046 17.0441 0.097229 16.506 0.0291677C15.9678 -0.0388936 15.4214 0.00322281 14.9 0.152956L13.176 0.645956C12.7393 0.771476 12.337 0.995175 12 1.29996C11.663 0.995175 11.2607 0.771476 10.824 0.645956L9.1 0.152956C8.57894 0.00400321 8.03304 -0.0375128 7.49544 0.0309276C6.95784 0.099368 6.43976 0.276337 5.97263 0.551094C5.50551 0.825851 5.09909 1.19266 4.77804 1.62927C4.45699 2.06587 4.22801 2.56316 4.105 3.09096C2.9548 3.30022 1.91429 3.90591 1.16433 4.80275C0.414377 5.69959 0.00239598 6.83088 0 7.99996L0 15C0.00158786 16.3256 0.528882 17.5964 1.46622 18.5337C2.40356 19.4711 3.67441 19.9984 5 20H11V22H8C7.73478 22 7.48043 22.1053 7.29289 22.2928C7.10536 22.4804 7 22.7347 7 23C7 23.2652 7.10536 23.5195 7.29289 23.7071C7.48043 23.8946 7.73478 24 8 24H16C16.2652 24 16.5196 23.8946 16.7071 23.7071C16.8946 23.5195 17 23.2652 17 23C17 22.7347 16.8946 22.4804 16.7071 22.2928C16.5196 22.1053 16.2652 22 16 22H13V20H19C20.3256 19.9984 21.5964 19.4711 22.5338 18.5337C23.4711 17.5964 23.9984 16.3256 24 15V7.99996C23.9978 6.83159 23.5865 5.70088 22.8376 4.80414C22.0886 3.9074 21.0493 3.30126 19.9 3.09096ZM13 3.53096C13.0001 3.31377 13.0709 3.10252 13.2017 2.92914C13.3325 2.75576 13.5162 2.62968 13.725 2.56996L15.45 2.07696C15.7477 1.99181 16.0611 1.97694 16.3655 2.03352C16.6699 2.0901 16.957 2.21658 17.2042 2.40301C17.4514 2.58943 17.652 2.8307 17.7901 3.10782C17.9281 3.38494 18 3.69034 18 3.99996V7.93796C17.9986 8.37191 17.8565 8.79371 17.5951 9.14007C17.3337 9.48644 16.967 9.73868 16.55 9.85896L13 10.873V3.53096ZM6.8 2.39996C7.04673 2.21421 7.33325 2.08834 7.63695 2.03229C7.94065 1.97623 8.25322 1.99153 8.55 2.07696L10.275 2.56996C10.4838 2.62968 10.6675 2.75576 10.7983 2.92914C10.9291 3.10252 10.9999 3.31377 11 3.53096V10.873L7.45 9.85896C7.03305 9.73868 6.66634 9.48644 6.4049 9.14007C6.14346 8.79371 6.00139 8.37191 6 7.93796V3.99996C5.99898 3.68929 6.07083 3.38271 6.20976 3.10484C6.3487 2.82697 6.55086 2.58554 6.8 2.39996ZM22 15C22 15.7956 21.6839 16.5587 21.1213 17.1213C20.5587 17.6839 19.7956 18 19 18H5C4.20435 18 3.44129 17.6839 2.87868 17.1213C2.31607 16.5587 2 15.7956 2 15V7.99996C2.00256 7.3817 2.19608 6.77933 2.55409 6.27526C2.91209 5.77119 3.41709 5.39004 4 5.18396V7.93796C4.00245 8.8063 4.28642 9.65043 4.8093 10.3437C5.33218 11.037 6.06577 11.542 6.9 11.783L10.351 12.77C11.4295 13.0774 12.5725 13.0774 13.651 12.77L17.102 11.783C17.9359 11.5416 18.669 11.0364 19.1915 10.3432C19.714 9.64997 19.9977 8.80604 20 7.93796V5.18396C20.5829 5.39004 21.0879 5.77119 21.4459 6.27526C21.8039 6.77933 21.9974 7.3817 22 7.99996V15Z" fill="black"/>
</g>
<defs>
<clipPath id="clip0">
<rect width="24" height="24" fill="white"/>
</clipPath>
</defs>
</svg>
