<svg width="24" height="24" viewBox="0 0 24 24" fill="none" xmlns="http://www.w3.org/2000/svg">
<g clip-path="url(#clip0)">
<path d="M23.7071 22.2932L22.6301 21.2162L20.9001 19.4892L23.6891 16.7002C23.8078 16.5813 23.8947 16.4344 23.9416 16.2731C23.9886 16.1118 23.9941 15.9412 23.9577 15.7772C23.9214 15.6132 23.8442 15.4609 23.7335 15.3346C23.6228 15.2082 23.482 15.1118 23.3241 15.0542L14.3551 11.8002C13.9978 11.6711 13.6112 11.6464 13.2404 11.729C12.8696 11.8116 12.53 11.9981 12.2614 12.2667C11.9927 12.5352 11.8061 12.8748 11.7233 13.2455C11.6406 13.6163 11.6651 14.0029 11.7941 14.3602L15.0571 23.3292C15.1144 23.4872 15.2106 23.6282 15.3368 23.7392C15.463 23.8502 15.6151 23.9276 15.7791 23.9642C15.8504 23.9797 15.9232 23.9875 15.9961 23.9872C16.2613 23.9872 16.5156 23.8818 16.7031 23.6942L19.4891 20.9002L21.2161 22.6272L22.2931 23.7042C22.4817 23.8864 22.7343 23.9872 22.9965 23.9849C23.2587 23.9826 23.5095 23.8775 23.6949 23.6921C23.8803 23.5066 23.9855 23.2558 23.9878 22.9936C23.9901 22.7314 23.8893 22.4788 23.7071 22.2902V22.2932ZM16.4001 21.1652L13.6761 13.6752L21.1661 16.3992L16.4001 21.1652Z" fill="black"/>
<path d="M10 20C8.02219 20 6.08879 19.4135 4.4443 18.3147C2.79981 17.2159 1.51809 15.6541 0.761209 13.8268C0.00433284 11.9996 -0.193701 9.98891 0.192152 8.0491C0.578004 6.10929 1.53041 4.32746 2.92894 2.92894C4.32746 1.53041 6.10929 0.578004 8.0491 0.192152C9.98891 -0.193701 11.9996 0.00433284 13.8268 0.761209C15.6541 1.51809 17.2159 2.79981 18.3147 4.4443C19.4135 6.08879 20 8.02219 20 10C20 10.2652 19.8946 10.5196 19.7071 10.7071C19.5196 10.8946 19.2652 11 19 11C18.7348 11 18.4804 10.8946 18.2929 10.7071C18.1054 10.5196 18 10.2652 18 10C18 8.41775 17.5308 6.87104 16.6518 5.55544C15.7727 4.23985 14.5233 3.21447 13.0615 2.60897C11.5997 2.00347 9.99113 1.84504 8.43928 2.15372C6.88743 2.4624 5.46197 3.22433 4.34315 4.34315C3.22433 5.46197 2.4624 6.88743 2.15372 8.43928C1.84504 9.99113 2.00347 11.5997 2.60897 13.0615C3.21447 14.5233 4.23985 15.7727 5.55544 16.6518C6.87104 17.5308 8.41775 18 10 18C10.2652 18 10.5196 18.1054 10.7071 18.2929C10.8946 18.4804 11 18.7348 11 19C11 19.2652 10.8946 19.5196 10.7071 19.7071C10.5196 19.8946 10.2652 20 10 20Z" fill="black"/>
<path d="M8.08403 15.62C7.95261 15.6201 7.82247 15.5943 7.70103 15.544C6.78989 15.1656 5.98612 14.5683 5.36092 13.8051C4.73572 13.0418 4.30837 12.1362 4.11672 11.1684C3.92508 10.2006 3.97505 9.20044 4.26222 8.25655C4.54938 7.31266 5.06488 6.45415 5.76305 5.75704C6.46122 5.05994 7.32052 4.54576 8.26485 4.26004C9.20918 3.97432 10.2094 3.92588 11.1769 4.119C12.1444 4.31213 13.0494 4.74086 13.8117 5.36723C14.574 5.9936 15.17 6.79828 15.547 7.71001C15.5999 7.83182 15.6279 7.96293 15.6296 8.0957C15.6312 8.22847 15.6064 8.36023 15.5566 8.48331C15.5067 8.60638 15.4329 8.7183 15.3393 8.81253C15.2458 8.90676 15.1344 8.98142 15.0117 9.03215C14.889 9.08288 14.7574 9.10866 14.6246 9.108C14.4919 9.10733 14.3605 9.08023 14.2384 9.02828C14.1162 8.97632 14.0055 8.90055 13.9129 8.80539C13.8203 8.71022 13.7476 8.59757 13.699 8.47401C13.4471 7.86674 13.0494 7.33094 12.541 6.91401C12.0327 6.49708 11.4294 6.21188 10.7846 6.08364C10.1397 5.95541 9.47326 5.98809 8.84407 6.1788C8.21489 6.36951 7.64241 6.71237 7.1773 7.17704C6.71219 7.6417 6.36879 8.21385 6.17747 8.84285C5.98616 9.47185 5.95284 10.1383 6.08046 10.7833C6.20808 11.4282 6.4927 12.0318 6.90914 12.5405C7.32559 13.0492 7.86101 13.4475 8.46803 13.7C8.68196 13.7885 8.85854 13.9486 8.96764 14.1528C9.07675 14.357 9.11162 14.5927 9.0663 14.8197C9.02099 15.0468 8.8983 15.2511 8.71917 15.3977C8.54003 15.5444 8.31555 15.6244 8.08403 15.624V15.62Z" fill="black"/>
</g>
<defs>
<clipPath id="clip0">
<rect width="24" height="24" fill="white"/>
</clipPath>
</defs>
</svg>
