<svg width="24" height="24" viewBox="0 0 24 24" fill="none" xmlns="http://www.w3.org/2000/svg">
<path d="M15.0001 17.0001C15.0001 17.2653 14.8947 17.5197 14.7072 17.7072C14.5197 17.8947 14.2653 18.0001 14.0001 18.0001H10.0001C9.73486 18.0001 9.48051 17.8947 9.29297 17.7072C9.10544 17.5197 9.00008 17.2653 9.00008 17.0001C9.00008 16.7349 9.10544 16.4805 9.29297 16.293C9.48051 16.1054 9.73486 16.0001 10.0001 16.0001H14.0001C14.2653 16.0001 14.5197 16.1054 14.7072 16.293C14.8947 16.4805 15.0001 16.7349 15.0001 17.0001ZM14.7071 7.29308C14.5196 7.10561 14.2652 7.00029 14.0001 7.00029C13.7349 7.00029 13.4806 7.10561 13.2931 7.29308L12.0001 8.58608L10.7071 7.29308C10.6148 7.19757 10.5045 7.12139 10.3825 7.06898C10.2605 7.01657 10.1293 6.98898 9.99648 6.98783C9.8637 6.98668 9.73202 7.01198 9.60913 7.06226C9.48623 7.11254 9.37458 7.18679 9.28069 7.28069C9.18679 7.37458 9.11254 7.48623 9.06226 7.60913C9.01198 7.73202 8.98668 7.8637 8.98783 7.99648C8.98898 8.12926 9.01657 8.26048 9.06898 8.38249C9.12139 8.50449 9.19757 8.61483 9.29308 8.70708L10.5861 10.0001L9.29308 11.2931C9.19757 11.3853 9.12139 11.4957 9.06898 11.6177C9.01657 11.7397 8.98898 11.8709 8.98783 12.0037C8.98668 12.1365 9.01198 12.2681 9.06226 12.391C9.11254 12.5139 9.18679 12.6256 9.28069 12.7195C9.37458 12.8134 9.48623 12.8876 9.60913 12.9379C9.73202 12.9882 9.8637 13.0135 9.99648 13.0123C10.1293 13.0112 10.2605 12.9836 10.3825 12.9312C10.5045 12.8788 10.6148 12.8026 10.7071 12.7071L12.0001 11.4141L13.2931 12.7071C13.4817 12.8892 13.7343 12.99 13.9965 12.9878C14.2587 12.9855 14.5095 12.8803 14.6949 12.6949C14.8803 12.5095 14.9855 12.2587 14.9878 11.9965C14.99 11.7343 14.8892 11.4817 14.7071 11.2931L13.4141 10.0001L14.7071 8.70708C14.8946 8.51955 14.9999 8.26525 14.9999 8.00008C14.9999 7.73492 14.8946 7.48061 14.7071 7.29308ZM22.0001 16.0001H18.0001C17.7349 16.0001 17.4805 16.1054 17.293 16.293C17.1054 16.4805 17.0001 16.7349 17.0001 17.0001C17.0001 17.2653 17.1054 17.5197 17.293 17.7072C17.4805 17.8947 17.7349 18.0001 18.0001 18.0001H22.0001C22.2653 18.0001 22.5197 17.8947 22.7072 17.7072C22.8947 17.5197 23.0001 17.2653 23.0001 17.0001C23.0001 16.7349 22.8947 16.4805 22.7072 16.293C22.5197 16.1054 22.2653 16.0001 22.0001 16.0001ZM21.4141 10.0001L22.7071 8.70708C22.8026 8.61483 22.8788 8.50449 22.9312 8.38249C22.9836 8.26048 23.0112 8.12926 23.0123 7.99648C23.0135 7.8637 22.9882 7.73202 22.9379 7.60913C22.8876 7.48623 22.8134 7.37458 22.7195 7.28069C22.6256 7.18679 22.5139 7.11254 22.391 7.06226C22.2681 7.01198 22.1365 6.98668 22.0037 6.98783C21.8709 6.98898 21.7397 7.01657 21.6177 7.06898C21.4957 7.12139 21.3853 7.19757 21.2931 7.29308L20.0001 8.58608L18.7071 7.29308C18.6148 7.19757 18.5045 7.12139 18.3825 7.06898C18.2605 7.01657 18.1293 6.98898 17.9965 6.98783C17.8637 6.98668 17.732 7.01198 17.6091 7.06226C17.4862 7.11254 17.3746 7.18679 17.2807 7.28069C17.1868 7.37458 17.1125 7.48623 17.0623 7.60913C17.012 7.73202 16.9867 7.8637 16.9878 7.99648C16.989 8.12926 17.0166 8.26048 17.069 8.38249C17.1214 8.50449 17.1976 8.61483 17.2931 8.70708L18.5861 10.0001L17.2931 11.2931C17.1976 11.3853 17.1214 11.4957 17.069 11.6177C17.0166 11.7397 16.989 11.8709 16.9878 12.0037C16.9867 12.1365 17.012 12.2681 17.0623 12.391C17.1125 12.5139 17.1868 12.6256 17.2807 12.7195C17.3746 12.8134 17.4862 12.8876 17.6091 12.9379C17.732 12.9882 17.8637 13.0135 17.9965 13.0123C18.1293 13.0112 18.2605 12.9836 18.3825 12.9312C18.5045 12.8788 18.6148 12.8026 18.7071 12.7071L20.0001 11.4141L21.2931 12.7071C21.4817 12.8892 21.7343 12.99 21.9965 12.9878C22.2587 12.9855 22.5095 12.8803 22.6949 12.6949C22.8803 12.5095 22.9855 12.2587 22.9878 11.9965C22.99 11.7343 22.8892 11.4817 22.7071 11.2931L21.4141 10.0001ZM6.00008 16.0001H2.00008C1.73486 16.0001 1.48051 16.1054 1.29297 16.293C1.10544 16.4805 1.00008 16.7349 1.00008 17.0001C1.00008 17.2653 1.10544 17.5197 1.29297 17.7072C1.48051 17.8947 1.73486 18.0001 2.00008 18.0001H6.00008C6.2653 18.0001 6.51965 17.8947 6.70719 17.7072C6.89472 17.5197 7.00008 17.2653 7.00008 17.0001C7.00008 16.7349 6.89472 16.4805 6.70719 16.293C6.51965 16.1054 6.2653 16.0001 6.00008 16.0001ZM6.70708 7.29308C6.51955 7.10561 6.26525 7.00029 6.00008 7.00029C5.73492 7.00029 5.48061 7.10561 5.29308 7.29308L4.00008 8.58608L2.70708 7.29308C2.61483 7.19757 2.50449 7.12139 2.38249 7.06898C2.26048 7.01657 2.12926 6.98898 1.99648 6.98783C1.8637 6.98668 1.73202 7.01198 1.60913 7.06226C1.48623 7.11254 1.37458 7.18679 1.28069 7.28069C1.18679 7.37458 1.11254 7.48623 1.06226 7.60913C1.01198 7.73202 0.986677 7.8637 0.987831 7.99648C0.988985 8.12926 1.01657 8.26048 1.06898 8.38249C1.12139 8.50449 1.19757 8.61483 1.29308 8.70708L2.58608 10.0001L1.29308 11.2931C1.19757 11.3853 1.12139 11.4957 1.06898 11.6177C1.01657 11.7397 0.988985 11.8709 0.987831 12.0037C0.986677 12.1365 1.01198 12.2681 1.06226 12.391C1.11254 12.5139 1.18679 12.6256 1.28069 12.7195C1.37458 12.8134 1.48623 12.8876 1.60913 12.9379C1.73202 12.9882 1.8637 13.0135 1.99648 13.0123C2.12926 13.0112 2.26048 12.9836 2.38249 12.9312C2.50449 12.8788 2.61483 12.8026 2.70708 12.7071L4.00008 11.4141L5.29308 12.7071C5.38533 12.8026 5.49567 12.8788 5.61768 12.9312C5.73968 12.9836 5.8709 13.0112 6.00368 13.0123C6.13646 13.0135 6.26814 12.9882 6.39104 12.9379C6.51393 12.8876 6.62558 12.8134 6.71948 12.7195C6.81337 12.6256 6.88762 12.5139 6.9379 12.391C6.98818 12.2681 7.01349 12.1365 7.01233 12.0037C7.01118 11.8709 6.98359 11.7397 6.93118 11.6177C6.87877 11.4957 6.80259 11.3853 6.70708 11.2931L5.41408 10.0001L6.70708 8.70708C6.89455 8.51955 6.99987 8.26525 6.99987 8.00008C6.99987 7.73492 6.89455 7.48061 6.70708 7.29308Z" fill="black"/>
</svg>
