<svg width="24" height="24" viewBox="0 0 24 24" fill="none" xmlns="http://www.w3.org/2000/svg">
<g clip-path="url(#clip0)">
<path d="M22.3269 18.4219C23.0549 19.4559 23.9999 20.6509 23.9999 21.4999C23.9999 22.163 23.7365 22.7988 23.2677 23.2677C22.7988 23.7365 22.163 23.9999 21.4999 23.9999C20.8369 23.9999 20.201 23.7365 19.7322 23.2677C19.2633 22.7988 18.9999 22.163 18.9999 21.4999C18.9999 20.7249 19.9609 19.4919 20.6919 18.4309C20.7835 18.2994 20.9054 18.1918 21.0472 18.1172C21.1891 18.0426 21.3468 18.0032 21.5071 18.0023C21.6674 18.0015 21.8255 18.0391 21.9682 18.1121C22.1109 18.1852 22.2339 18.2914 22.3269 18.4219ZM21.4499 13.8639L12.7779 22.5359C11.8395 23.4721 10.568 23.9979 9.24242 23.9979C7.91684 23.9979 6.64538 23.4721 5.70692 22.5359L1.46492 18.2929C0.527259 17.3552 0.000488281 16.0835 0.000488281 14.7574C0.000488281 13.4314 0.527259 12.1596 1.46492 11.2219L7.17392 5.51192L4.31792 2.62192C4.13654 2.43234 4.03693 2.17908 4.04057 1.91673C4.04421 1.65438 4.15081 1.40398 4.33738 1.21951C4.52395 1.03504 4.77555 0.931278 5.03791 0.930607C5.30028 0.929935 5.55241 1.0324 5.73992 1.21592L8.58792 4.09992L10.1359 2.54992L9.29292 1.70692C9.11076 1.51832 9.00997 1.26571 9.01225 1.00352C9.01453 0.741321 9.11969 0.490508 9.3051 0.3051C9.49051 0.119692 9.74132 0.0145233 10.0035 0.0122448C10.2657 0.00996641 10.5183 0.110761 10.7069 0.292919L23.7069 13.2929C23.8024 13.3852 23.8786 13.4955 23.931 13.6175C23.9834 13.7395 24.011 13.8707 24.0122 14.0035C24.0133 14.1363 23.988 14.268 23.9377 14.3909C23.8875 14.5138 23.8132 14.6254 23.7193 14.7193C23.6254 14.8132 23.5138 14.8875 23.3909 14.9377C23.268 14.988 23.1363 15.0133 23.0035 15.0122C22.8707 15.011 22.7395 14.9834 22.6175 14.931C22.4955 14.8786 22.3852 14.8024 22.2929 14.7069L21.4499 13.8639ZM20.0359 12.4499L11.5499 3.96392L9.99292 5.52192L14.7109 10.2999C14.8133 10.3909 14.896 10.5019 14.9537 10.6261C15.0114 10.7503 15.043 10.885 15.0465 11.0219C15.0501 11.1588 15.0254 11.295 14.9741 11.422C14.9229 11.549 14.846 11.6641 14.7484 11.7602C14.6508 11.8563 14.5346 11.9313 14.4068 11.9806C14.279 12.0299 14.1424 12.0524 14.0056 12.0468C13.8688 12.0411 13.7345 12.0074 13.6113 11.9477C13.488 11.8881 13.3783 11.8037 13.2889 11.6999L8.57992 6.93492L2.87992 12.6349C2.60129 12.9135 2.38027 13.2442 2.22947 13.6083C2.07868 13.9723 2.00106 14.3624 2.00106 14.7564C2.00106 15.1504 2.07868 15.5406 2.22947 15.9046C2.38027 16.2686 2.60129 16.5993 2.87992 16.8779L7.12192 21.1209C7.68519 21.6824 8.44809 21.9977 9.24342 21.9977C10.0388 21.9977 10.8016 21.6824 11.3649 21.1209L20.0359 12.4499Z" fill="black"/>
</g>
<defs>
<clipPath id="clip0">
<rect width="24" height="24" fill="white"/>
</clipPath>
</defs>
</svg>
