<svg width="24" height="24" viewBox="0 0 24 24" fill="none" xmlns="http://www.w3.org/2000/svg">
<g clip-path="url(#clip0)">
<path d="M23.7071 15.2928C23.5196 15.1053 23.2652 15 23.0001 15C22.7349 15 22.4806 15.1053 22.2931 15.2928L19.5001 18.0858L16.7071 15.2928C16.5185 15.1106 16.2659 15.0098 16.0037 15.0121C15.7415 15.0144 15.4907 15.1196 15.3053 15.305C15.1199 15.4904 15.0147 15.7412 15.0124 16.0034C15.0101 16.2656 15.1109 16.5182 15.2931 16.7068L18.0861 19.4998L15.2931 22.2928C15.1976 22.385 15.1214 22.4954 15.069 22.6174C15.0166 22.7394 14.989 22.8706 14.9878 23.0034C14.9867 23.1362 15.012 23.2678 15.0623 23.3907C15.1125 23.5136 15.1868 23.6253 15.2807 23.7192C15.3746 23.8131 15.4862 23.8873 15.6091 23.9376C15.732 23.9879 15.8637 24.0132 15.9965 24.012C16.1293 24.0109 16.2605 23.9833 16.3825 23.9309C16.5045 23.8785 16.6148 23.8023 16.7071 23.7068L19.5001 20.9138L22.2931 23.7068C22.4817 23.8889 22.7343 23.9897 22.9965 23.9875C23.2587 23.9852 23.5095 23.88 23.6949 23.6946C23.8803 23.5092 23.9855 23.2584 23.9878 22.9962C23.99 22.734 23.8892 22.4814 23.7071 22.2928L20.9141 19.4998L23.7071 16.7068C23.8946 16.5193 23.9999 16.265 23.9999 15.9998C23.9999 15.7346 23.8946 15.4803 23.7071 15.2928Z" fill="black"/>
<path d="M12 22C10.0222 22 8.08879 21.4135 6.4443 20.3147C4.79981 19.2159 3.51809 17.6541 2.76121 15.8268C2.00433 13.9996 1.8063 11.9889 2.19215 10.0491C2.578 8.10929 3.53041 6.32746 4.92894 4.92894C6.32746 3.53041 8.10929 2.578 10.0491 2.19215C11.9889 1.8063 13.9996 2.00433 15.8268 2.76121C17.6541 3.51809 19.2159 4.79981 20.3147 6.4443C21.4135 8.08879 22 10.0222 22 12C22 12.2652 22.1054 12.5196 22.2929 12.7071C22.4804 12.8946 22.7348 13 23 13C23.2652 13 23.5196 12.8946 23.7071 12.7071C23.8946 12.5196 24 12.2652 24 12C24 9.62663 23.2962 7.30655 21.9776 5.33316C20.6591 3.35977 18.7849 1.8217 16.5922 0.913451C14.3995 0.00519943 11.9867 -0.232441 9.65892 0.230582C7.33115 0.693605 5.19295 1.83649 3.51472 3.51472C1.83649 5.19295 0.693605 7.33115 0.230582 9.65892C-0.232441 11.9867 0.00519943 14.3995 0.913451 16.5922C1.8217 18.7849 3.35977 20.6591 5.33316 21.9776C7.30655 23.2962 9.62663 24 12 24C12.2652 24 12.5196 23.8946 12.7071 23.7071C12.8946 23.5196 13 23.2652 13 23C13 22.7348 12.8946 22.4804 12.7071 22.2929C12.5196 22.1054 12.2652 22 12 22Z" fill="black"/>
<path d="M12.0001 6C11.7349 6 11.4805 6.10536 11.293 6.29289C11.1054 6.48043 11.0001 6.73478 11.0001 7V11.586L8.29308 14.293C8.19757 14.3852 8.12139 14.4956 8.06898 14.6176C8.01657 14.7396 7.98898 14.8708 7.98783 15.0036C7.98668 15.1364 8.01198 15.2681 8.06226 15.391C8.11254 15.5139 8.18679 15.6255 8.28069 15.7194C8.37458 15.8133 8.48623 15.8875 8.60913 15.9378C8.73202 15.9881 8.8637 16.0134 8.99648 16.0123C9.12926 16.0111 9.26048 15.9835 9.38249 15.9311C9.50449 15.8787 9.61483 15.8025 9.70708 15.707L12.7071 12.707C12.8946 12.5195 13 12.2652 13.0001 12V7C13.0001 6.73478 12.8947 6.48043 12.7072 6.29289C12.5197 6.10536 12.2653 6 12.0001 6Z" fill="black"/>
</g>
<defs>
<clipPath id="clip0">
<rect width="24" height="24" fill="white"/>
</clipPath>
</defs>
</svg>
