<svg width="24" height="24" viewBox="0 0 24 24" fill="none" xmlns="http://www.w3.org/2000/svg">
<path d="M13.121 6.29279C12.9335 6.48031 12.8282 6.73462 12.8282 6.99979C12.8282 7.26495 12.9335 7.51926 13.121 7.70679L16.413 10.9998L6 11.0068C5.73478 11.0068 5.48043 11.1121 5.29289 11.2997C5.10536 11.4872 5 11.7416 5 12.0068C5 12.272 5.10536 12.5264 5.29289 12.7139C5.48043 12.9014 5.73478 13.0068 6 13.0068L16.414 12.9998L13.121 16.2928C13.0255 16.385 12.9493 16.4954 12.8969 16.6174C12.8445 16.7394 12.8169 16.8706 12.8157 17.0034C12.8146 17.1362 12.8399 17.2678 12.8902 17.3907C12.9405 17.5136 13.0147 17.6253 13.1086 17.7192C13.2025 17.8131 13.3141 17.8873 13.437 17.9376C13.5599 17.9879 13.6916 18.0132 13.8244 18.012C13.9572 18.0109 14.0884 17.9833 14.2104 17.9309C14.3324 17.8785 14.4428 17.8023 14.535 17.7068L18.121 14.1218C18.3996 13.8432 18.6207 13.5125 18.7715 13.1485C18.9222 12.7844 18.9999 12.3943 18.9999 12.0003C18.9999 11.6063 18.9222 11.2161 18.7715 10.8521C18.6207 10.4881 18.3996 10.1574 18.121 9.87879L14.535 6.29279C14.3475 6.10532 14.0932 6 13.828 6C13.5628 6 13.3085 6.10532 13.121 6.29279Z" fill="black"/>
</svg>
