<svg width="24" height="24" viewBox="0 0 24 24" fill="none" xmlns="http://www.w3.org/2000/svg">
<g clip-path="url(#clip0)">
<path d="M15.563 14.2723L16.294 12.0193C16.4584 11.5173 16.4591 10.9761 16.2959 10.4737C16.1327 9.97136 15.814 9.53384 15.386 9.22432L13.469 7.83232C13.0425 7.52089 12.5281 7.35307 12 7.35307C11.4719 7.35307 10.9575 7.52089 10.531 7.83232L8.614 9.22432C8.18507 9.53425 7.86588 9.97263 7.70264 10.476C7.53941 10.9794 7.54058 11.5217 7.706 12.0243L8.438 14.2773C8.60107 14.779 8.91902 15.216 9.34612 15.5256C9.77322 15.8352 10.2875 16.0014 10.815 16.0003H13.185C13.7131 16.0004 14.2276 15.8332 14.6548 15.5227C15.082 15.2123 15.3999 14.7746 15.563 14.2723ZM10.34 13.6543L9.608 11.4003C9.57518 11.2997 9.57512 11.1913 9.60782 11.0907C9.64053 10.9901 9.70431 10.9024 9.79 10.8403L11.706 9.45032C11.7914 9.38821 11.8944 9.35475 12 9.35475C12.1056 9.35475 12.2086 9.38821 12.294 9.45032L14.211 10.8423C14.2963 10.9045 14.3598 10.992 14.3923 11.0924C14.4248 11.1928 14.4247 11.301 14.392 11.4013L13.661 13.6543C13.6284 13.7549 13.5648 13.8426 13.4793 13.9048C13.3938 13.9669 13.2907 14.0004 13.185 14.0003H10.815C10.7094 14.0002 10.6066 13.9666 10.5213 13.9045C10.436 13.8423 10.3725 13.7548 10.34 13.6543ZM23.9 13.5053C24.1449 11.6871 23.9631 9.83677 23.3687 8.10104C22.7744 6.3653 21.784 4.79183 20.476 3.50532L20.455 3.50032C18.2099 1.26069 15.1682 0.00292969 11.997 0.00292969C8.82582 0.00292969 5.78409 1.26069 3.539 3.50032C2.41696 4.61318 1.52651 5.93731 0.919078 7.39624C0.311648 8.85517 -0.000723978 10.42 1.25995e-06 12.0003C0.0035608 12.505 0.038629 13.009 0.105001 13.5093C0.110001 13.5353 0.111001 13.5603 0.117001 13.5853C0.289347 14.8841 0.675216 16.1454 1.259 17.3183C1.27475 17.3595 1.29381 17.3993 1.316 17.4373C2.15972 19.0902 3.37465 20.5253 4.86562 21.6303C6.35659 22.7353 8.08313 23.48 9.91 23.8063C9.96679 23.8203 10.0247 23.8293 10.083 23.8333C11.6662 24.1023 13.2875 24.048 14.8491 23.6738C16.4108 23.2996 17.8806 22.6132 19.17 21.6559C20.4593 20.6986 21.5416 19.4902 22.3516 18.1035C23.1615 16.7169 23.6825 15.1806 23.883 13.5873C23.889 13.5603 23.891 13.5333 23.9 13.5053ZM19.452 8.83832L20.228 6.32932C21.2737 7.845 21.8778 9.62137 21.973 11.4603L19.831 9.95132C19.6584 9.8296 19.5287 9.65635 19.4606 9.4564C19.3926 9.25646 19.3895 9.04009 19.452 8.83832ZM14.592 2.35332L12.592 3.80932C12.4211 3.93355 12.2153 4.00046 12.004 4.00046C11.7927 4.00046 11.5869 3.93355 11.416 3.80932L9.416 2.35332C11.112 1.88267 12.904 1.88267 14.6 2.35332H14.592ZM4.548 8.83832C4.61047 9.04009 4.60744 9.25646 4.53936 9.4564C4.47127 9.65635 4.34162 9.8296 4.169 9.95132L2.027 11.4603C2.1222 9.62169 2.72633 7.84565 3.772 6.33032L4.548 8.83832ZM4.007 17.9843L6.754 17.9933C6.96538 17.9937 7.17118 18.0611 7.34186 18.1858C7.51254 18.3105 7.63932 18.4861 7.704 18.6873L8.568 21.3803C6.75195 20.7119 5.16797 19.5325 4.007 17.9843ZM10.843 21.9273L9.608 18.0763C9.41532 17.4721 9.03563 16.9447 8.52373 16.5703C8.01183 16.1959 7.39421 15.9939 6.76 15.9933L2.831 15.9813C2.52861 15.2837 2.30749 14.5535 2.172 13.8053L5.321 11.5863C5.83979 11.2222 6.22955 10.7027 6.43408 10.1028C6.6386 9.50289 6.64733 8.85352 6.459 8.24832L5.324 4.57632C5.89756 4.05511 6.52981 3.6024 7.208 3.22732L10.236 5.42732C10.7482 5.80103 11.3659 6.0024 12 6.0024C12.6341 6.0024 13.2518 5.80103 13.764 5.42732L16.792 3.22732C17.47 3.60265 18.1023 4.05534 18.676 4.57632L17.541 8.24832C17.3527 8.85352 17.3614 9.50289 17.5659 10.1028C17.7705 10.7027 18.1602 11.2222 18.679 11.5863L21.828 13.8053C21.6926 14.5532 21.4714 15.283 21.169 15.9803L17.239 15.9933C16.6048 15.9941 15.9873 16.1964 15.4756 16.571C14.9639 16.9456 14.5845 17.4731 14.392 18.0773L13.157 21.9273C12.3887 22.0247 11.6113 22.0247 10.843 21.9273ZM15.433 21.3803L16.296 18.6873C16.3606 18.4862 16.4873 18.3108 16.6577 18.1861C16.8282 18.0615 17.0338 17.994 17.245 17.9933L19.993 17.9843C18.8326 19.5327 17.2489 20.7122 15.433 21.3803Z" fill="black"/>
</g>
<defs>
<clipPath id="clip0">
<rect width="24" height="24" fill="white"/>
</clipPath>
</defs>
</svg>
