<svg width="24" height="24" viewBox="0 0 24 24" fill="none" xmlns="http://www.w3.org/2000/svg">
<g clip-path="url(#clip0)">
<path d="M20 11H19V5C19 3.93913 18.5786 2.92172 17.8284 2.17157C17.0783 1.42143 16.0609 1 15 1H4C2.93913 1 1.92172 1.42143 1.17157 2.17157C0.421427 2.92172 0 3.93913 0 5L0 16C0.0021456 16.6309 0.203551 17.245 0.575468 17.7547C0.947384 18.2644 1.4708 18.6435 2.071 18.838C2.02573 19.0558 2.00195 19.2775 2 19.5C2 20.4283 2.36875 21.3185 3.02513 21.9749C3.6815 22.6313 4.57174 23 5.5 23C6.42826 23 7.3185 22.6313 7.97487 21.9749C8.63125 21.3185 9 20.4283 9 19.5C8.99843 19.3326 8.98473 19.1655 8.959 19H15.041C15.0153 19.1655 15.0016 19.3326 15 19.5C15 20.4283 15.3687 21.3185 16.0251 21.9749C16.6815 22.6313 17.5717 23 18.5 23C19.4283 23 20.3185 22.6313 20.9749 21.9749C21.6313 21.3185 22 20.4283 22 19.5C21.998 19.2775 21.9743 19.0558 21.929 18.838C22.5292 18.6435 23.0526 18.2644 23.4245 17.7547C23.7964 17.245 23.9979 16.6309 24 16V15C24 13.9391 23.5786 12.9217 22.8284 12.1716C22.0783 11.4214 21.0609 11 20 11ZM2 11V7H4V11H2ZM6 7H8V11H6V7ZM10 7H13V17H10V7ZM15 7H17V11H15V7ZM4 3H15C15.5304 3 16.0391 3.21071 16.4142 3.58579C16.7893 3.96086 17 4.46957 17 5H2C2 4.46957 2.21071 3.96086 2.58579 3.58579C2.96086 3.21071 3.46957 3 4 3ZM2 13H8V17H3C2.73478 17 2.48043 16.8946 2.29289 16.7071C2.10536 16.5196 2 16.2652 2 16V13ZM7 19.5C7 19.8978 6.84196 20.2794 6.56066 20.5607C6.27936 20.842 5.89782 21 5.5 21C5.10218 21 4.72064 20.842 4.43934 20.5607C4.15804 20.2794 4 19.8978 4 19.5C4.00044 19.3291 4.03195 19.1597 4.093 19H6.907C6.96805 19.1597 6.99956 19.3291 7 19.5ZM18.5 21C18.1022 21 17.7206 20.842 17.4393 20.5607C17.158 20.2794 17 19.8978 17 19.5C17.0004 19.3291 17.0319 19.1597 17.093 19H19.907C19.9681 19.1597 19.9996 19.3291 20 19.5C20 19.8978 19.842 20.2794 19.5607 20.5607C19.2794 20.842 18.8978 21 18.5 21ZM22 16C22 16.2652 21.8946 16.5196 21.7071 16.7071C21.5196 16.8946 21.2652 17 21 17H15V13H20C20.5304 13 21.0391 13.2107 21.4142 13.5858C21.7893 13.9609 22 14.4696 22 15V16Z" fill="black"/>
</g>
<defs>
<clipPath id="clip0">
<rect width="24" height="24" fill="white"/>
</clipPath>
</defs>
</svg>
