<svg width="24" height="24" viewBox="0 0 24 24" fill="none" xmlns="http://www.w3.org/2000/svg">
<g clip-path="url(#clip0)">
<path d="M19.9998 1.38919e-05H18.2428C17.7172 -0.00137567 17.1965 0.101493 16.7109 0.302666C16.2253 0.503839 15.7844 0.799322 15.4138 1.17201L12.1718 4.41401C11.4236 5.16534 11.0024 6.18171 10.9998 7.24201V10.705C7.73379 13.12 3.41879 16.338 2.87879 16.879C2.44368 17.317 2.15468 17.8789 2.05138 18.4876C1.94808 19.0962 2.03555 19.722 2.30179 20.279L0.292786 22.293C0.105315 22.4805 0 22.7348 0 23C0 23.2652 0.105315 23.5195 0.292786 23.707C0.480314 23.8945 0.734622 23.9998 0.999786 23.9998C1.26495 23.9998 1.51926 23.8945 1.70679 23.707L3.71379 21.7C4.27093 21.9718 4.89924 22.0621 5.51036 21.9582C6.12149 21.8543 6.68469 21.5616 7.12079 21.121C7.66179 20.58 10.8798 16.266 13.2998 13H16.7618C17.2874 13.0014 17.8081 12.8985 18.2937 12.6974C18.7793 12.4962 19.2201 12.2007 19.5908 11.828L22.8328 8.58601C23.5791 7.83387 23.9985 6.8176 23.9998 5.75801V4.00001C23.9998 2.93915 23.5784 1.92173 22.8282 1.17159C22.0781 0.421441 21.0607 1.38919e-05 19.9998 1.38919e-05ZM5.70679 19.707C5.51665 19.8895 5.26332 19.9914 4.99979 19.9914C4.73625 19.9914 4.48292 19.8895 4.29279 19.707C4.10532 19.5195 4 19.2652 4 19C4 18.7348 4.10532 18.4805 4.29279 18.293C4.63179 17.957 7.29279 15.95 10.2408 13.759C8.04879 16.706 6.04179 19.369 5.70679 19.707ZM21.9998 5.75801C21.9985 6.28816 21.7879 6.79635 21.4138 7.17201L18.1718 10.414C17.9863 10.6003 17.7658 10.748 17.5229 10.8486C17.28 10.9492 17.0197 11.0006 16.7568 11H14.7708L15.7618 9.65201L19.7068 5.70701C19.8023 5.61477 19.8785 5.50442 19.9309 5.38242C19.9833 5.26041 20.0109 5.12919 20.012 4.99642C20.0132 4.86364 19.9879 4.73196 19.9376 4.60906C19.8873 4.48616 19.8131 4.37451 19.7192 4.28062C19.6253 4.18673 19.5136 4.11247 19.3907 4.06219C19.2678 4.01191 19.1362 3.98661 19.0034 3.98776C18.8706 3.98892 18.7394 4.0165 18.6174 4.06891C18.4954 4.12132 18.385 4.1975 18.2928 4.29301L14.3488 8.23701L12.9998 9.22901V7.24201C13.0011 6.71186 13.2117 6.20368 13.5858 5.82801L16.8278 2.58601C17.0132 2.39972 17.2338 2.25202 17.4767 2.15144C17.7195 2.05086 17.9799 1.99939 18.2428 2.00001H19.9998C20.5302 2.00001 21.0389 2.21073 21.414 2.5858C21.7891 2.96087 21.9998 3.46958 21.9998 4.00001V5.75801Z" fill="black"/>
</g>
<defs>
<clipPath id="clip0">
<rect width="24" height="24" fill="white"/>
</clipPath>
</defs>
</svg>
