<svg width="24" height="24" viewBox="0 0 24 24" fill="none" xmlns="http://www.w3.org/2000/svg">
<g clip-path="url(#clip0)">
<path d="M23.4141 0.587401C23.1632 0.340283 22.8522 0.162961 22.5117 0.0729837C22.1713 -0.0169933 21.8133 -0.0165048 21.4731 0.0744007C19.0321 0.878116 16.8132 2.24219 14.9941 4.0574L5.51808 13.5324C4.14986 12.7951 2.67255 12.2812 1.14208 12.0104C0.882462 11.9784 0.62065 12.0495 0.412786 12.2083C0.204922 12.3671 0.0675555 12.601 0.0301412 12.8599C-0.00727305 13.1188 0.058244 13.382 0.212644 13.5932C0.367043 13.8043 0.598033 13.9466 0.856081 13.9894C2.80288 14.3544 4.63657 15.1721 6.20908 16.3764L2.50008 20.0864L1.70708 19.2934C1.61483 19.1979 1.50449 19.1217 1.38249 19.0693C1.26048 19.0169 1.12926 18.9893 0.996482 18.9881C0.863703 18.987 0.732023 19.0123 0.609127 19.0626C0.486231 19.1129 0.374579 19.1871 0.280686 19.281C0.186794 19.3749 0.11254 19.4866 0.0622595 19.6094C0.0119786 19.7323 -0.0133231 19.864 -0.0121693 19.9968C-0.0110155 20.1296 0.0165708 20.2608 0.0689798 20.3828C0.121389 20.5048 0.197571 20.6152 0.293081 20.7074L3.29308 23.7074C3.38533 23.8029 3.49567 23.8791 3.61768 23.9315C3.73968 23.9839 3.8709 24.0115 4.00368 24.0127C4.13646 24.0138 4.26814 23.9885 4.39104 23.9382C4.51393 23.8879 4.62558 23.8137 4.71948 23.7198C4.81337 23.6259 4.88762 23.5142 4.9379 23.3914C4.98818 23.2685 5.01349 23.1368 5.01233 23.004C5.01118 22.8712 4.98359 22.74 4.93118 22.618C4.87877 22.496 4.80259 22.3856 4.70708 22.2934L3.91408 21.5004L7.62308 17.7904C8.82831 19.3628 9.64608 21.197 10.0101 23.1444C10.0447 23.3822 10.1638 23.5996 10.3456 23.7568C10.5274 23.914 10.7597 24.0005 11.0001 24.0004C11.0483 24.0007 11.0965 23.997 11.1441 23.9894C11.4061 23.9515 11.6424 23.8113 11.8011 23.5995C11.9599 23.3876 12.0282 23.1215 11.9911 22.8594C11.7213 21.3286 11.2074 19.8512 10.4691 18.4834L19.9441 9.0074C21.7799 7.16254 23.1539 4.91002 23.9541 2.4334C24.027 2.10513 24.0158 1.76374 23.9214 1.44099C23.827 1.11824 23.6524 0.824602 23.4141 0.587401ZM18.5291 7.5924L9.36208 16.7604C9.05865 16.3606 8.72856 15.9817 8.37408 15.6264C8.01864 15.2724 7.64015 14.9424 7.24108 14.6384L16.4081 5.4714C17.9772 3.90134 19.8884 2.71574 21.9921 2.0074C21.2819 4.11028 20.0969 6.02134 18.5291 7.5924Z" fill="black"/>
</g>
<defs>
<clipPath id="clip0">
<rect width="24" height="24" fill="white"/>
</clipPath>
</defs>
</svg>
