<svg width="24" height="24" viewBox="0 0 24 24" fill="none" xmlns="http://www.w3.org/2000/svg">
<g clip-path="url(#clip0)">
<path d="M13.0001 16.0001C14.5823 16.0001 16.129 15.5309 17.4446 14.6519C18.7602 13.7728 19.7856 12.5234 20.3911 11.0616C20.9966 9.59976 21.155 7.99123 20.8464 6.43938C20.5377 4.88753 19.7757 3.46207 18.6569 2.34325C17.5381 1.22443 16.1126 0.462505 14.5608 0.153823C13.0089 -0.154859 11.4004 0.00356776 9.9386 0.609069C8.47679 1.21457 7.22736 2.23995 6.34831 3.55554C5.46926 4.87114 5.00007 6.41785 5.00007 8.0001C5.00245 10.1211 5.84607 12.1546 7.34585 13.6543C8.84562 15.1541 10.8791 15.9977 13.0001 16.0001ZM13.0001 2.00011C14.1868 2.00011 15.3468 2.352 16.3335 3.01129C17.3202 3.67058 18.0892 4.60765 18.5433 5.704C18.9975 6.80036 19.1163 8.00676 18.8848 9.17065C18.6533 10.3345 18.0818 11.4036 17.2427 12.2427C16.4036 13.0819 15.3345 13.6533 14.1706 13.8848C13.0067 14.1163 11.8003 13.9975 10.704 13.5434C9.60761 13.0893 8.67054 12.3202 8.01125 11.3335C7.35196 10.3468 7.00007 9.18679 7.00007 8.0001C7.00166 6.40929 7.63431 4.88409 8.75918 3.75922C9.88406 2.63434 11.4093 2.00169 13.0001 2.00011ZM22.9071 14.7731C21.8992 16.2416 20.5769 17.4671 19.0362 18.3607C17.4956 19.2543 15.7752 19.7935 14.0001 19.9391V22.0001H18.0001C18.2653 22.0001 18.5196 22.1055 18.7072 22.293C18.8947 22.4805 19.0001 22.7349 19.0001 23.0001C19.0001 23.2653 18.8947 23.5197 18.7072 23.7072C18.5196 23.8947 18.2653 24.0001 18.0001 24.0001H8.00007C7.73485 24.0001 7.4805 23.8947 7.29296 23.7072C7.10543 23.5197 7.00007 23.2653 7.00007 23.0001C7.00007 22.7349 7.10543 22.4805 7.29296 22.293C7.4805 22.1055 7.73485 22.0001 8.00007 22.0001H12.0001V19.9491C9.81751 19.7675 7.72633 18.9918 5.95335 17.7061C4.18036 16.4204 2.79325 14.6738 1.94247 12.6557C1.09169 10.6376 0.809715 8.42506 1.12713 6.25809C1.44455 4.09111 2.34923 2.05241 3.74307 0.363105C3.91201 0.158623 4.15527 0.0296286 4.41932 0.00449871C4.55006 -0.00794434 4.68198 0.00548657 4.80753 0.0440246C4.93309 0.0825626 5.04982 0.145453 5.15107 0.229105C5.25232 0.312757 5.3361 0.415532 5.39763 0.531563C5.45916 0.647594 5.49723 0.774608 5.50968 0.905353C5.52212 1.0361 5.50869 1.16801 5.47015 1.29357C5.43161 1.41912 5.36872 1.53586 5.28507 1.6371C4.42662 2.67962 3.78822 3.88521 3.40838 5.18116C3.02855 6.47712 2.91514 7.83658 3.07501 9.17756C3.23487 10.5185 3.66469 11.8132 4.33855 12.9836C5.01241 14.1539 5.91633 15.1756 6.99581 15.9871C8.07528 16.7986 9.30794 17.383 10.6194 17.7051C11.9309 18.0273 13.2941 18.0804 14.6267 17.8614C15.9593 17.6423 17.2337 17.1556 18.373 16.4307C19.5124 15.7057 20.4931 14.7574 21.2561 13.6431C21.4059 13.4242 21.6366 13.2737 21.8974 13.2249C22.1581 13.176 22.4276 13.2328 22.6466 13.3826C22.8655 13.5325 23.0159 13.7631 23.0648 14.0239C23.1137 14.2847 23.0569 14.5542 22.9071 14.7731Z" fill="black"/>
</g>
<defs>
<clipPath id="clip0">
<rect width="24" height="24" fill="white"/>
</clipPath>
</defs>
</svg>
