<svg width="24" height="24" viewBox="0 0 24 24" fill="none" xmlns="http://www.w3.org/2000/svg">
<g clip-path="url(#clip0)">
<path d="M24.0002 11.2466C23.8555 8.90661 23.0293 6.6601 21.6233 4.78401C20.2174 2.90793 18.2932 1.48428 16.0879 0.688582C13.8826 -0.107116 11.4927 -0.240079 9.21271 0.306083C6.93277 0.852245 4.86249 2.05366 3.2571 3.76221C1.65171 5.47075 0.581393 7.61175 0.178094 9.92124C-0.225205 12.2307 0.0561486 14.6078 0.987468 16.7593C1.91879 18.9108 3.45936 20.7428 5.41926 22.0293C7.37916 23.3159 9.67271 24.0008 12.0172 23.9996H19.0002C20.3258 23.9983 21.5968 23.4711 22.5342 22.5337C23.4716 21.5963 23.9988 20.3253 24.0002 18.9996V11.2466ZM22.0002 18.9996C22.0002 19.7952 21.6841 20.5583 21.1215 21.1209C20.5589 21.6835 19.7958 21.9996 19.0002 21.9996H12.0172C10.6061 21.9989 9.211 21.7009 7.92285 21.1249C6.6347 20.5489 5.48243 19.7078 4.54115 18.6566C3.59533 17.6059 2.88508 16.3651 2.45805 15.0174C2.03101 13.6697 1.89705 12.2463 2.06515 10.8426C2.33059 8.62853 3.32534 6.56577 4.89259 4.97951C6.45985 3.39325 8.51045 2.3737 10.7212 2.08159C11.1524 2.02754 11.5865 2.00015 12.0212 1.99959C14.3516 1.99323 16.61 2.80749 18.4002 4.29959C19.4457 5.16853 20.3039 6.24074 20.9227 7.45122C21.5415 8.66169 21.9081 9.98523 22.0002 11.3416V18.9996Z" fill="black"/>
<path d="M8 9H12C12.2652 9 12.5196 8.89464 12.7071 8.70711C12.8946 8.51957 13 8.26522 13 8C13 7.73478 12.8946 7.48043 12.7071 7.29289C12.5196 7.10536 12.2652 7 12 7H8C7.73478 7 7.48043 7.10536 7.29289 7.29289C7.10536 7.48043 7 7.73478 7 8C7 8.26522 7.10536 8.51957 7.29289 8.70711C7.48043 8.89464 7.73478 9 8 9Z" fill="black"/>
<path d="M16 11H8C7.73478 11 7.48043 11.1054 7.29289 11.2929C7.10536 11.4804 7 11.7348 7 12C7 12.2652 7.10536 12.5196 7.29289 12.7071C7.48043 12.8946 7.73478 13 8 13H16C16.2652 13 16.5196 12.8946 16.7071 12.7071C16.8946 12.5196 17 12.2652 17 12C17 11.7348 16.8946 11.4804 16.7071 11.2929C16.5196 11.1054 16.2652 11 16 11Z" fill="black"/>
<path d="M16 15H8C7.73478 15 7.48043 15.1054 7.29289 15.2929C7.10536 15.4804 7 15.7348 7 16C7 16.2652 7.10536 16.5196 7.29289 16.7071C7.48043 16.8946 7.73478 17 8 17H16C16.2652 17 16.5196 16.8946 16.7071 16.7071C16.8946 16.5196 17 16.2652 17 16C17 15.7348 16.8946 15.4804 16.7071 15.2929C16.5196 15.1054 16.2652 15 16 15Z" fill="black"/>
</g>
<defs>
<clipPath id="clip0">
<rect width="24" height="24" fill="white"/>
</clipPath>
</defs>
</svg>
