<svg width="24" height="24" viewBox="0 0 24 24" fill="none" xmlns="http://www.w3.org/2000/svg">
<g clip-path="url(#clip0)">
<path d="M20.5372 12.6999L19.4072 11.9999L20.5382 11.2999C21.3235 10.833 21.9316 10.1186 22.2672 9.26886C22.4773 8.70701 22.5556 8.10443 22.4961 7.50754C22.4366 6.91066 22.2408 6.3354 21.924 5.82608C21.6071 5.31676 21.1775 4.88698 20.6684 4.56984C20.1592 4.25271 19.584 4.05668 18.9872 3.99687C18.0765 3.92238 17.1669 4.15241 16.4012 4.65087L16.0002 4.89987V4.17186C16.0171 3.15662 15.6581 2.17095 14.9923 1.40435C14.3265 0.637736 13.4008 0.144291 12.3932 0.018865C11.8374 -0.0360035 11.2763 0.0261099 10.746 0.201207C10.2157 0.376304 9.72799 0.660504 9.31417 1.03551C8.90036 1.41052 8.56965 1.86802 8.34334 2.37857C8.11703 2.88913 8.00014 3.44141 8.00019 3.99987V4.89987L7.60019 4.64987C6.83459 4.15001 5.92453 3.91888 5.01319 3.99287C4.41623 4.05216 3.84086 4.24773 3.33143 4.56452C2.822 4.88131 2.39212 5.31085 2.07492 5.82003C1.75772 6.3292 1.56168 6.90442 1.50192 7.50133C1.44215 8.09824 1.52025 8.7009 1.73019 9.26286C2.06583 10.1129 2.67437 10.8273 3.46019 11.2939L4.59319 11.9999L3.46219 12.6999C2.67689 13.1668 2.06877 13.8811 1.73319 14.7309C1.52284 15.2932 1.44451 15.8963 1.50426 16.4936C1.56401 17.091 1.76024 17.6667 2.0778 18.1761C2.39536 18.6856 2.82576 19.1153 3.33576 19.4321C3.84576 19.7488 4.42173 19.9441 5.01919 20.0029C5.92783 20.0771 6.83547 19.8482 7.60019 19.3519L8.00019 19.0999V19.9999C8.00019 21.0607 8.42162 22.0781 9.17177 22.8283C9.92191 23.5784 10.9393 23.9999 12.0002 23.9999C13.0611 23.9999 14.0785 23.5784 14.8286 22.8283C15.5788 22.0781 16.0002 21.0607 16.0002 19.9999V19.0999L16.4002 19.3509C17.1645 19.8475 18.0717 20.0771 18.9802 20.0039C19.5775 19.9448 20.1532 19.7493 20.663 19.4325C21.1727 19.1156 21.6029 18.6859 21.9202 18.1764C22.2376 17.667 22.4336 17.0914 22.4933 16.4942C22.5529 15.897 22.4745 15.294 22.2642 14.7319C21.9292 13.8821 21.3218 13.1675 20.5372 12.6999ZM20.2262 17.1179C19.9575 17.5491 19.5285 17.8559 19.0336 17.9708C18.5387 18.0858 18.0185 17.9995 17.5872 17.7309L15.5282 16.4489C15.3766 16.3546 15.2026 16.3027 15.0242 16.2984C14.8458 16.2941 14.6695 16.3376 14.5136 16.4245C14.3577 16.5113 14.2279 16.6383 14.1376 16.7922C14.0473 16.9461 13.9999 17.1214 14.0002 17.2999V19.9999C14.0002 20.5303 13.7895 21.039 13.4144 21.4141C13.0393 21.7892 12.5306 21.9999 12.0002 21.9999C11.4698 21.9999 10.9611 21.7892 10.586 21.4141C10.2109 21.039 10.0002 20.5303 10.0002 19.9999V17.2999C10.0001 17.1216 9.95244 16.9466 9.86202 16.7929C9.77159 16.6392 9.64173 16.5126 9.48588 16.426C9.33004 16.3394 9.15388 16.296 8.97565 16.3004C8.79742 16.3048 8.6236 16.3567 8.47219 16.4509L6.41319 17.7349C6.19966 17.8678 5.96204 17.9574 5.71388 17.9986C5.46572 18.0397 5.21189 18.0315 4.96688 17.9746C4.72188 17.9176 4.49049 17.8129 4.28593 17.6665C4.08138 17.5201 3.90766 17.3349 3.77469 17.1214C3.64173 16.9078 3.55213 16.6702 3.511 16.422C3.46987 16.1739 3.47802 15.9201 3.53499 15.6751C3.59196 15.43 3.69663 15.1987 3.84302 14.9941C3.98941 14.7895 4.17466 14.6158 4.38819 14.4829L7.01319 12.8489C7.1579 12.7592 7.27732 12.634 7.36013 12.4853C7.44295 12.3365 7.48641 12.1691 7.48641 11.9989C7.48641 11.8286 7.44295 11.6612 7.36013 11.5124C7.27732 11.3637 7.1579 11.2385 7.01319 11.1489L4.38819 9.51586C3.95695 9.24733 3.65005 8.81849 3.53499 8.32367C3.41994 7.82886 3.50616 7.30861 3.77469 6.87737C4.04323 6.44612 4.47207 6.13922 4.96688 6.02416C5.4617 5.90911 5.98195 5.99533 6.41319 6.26386L8.47219 7.54587C8.62338 7.63987 8.79693 7.6918 8.9749 7.6963C9.15288 7.70081 9.32883 7.65772 9.48458 7.57148C9.64033 7.48525 9.77024 7.359 9.86088 7.20577C9.95152 7.05254 9.99962 6.87789 10.0002 6.69986V4.10686C9.9894 3.62001 10.1502 3.14488 10.4544 2.76461C10.7586 2.38435 11.1868 2.1232 11.6642 2.02687C11.9513 1.97794 12.2455 1.9923 12.5265 2.06892C12.8074 2.14555 13.0682 2.2826 13.2907 2.4705C13.5132 2.6584 13.6919 2.89261 13.8145 3.15677C13.937 3.42093 14.0004 3.70866 14.0002 3.99987V6.69986C14.0004 6.87806 14.0483 7.05297 14.1388 7.20648C14.2292 7.35998 14.3591 7.48652 14.5149 7.57299C14.6708 7.65947 14.8468 7.70273 15.025 7.69831C15.2031 7.6939 15.3769 7.64195 15.5282 7.54786L17.5872 6.26687C17.8007 6.1339 18.0384 6.0443 18.2865 6.00317C18.5347 5.96204 18.7885 5.9702 19.0335 6.02716C19.2785 6.08413 19.5099 6.1888 19.7145 6.33519C19.919 6.48159 20.0927 6.66684 20.2257 6.88036C20.3587 7.09389 20.4483 7.33152 20.4894 7.57968C20.5305 7.82784 20.5224 8.08167 20.4654 8.32667C20.4084 8.57168 20.3038 8.80307 20.1574 9.00763C20.011 9.21218 19.8257 9.3859 19.6122 9.51886L16.9872 11.1529C16.8425 11.2425 16.7231 11.3677 16.6403 11.5164C16.5574 11.6652 16.514 11.8326 16.514 12.0029C16.514 12.1731 16.5574 12.3405 16.6403 12.4893C16.7231 12.638 16.8425 12.7632 16.9872 12.8529L19.6122 14.4869C19.8258 14.6197 20.0112 14.7933 20.1577 14.9977C20.3042 15.2022 20.409 15.4336 20.466 15.6786C20.5231 15.9236 20.5312 16.1774 20.4901 16.4256C20.4489 16.6738 20.3592 16.9114 20.2262 17.1249V17.1179Z" fill="black"/>
</g>
<defs>
<clipPath id="clip0">
<rect width="24" height="24" fill="white"/>
</clipPath>
</defs>
</svg>
