<svg width="24" height="24" viewBox="0 0 24 24" fill="none" xmlns="http://www.w3.org/2000/svg">
<g clip-path="url(#clip0)">
<path d="M24.0001 22.9996C24.0001 23.2648 23.8948 23.5191 23.7073 23.7067C23.5197 23.8942 23.2654 23.9996 23.0001 23.9996H1.00015C0.73493 23.9996 0.480576 23.8942 0.29304 23.7067C0.105504 23.5191 0.000146694 23.2648 0.000146694 22.9996C0.000146694 22.7344 0.105504 22.48 0.29304 22.2925C0.480576 22.1049 0.73493 21.9996 1.00015 21.9996H23.0001C23.2654 21.9996 23.5197 22.1049 23.7073 22.2925C23.8948 22.48 24.0001 22.7344 24.0001 22.9996ZM0.291147 8.55157C0.075669 8.15189 -0.0241587 7.70007 0.00286712 7.24682C0.0298929 6.79356 0.182703 6.35681 0.444147 5.98557C0.871405 5.35868 1.44359 4.84413 2.11215 4.48557L9.61315 0.581567C10.3504 0.198198 11.1692 -0.00195313 12.0001 -0.00195312C12.8311 -0.00195313 13.6499 0.198198 14.3871 0.581567L21.8871 4.48857C22.5557 4.84713 23.1279 5.36168 23.5551 5.98857C23.8166 6.35981 23.9694 6.79656 23.9964 7.24982C24.0235 7.70307 23.9236 8.15489 23.7081 8.55457C23.4762 8.9934 23.1282 9.36017 22.7022 9.61495C22.2762 9.86974 21.7885 10.0028 21.2921 9.99957H21.0001V17.9996H22.0001C22.2654 17.9996 22.5197 18.1049 22.7073 18.2925C22.8948 18.48 23.0001 18.7344 23.0001 18.9996C23.0001 19.2648 22.8948 19.5191 22.7073 19.7067C22.5197 19.8942 22.2654 19.9996 22.0001 19.9996H2.00015C1.73493 19.9996 1.48058 19.8942 1.29304 19.7067C1.1055 19.5191 1.00015 19.2648 1.00015 18.9996C1.00015 18.7344 1.1055 18.48 1.29304 18.2925C1.48058 18.1049 1.73493 17.9996 2.00015 17.9996H3.00015V9.99957H2.70815C2.21131 10.0027 1.72315 9.86928 1.29694 9.61393C0.870718 9.35859 0.522805 8.99111 0.291147 8.55157ZM5.00015 17.9996H8.00015V9.99957H5.00015V17.9996ZM10.0001 9.99957V17.9996H14.0001V9.99957H10.0001ZM19.0001 9.99957H16.0001V17.9996H19.0001V9.99957ZM2.06315 7.62457C2.12589 7.74025 2.21926 7.83643 2.33303 7.90257C2.4468 7.96871 2.57658 8.00227 2.70815 7.99957H21.2921C21.4237 8.00227 21.5535 7.96871 21.6673 7.90257C21.781 7.83643 21.8744 7.74025 21.9371 7.62457C21.9828 7.54813 22.005 7.4599 22.0007 7.37094C21.9964 7.28199 21.966 7.19627 21.9131 7.12457C21.6709 6.76448 21.3453 6.46811 20.9641 6.26057L13.4641 2.35357C13.0122 2.11899 12.5104 1.99654 12.0011 1.99654C11.4919 1.99654 10.9901 2.11899 10.5381 2.35357L3.03815 6.26057C2.65713 6.46878 2.33168 6.76542 2.08915 7.12557C2.03624 7.19697 2.00555 7.28239 2.00092 7.37115C1.9963 7.4599 2.01794 7.54805 2.06315 7.62457Z" fill="black"/>
</g>
<defs>
<clipPath id="clip0">
<rect width="24" height="24" fill="white"/>
</clipPath>
</defs>
</svg>
