<svg width="24" height="24" viewBox="0 0 24 24" fill="none" xmlns="http://www.w3.org/2000/svg">
<g clip-path="url(#clip0)">
<path d="M3.787 20.6557C2.78296 20.6552 1.82018 20.2562 1.11013 19.5463C0.400068 18.8364 0.000794959 17.8738 1.34638e-07 16.8697V7.12971C-0.000186396 6.43044 0.193447 5.7448 0.559399 5.14894C0.92535 4.55307 1.4493 4.07029 2.07306 3.75421C2.69682 3.43814 3.39598 3.30114 4.0929 3.35842C4.78982 3.4157 5.45722 3.66503 6.021 4.07871L9.8 6.85271C9.8494 6.17893 10.0783 5.53067 10.463 4.9753C10.8477 4.41992 11.3741 3.97769 11.9875 3.69457C12.6009 3.41144 13.2789 3.29775 13.9511 3.3653C14.6233 3.43286 15.2652 3.67919 15.81 4.07871L22.451 8.94871C22.9297 9.30024 23.3189 9.75951 23.5872 10.2894C23.8555 10.8192 23.9953 11.4048 23.9953 11.9987C23.9953 12.5926 23.8555 13.1782 23.5872 13.7081C23.3189 14.2379 22.9297 14.6972 22.451 15.0487L15.81 19.9187C15.2653 20.3182 14.6237 20.5645 13.9516 20.6322C13.2796 20.6998 12.6017 20.5863 11.9883 20.3034C11.375 20.0205 10.8485 19.5785 10.4637 19.0234C10.0789 18.4683 9.84973 17.8203 9.8 17.1467L6.021 19.9207C5.37359 20.3973 4.59093 20.6548 3.787 20.6557ZM10.793 14.1807C11.0582 14.1807 11.3126 14.2861 11.5001 14.4736C11.6876 14.6611 11.793 14.9155 11.793 15.1807V16.8697C11.7933 17.1992 11.8847 17.5221 12.0573 17.8028C12.2299 18.0834 12.4768 18.3108 12.7707 18.4597C13.0645 18.6086 13.3939 18.6733 13.7223 18.6464C14.0507 18.6196 14.3652 18.5024 14.631 18.3077L21.271 13.4377C21.4969 13.2721 21.6806 13.0556 21.8072 12.8058C21.9339 12.556 21.9998 12.2798 21.9998 11.9997C21.9998 11.7196 21.9339 11.4435 21.8072 11.1936C21.6806 10.9438 21.4969 10.7273 21.271 10.5617L14.631 5.69171C14.3652 5.49707 14.0507 5.37983 13.7223 5.35299C13.3939 5.32616 13.0645 5.39078 12.7707 5.53969C12.4768 5.68861 12.2299 5.91599 12.0573 6.19664C11.8847 6.4773 11.7933 6.80025 11.793 7.12971V8.81871C11.7929 9.00342 11.7416 9.18448 11.6449 9.34182C11.5481 9.49916 11.4097 9.62663 11.2449 9.7101C11.0802 9.79357 10.8955 9.82978 10.7114 9.81471C10.5273 9.79964 10.351 9.73387 10.202 9.62471L4.838 5.69171C4.57219 5.49707 4.25766 5.37983 3.9293 5.35299C3.60093 5.32616 3.27155 5.39078 2.97766 5.53969C2.68377 5.68861 2.43686 5.91599 2.26429 6.19664C2.09173 6.4773 2.00025 6.80025 2 7.12971V16.8697C2.00025 17.1992 2.09173 17.5221 2.26429 17.8028C2.43686 18.0834 2.68377 18.3108 2.97766 18.4597C3.27155 18.6086 3.60093 18.6733 3.9293 18.6464C4.25766 18.6196 4.57219 18.5024 4.838 18.3077L10.2 14.3747C10.3719 14.2485 10.5797 14.1805 10.793 14.1807Z" fill="black"/>
</g>
<defs>
<clipPath id="clip0">
<rect width="24" height="24" fill="white"/>
</clipPath>
</defs>
</svg>
