<svg width="24" height="24" viewBox="0 0 24 24" fill="none" xmlns="http://www.w3.org/2000/svg">
<g clip-path="url(#clip0)">
<path d="M15.207 14.207L13.414 16L15.207 17.793C15.3025 17.8853 15.3787 17.9956 15.4311 18.1176C15.4835 18.2396 15.5111 18.3708 15.5123 18.5036C15.5134 18.6364 15.4881 18.7681 15.4378 18.891C15.3875 19.0139 15.3133 19.1255 15.2194 19.2194C15.1255 19.3133 15.0139 19.3876 14.891 19.4378C14.7681 19.4881 14.6364 19.5134 14.5036 19.5123C14.3708 19.5111 14.2396 19.4835 14.1176 19.4311C13.9956 19.3787 13.8852 19.3025 13.793 19.207L12 17.414L10.207 19.207C10.0184 19.3892 9.7658 19.49 9.5036 19.4877C9.2414 19.4854 8.99059 19.3802 8.80518 19.1948C8.61977 19.0094 8.5146 18.7586 8.51233 18.4964C8.51005 18.2342 8.61084 17.9816 8.793 17.793L10.586 16L8.793 14.207C8.61084 14.0184 8.51005 13.7658 8.51233 13.5036C8.5146 13.2414 8.61977 12.9906 8.80518 12.8052C8.99059 12.6198 9.2414 12.5146 9.5036 12.5123C9.7658 12.5101 10.0184 12.6109 10.207 12.793L12 14.586L13.793 12.793C13.9816 12.6109 14.2342 12.5101 14.4964 12.5123C14.7586 12.5146 15.0094 12.6198 15.1948 12.8052C15.3802 12.9906 15.4854 13.2414 15.4877 13.5036C15.49 13.7658 15.3892 14.0184 15.207 14.207ZM22 10.485V19C21.9984 20.3256 21.4711 21.5965 20.5338 22.5338C19.5964 23.4711 18.3256 23.9984 17 24H7C5.67441 23.9984 4.40356 23.4711 3.46622 22.5338C2.52888 21.5965 2.00159 20.3256 2 19V5.00002C2.00159 3.67443 2.52888 2.40358 3.46622 1.46624C4.40356 0.528905 5.67441 0.00161091 7 2.30487e-05H11.515C12.4346 -0.00234388 13.3456 0.177611 14.1952 0.529482C15.0449 0.881354 15.8163 1.39816 16.465 2.05002L19.949 5.53602C20.6012 6.18426 21.1184 6.95548 21.4704 7.805C21.8225 8.65451 22.0025 9.56545 22 10.485ZM15.051 3.46402C14.7363 3.15918 14.3829 2.89695 14 2.68402V7.00002C14 7.26524 14.1054 7.51959 14.2929 7.70713C14.4804 7.89467 14.7348 8.00002 15 8.00002H19.316C19.103 7.61721 18.8404 7.26417 18.535 6.95002L15.051 3.46402ZM20 10.485C20 10.32 19.968 10.162 19.953 10H15C14.2044 10 13.4413 9.68395 12.8787 9.12134C12.3161 8.55873 12 7.79567 12 7.00002V2.04702C11.838 2.03202 11.679 2.00002 11.515 2.00002H7C6.20435 2.00002 5.44129 2.31609 4.87868 2.8787C4.31607 3.44131 4 4.20437 4 5.00002V19C4 19.7957 4.31607 20.5587 4.87868 21.1213C5.44129 21.684 6.20435 22 7 22H17C17.7956 22 18.5587 21.684 19.1213 21.1213C19.6839 20.5587 20 19.7957 20 19V10.485Z" fill="black"/>
</g>
<defs>
<clipPath id="clip0">
<rect width="24" height="24" fill="white"/>
</clipPath>
</defs>
</svg>
