<svg width="24" height="24" viewBox="0 0 24 24" fill="none" xmlns="http://www.w3.org/2000/svg">
<path d="M22.1001 1.89985C18.6641 -1.53115 9.37211 -0.0671477 4.65211 4.65185C-0.0678849 9.37085 -1.53089 18.6639 1.90011 22.0999C3.5067 23.4492 5.57392 24.1231 7.66711 23.9799C12.0012 23.9415 16.1656 22.2902 19.3481 19.3479C24.0661 14.6289 25.5311 5.33585 22.1001 1.89985ZM16.3331 1.99985C17.8971 1.8745 19.4509 2.34374 20.6841 3.31385C21.7001 4.33085 22.1111 6.29985 21.9591 8.54485L15.4591 2.04485C15.7541 2.02585 16.0501 1.99985 16.3331 1.99985ZM3.31611 20.6839C2.30011 19.6689 1.88911 17.6999 2.04111 15.4549L8.54111 21.9549C6.30011 22.1099 4.33111 21.6999 3.31611 20.6839ZM17.9341 17.9339C15.9983 19.7579 13.6033 21.0218 11.0051 21.5909L2.40511 12.9909C2.97541 10.3934 4.24084 7.99981 6.06611 6.06585C8.00514 4.24243 10.4044 2.98194 13.0061 2.41985L21.5921 11.0059C21.0232 13.604 19.7588 15.9987 17.9341 17.9339ZM17.7071 11.7069C17.5196 11.8943 17.2653 11.9996 17.0001 11.9996C16.735 11.9996 16.4806 11.8943 16.2931 11.7069L15.0001 10.4139L13.4141 11.9999L14.7071 13.2929C14.8026 13.3851 14.8788 13.4954 14.9312 13.6174C14.9836 13.7395 15.0112 13.8707 15.0124 14.0035C15.0135 14.1362 14.9882 14.2679 14.9379 14.3908C14.8877 14.5137 14.8134 14.6254 14.7195 14.7192C14.6256 14.8131 14.514 14.8874 14.3911 14.9377C14.2682 14.988 14.1365 15.0133 14.0037 15.0121C13.8709 15.0109 13.7397 14.9834 13.6177 14.931C13.4957 14.8785 13.3854 14.8024 13.2931 14.7069L12.0001 13.4139L10.4141 14.9999L11.7071 16.2929C11.8026 16.3851 11.8788 16.4954 11.9312 16.6174C11.9836 16.7395 12.0112 16.8707 12.0124 17.0035C12.0135 17.1362 11.9882 17.2679 11.9379 17.3908C11.8877 17.5137 11.8134 17.6254 11.7195 17.7192C11.6256 17.8131 11.514 17.8874 11.3911 17.9377C11.2682 17.988 11.1365 18.0133 11.0037 18.0121C10.8709 18.0109 10.7397 17.9834 10.6177 17.931C10.4957 17.8785 10.3854 17.8024 10.2931 17.7069L6.29312 13.7069C6.11096 13.5182 6.01016 13.2656 6.01244 13.0035C6.01472 12.7413 6.11989 12.4904 6.3053 12.305C6.4907 12.1196 6.74152 12.0145 7.00371 12.0122C7.26591 12.0099 7.51851 12.1107 7.70711 12.2929L9.00011 13.5859L10.5861 11.9999L9.29311 10.7069C9.11096 10.5182 9.01016 10.2656 9.01244 10.0035C9.01472 9.74125 9.11989 9.49044 9.3053 9.30503C9.4907 9.11963 9.74152 9.01446 10.0037 9.01218C10.2659 9.0099 10.5185 9.11069 10.7071 9.29285L12.0001 10.5859L13.5861 8.99985L12.2931 7.70685C12.111 7.51825 12.0102 7.26565 12.0124 7.00345C12.0147 6.74125 12.1199 6.49044 12.3053 6.30503C12.4907 6.11963 12.7415 6.01446 13.0037 6.01218C13.2659 6.0099 13.5185 6.11069 13.7071 6.29285L17.7071 10.2929C17.8946 10.4804 17.9999 10.7347 17.9999 10.9999C17.9999 11.265 17.8946 11.5193 17.7071 11.7069Z" fill="black"/>
</svg>
