<svg width="24" height="24" viewBox="0 0 24 24" fill="none" xmlns="http://www.w3.org/2000/svg">
<g clip-path="url(#clip0)">
<path d="M21.715 18.3629C20.5696 19.7516 19.0705 20.8054 17.376 21.4131C15.6814 22.0208 13.8543 22.1597 12.0873 21.8153C10.3204 21.4709 8.67918 20.6559 7.33689 19.4564C5.99461 18.2568 5.00103 16.7171 4.461 14.9999H15C15.2652 14.9999 15.5196 14.8945 15.7071 14.707C15.8946 14.5194 16 14.2651 16 13.9999C16 13.7346 15.8946 13.4803 15.7071 13.2927C15.5196 13.1052 15.2652 12.9999 15 12.9999H4.051C3.983 12.3349 3.983 11.6648 4.051 10.9999H15C15.2652 10.9999 15.5196 10.8945 15.7071 10.707C15.8946 10.5194 16 10.2651 16 9.99986C16 9.73464 15.8946 9.48029 15.7071 9.29275C15.5196 9.10521 15.2652 8.99986 15 8.99986H4.461C5.00103 7.28257 5.99461 5.74291 7.33689 4.54334C8.67918 3.34377 10.3204 2.52879 12.0873 2.18439C13.8543 1.84 15.6814 1.97896 17.376 2.58662C19.0705 3.19427 20.5696 4.24809 21.715 5.63686C21.7987 5.73811 21.9014 5.82189 22.0175 5.88342C22.1335 5.94495 22.2605 5.98302 22.3912 5.99546C22.522 6.00791 22.6539 5.99447 22.7795 5.95594C22.905 5.9174 23.0217 5.85451 23.123 5.77086C23.2242 5.6872 23.308 5.58443 23.3696 5.4684C23.4311 5.35237 23.4692 5.22535 23.4816 5.09461C23.494 4.96386 23.4806 4.83195 23.4421 4.70639C23.4035 4.58084 23.3407 4.46411 23.257 4.36286C21.8496 2.65715 19.998 1.37391 17.9067 0.65505C15.8155 -0.0638052 13.5661 -0.190266 11.4075 0.289652C9.24883 0.76957 7.26497 1.83717 5.67529 3.37438C4.08561 4.91159 2.95206 6.85852 2.4 8.99986H1C0.734784 8.99986 0.48043 9.10521 0.292893 9.29275C0.105357 9.48029 0 9.73464 0 9.99986C0 10.2651 0.105357 10.5194 0.292893 10.707C0.48043 10.8945 0.734784 10.9999 1 10.9999H2.051C2.023 11.3309 2 11.6619 2 11.9999C2 12.3379 2.023 12.6689 2.051 12.9999H1C0.734784 12.9999 0.48043 13.1052 0.292893 13.2927C0.105357 13.4803 0 13.7346 0 13.9999C0 14.2651 0.105357 14.5194 0.292893 14.707C0.48043 14.8945 0.734784 14.9999 1 14.9999H2.4C2.95144 17.1423 4.08492 19.0904 5.67498 20.6285C7.26505 22.1666 9.24969 23.2348 11.4093 23.7148C13.5688 24.1948 15.8191 24.0679 17.911 23.3482C20.0029 22.6285 21.8549 21.344 23.262 19.6369C23.4309 19.4324 23.5117 19.1692 23.4866 18.9051C23.4615 18.6411 23.3325 18.3978 23.128 18.2289C22.9235 18.0599 22.6603 17.9791 22.3962 18.0042C22.1322 18.0294 21.8889 18.1584 21.72 18.3629H21.715Z" fill="black"/>
</g>
<defs>
<clipPath id="clip0">
<rect width="24" height="24" fill="white"/>
</clipPath>
</defs>
</svg>
