<svg width="24" height="24" viewBox="0 0 24 24" fill="none" xmlns="http://www.w3.org/2000/svg">
<g clip-path="url(#clip0)">
<path d="M9.28804 13.0668C6.97104 13.5128 5.82304 16.0928 5.32504 17.7008C5.27808 17.8507 5.26708 18.0095 5.29294 18.1644C5.31881 18.3194 5.3808 18.466 5.4739 18.5925C5.567 18.719 5.68859 18.8218 5.82882 18.8926C5.96905 18.9633 6.12398 19.0001 6.28104 18.9998H10C10.4172 18.9999 10.8297 18.9129 11.2113 18.7446C11.593 18.5763 11.9353 18.3302 12.2165 18.0221C12.4977 17.714 12.7115 17.3507 12.8444 16.9553C12.9772 16.5599 13.0261 16.1411 12.988 15.7258C12.9349 15.3014 12.7947 14.8925 12.5762 14.5248C12.3577 14.1571 12.0657 13.8384 11.7183 13.5888C11.371 13.3392 10.9758 13.164 10.5577 13.0742C10.1395 12.9843 9.70725 12.9818 9.28804 13.0668Z" fill="black"/>
<path d="M23 8.979C22.7348 8.979 22.4804 9.08436 22.2929 9.27189C22.1054 9.45943 22 9.71378 22 9.979V15H18C17.2044 15 16.4413 15.3161 15.8787 15.8787C15.3161 16.4413 15 17.2044 15 18V22H5C4.20435 22 3.44129 21.6839 2.87868 21.1213C2.31607 20.5587 2 19.7956 2 19V5C2 4.20435 2.31607 3.44129 2.87868 2.87868C3.44129 2.31607 4.20435 2 5 2H16.042C16.3072 2 16.5616 1.89464 16.7491 1.70711C16.9366 1.51957 17.042 1.26522 17.042 1C17.042 0.734784 16.9366 0.48043 16.7491 0.292893C16.5616 0.105357 16.3072 0 16.042 0L5 0C3.67441 0.00158786 2.40356 0.528882 1.46622 1.46622C0.528882 2.40356 0.00158786 3.67441 0 5L0 19C0.00158786 20.3256 0.528882 21.5964 1.46622 22.5338C2.40356 23.4711 3.67441 23.9984 5 24H16.343C16.9998 24.0019 17.6504 23.8734 18.2572 23.6221C18.8639 23.3708 19.4149 23.0017 19.878 22.536L22.536 19.878C23.0017 19.4149 23.3708 18.8639 23.6221 18.2572C23.8734 17.6504 24.0019 16.9998 24 16.343V9.979C24 9.71378 23.8946 9.45943 23.7071 9.27189C23.5196 9.08436 23.2652 8.979 23 8.979ZM18.464 21.122C18.0607 21.5208 17.5534 21.798 17 21.922V18C17 17.7348 17.1054 17.4804 17.2929 17.2929C17.4804 17.1054 17.7348 17 18 17H21.925C21.801 17.5534 21.5238 18.0607 21.125 18.464L18.464 21.122Z" fill="black"/>
<path d="M14.5661 14.1702C14.3684 14.1702 14.1751 14.1115 14.0107 14.0016C13.8462 13.8917 13.7181 13.7356 13.6424 13.5529C13.5668 13.3702 13.547 13.1691 13.5855 12.9752C13.6241 12.7812 13.7193 12.603 13.8591 12.4632L21.7121 4.6102C21.7999 4.52261 21.8695 4.41856 21.917 4.30402C21.9646 4.18949 21.989 4.0667 21.989 3.9427C21.989 3.81869 21.9646 3.69591 21.917 3.58137C21.8695 3.46683 21.7999 3.36279 21.7121 3.2752C21.6228 3.18237 21.5147 3.10979 21.395 3.06235C21.2752 3.01491 21.1467 2.99371 21.0181 3.0002C20.8896 3.00299 20.763 3.03233 20.6463 3.08636C20.5296 3.1404 20.4254 3.21796 20.3401 3.3142L12.7401 11.7212C12.5623 11.918 12.3136 12.0361 12.0487 12.0495C11.7838 12.0629 11.5244 11.9705 11.3276 11.7927C11.1308 11.6149 11.0127 11.3661 10.9993 11.1013C10.9859 10.8364 11.0783 10.577 11.2561 10.3802L18.8561 1.9802C19.1226 1.68266 19.4468 1.44238 19.809 1.27392C20.1712 1.10545 20.5638 1.01233 20.9631 1.0002C21.363 0.991627 21.7606 1.06352 22.1321 1.2116C22.5037 1.35968 22.8417 1.58092 23.1261 1.8622C23.6774 2.41467 23.9869 3.16325 23.9869 3.9437C23.9869 4.72414 23.6774 5.47272 23.1261 6.0252L15.2731 13.8782C15.1804 13.9712 15.0702 14.0449 14.9489 14.095C14.8275 14.1451 14.6974 14.1707 14.5661 14.1702Z" fill="black"/>
</g>
<defs>
<clipPath id="clip0">
<rect width="24" height="24" fill="white"/>
</clipPath>
</defs>
</svg>
