<svg width="24" height="24" viewBox="0 0 24 24" fill="none" xmlns="http://www.w3.org/2000/svg">
<g clip-path="url(#clip0)">
<path d="M19 1H13C11.6744 1.00159 10.4036 1.52888 9.46622 2.46622C8.52888 3.40356 8.00159 4.67441 8 6V14.026C7.13961 13.3642 6.08547 13.0037 5 13C4.0111 13 3.0444 13.2932 2.22215 13.8427C1.39991 14.3921 0.759043 15.173 0.380605 16.0866C0.00216642 17.0002 -0.0968503 18.0055 0.0960759 18.9755C0.289002 19.9454 0.765206 20.8363 1.46447 21.5355C2.16373 22.2348 3.05465 22.711 4.02455 22.9039C4.99446 23.0969 5.99979 22.9978 6.91342 22.6194C7.82705 22.241 8.60794 21.6001 9.15735 20.7779C9.70676 19.9556 10 18.9889 10 18V6C10 5.20435 10.3161 4.44129 10.8787 3.87868C11.4413 3.31607 12.2044 3 13 3H19C19.7957 3 20.5587 3.31607 21.1213 3.87868C21.6839 4.44129 22 5.20435 22 6V14.026C21.1396 13.3642 20.0855 13.0037 19 13C18.0111 13 17.0444 13.2932 16.2222 13.8427C15.3999 14.3921 14.759 15.173 14.3806 16.0866C14.0022 17.0002 13.9031 18.0055 14.0961 18.9755C14.289 19.9454 14.7652 20.8363 15.4645 21.5355C16.1637 22.2348 17.0546 22.711 18.0245 22.9039C18.9945 23.0969 19.9998 22.9978 20.9134 22.6194C21.8271 22.241 22.6079 21.6001 23.1574 20.7779C23.7068 19.9556 24 18.9889 24 18V6C23.9984 4.67441 23.4711 3.40356 22.5338 2.46622C21.5964 1.52888 20.3256 1.00159 19 1ZM5 21C4.40666 21 3.82664 20.8241 3.33329 20.4944C2.83994 20.1648 2.45543 19.6962 2.22836 19.1481C2.0013 18.5999 1.94189 17.9967 2.05765 17.4147C2.1734 16.8328 2.45912 16.2982 2.87868 15.8787C3.29824 15.4591 3.83279 15.1734 4.41473 15.0576C4.99667 14.9419 5.59987 15.0013 6.14805 15.2284C6.69623 15.4554 7.16477 15.8399 7.49441 16.3333C7.82406 16.8266 8 17.4067 8 18C8 18.7956 7.68393 19.5587 7.12132 20.1213C6.55871 20.6839 5.79565 21 5 21ZM19 21C18.4067 21 17.8266 20.8241 17.3333 20.4944C16.8399 20.1648 16.4554 19.6962 16.2284 19.1481C16.0013 18.5999 15.9419 17.9967 16.0576 17.4147C16.1734 16.8328 16.4591 16.2982 16.8787 15.8787C17.2982 15.4591 17.8328 15.1734 18.4147 15.0576C18.9967 14.9419 19.5999 15.0013 20.1481 15.2284C20.6962 15.4554 21.1648 15.8399 21.4944 16.3333C21.8241 16.8266 22 17.4067 22 18C22 18.7956 21.6839 19.5587 21.1213 20.1213C20.5587 20.6839 19.7957 21 19 21Z" fill="black"/>
</g>
<defs>
<clipPath id="clip0">
<rect width="24" height="24" fill="white"/>
</clipPath>
</defs>
</svg>
