<svg width="24" height="24" viewBox="0 0 24 24" fill="none" xmlns="http://www.w3.org/2000/svg">
<g clip-path="url(#clip0)">
<path d="M18.0478 17.788C17.8603 17.6005 17.606 17.4952 17.3408 17.4952C17.0756 17.4952 16.8213 17.6005 16.6338 17.788L12.9998 21.419V1C12.9998 0.734784 12.8944 0.48043 12.7069 0.292893C12.5194 0.105357 12.265 0 11.9998 0V0C11.7346 0 11.4802 0.105357 11.2927 0.292893C11.1052 0.48043 10.9998 0.734784 10.9998 1V21.408L7.38079 17.788C7.28957 17.6887 7.17922 17.609 7.05637 17.5534C6.93353 17.4979 6.80073 17.4678 6.66595 17.4649C6.53117 17.462 6.3972 17.4864 6.27209 17.5366C6.14698 17.5868 6.03332 17.6618 5.93793 17.7571C5.84253 17.8523 5.76739 17.9659 5.717 18.0909C5.66662 18.216 5.64203 18.3499 5.64473 18.4847C5.64743 18.6195 5.67735 18.7523 5.73269 18.8752C5.78804 18.9982 5.86767 19.1086 5.96679 19.2L9.88579 23.119C10.1644 23.3976 10.4951 23.6187 10.8591 23.7694C11.2231 23.9202 11.6133 23.9979 12.0073 23.9979C12.4013 23.9979 12.7915 23.9202 13.1555 23.7694C13.5195 23.6187 13.8502 23.3976 14.1288 23.119L18.0478 19.2C18.2347 19.0126 18.3396 18.7587 18.3396 18.494C18.3396 18.2293 18.2347 17.9754 18.0478 17.788Z" fill="black"/>
</g>
<defs>
<clipPath id="clip0">
<rect width="24" height="24" fill="white"/>
</clipPath>
</defs>
</svg>
