<svg width="24" height="24" viewBox="0 0 24 24" fill="none" xmlns="http://www.w3.org/2000/svg">
<g clip-path="url(#clip0)">
<path d="M22 12.1845V11.0005C21.9974 10.3822 21.8039 9.77984 21.4459 9.27577C21.0879 8.7717 20.5829 8.39055 20 8.18447C20.0524 5.60511 19.4136 3.05871 18.15 0.809468C17.9576 0.537749 17.6987 0.319889 17.3981 0.176684C17.0975 0.0334801 16.7652 -0.0302878 16.433 -0.00853194C16.0871 0.0139652 15.7527 0.124428 15.4615 0.312384C15.1703 0.500341 14.9319 0.759561 14.769 1.06547C14 2.47647 13.24 3.00047 11.962 3.00047H10C8.53439 2.92668 7.09716 3.42339 5.98986 4.38638C4.88256 5.34937 4.19126 6.70379 4.061 8.16547C3.46364 8.36232 2.94326 8.74195 2.57342 9.25068C2.20359 9.75941 2.00299 10.3715 2 11.0005V12.1845C1.41709 12.3906 0.912091 12.7717 0.554088 13.2758C0.196084 13.7798 0.00256297 14.3822 0 15.0005L0 19.0005C0.00158786 20.3261 0.528882 21.5969 1.46622 22.5342C2.40356 23.4716 3.67441 23.9989 5 24.0005H19C20.3256 23.9989 21.5964 23.4716 22.5338 22.5342C23.4711 21.5969 23.9984 20.3261 24 19.0005V15.0005C23.9974 14.3822 23.8039 13.7798 23.4459 13.2758C23.0879 12.7717 22.5829 12.3906 22 12.1845ZM10 5.00047H11.962C12.9359 5.00157 13.8885 4.71546 14.7007 4.17794C15.5128 3.64043 16.1484 2.87537 16.528 1.97847C17.5203 3.82894 18.0267 5.90093 18 8.00047H6.131C6.29118 7.1107 6.77518 6.31177 7.48963 5.75779C8.20408 5.2038 9.09838 4.93402 10 5.00047ZM4 11.0005C4 10.7353 4.10536 10.4809 4.29289 10.2934C4.48043 10.1058 4.73478 10.0005 5 10.0005H19C19.2652 10.0005 19.5196 10.1058 19.7071 10.2934C19.8946 10.4809 20 10.7353 20 11.0005V12.0005H4V11.0005ZM22 19.0005C22 19.7961 21.6839 20.5592 21.1213 21.1218C20.5587 21.6844 19.7956 22.0005 19 22.0005H5C4.20435 22.0005 3.44129 21.6844 2.87868 21.1218C2.31607 20.5592 2 19.7961 2 19.0005V15.0005C2 14.7353 2.10536 14.4809 2.29289 14.2934C2.48043 14.1058 2.73478 14.0005 3 14.0005H21C21.2652 14.0005 21.5196 14.1058 21.7071 14.2934C21.8946 14.4809 22 14.7353 22 15.0005V19.0005Z" fill="black"/>
</g>
<defs>
<clipPath id="clip0">
<rect width="24" height="24" fill="white"/>
</clipPath>
</defs>
</svg>
