<svg width="24" height="24" viewBox="0 0 24 24" fill="none" xmlns="http://www.w3.org/2000/svg">
<g clip-path="url(#clip0)">
<path d="M22.9512 12C22.7066 11.9969 22.4696 12.0852 22.2867 12.2476C22.1038 12.4099 21.9881 12.6348 21.9622 12.878C21.7657 15.1518 20.7981 17.2903 19.2196 18.9387C17.6412 20.5872 15.5468 21.6467 13.2836 21.9416C11.0204 22.2365 8.7244 21.7491 6.77624 20.5601C4.82807 19.3712 3.34475 17.5521 2.57219 15.4045C1.79963 13.257 1.78423 10.9098 2.52855 8.75231C3.27287 6.59478 4.73219 4.75643 6.66459 3.54202C8.59698 2.32762 10.8864 1.8101 13.1532 2.07528C15.4201 2.34045 17.5282 3.37239 19.1282 5H16.3762C16.111 5 15.8566 5.10536 15.6691 5.29289C15.4815 5.48043 15.3762 5.73478 15.3762 6C15.3762 6.26522 15.4815 6.51957 15.6691 6.70711C15.8566 6.89464 16.111 7 16.3762 7H20.3762C20.9066 7 21.4153 6.78929 21.7904 6.41421C22.1655 6.03914 22.3762 5.53043 22.3762 5V1C22.3762 0.734784 22.2708 0.48043 22.0833 0.292893C21.8958 0.105357 21.6414 0 21.3762 0C21.111 0 20.8566 0.105357 20.6691 0.292893C20.4815 0.48043 20.3762 0.734784 20.3762 1V3.415C18.4271 1.51604 15.8903 0.336284 13.1823 0.0694657C10.4742 -0.197353 7.75589 0.464628 5.47374 1.9467C3.19158 3.42877 1.48123 5.64283 0.62355 8.22531C-0.23413 10.8078 -0.188156 13.6051 0.753923 16.158C1.696 18.7109 3.47819 20.8676 5.80781 22.2739C8.13744 23.6801 10.876 24.2524 13.5738 23.8968C16.2717 23.5411 18.7684 22.2786 20.654 20.3167C22.5395 18.3547 23.7019 15.8098 23.9502 13.1C23.9631 12.9608 23.9469 12.8205 23.9026 12.6879C23.8583 12.5554 23.7869 12.4335 23.6929 12.33C23.599 12.2265 23.4845 12.1437 23.3568 12.0869C23.2291 12.0301 23.091 12.0005 22.9512 12Z" fill="black"/>
</g>
<defs>
<clipPath id="clip0">
<rect width="24" height="24" fill="white"/>
</clipPath>
</defs>
</svg>
