<svg width="24" height="24" viewBox="0 0 24 24" fill="none" xmlns="http://www.w3.org/2000/svg">
<g clip-path="url(#clip0)">
<path d="M12.0001 15.9998C12.4657 16.0007 12.9252 15.8932 13.3421 15.6858L15.3421 14.6858C15.8417 14.4377 16.2619 14.0545 16.555 13.5798C16.848 13.1051 17.0022 12.5577 17.0001 11.9998V9.03281C17.0018 8.4754 16.8474 7.92864 16.5543 7.45445C16.2613 6.98027 15.8414 6.59761 15.3421 6.34981L13.3421 5.34981C12.9252 5.14262 12.466 5.0348 12.0006 5.0348C11.5351 5.0348 11.0759 5.14262 10.6591 5.34981L8.65906 6.34981C8.15956 6.59747 7.73941 6.98007 7.4462 7.45426C7.15298 7.92846 6.99843 8.47529 7.00006 9.03281V11.9998C6.99827 12.5574 7.15263 13.1043 7.44566 13.5786C7.73868 14.053 8.15867 14.4358 8.65806 14.6838L10.6581 15.6838C11.0748 15.8919 11.5343 16.0001 12.0001 15.9998ZM9.00006 11.9998V9.03281C9.00165 8.93079 9.01885 8.82962 9.05105 8.73281L11.2311 9.82281C11.4698 9.94216 11.7331 10.0043 12.0001 10.0043C12.267 10.0043 12.5303 9.94216 12.7691 9.82281L14.9491 8.73281C14.9813 8.82962 14.9985 8.93079 15.0001 9.03281V11.9998C15.0008 12.1858 14.9494 12.3683 14.8517 12.5265C14.7539 12.6847 14.6137 12.8123 14.4471 12.8948L12.4471 13.8948C12.3079 13.9637 12.1548 13.9995 11.9996 13.9995C11.8443 13.9995 11.6912 13.9637 11.5521 13.8948L9.55206 12.8948C9.38557 12.8122 9.24559 12.6845 9.14802 12.5263C9.05044 12.3681 8.99918 12.1857 9.00006 11.9998ZM19.0001 21.9998H16.2911L19.7781 18.7778C21.3177 17.2383 22.3658 15.2764 22.7896 13.1408C23.2134 11.0051 22.9939 8.79173 22.1589 6.78091C21.3239 4.7701 19.9109 3.05231 18.0989 1.84511C16.287 0.637914 14.1575 -0.00439648 11.9802 -0.00047039C9.80287 0.0034557 7.67572 0.653441 5.8681 1.86717C4.06047 3.0809 2.6537 4.80376 1.82595 6.81758C0.998192 8.83139 0.786686 11.0456 1.21822 13.1797C1.64975 15.3138 2.70491 17.2718 4.25006 18.8058L7.70906 21.9998H5.00006C4.73484 21.9998 4.48049 22.1052 4.29295 22.2927C4.10541 22.4802 4.00006 22.7346 4.00006 22.9998C4.00006 23.265 4.10541 23.5194 4.29295 23.7069C4.48049 23.8945 4.73484 23.9998 5.00006 23.9998H19.0001C19.2653 23.9998 19.5196 23.8945 19.7072 23.7069C19.8947 23.5194 20.0001 23.265 20.0001 22.9998C20.0001 22.7346 19.8947 22.4802 19.7072 22.2927C19.5196 22.1052 19.2653 21.9998 19.0001 21.9998ZM5.63606 4.63581C7.32018 2.94413 9.60735 1.99075 11.9944 1.9854C14.3815 1.98006 16.6729 2.92319 18.3646 4.60731C20.0562 6.29143 21.0096 8.5786 21.015 10.9657C21.0203 13.3527 20.0772 15.6441 18.3931 17.3358L14.4081 21.0168C13.7531 21.6341 12.8862 21.9765 11.9862 21.9734C11.0861 21.9702 10.2217 21.6217 9.57106 20.9998L5.63606 17.3638C3.95065 15.6747 3.00411 13.386 3.00411 10.9998C3.00411 8.61365 3.95065 6.32494 5.63606 4.63581Z" fill="black"/>
</g>
<defs>
<clipPath id="clip0">
<rect width="24" height="24" fill="white"/>
</clipPath>
</defs>
</svg>
