<svg width="24" height="24" viewBox="0 0 24 24" fill="none" xmlns="http://www.w3.org/2000/svg">
<path d="M6.41385 15.9998H17.5858C17.7836 15.9998 17.9769 15.9411 18.1413 15.8313C18.3057 15.7214 18.4339 15.5652 18.5095 15.3825C18.5852 15.1998 18.605 14.9988 18.5664 14.8048C18.5279 14.6109 18.4327 14.4327 18.2928 14.2928L12.7068 8.70685C12.5193 8.51938 12.265 8.41406 11.9998 8.41406C11.7347 8.41406 11.4804 8.51938 11.2928 8.70685L5.70685 14.2928C5.56704 14.4327 5.47183 14.6109 5.43327 14.8048C5.3947 14.9988 5.4145 15.1998 5.49017 15.3825C5.56584 15.5652 5.69398 15.7214 5.85839 15.8313C6.0228 15.9411 6.2161 15.9998 6.41385 15.9998Z" fill="black"/>
</svg>
