<svg width="24" height="24" viewBox="0 0 24 24" fill="none" xmlns="http://www.w3.org/2000/svg">
<g clip-path="url(#clip0)">
<path d="M11.6922 22.9999C11.2981 23.0009 10.9077 22.9237 10.5436 22.7728C10.1795 22.6219 9.84901 22.4003 9.57116 22.1209L6.18416 18.6999C6.07747 18.6105 5.99061 18.4998 5.92916 18.3748C5.86771 18.2499 5.83301 18.1136 5.82729 17.9745C5.82157 17.8354 5.84495 17.6967 5.89593 17.5671C5.94692 17.4376 6.02438 17.3201 6.12337 17.2223C6.22236 17.1244 6.34069 17.0483 6.47079 16.9988C6.60089 16.9493 6.73989 16.9275 6.87891 16.9348C7.01792 16.9421 7.15387 16.9783 7.27807 17.0412C7.40227 17.104 7.51197 17.1922 7.60016 17.2999L10.9842 20.7139C11.1746 20.8946 11.4271 20.9953 11.6897 20.9953C11.9522 20.9953 12.2047 20.8946 12.3952 20.7139L17.8092 15.2999C17.9967 15.1122 18.251 15.0067 18.5163 15.0067C18.7816 15.0066 19.036 15.1118 19.2237 15.2994C19.4113 15.4869 19.5168 15.7412 19.5169 16.0065C19.517 16.2718 19.4117 16.5262 19.2242 16.7139L13.8092 22.1279C13.5313 22.4058 13.2012 22.6259 12.8379 22.7756C12.4745 22.9253 12.0851 23.0015 11.6922 22.9999ZM7.00016 21.9999C7.00016 21.7346 6.8948 21.4803 6.70727 21.2927C6.51973 21.1052 6.26538 20.9999 6.00016 20.9999H5.68316C4.82912 20.9835 4.00536 20.6806 3.34415 20.1398C2.68294 19.599 2.22264 18.8517 2.03716 18.0179C1.9285 17.3013 2.04707 16.5687 2.3762 15.923C2.70533 15.2773 3.22848 14.7509 3.87216 14.4179C4.33065 14.164 4.67079 13.7399 4.81901 13.2373C4.96722 12.7346 4.91159 12.1938 4.66416 11.7319C4.27587 10.9913 4.04665 10.1778 3.99122 9.34344C3.93578 8.50911 4.05535 7.6724 4.34224 6.88699C4.62914 6.10158 5.07704 5.3848 5.6572 4.78265C6.23737 4.18049 6.93699 3.70625 7.71119 3.39034C8.48539 3.07443 9.31707 2.92383 10.1529 2.9482C10.9887 2.97257 11.8102 3.17137 12.5647 3.53185C13.3192 3.89233 13.99 4.40654 14.534 5.04147C15.0781 5.67641 15.4835 6.41806 15.7242 7.21886C15.8719 7.70164 16.1354 8.14102 16.4916 8.49881C16.8478 8.8566 17.286 9.12197 17.7682 9.27186C19.0748 9.6692 20.2058 10.5025 20.9724 11.6327C21.7391 12.763 22.0951 14.1219 21.9812 15.4829C21.866 16.6649 21.3935 17.7838 20.6266 18.6906C19.8597 19.5974 18.8347 20.2491 17.6882 20.5589C17.4393 20.6441 17.234 20.8239 17.1168 21.0594C16.9996 21.2949 16.9799 21.5671 17.062 21.817C17.144 22.0669 17.3213 22.2744 17.5553 22.3946C17.7893 22.5147 18.0612 22.5378 18.3122 22.4589C19.9509 21.9912 21.3932 21.0035 22.4216 19.6447C23.45 18.2859 24.0088 16.6295 24.0138 14.9254C24.0188 13.2213 23.4696 11.5617 22.4491 10.1969C21.4286 8.83211 19.9921 7.83604 18.3562 7.35886C18.1845 7.30538 18.0288 7.21029 17.9028 7.08205C17.7769 6.95381 17.6846 6.7964 17.6342 6.62386C17.105 4.92348 16.0236 3.44826 14.5614 2.43189C13.0991 1.41553 11.3395 0.916117 9.56127 1.01277C7.78308 1.10943 6.08798 1.79663 4.74448 2.96552C3.40097 4.1344 2.48588 5.71814 2.14416 7.46586C1.79271 9.23286 2.07601 11.0672 2.94416 12.6459C1.93193 13.1678 1.10891 13.9941 0.590995 15.0084C0.0730838 16.0227 -0.113625 17.1739 0.0571606 18.2999C0.317812 19.6077 1.01797 20.787 2.04138 21.6419C3.06478 22.4969 4.34984 22.9761 5.68316 22.9999H6.00016C6.26538 22.9999 6.51973 22.8945 6.70727 22.707C6.8948 22.5194 7.00016 22.2651 7.00016 21.9999Z" fill="black"/>
</g>
<defs>
<clipPath id="clip0">
<rect width="24" height="24" fill="white"/>
</clipPath>
</defs>
</svg>
