<svg width="24" height="24" viewBox="0 0 24 24" fill="none" xmlns="http://www.w3.org/2000/svg">
<g clip-path="url(#clip0)">
<path d="M11.8282 23.9996C11.6305 23.9996 11.4372 23.9409 11.2727 23.831C11.1083 23.7211 10.9802 23.5649 10.9045 23.3822C10.8289 23.1995 10.8091 22.9985 10.8476 22.8046C10.8862 22.6106 10.9814 22.4324 11.1212 22.2926L19.2932 14.1206C19.8556 13.558 20.1716 12.7951 20.1716 11.9996C20.1716 11.2041 19.8556 10.4412 19.2932 9.87859L11.1212 1.70659C11.0257 1.61435 10.9495 1.504 10.8971 1.382C10.8447 1.25999 10.8171 1.12877 10.816 0.995994C10.8148 0.863215 10.8401 0.731535 10.8904 0.608639C10.9407 0.485743 11.0149 0.374091 11.1088 0.280198C11.2027 0.186305 11.3144 0.112052 11.4373 0.0617712C11.5601 0.0114903 11.6918 -0.0138114 11.8246 -0.0126576C11.9574 -0.0115037 12.0886 0.0160825 12.2106 0.0684915C12.3326 0.1209 12.443 0.197083 12.5352 0.292593L20.7072 8.46459C21.6446 9.40223 22.1711 10.6738 22.1711 11.9996C22.1711 13.3254 21.6446 14.597 20.7072 15.5346L12.5352 23.7066C12.3477 23.8941 12.0934 23.9995 11.8282 23.9996Z" fill="black"/>
<path d="M1.82791 24.0004C1.63016 24.0004 1.43686 23.9417 1.27245 23.8318C1.10804 23.7219 0.979904 23.5658 0.904234 23.3831C0.828564 23.2004 0.808761 22.9993 0.847328 22.8054C0.885896 22.6114 0.981103 22.4333 1.12091 22.2934L10.7069 12.7074C10.8944 12.5199 10.9997 12.2656 10.9997 12.0004C10.9997 11.7352 10.8944 11.4809 10.7069 11.2934L1.12091 1.70741C0.938754 1.5188 0.837959 1.2662 0.840238 1.00401C0.842516 0.741809 0.947685 0.490997 1.13309 0.305589C1.3185 0.12018 1.56931 0.0150115 1.83151 0.0127331C2.09371 0.0104547 2.34631 0.111249 2.53491 0.293407L12.1209 9.87941C12.6833 10.442 12.9993 11.2049 12.9993 12.0004C12.9993 12.7959 12.6833 13.5588 12.1209 14.1214L2.53491 23.7074C2.34742 23.895 2.09311 24.0003 1.82791 24.0004Z" fill="black"/>
</g>
<defs>
<clipPath id="clip0">
<rect width="24" height="24" fill="white"/>
</clipPath>
</defs>
</svg>
