<svg width="24" height="24" viewBox="0 0 24 24" fill="none" xmlns="http://www.w3.org/2000/svg">
<g clip-path="url(#clip0)">
<path d="M22.9421 6.83705L20.7601 4.65405L21.7071 3.70705C21.8026 3.6148 21.8788 3.50446 21.9312 3.38245C21.9836 3.26045 22.0112 3.12923 22.0124 2.99645C22.0135 2.86367 21.9882 2.73199 21.9379 2.6091C21.8876 2.4862 21.8134 2.37455 21.7195 2.28065C21.6256 2.18676 21.514 2.11251 21.3911 2.06223C21.2682 2.01195 21.1365 1.98665 21.0037 1.9878C20.8709 1.98895 20.7397 2.01654 20.6177 2.06895C20.4957 2.12136 20.3853 2.19754 20.2931 2.29305L19.3461 3.24005L17.1631 1.05805C16.475 0.402372 15.561 0.0366211 14.6106 0.0366211C13.6602 0.0366211 12.7462 0.402372 12.0581 1.05805C11.7227 1.39322 11.4566 1.7912 11.275 2.22926C11.0934 2.66732 11 3.13686 11 3.61105C11 4.08524 11.0934 4.55478 11.275 4.99284C11.4566 5.4309 11.7227 5.82888 12.0581 6.16405L14.2401 8.34605L8.3461 14.24L6.1631 12.058C5.47504 11.4024 4.56105 11.0366 3.6106 11.0366C2.66016 11.0366 1.74617 11.4024 1.0581 12.058C0.722662 12.3932 0.456559 12.7912 0.275003 13.2293C0.0934482 13.6673 0 14.1369 0 14.611C0 15.0852 0.0934482 15.5548 0.275003 15.9928C0.456559 16.4309 0.722662 16.8289 1.0581 17.164L3.2401 19.3461L2.2931 20.293C2.19759 20.3853 2.12141 20.4956 2.069 20.6176C2.01659 20.7396 1.98901 20.8709 1.98785 21.0036C1.9867 21.1364 2.012 21.2681 2.06228 21.391C2.11256 21.5139 2.18682 21.6256 2.28071 21.7194C2.3746 21.8133 2.48625 21.8876 2.60915 21.9379C2.73205 21.9882 2.86373 22.0135 2.99651 22.0123C3.12928 22.0111 3.2605 21.9836 3.38251 21.9312C3.50451 21.8787 3.61486 21.8026 3.7071 21.7071L4.6541 20.76L6.8371 22.942C7.17225 23.2773 7.57017 23.5433 8.00814 23.7248C8.4461 23.9063 8.91553 23.9997 9.3896 23.9997C9.86368 23.9997 10.3331 23.9063 10.7711 23.7248C11.209 23.5433 11.607 23.2773 11.9421 22.942C12.2775 22.607 12.5436 22.2091 12.7251 21.7711C12.9067 21.3331 13.0001 20.8637 13.0001 20.3895C13.0001 19.9154 12.9067 19.446 12.7251 19.008C12.5436 18.57 12.2775 18.1721 11.9421 17.837L9.7601 15.655L15.6601 9.76005L17.8421 11.942C18.1772 12.2773 18.5752 12.5433 19.0131 12.7248C19.4511 12.9063 19.9205 12.9997 20.3946 12.9997C20.8687 12.9997 21.3381 12.9063 21.7761 12.7248C22.214 12.5433 22.612 12.2773 22.9471 11.942C23.2825 11.607 23.5486 11.2091 23.7301 10.7711C23.9117 10.3331 24.0051 9.86366 24.0051 9.38955C24.0051 8.91544 23.9117 8.44598 23.7301 8.00801C23.5486 7.57003 23.2825 7.17213 22.9471 6.83705H22.9421ZM11.0001 20.39C11.0005 20.6015 10.959 20.811 10.878 21.0063C10.797 21.2016 10.6781 21.379 10.5281 21.528C10.2216 21.8213 9.81378 21.9849 9.3896 21.9849C8.96543 21.9849 8.55761 21.8213 8.2511 21.528L2.4721 15.749C2.17015 15.4471 2.00052 15.0376 2.00052 14.6105C2.00052 14.1835 2.17015 13.774 2.4721 13.472C2.77405 13.1701 3.18358 13.0005 3.6106 13.0005C4.03762 13.0005 4.44715 13.1701 4.7491 13.472L10.5281 19.251C10.6782 19.4003 10.7972 19.5777 10.8782 19.7733C10.9592 19.9688 11.0007 20.1784 11.0001 20.39ZM21.5281 10.528C21.2216 10.8213 20.8138 10.9849 20.3896 10.9849C19.9654 10.9849 19.5576 10.8213 19.2511 10.528L13.4721 4.74905C13.3226 4.59954 13.204 4.42205 13.1231 4.2267C13.0422 4.03136 13.0005 3.82199 13.0005 3.61055C13.0005 3.39911 13.0422 3.18974 13.1231 2.9944C13.204 2.79905 13.3226 2.62156 13.4721 2.47205C13.6216 2.32254 13.7991 2.20394 13.9945 2.12303C14.1898 2.04211 14.3992 2.00047 14.6106 2.00047C14.822 2.00047 15.0314 2.04211 15.2268 2.12303C15.4221 2.20394 15.5996 2.32254 15.7491 2.47205L21.5281 8.25105C21.6777 8.40049 21.7965 8.57796 21.8774 8.77331C21.9584 8.96867 22.0001 9.17807 22.0001 9.38955C22.0001 9.60103 21.9584 9.81043 21.8774 10.0058C21.7965 10.2011 21.6777 10.3786 21.5281 10.528Z" fill="black"/>
</g>
<defs>
<clipPath id="clip0">
<rect width="24" height="24" fill="white"/>
</clipPath>
</defs>
</svg>
