<svg width="24" height="24" viewBox="0 0 24 24" fill="none" xmlns="http://www.w3.org/2000/svg">
<path d="M17.9999 15.5002C17.7347 15.5002 17.4804 15.3948 17.2929 15.2072L12.7069 10.6212C12.5168 10.4387 12.2635 10.3368 11.9999 10.3368C11.7364 10.3368 11.4831 10.4387 11.2929 10.6212L6.70692 15.2072C6.51832 15.3894 6.26571 15.4902 6.00352 15.4879C5.74132 15.4856 5.49051 15.3805 5.3051 15.1951C5.11969 15.0096 5.01452 14.7588 5.01224 14.4966C5.00997 14.2344 5.11076 13.9818 5.29292 13.7932L9.87892 9.20723C10.4505 8.66176 11.2103 8.35742 12.0004 8.35742C12.7905 8.35742 13.5503 8.66176 14.1219 9.20723L18.7069 13.7932C18.8467 13.9331 18.9419 14.1112 18.9805 14.3052C19.0191 14.4992 18.9993 14.7002 18.9236 14.8829C18.8479 15.0656 18.7198 15.2218 18.5554 15.3316C18.391 15.4415 18.1977 15.5002 17.9999 15.5002Z" fill="black"/>
</svg>
