<svg width="24" height="24" viewBox="0 0 24 24" fill="none" xmlns="http://www.w3.org/2000/svg">
<g clip-path="url(#clip0)">
<path d="M0.875973 14.0876L4.75497 17.9666C4.9425 18.1541 5.19681 18.2594 5.46197 18.2594C5.72714 18.2594 5.98145 18.1541 6.16897 17.9666C6.35644 17.7791 6.46176 17.5248 6.46176 17.2596C6.46176 16.9945 6.35644 16.7401 6.16897 16.5526L2.61397 12.9996H23C23.2652 12.9996 23.5195 12.8943 23.7071 12.7067C23.8946 12.5192 24 12.2648 24 11.9996C24 11.7344 23.8946 11.48 23.7071 11.2925C23.5195 11.105 23.2652 10.9996 23 10.9996H2.55297L6.16897 7.38061C6.35644 7.19309 6.46176 6.93878 6.46176 6.67361C6.46176 6.40845 6.35644 6.15414 6.16897 5.96661C5.98145 5.77914 5.72714 5.67383 5.46197 5.67383C5.19681 5.67383 4.9425 5.77914 4.75497 5.96661L0.874973 9.84561C0.314401 10.4092 -0.000187311 11.1719 8.36725e-08 11.9668C0.000187478 12.7617 0.315135 13.5243 0.875973 14.0876Z" fill="black"/>
</g>
<defs>
<clipPath id="clip0">
<rect width="24" height="24" fill="white"/>
</clipPath>
</defs>
</svg>
