<svg width="24" height="24" viewBox="0 0 24 24" fill="none" xmlns="http://www.w3.org/2000/svg">
<g clip-path="url(#clip0)">
<path d="M10 6H23C23.2652 6 23.5196 5.89464 23.7071 5.70711C23.8946 5.51957 24 5.26522 24 5C24 4.73478 23.8946 4.48043 23.7071 4.29289C23.5196 4.10536 23.2652 4 23 4H10C9.73478 4 9.48043 4.10536 9.29289 4.29289C9.10536 4.48043 9 4.73478 9 5C9 5.26522 9.10536 5.51957 9.29289 5.70711C9.48043 5.89464 9.73478 6 10 6Z" fill="black"/>
<path d="M23 11H10C9.73478 11 9.48043 11.1054 9.29289 11.2929C9.10536 11.4804 9 11.7348 9 12C9 12.2652 9.10536 12.5196 9.29289 12.7071C9.48043 12.8946 9.73478 13 10 13H23C23.2652 13 23.5196 12.8946 23.7071 12.7071C23.8946 12.5196 24 12.2652 24 12C24 11.7348 23.8946 11.4804 23.7071 11.2929C23.5196 11.1054 23.2652 11 23 11Z" fill="black"/>
<path d="M23 18H10C9.73478 18 9.48043 18.1054 9.29289 18.2929C9.10536 18.4804 9 18.7348 9 19C9 19.2652 9.10536 19.5196 9.29289 19.7071C9.48043 19.8946 9.73478 20 10 20H23C23.2652 20 23.5196 19.8946 23.7071 19.7071C23.8946 19.5196 24 19.2652 24 19C24 18.7348 23.8946 18.4804 23.7071 18.2929C23.5196 18.1054 23.2652 18 23 18Z" fill="black"/>
<path d="M6.08692 5.99985C6.18585 5.99983 6.28256 5.97046 6.36479 5.91545C6.44703 5.86045 6.5111 5.78228 6.54889 5.69085C6.58669 5.59942 6.59651 5.49883 6.57711 5.40181C6.55771 5.3048 6.50996 5.21572 6.43992 5.14585L3.99992 2.70685C3.81239 2.51938 3.55808 2.41406 3.29292 2.41406C3.02775 2.41406 2.77345 2.51938 2.58592 2.70685L0.146918 5.14585C0.076872 5.21572 0.0291282 5.3048 0.00972972 5.40181C-0.00966876 5.49883 0.000150092 5.59942 0.0379436 5.69085C0.075737 5.78228 0.139806 5.86045 0.222042 5.91545C0.304277 5.97046 0.400983 5.99983 0.499918 5.99985H2.29392V17.9998H0.499918C0.400898 17.9997 0.304054 18.0289 0.221665 18.0838C0.139276 18.1388 0.0750515 18.2169 0.0371339 18.3084C-0.000783589 18.3999 -0.0106867 18.5005 0.00868009 18.5976C0.0280469 18.6947 0.0758114 18.7839 0.145918 18.8538L2.58592 21.2928C2.77345 21.4803 3.02775 21.5856 3.29292 21.5856C3.55808 21.5856 3.81239 21.4803 3.99992 21.2928L6.43992 18.8538C6.50996 18.784 6.55771 18.6949 6.57711 18.5979C6.59651 18.5009 6.58669 18.4003 6.54889 18.3088C6.5111 18.2174 6.44703 18.1393 6.36479 18.0842C6.28256 18.0292 6.18585 17.9999 6.08692 17.9998H4.29392V5.99985H6.08692Z" fill="black"/>
</g>
<defs>
<clipPath id="clip0">
<rect width="24" height="24" fill="white"/>
</clipPath>
</defs>
</svg>
