<svg width="24" height="24" viewBox="0 0 24 24" fill="none" xmlns="http://www.w3.org/2000/svg">
<path d="M6.29279 10.8789C6.48031 11.0663 6.73462 11.1716 6.99979 11.1716C7.26495 11.1716 7.51926 11.0663 7.70679 10.8789L10.9998 7.58686L11.0068 17.9999C11.0068 18.2651 11.1121 18.5194 11.2997 18.707C11.4872 18.8945 11.7416 18.9999 12.0068 18.9999C12.272 18.9999 12.5264 18.8945 12.7139 18.707C12.9014 18.5194 13.0068 18.2651 13.0068 17.9999L12.9998 7.58586L16.2928 10.8789C16.385 10.9744 16.4954 11.0506 16.6174 11.103C16.7394 11.1554 16.8706 11.183 17.0034 11.1841C17.1362 11.1853 17.2678 11.16 17.3907 11.1097C17.5136 11.0594 17.6253 10.9851 17.7192 10.8913C17.8131 10.7974 17.8873 10.6857 17.9376 10.5628C17.9879 10.4399 18.0132 10.3082 18.012 10.1755C18.0109 10.0427 17.9833 9.91146 17.9309 9.78945C17.8785 9.66745 17.8023 9.55711 17.7068 9.46486L14.1218 5.87886C13.8432 5.60023 13.5125 5.37921 13.1485 5.22841C12.7844 5.07761 12.3943 5 12.0003 5C11.6063 5 11.2161 5.07761 10.8521 5.22841C10.4881 5.37921 10.1574 5.60023 9.87879 5.87886L6.29279 9.46486C6.10532 9.65239 6 9.90669 6 10.1719C6 10.437 6.10532 10.6913 6.29279 10.8789Z" fill="black"/>
</svg>
