<svg width="24" height="24" viewBox="0 0 24 24" fill="none" xmlns="http://www.w3.org/2000/svg">
<g clip-path="url(#clip0)">
<path d="M21.7812 20.3674C23.0572 19.1054 23.8378 17.4273 23.9812 15.6384C24.1322 13.824 23.6566 12.0126 22.6337 10.5064C21.6108 9.00017 20.1025 7.89014 18.3602 7.36141C18.1889 7.30796 18.0334 7.21298 17.9076 7.08493C17.7818 6.95687 17.6896 6.7997 17.6392 6.62741C17.2442 5.33251 16.5254 4.15976 15.5509 3.22004C14.5764 2.28032 13.3783 1.60468 12.0698 1.257C10.7614 0.909331 9.38598 0.901111 8.07351 1.23312C6.76104 1.56513 5.55494 2.2264 4.56923 3.15441L1.70723 0.293407C1.51863 0.111249 1.26603 0.0104547 1.00383 0.0127331C0.741636 0.0150115 0.490824 0.12018 0.305416 0.305589C0.120008 0.490997 0.0148386 0.741809 0.0125602 1.00401C0.0102818 1.2662 0.111076 1.5188 0.293234 1.70741L22.2932 23.7074C22.4818 23.8896 22.7344 23.9904 22.9966 23.9881C23.2588 23.9858 23.5096 23.8806 23.6951 23.6952C23.8805 23.5098 23.9856 23.259 23.9879 22.9968C23.9902 22.7346 23.8894 22.482 23.7072 22.2934L21.7812 20.3674ZM9.10023 3.06541C10.5189 2.85009 11.9678 3.15103 13.1834 3.91353C14.399 4.67603 15.3006 5.84944 15.7242 7.22041C15.8721 7.703 16.1356 8.14218 16.4919 8.49979C16.8481 8.8574 17.2862 9.12262 17.7682 9.27241C19.0747 9.66971 20.2055 10.5028 20.9722 11.6329C21.7388 12.7629 22.095 14.1216 21.9812 15.4824C21.878 16.7947 21.2995 18.0243 20.3542 18.9404L5.98223 4.56841C6.84972 3.76959 7.93496 3.24646 9.10023 3.06541ZM16.9932 21.8284C17.0213 22.0919 16.9436 22.3557 16.7773 22.5619C16.611 22.7681 16.3696 22.9 16.1062 22.9284C15.6675 22.9756 15.2265 22.9989 14.7852 22.9984H5.68523C4.35185 22.9751 3.06654 22.4965 2.04277 21.6419C1.01899 20.7873 0.318362 19.6082 0.0572343 18.3004C-0.112718 17.1757 0.0737376 16.0261 0.590436 15.0128C1.10713 13.9995 1.92814 13.1734 2.93823 12.6504C2.13843 11.1901 1.83717 9.50858 2.08023 7.86141C2.1171 7.59871 2.25681 7.36142 2.46863 7.20173C2.68046 7.04204 2.94704 6.97304 3.20973 7.00991C3.47243 7.04677 3.70972 7.18648 3.86941 7.39831C4.0291 7.61013 4.0981 7.87671 4.06123 8.13941C3.8836 9.36772 4.09333 10.6209 4.66123 11.7244C4.91154 12.1879 4.96886 12.7315 4.82076 13.237C4.67266 13.7425 4.33109 14.1692 3.87023 14.4244C3.22701 14.7578 2.7044 15.2844 2.37581 15.9301C2.04722 16.5758 1.92917 17.3082 2.03823 18.0244C2.22468 18.857 2.68529 19.6029 3.34623 20.1426C4.00716 20.6822 4.83014 20.9843 5.68323 21.0004H14.7832C15.153 21.0007 15.5226 20.981 15.8902 20.9414C16.1539 20.9144 16.4176 20.9924 16.6242 21.1584C16.8309 21.3244 16.9638 21.5651 16.9942 21.8284H16.9932Z" fill="black"/>
</g>
<defs>
<clipPath id="clip0">
<rect width="24" height="24" fill="white"/>
</clipPath>
</defs>
</svg>
