<svg width="24" height="24" viewBox="0 0 24 24" fill="none" xmlns="http://www.w3.org/2000/svg">
<g clip-path="url(#clip0)">
<path d="M18.4 7.37605C18.2194 7.32422 18.0545 7.22812 17.9204 7.09645C17.7863 6.96478 17.6872 6.80172 17.632 6.62205C17.3254 5.58453 16.8114 4.61999 16.1213 3.78677C15.4313 2.95355 14.5793 2.26896 13.6171 1.77441C12.6548 1.27985 11.6023 0.985612 10.5231 0.909481C9.44387 0.833349 8.36043 0.976908 7.33829 1.33148C6.31615 1.68604 5.37655 2.24425 4.57632 2.97234C3.77608 3.70043 3.13184 4.58326 2.68256 5.56745C2.23328 6.55165 1.98829 7.61674 1.96242 8.69832C1.93654 9.7799 2.13032 10.8555 2.53202 11.86C2.62505 12.0719 2.64507 12.3086 2.58896 12.533C2.53285 12.7575 2.40378 12.9569 2.22202 13.1C1.42557 13.6909 0.803692 14.4861 0.422218 15.4015C0.0407445 16.3169 -0.0861302 17.3184 0.055024 18.3C0.275915 19.6271 0.965185 20.831 1.99777 21.6933C3.03036 22.5556 4.33786 23.0193 5.68302 23H11C11.2652 23 11.5196 22.8947 11.7071 22.7072C11.8947 22.5196 12 22.2653 12 22C12 21.7348 11.8947 21.4805 11.7071 21.2929C11.5196 21.1054 11.2652 21 11 21H5.68302C4.81919 21.021 3.9764 20.7319 3.30737 20.1851C2.63833 19.6382 2.18731 18.8698 2.03602 18.019C1.93929 17.3929 2.01647 16.7521 2.25913 16.1668C2.50179 15.5815 2.9006 15.0741 3.41202 14.7C3.94772 14.2994 4.33535 13.7323 4.51415 13.0877C4.69294 12.4431 4.65281 11.7574 4.40002 11.138C3.89835 9.81277 3.87219 8.35446 4.32602 7.01205C4.68975 5.96067 5.3404 5.03203 6.20439 4.33116C7.06838 3.63028 8.11123 3.18513 9.21502 3.04605C9.47118 3.01495 9.72899 2.99959 9.98702 3.00005C11.2803 2.99579 12.5402 3.41059 13.5781 4.18234C14.6159 4.95409 15.3758 6.04125 15.744 7.28105C15.8878 7.75342 16.1467 8.18262 16.4976 8.53C16.8485 8.87739 17.2802 9.13205 17.754 9.27105C18.9138 9.6139 19.9412 10.3029 20.6985 11.2457C21.4559 12.1886 21.9072 13.3403 21.9919 14.5468C22.0767 15.7532 21.7908 16.9567 21.1726 17.9962C20.5545 19.0356 19.6335 19.8615 18.533 20.363C18.3703 20.4465 18.2342 20.574 18.1403 20.731C18.0465 20.888 17.9985 21.0682 18.002 21.251C18.0002 21.4165 18.0399 21.5798 18.1175 21.7259C18.1951 21.8721 18.3081 21.9964 18.4462 22.0876C18.5843 22.1787 18.7431 22.2338 18.908 22.2476C19.0729 22.2615 19.2386 22.2338 19.39 22.167C23.525 20.179 25.771 14.951 22.27 9.90105C21.3063 8.64208 19.9405 7.75101 18.4 7.37605Z" fill="black"/>
<path d="M18.7092 15.2908L15.7092 12.2908C15.5216 12.1034 15.2673 11.998 15.0022 11.998C14.737 11.998 14.4827 12.1034 14.2952 12.2908L11.2952 15.2908C11.1075 15.4783 11.002 15.7327 11.002 15.998C11.0019 16.2632 11.1071 16.5177 11.2947 16.7053C11.4822 16.893 11.7365 16.9984 12.0018 16.9985C12.2671 16.9986 12.5215 16.8933 12.7092 16.7058L14.0002 15.4128V22.9998C14.0002 23.265 14.1055 23.5194 14.293 23.7069C14.4806 23.8945 14.7349 23.9998 15.0002 23.9998C15.2654 23.9998 15.5197 23.8945 15.7073 23.7069C15.8948 23.5194 16.0002 23.265 16.0002 22.9998V15.4128L17.3002 16.7058C17.3931 16.7987 17.5034 16.8723 17.6247 16.9225C17.7461 16.9728 17.8762 16.9986 18.0075 16.9985C18.1389 16.9985 18.2689 16.9726 18.3902 16.9223C18.5116 16.872 18.6218 16.7982 18.7147 16.7053C18.8075 16.6124 18.8811 16.5021 18.9314 16.3808C18.9816 16.2594 19.0074 16.1293 19.0074 15.998C19.0073 15.8666 18.9814 15.7366 18.9311 15.6152C18.8808 15.4939 18.8071 15.3837 18.7142 15.2908H18.7092Z" fill="black"/>
</g>
<defs>
<clipPath id="clip0">
<rect width="24" height="24" fill="white"/>
</clipPath>
</defs>
</svg>
