<svg width="24" height="24" viewBox="0 0 24 24" fill="none" xmlns="http://www.w3.org/2000/svg">
<path d="M17.7071 13.121C17.5196 12.9335 17.2652 12.8282 17.0001 12.8282C16.7349 12.8282 16.4806 12.9335 16.2931 13.121L13.0001 16.413L12.9931 6C12.9931 5.73478 12.8877 5.48043 12.7002 5.29289C12.5127 5.10536 12.2583 5 11.9931 5C11.7279 5 11.4735 5.10536 11.286 5.29289C11.0984 5.48043 10.9931 5.73478 10.9931 6L11.0001 16.414L7.70708 13.121C7.61483 13.0255 7.50449 12.9493 7.38249 12.8969C7.26048 12.8445 7.12926 12.8169 6.99648 12.8157C6.8637 12.8146 6.73202 12.8399 6.60913 12.8902C6.48623 12.9405 6.37458 13.0147 6.28069 13.1086C6.18679 13.2025 6.11254 13.3141 6.06226 13.437C6.01198 13.5599 5.98668 13.6916 5.98783 13.8244C5.98898 13.9572 6.01657 14.0884 6.06898 14.2104C6.12139 14.3324 6.19757 14.4428 6.29308 14.535L9.87808 18.121C10.1567 18.3996 10.4874 18.6207 10.8514 18.7715C11.2154 18.9222 11.6056 18.9999 11.9996 18.9999C12.3936 18.9999 12.7837 18.9222 13.1477 18.7715C13.5118 18.6207 13.8425 18.3996 14.1211 18.121L17.7071 14.535C17.8946 14.3475 17.9999 14.0932 17.9999 13.828C17.9999 13.5628 17.8946 13.3085 17.7071 13.121Z" fill="black"/>
</svg>
