<svg width="24" height="24" viewBox="0 0 24 24" fill="none" xmlns="http://www.w3.org/2000/svg">
<g clip-path="url(#clip0)">
<path d="M23 18H20V15C20 14.7348 19.8946 14.4804 19.7071 14.2929C19.5196 14.1054 19.2652 14 19 14C18.7348 14 18.4804 14.1054 18.2929 14.2929C18.1054 14.4804 18 14.7348 18 15V18H15C14.7348 18 14.4804 18.1054 14.2929 18.2929C14.1054 18.4804 14 18.7348 14 19C14 19.2652 14.1054 19.5196 14.2929 19.7071C14.4804 19.8946 14.7348 20 15 20H18V23C18 23.2652 18.1054 23.5196 18.2929 23.7071C18.4804 23.8946 18.7348 24 19 24C19.2652 24 19.5196 23.8946 19.7071 23.7071C19.8946 23.5196 20 23.2652 20 23V20H23C23.2652 20 23.5196 19.8946 23.7071 19.7071C23.8946 19.5196 24 19.2652 24 19C24 18.7348 23.8946 18.4804 23.7071 18.2929C23.5196 18.1054 23.2652 18 23 18Z" fill="black"/>
<path d="M11.0001 7V11.586L8.29308 14.293C8.19757 14.3852 8.12139 14.4956 8.06898 14.6176C8.01657 14.7396 7.98898 14.8708 7.98783 15.0036C7.98668 15.1364 8.01198 15.2681 8.06226 15.391C8.11254 15.5139 8.18679 15.6255 8.28069 15.7194C8.37458 15.8133 8.48623 15.8875 8.60913 15.9378C8.73202 15.9881 8.8637 16.0134 8.99648 16.0123C9.12926 16.0111 9.26048 15.9835 9.38249 15.9311C9.50449 15.8787 9.61483 15.8025 9.70708 15.707L12.7071 12.707C12.8946 12.5195 13 12.2652 13.0001 12V7C13.0001 6.73478 12.8947 6.48043 12.7072 6.29289C12.5197 6.10536 12.2653 6 12.0001 6C11.7349 6 11.4805 6.10536 11.293 6.29289C11.1054 6.48043 11.0001 6.73478 11.0001 7Z" fill="black"/>
<path d="M14.7282 21.6239C12.6016 22.2232 10.3364 22.1003 8.28714 21.2745C6.23792 20.4486 4.52048 18.9664 3.4038 17.06C2.28712 15.1535 1.83427 12.9306 2.11617 10.7393C2.39808 8.54793 3.39882 6.51198 4.96166 4.95028C6.5245 3.38857 8.56117 2.3893 10.7527 2.10899C12.9442 1.82867 15.1669 2.28313 17.0725 3.40119C18.9781 4.51925 20.459 6.23777 21.2834 8.28759C22.1078 10.3374 22.2291 12.6028 21.6282 14.7289C21.5875 14.8567 21.573 14.9914 21.5855 15.125C21.5979 15.2585 21.6371 15.3882 21.7007 15.5063C21.7644 15.6244 21.8511 15.7285 21.9557 15.8123C22.0604 15.8962 22.1809 15.9582 22.31 15.9946C22.4391 16.0309 22.5742 16.041 22.7073 16.024C22.8403 16.0071 22.9686 15.9636 23.0845 15.8961C23.2004 15.8286 23.3015 15.7384 23.3819 15.631C23.4622 15.5236 23.5202 15.4011 23.5522 15.2709C24.2736 12.7177 24.1277 9.99726 23.1374 7.53584C22.147 5.07442 20.3681 3.01105 18.0794 1.66896C15.7907 0.326867 13.1215 -0.218116 10.4898 0.119384C7.8582 0.456884 5.41285 1.6578 3.53688 3.534C1.66091 5.4102 0.460288 7.85569 0.123106 10.4874C-0.214076 13.119 0.331229 15.7882 1.6736 18.0768C3.01596 20.3653 5.07955 22.1439 7.54109 23.134C10.0026 24.1241 12.7231 24.2696 15.2762 23.5479C15.4053 23.5147 15.5265 23.456 15.6326 23.3753C15.7388 23.2946 15.8277 23.1934 15.8941 23.0778C15.9606 22.9622 16.0033 22.8345 16.0196 22.7022C16.036 22.5699 16.0258 22.4356 15.9895 22.3073C15.9532 22.179 15.8916 22.0592 15.8084 21.9551C15.7252 21.8509 15.6219 21.7645 15.5048 21.7008C15.3876 21.6371 15.2589 21.5975 15.1263 21.5843C14.9936 21.5711 14.8596 21.5846 14.7322 21.6239H14.7282Z" fill="black"/>
</g>
<defs>
<clipPath id="clip0">
<rect width="24" height="24" fill="white"/>
</clipPath>
</defs>
</svg>
