<svg width="24" height="24" viewBox="0 0 24 24" fill="none" xmlns="http://www.w3.org/2000/svg">
<g clip-path="url(#clip0)">
<path d="M22.8271 1.17402C22.3419 0.684373 21.7375 0.329575 21.0734 0.144581C20.4094 -0.0404138 19.7086 -0.0492224 19.0401 0.119023C13.8577 1.47957 9.11141 4.14812 5.25608 7.86902C4.49768 8.63201 3.90627 9.54441 3.51944 10.5482C3.1326 11.5521 2.9588 12.6254 3.00908 13.7C3.08071 15.2599 3.62825 16.7605 4.57808 18L0.293081 22.293C0.197571 22.3853 0.121389 22.4956 0.0689798 22.6176C0.0165708 22.7396 -0.0110155 22.8708 -0.0121693 23.0036C-0.0133231 23.1364 0.0119786 23.2681 0.0622595 23.391C0.11254 23.5139 0.186794 23.6255 0.280686 23.7194C0.374579 23.8133 0.486231 23.8876 0.609127 23.9378C0.732023 23.9881 0.863703 24.0134 0.996482 24.0123C1.12926 24.0111 1.26048 23.9835 1.38249 23.9311C1.50449 23.8787 1.61483 23.8025 1.70708 23.707L5.99108 19.423C7.30418 20.4483 8.92315 21.0035 10.5891 21C11.6915 20.9841 12.7799 20.7511 13.7922 20.3144C14.8046 19.8777 15.721 19.2459 16.4891 18.455C20.8891 14.055 23.3721 7.00902 23.8831 4.93002C24.0492 4.2662 24.0392 3.57051 23.854 2.91176C23.6687 2.25301 23.3148 1.65402 22.8271 1.17402ZM5.00708 13.608C4.96944 12.8108 5.09802 12.0144 5.38466 11.2695C5.6713 10.5246 6.10972 9.84741 6.67208 9.28102C7.10008 8.85602 7.54508 8.45702 8.00008 8.06702V14.586L6.01008 16.576C5.40369 15.7005 5.05609 14.6719 5.00708 13.608ZM15.0451 17.067C14.0927 18.1021 12.8022 18.7635 11.4058 18.9321C10.0093 19.1008 8.59852 18.7656 7.42708 17.987L9.70608 15.708L12.4141 13H18.1761C17.2703 14.4565 16.2214 15.8189 15.0451 17.067ZM21.9451 4.44702C21.3423 6.72705 20.4695 8.92695 19.3451 11H14.4141L17.7071 7.70702C17.8026 7.61478 17.8788 7.50443 17.9312 7.38243C17.9836 7.26042 18.0112 7.1292 18.0123 6.99642C18.0135 6.86365 17.9882 6.73197 17.9379 6.60907C17.8876 6.48617 17.8134 6.37452 17.7195 6.28063C17.6256 6.18674 17.5139 6.11248 17.391 6.0622C17.2681 6.01192 17.1365 5.98662 17.0037 5.98777C16.8709 5.98893 16.7397 6.01651 16.6177 6.06892C16.4957 6.12133 16.3853 6.19751 16.2931 6.29302L11.2931 11.293L10.0001 12.586V6.51202C12.8911 4.48592 16.1134 2.97968 19.5221 2.06102C19.6804 2.02118 19.8429 2.0007 20.0061 2.00002C20.2682 2.00058 20.5275 2.05291 20.7693 2.15398C21.0111 2.25506 21.2306 2.4029 21.4151 2.58902C21.6586 2.82495 21.8355 3.12103 21.9279 3.4473C22.0203 3.77356 22.0248 4.11844 21.9411 4.44702H21.9451Z" fill="black"/>
</g>
<defs>
<clipPath id="clip0">
<rect width="24" height="24" fill="white"/>
</clipPath>
</defs>
</svg>
