<svg width="24" height="24" viewBox="0 0 24 24" fill="none" xmlns="http://www.w3.org/2000/svg">
<g clip-path="url(#clip0)">
<path d="M19.949 5.53602L16.465 2.05002C15.8163 1.39816 15.0449 0.881354 14.1952 0.529482C13.3456 0.177611 12.4346 -0.00234388 11.515 2.30487e-05H7C5.67441 0.00161091 4.40356 0.528905 3.46622 1.46624C2.52888 2.40358 2.00159 3.67443 2 5.00002V19C2.00159 20.3256 2.52888 21.5965 3.46622 22.5338C4.40356 23.4711 5.67441 23.9984 7 24H17C18.3256 23.9984 19.5964 23.4711 20.5338 22.5338C21.4711 21.5965 21.9984 20.3256 22 19V10.485C22.0025 9.56545 21.8225 8.65451 21.4704 7.805C21.1184 6.95548 20.6012 6.18426 19.949 5.53602ZM18.535 6.95002C18.8404 7.26417 19.103 7.61721 19.316 8.00002H15C14.7348 8.00002 14.4804 7.89467 14.2929 7.70713C14.1054 7.51959 14 7.26524 14 7.00002V2.68402C14.3829 2.89695 14.7363 3.15918 15.051 3.46402L18.535 6.95002ZM20 19C20 19.7957 19.6839 20.5587 19.1213 21.1213C18.5587 21.684 17.7956 22 17 22H7C6.20435 22 5.44129 21.684 4.87868 21.1213C4.31607 20.5587 4 19.7957 4 19V5.00002C4 4.20437 4.31607 3.44131 4.87868 2.8787C5.44129 2.31609 6.20435 2.00002 7 2.00002H11.515C11.679 2.00002 11.838 2.03202 12 2.04702V7.00002C12 7.79567 12.3161 8.55873 12.8787 9.12134C13.4413 9.68395 14.2044 10 15 10H19.953C19.968 10.162 20 10.32 20 10.485V19Z" fill="black"/>
</g>
<defs>
<clipPath id="clip0">
<rect width="24" height="24" fill="white"/>
</clipPath>
</defs>
</svg>
