<svg width="24" height="24" viewBox="0 0 24 24" fill="none" xmlns="http://www.w3.org/2000/svg">
<g clip-path="url(#clip0)">
<path d="M17.9999 9.0642C18 8.66196 17.9206 8.26366 17.7661 7.89227C17.6117 7.52087 17.3852 7.1837 17.0999 6.9002C16.516 6.34304 15.7399 6.03219 14.9329 6.03219C14.1258 6.03219 13.3498 6.34304 12.7659 6.9002L0.899887 18.7692C0.358306 19.3499 0.0633283 20.1182 0.0771231 20.9122C0.0909179 21.7061 0.412407 22.4637 0.973835 23.0253C1.53526 23.5868 2.29278 23.9085 3.08672 23.9225C3.88067 23.9364 4.64904 23.6416 5.22989 23.1002L17.0999 11.2312C17.3857 10.9474 17.6124 10.6098 17.7668 10.2378C17.9213 9.86585 18.0005 9.46696 17.9999 9.0642ZM3.81589 21.6882C3.61373 21.8809 3.34517 21.9884 3.06589 21.9884C2.78661 21.9884 2.51804 21.8809 2.31589 21.6882C2.1173 21.4891 2.00578 21.2194 2.00578 20.9382C2.00578 20.657 2.1173 20.3873 2.31589 20.1882L10.0849 12.4182L11.5899 13.9232L3.81589 21.6882ZM15.6879 9.8162L12.9999 12.5052L11.4999 11.0002L14.1889 8.3122C14.2847 8.20269 14.4021 8.11403 14.5336 8.05172C14.6651 7.98941 14.808 7.95476 14.9535 7.94994C15.0989 7.94511 15.2438 7.9702 15.3792 8.02365C15.5145 8.07711 15.6375 8.15779 15.7404 8.2607C15.8433 8.3636 15.924 8.48655 15.9774 8.62191C16.0309 8.75727 16.056 8.90216 16.0511 9.04762C16.0463 9.19307 16.0117 9.33598 15.9494 9.4675C15.887 9.59902 15.7984 9.71634 15.6889 9.8122L15.6879 9.8162ZM4.86289 2.8552L6.41289 2.4132L6.85489 0.863195C6.92609 0.61448 7.07634 0.395712 7.28293 0.239975C7.48951 0.0842378 7.74118 0 7.99989 0C8.25859 0 8.51027 0.0842378 8.71685 0.239975C8.92343 0.395712 9.07368 0.61448 9.14489 0.863195L9.58689 2.4132L11.1369 2.8552C11.3856 2.9264 11.6044 3.07665 11.7601 3.28323C11.9158 3.48981 12.0001 3.74149 12.0001 4.0002C12.0001 4.2589 11.9158 4.51058 11.7601 4.71716C11.6044 4.92374 11.3856 5.07399 11.1369 5.1452L9.58689 5.58719L9.14489 7.1372C9.07368 7.38591 8.92343 7.60468 8.71685 7.76042C8.51027 7.91615 8.25859 8.00039 7.99989 8.00039C7.74118 8.00039 7.48951 7.91615 7.28293 7.76042C7.07634 7.60468 6.92609 7.38591 6.85489 7.1372L6.41289 5.58719L4.86289 5.1452C4.61417 5.07399 4.3954 4.92374 4.23967 4.71716C4.08393 4.51058 3.99969 4.2589 3.99969 4.0002C3.99969 3.74149 4.08393 3.48981 4.23967 3.28323C4.3954 3.07665 4.61417 2.9264 4.86289 2.8552ZM23.1369 17.1452L21.5869 17.5872L21.1449 19.1372C21.0737 19.3859 20.9234 19.6047 20.7168 19.7604C20.5103 19.9162 20.2586 20.0004 19.9999 20.0004C19.7412 20.0004 19.4895 19.9162 19.2829 19.7604C19.0763 19.6047 18.9261 19.3859 18.8549 19.1372L18.4129 17.5872L16.8629 17.1452C16.6142 17.074 16.3954 16.9237 16.2397 16.7172C16.0839 16.5106 15.9997 16.2589 15.9997 16.0002C15.9997 15.7415 16.0839 15.4898 16.2397 15.2832C16.3954 15.0767 16.6142 14.9264 16.8629 14.8552L18.4129 14.4132L18.8549 12.8632C18.9261 12.6145 19.0763 12.3957 19.2829 12.24C19.4895 12.0842 19.7412 12 19.9999 12C20.2586 12 20.5103 12.0842 20.7168 12.24C20.9234 12.3957 21.0737 12.6145 21.1449 12.8632L21.5869 14.4132L23.1369 14.8552C23.3856 14.9264 23.6044 15.0767 23.7601 15.2832C23.9158 15.4898 24.0001 15.7415 24.0001 16.0002C24.0001 16.2589 23.9158 16.5106 23.7601 16.7172C23.6044 16.9237 23.3856 17.074 23.1369 17.1452ZM17.7549 2.5002L19.1109 2.1132L19.4999 0.755195C19.5632 0.539012 19.6949 0.349167 19.8751 0.214108C20.0554 0.0790491 20.2746 0.00605009 20.4999 0.00605009C20.7252 0.00605009 20.9443 0.0790491 21.1246 0.214108C21.3049 0.349167 21.4366 0.539012 21.4999 0.755195L21.8869 2.1112L23.2429 2.4982C23.4591 2.56151 23.6489 2.69317 23.784 2.87345C23.919 3.05374 23.992 3.27293 23.992 3.4982C23.992 3.72346 23.919 3.94265 23.784 4.12294C23.6489 4.30322 23.4591 4.43489 23.2429 4.4982L21.8869 4.8852L21.4999 6.24419C21.4366 6.46038 21.3049 6.65022 21.1246 6.78528C20.9443 6.92034 20.7252 6.99334 20.4999 6.99334C20.2746 6.99334 20.0554 6.92034 19.8751 6.78528C19.6949 6.65022 19.5632 6.46038 19.4999 6.24419L19.1129 4.88919L17.7549 4.5002C17.5387 4.43688 17.3489 4.30522 17.2138 4.12494C17.0787 3.94465 17.0057 3.72546 17.0057 3.5002C17.0057 3.27493 17.0787 3.05574 17.2138 2.87545C17.3489 2.69517 17.5387 2.56351 17.7549 2.5002Z" fill="black"/>
</g>
<defs>
<clipPath id="clip0">
<rect width="24" height="24" fill="white"/>
</clipPath>
</defs>
</svg>
