<svg width="24" height="24" viewBox="0 0 24 24" fill="none" xmlns="http://www.w3.org/2000/svg">
<g clip-path="url(#clip0)">
<path d="M19 4H7C5.67441 4.00159 4.40356 4.52888 3.46622 5.46622C2.52888 6.40356 2.00159 7.67441 2 9V11H1C0.734784 11 0.48043 11.1054 0.292893 11.2929C0.105357 11.4804 0 11.7348 0 12C0 12.2652 0.105357 12.5196 0.292893 12.7071C0.48043 12.8946 0.734784 13 1 13H2V15C2.00159 16.3256 2.52888 17.5964 3.46622 18.5338C4.40356 19.4711 5.67441 19.9984 7 20H19C20.3256 19.9984 21.5964 19.4711 22.5338 18.5338C23.4711 17.5964 23.9984 16.3256 24 15V9C23.9984 7.67441 23.4711 6.40356 22.5338 5.46622C21.5964 4.52888 20.3256 4.00159 19 4ZM4 15V13C4.26522 13 4.51957 12.8946 4.70711 12.7071C4.89464 12.5196 5 12.2652 5 12C5 11.7348 4.89464 11.4804 4.70711 11.2929C4.51957 11.1054 4.26522 11 4 11V9C4 8.20435 4.31607 7.44129 4.87868 6.87868C5.44129 6.31607 6.20435 6 7 6V18C6.20435 18 5.44129 17.6839 4.87868 17.1213C4.31607 16.5587 4 15.7956 4 15ZM22 15C22 15.7956 21.6839 16.5587 21.1213 17.1213C20.5587 17.6839 19.7956 18 19 18H9V6H19C19.7956 6 20.5587 6.31607 21.1213 6.87868C21.6839 7.44129 22 8.20435 22 9V15Z" fill="black"/>
</g>
<defs>
<clipPath id="clip0">
<rect width="24" height="24" fill="white"/>
</clipPath>
</defs>
</svg>
