<svg width="24" height="24" viewBox="0 0 24 24" fill="none" xmlns="http://www.w3.org/2000/svg">
<g clip-path="url(#clip0)">
<path d="M16 7.00001L15.977 5.82301C16.648 5.59351 17.2158 5.13311 17.5789 4.52391C17.942 3.91472 18.0769 3.19634 17.9595 2.49691C17.8422 1.79748 17.4802 1.16248 16.9381 0.705158C16.3961 0.247835 15.7092 -0.00207069 15 1.29247e-05H9C8.29317 -0.0013264 7.60868 0.247532 7.06776 0.702512C6.52683 1.15749 6.16439 1.78923 6.04461 2.48583C5.92484 3.18244 6.05547 3.89896 6.41336 4.50848C6.77126 5.118 7.33332 5.58119 8 5.81601V7.00001C6.67441 7.0016 5.40356 7.5289 4.46622 8.46623C3.52888 9.40357 3.00159 10.6744 3 12V19C3.00159 20.3256 3.52888 21.5965 4.46622 22.5338C5.40356 23.4711 6.67441 23.9984 8 24H16C17.3256 23.9984 18.5964 23.4711 19.5338 22.5338C20.4711 21.5965 20.9984 20.3256 21 19V12C20.9984 10.6744 20.4711 9.40357 19.5338 8.46623C18.5964 7.5289 17.3256 7.0016 16 7.00001ZM9 2.00001H15C15.2652 2.00001 15.5196 2.10537 15.7071 2.29291C15.8946 2.48044 16 2.7348 16 3.00001C16 3.26523 15.8946 3.51958 15.7071 3.70712C15.5196 3.89466 15.2652 4.00001 15 4.00001H9C8.73478 4.00001 8.48043 3.89466 8.29289 3.70712C8.10536 3.51958 8 3.26523 8 3.00001C8 2.7348 8.10536 2.48044 8.29289 2.29291C8.48043 2.10537 8.73478 2.00001 9 2.00001ZM19 19C19 19.7957 18.6839 20.5587 18.1213 21.1213C17.5587 21.6839 16.7956 22 16 22H8C7.20435 22 6.44129 21.6839 5.87868 21.1213C5.31607 20.5587 5 19.7957 5 19V12C5 11.2044 5.31607 10.4413 5.87868 9.87869C6.44129 9.31608 7.20435 9.00001 8 9.00001H9C9.26522 9.00001 9.51957 8.89466 9.70711 8.70712C9.89464 8.51958 10 8.26523 10 8.00001V6.00001H13.973L14 8.01401C14.0037 8.2768 14.1107 8.52757 14.2978 8.71209C14.4849 8.89661 14.7372 9.00004 15 9.00001H16C16.7956 9.00001 17.5587 9.31608 18.1213 9.87869C18.6839 10.4413 19 11.2044 19 12V19ZM16 15C16 15.2652 15.8946 15.5196 15.7071 15.7071C15.5196 15.8947 15.2652 16 15 16H13V18C13 18.2652 12.8946 18.5196 12.7071 18.7071C12.5196 18.8947 12.2652 19 12 19C11.7348 19 11.4804 18.8947 11.2929 18.7071C11.1054 18.5196 11 18.2652 11 18V16H9C8.73478 16 8.48043 15.8947 8.29289 15.7071C8.10536 15.5196 8 15.2652 8 15C8 14.7348 8.10536 14.4804 8.29289 14.2929C8.48043 14.1054 8.73478 14 9 14H11V12C11 11.7348 11.1054 11.4804 11.2929 11.2929C11.4804 11.1054 11.7348 11 12 11C12.2652 11 12.5196 11.1054 12.7071 11.2929C12.8946 11.4804 13 11.7348 13 12V14H15C15.2652 14 15.5196 14.1054 15.7071 14.2929C15.8946 14.4804 16 14.7348 16 15Z" fill="black"/>
</g>
<defs>
<clipPath id="clip0">
<rect width="24" height="24" fill="white"/>
</clipPath>
</defs>
</svg>
