<svg width="24" height="24" viewBox="0 0 24 24" fill="none" xmlns="http://www.w3.org/2000/svg">
<g clip-path="url(#clip0)">
<path d="M22.5631 1.43717C20.1891 -0.936833 16.6441 -0.357833 12.0001 3.13717C7.35711 -0.357833 3.81311 -0.937833 1.43711 1.43717C-0.93889 3.81217 -0.35789 7.35617 3.13711 12.0002C-0.35789 16.6432 -0.937891 20.1882 1.43711 22.5632C1.8824 23.0249 2.4175 23.3906 3.00946 23.6377C3.60141 23.8849 4.23769 24.0082 4.87911 24.0002C6.85011 24.0002 9.23011 22.9482 12.0001 20.8642C14.7691 22.9482 17.1491 24.0002 19.1211 24.0002C19.7625 24.0082 20.3988 23.8849 20.9908 23.6377C21.5827 23.3906 22.1178 23.0249 22.5631 22.5632C24.9381 20.1882 24.3631 16.6442 20.8631 12.0002C24.3581 7.35617 24.9381 3.81217 22.5631 1.43717ZM19.0851 2.02817C19.4673 2.01666 19.8477 2.08337 20.2032 2.22421C20.5586 2.36505 20.8815 2.57704 21.1521 2.84717C22.8981 4.59417 21.6081 7.56017 19.5641 10.3862C18.7261 9.39817 17.7821 8.37117 16.7061 7.29417C15.6301 6.21717 14.6001 5.27317 13.6121 4.43417C15.5101 3.06117 17.4721 2.02817 19.0851 2.02817ZM18.3111 12.0002C17.3001 13.2202 16.2291 14.3612 15.2951 15.3002C14.3611 16.2392 13.2201 17.3002 12.0001 18.3112C10.7801 17.3002 9.63911 16.2292 8.70511 15.3002C7.77111 14.3712 6.70011 13.2202 5.68911 12.0002C6.70011 10.7802 7.77111 9.63817 8.70511 8.70517C9.63911 7.77217 10.7801 6.70017 12.0001 5.68817C13.2201 6.69817 14.3611 7.77117 15.3001 8.70517C16.2391 9.63917 17.3001 10.7802 18.3111 12.0002ZM2.84811 2.84817C3.11838 2.57757 3.44122 2.3652 3.79672 2.22417C4.15222 2.08314 4.53284 2.01644 4.91511 2.02817C6.52811 2.02817 8.49011 3.06117 10.3881 4.43417C9.40011 5.27317 8.37211 6.21717 7.29411 7.29417C6.21611 8.37117 5.27411 9.39417 4.43511 10.3862C2.39211 7.56017 1.10011 4.59417 2.84811 2.84817ZM2.84811 21.1482C1.10211 19.4022 2.39211 16.4352 4.43511 13.6102C5.27411 14.5982 6.21811 15.6252 7.29411 16.7022C8.37011 17.7792 9.39411 18.7252 10.3831 19.5632C7.55811 21.6092 4.59211 22.9002 2.84811 21.1522V21.1482ZM21.1481 21.1482C19.4031 22.8922 16.4381 21.6052 13.6131 19.5632C14.5991 18.7252 15.6271 17.7762 16.7021 16.7022C17.7771 15.6282 18.7221 14.6022 19.5601 13.6102C21.6081 16.4402 22.9001 19.4062 21.1521 21.1522L21.1481 21.1482Z" fill="black"/>
<path d="M12 14C13.1046 14 14 13.1046 14 12C14 10.8954 13.1046 10 12 10C10.8954 10 10 10.8954 10 12C10 13.1046 10.8954 14 12 14Z" fill="black"/>
</g>
<defs>
<clipPath id="clip0">
<rect width="24" height="24" fill="white"/>
</clipPath>
</defs>
</svg>
