<svg width="24" height="24" viewBox="0 0 24 24" fill="none" xmlns="http://www.w3.org/2000/svg">
<g clip-path="url(#clip0)">
<path d="M23.4209 16.583L20.1299 13.292C20.0382 13.1943 19.9277 13.1161 19.8052 13.0619C19.6826 13.0077 19.5504 12.9788 19.4164 12.9767C19.2825 12.9746 19.1494 12.9995 19.0253 13.0498C18.9011 13.1001 18.7883 13.1749 18.6936 13.2697C18.5988 13.3645 18.5241 13.4773 18.4739 13.6016C18.4236 13.7258 18.3989 13.8588 18.401 13.9928C18.4032 14.1268 18.4323 14.259 18.4866 14.3815C18.5408 14.504 18.6191 14.6144 18.7169 14.706L21.0069 17C19.762 17.0028 18.5292 16.7566 17.3809 16.2757C16.2327 15.7948 15.1922 15.0891 14.3209 14.2C14.2241 14.1109 14.1105 14.0421 13.9866 13.9978C13.8628 13.9535 13.7313 13.9345 13.5999 13.9419C13.4686 13.9494 13.3401 13.9832 13.2221 14.0413C13.1041 14.0993 12.9989 14.1805 12.9129 14.28L12.8999 14.3C12.7318 14.4956 12.6457 14.7486 12.6597 15.0061C12.6736 15.2636 12.7866 15.5058 12.9749 15.682C14.0247 16.7437 15.2765 17.5843 16.6566 18.1542C18.0366 18.7241 19.5169 19.0117 21.0099 19L18.7169 21.293C18.6124 21.3829 18.5276 21.4934 18.4679 21.6176C18.4081 21.7418 18.3747 21.877 18.3696 22.0147C18.3646 22.1524 18.3881 22.2897 18.4387 22.4179C18.4892 22.5461 18.5657 22.6625 18.6634 22.7598C18.761 22.857 18.8777 22.933 19.0062 22.983C19.1346 23.033 19.272 23.0559 19.4097 23.0503C19.5474 23.0447 19.6824 23.0107 19.8064 22.9504C19.9303 22.8901 20.0405 22.8049 20.1299 22.7L23.4209 19.409C23.7952 19.034 24.0055 18.5259 24.0055 17.996C24.0055 17.4662 23.7952 16.958 23.4209 16.583Z" fill="black"/>
<path d="M21.0069 7.00033L18.7169 9.29033C18.6974 9.31665 18.6793 9.34402 18.6629 9.37233C18.5015 9.56908 18.4219 9.82032 18.4405 10.0741C18.4592 10.3279 18.5746 10.5648 18.763 10.7358C18.9514 10.9069 19.1983 10.999 19.4527 10.9932C19.7071 10.9873 19.9496 10.8839 20.1299 10.7043L21.8359 9.00033L23.4219 7.41533C23.69 7.14508 23.8754 6.80392 23.9564 6.43193C24.0374 6.05993 24.0105 5.67256 23.8789 5.31533C23.7817 5.04187 23.6253 4.79328 23.4209 4.58733L20.1299 1.30033C20.0386 1.20114 19.9282 1.12143 19.8053 1.06599C19.6824 1.01056 19.5496 0.980546 19.4148 0.977754C19.28 0.974961 19.1461 0.999449 19.021 1.04975C18.8959 1.10004 18.7823 1.17511 18.687 1.27043C18.5916 1.36576 18.5166 1.47937 18.4663 1.60445C18.416 1.72952 18.3915 1.86347 18.3943 1.99825C18.3971 2.13303 18.4271 2.26586 18.4825 2.38874C18.538 2.51162 18.6177 2.62203 18.7169 2.71333L21.0099 5.00533C16.0769 5.01733 13.3729 7.67933 10.9209 10.4793C8.66886 7.93733 5.99986 5.40033 1.48686 5.04633L1.00586 5.00033C0.740643 5.00033 0.486289 5.10568 0.298753 5.29322C0.111216 5.48076 0.00585938 5.73511 0.00585938 6.00033C0.0109795 6.26394 0.11798 6.51533 0.304418 6.70177C0.490856 6.88821 0.742246 6.99521 1.00586 7.00033C1.07786 7.00033 1.29286 7.03333 1.29286 7.03333C5.18886 7.32833 7.42486 9.52233 9.59986 12.0003C7.43786 14.4663 5.21686 16.7003 1.35286 16.9603L0.952859 16.9813C0.689632 16.9978 0.443718 17.1181 0.269215 17.3159C0.0947127 17.5136 0.00591595 17.7726 0.0223594 18.0358C0.0388028 18.2991 0.159139 18.545 0.356896 18.7195C0.554654 18.894 0.813632 18.9828 1.07686 18.9663C1.23286 18.9593 1.48686 18.9533 1.61186 18.9433C6.63186 18.5563 9.35486 15.3433 11.7829 12.5343C14.2349 9.70033 16.5509 7.01833 21.0069 7.00033Z" fill="black"/>
</g>
<defs>
<clipPath id="clip0">
<rect width="24" height="24" fill="white"/>
</clipPath>
</defs>
</svg>
