<svg width="24" height="24" viewBox="0 0 24 24" fill="none" xmlns="http://www.w3.org/2000/svg">
<g clip-path="url(#clip0)">
<path d="M22.766 4.56612C22.4006 4.41391 21.9981 4.3739 21.6099 4.45119C21.2217 4.52848 20.8653 4.71957 20.586 5.00012L18 7.58612L13.414 3.00012C13.0389 2.62518 12.5303 2.41455 12 2.41455C11.4697 2.41455 10.9611 2.62518 10.586 3.00012L6 7.58612L3.414 5.00012C3.1343 4.7205 2.77797 4.53009 2.39006 4.45296C2.00216 4.37582 1.60009 4.41543 1.23469 4.56677C0.869291 4.71811 0.556965 4.97439 0.337197 5.30321C0.117428 5.63203 8.44486e-05 6.01862 0 6.41412L0 17.0001C0.00158786 18.3257 0.528882 19.5966 1.46622 20.5339C2.40356 21.4712 3.67441 21.9985 5 22.0001H19C20.3256 21.9985 21.5964 21.4712 22.5338 20.5339C23.4711 19.5966 23.9984 18.3257 24 17.0001V6.41412C24.0001 6.01859 23.8829 5.63191 23.6633 5.30297C23.4436 4.97404 23.1314 4.71761 22.766 4.56612ZM22 17.0001C22 17.7958 21.6839 18.5588 21.1213 19.1214C20.5587 19.6841 19.7956 20.0001 19 20.0001H5C4.20435 20.0001 3.44129 19.6841 2.87868 19.1214C2.31607 18.5588 2 17.7958 2 17.0001V6.41412L5.293 9.70712C5.48053 9.89459 5.73484 9.99991 6 9.99991C6.26516 9.99991 6.51947 9.89459 6.707 9.70712L12 4.41412L17.293 9.70712C17.4805 9.89459 17.7348 9.99991 18 9.99991C18.2652 9.99991 18.5195 9.89459 18.707 9.70712L22 6.41412V17.0001Z" fill="black"/>
</g>
<defs>
<clipPath id="clip0">
<rect width="24" height="24" fill="white"/>
</clipPath>
</defs>
</svg>
