<svg width="24" height="24" viewBox="0 0 24 24" fill="none" xmlns="http://www.w3.org/2000/svg">
<g clip-path="url(#clip0)">
<path d="M7.53997 13.0003H2.73197L7.86497 4.10931L11.847 11.0093C11.898 11.0093 11.947 11.0013 12 11.0013C12.8487 11.0019 13.6874 11.184 14.46 11.5353L9.59997 3.10831C9.42443 2.8043 9.17196 2.55184 8.86793 2.37632C8.5639 2.2008 8.21903 2.1084 7.86797 2.1084C7.51692 2.1084 7.17205 2.2008 6.86802 2.37632C6.56399 2.55184 6.31152 2.8043 6.13597 3.10831L0.133975 13.5003C0.0462073 13.6523 1.11487e-06 13.8248 0 14.0003C-1.11483e-06 14.1758 0.0462029 14.3483 0.133968 14.5003C0.221734 14.6523 0.347968 14.7786 0.499983 14.8663C0.651999 14.9541 0.82444 15.0003 0.999975 15.0003H6.34997C6.61252 14.2625 7.01677 13.5831 7.53997 13.0003Z" fill="black"/>
<path d="M23 3H13C12.7348 3 12.4804 3.10536 12.2929 3.29289C12.1054 3.48043 12 3.73478 12 4V11C12.6818 11.0017 13.3582 11.1201 14 11.35V5H22V13H16.46C16.9832 13.5827 17.3875 14.2622 17.65 15H23C23.2652 15 23.5196 14.8946 23.7071 14.7071C23.8946 14.5196 24 14.2652 24 14V4C24 3.73478 23.8946 3.48043 23.7071 3.29289C23.5196 3.10536 23.2652 3 23 3Z" fill="black"/>
<path d="M12 12C12.9889 12 13.9556 12.2932 14.7779 12.8427C15.6001 13.3921 16.241 14.173 16.6194 15.0866C16.9978 16.0002 17.0969 17.0055 16.9039 17.9755C16.711 18.9454 16.2348 19.8363 15.5355 20.5355C14.8363 21.2348 13.9454 21.711 12.9755 21.9039C12.0055 22.0969 11.0002 21.9978 10.0866 21.6194C9.17296 21.241 8.39206 20.6001 7.84266 19.7779C7.29325 18.9556 7 17.9889 7 17C7.00159 15.6744 7.52889 14.4036 8.46622 13.4662C9.40356 12.5289 10.6744 12.0016 12 12ZM12 10C10.6155 10 9.26216 10.4105 8.11101 11.1797C6.95987 11.9489 6.06266 13.0421 5.53285 14.3212C5.00303 15.6003 4.86441 17.0078 5.13451 18.3656C5.4046 19.7235 6.07129 20.9708 7.05026 21.9497C8.02922 22.9287 9.2765 23.5954 10.6344 23.8655C11.9922 24.1356 13.3997 23.997 14.6788 23.4672C15.9579 22.9373 17.0511 22.0401 17.8203 20.889C18.5895 19.7378 19 18.3845 19 17C19 15.1435 18.2625 13.363 16.9497 12.0503C15.637 10.7375 13.8565 10 12 10Z" fill="black"/>
</g>
<defs>
<clipPath id="clip0">
<rect width="24" height="24" fill="white"/>
</clipPath>
</defs>
</svg>
