<svg width="24" height="24" viewBox="0 0 24 24" fill="none" xmlns="http://www.w3.org/2000/svg">
<path d="M10.4198 20.6562C9.61614 20.6555 8.83376 20.398 8.18679 19.9212L1.54579 15.0512C1.06708 14.6997 0.677838 14.2404 0.40955 13.7106C0.141263 13.1807 0.00146484 12.5952 0.00146484 12.0012C0.00146484 11.4073 0.141263 10.8218 0.40955 10.2919C0.677838 9.76204 1.06708 9.30277 1.54579 8.95124L8.18679 4.08124C8.73146 3.68099 9.37343 3.43399 10.0459 3.36591C10.7184 3.29784 11.3968 3.41119 12.0107 3.69417C12.6245 3.97715 13.1513 4.41942 13.5363 4.97499C13.9213 5.53056 14.1504 6.17913 14.1998 6.85324L17.9818 4.07924C18.5457 3.66679 19.2127 3.41849 19.909 3.36186C20.6053 3.30522 21.3037 3.44246 21.9269 3.75836C22.55 4.07427 23.0735 4.55651 23.4393 5.15166C23.8052 5.74681 23.9992 6.43162 23.9998 7.13024V16.8702C23.9996 17.5694 23.8058 18.2548 23.4397 18.8504C23.0737 19.4461 22.5498 19.9287 21.9262 20.2447C21.3026 20.5607 20.6036 20.6977 19.9068 20.6406C19.21 20.5836 18.5427 20.3345 17.9788 19.9212L14.1998 17.1472C14.1289 18.1007 13.7003 18.9921 12.9998 19.6429C12.2994 20.2936 11.3789 20.6556 10.4228 20.6562H10.4198ZM13.2068 14.1812C13.4197 14.1812 13.6271 14.2492 13.7988 14.3752L19.1618 18.3082C19.4276 18.5029 19.7421 18.6201 20.0705 18.647C20.3989 18.6738 20.7282 18.6092 21.0221 18.4603C21.316 18.3114 21.5629 18.084 21.7355 17.8033C21.9081 17.5227 21.9995 17.1997 21.9998 16.8702V7.13024C21.9993 6.80076 21.9076 6.47785 21.735 6.19725C21.5623 5.91666 21.3153 5.68933 21.0214 5.54045C20.7274 5.39158 20.398 5.32695 20.0696 5.35375C19.7413 5.38054 19.4267 5.49769 19.1608 5.69224L13.7998 9.62524C13.6508 9.73469 13.4744 9.80068 13.2901 9.81591C13.1059 9.83113 12.921 9.79498 12.7561 9.71148C12.5912 9.62797 12.4526 9.50038 12.3558 9.34288C12.259 9.18537 12.2078 9.00411 12.2078 8.81924V7.13024C12.2077 6.80061 12.1162 6.47746 11.9436 6.19664C11.771 5.91582 11.524 5.68832 11.2299 5.53938C10.9358 5.39043 10.6063 5.32587 10.2777 5.35285C9.94922 5.37984 9.6346 5.49731 9.36879 5.69224L2.72879 10.5622C2.50289 10.7278 2.31919 10.9443 2.19256 11.1942C2.06593 11.444 1.99994 11.7201 1.99994 12.0002C1.99994 12.2803 2.06593 12.5565 2.19256 12.8063C2.31919 13.0562 2.50289 13.2726 2.72879 13.4382L9.36879 18.3082C9.6346 18.5029 9.94912 18.6201 10.2775 18.647C10.6059 18.6738 10.9352 18.6092 11.2291 18.4603C11.523 18.3114 11.7699 18.084 11.9425 17.8033C12.1151 17.5227 12.2065 17.1997 12.2068 16.8702V15.1812C12.2068 14.916 12.3121 14.6617 12.4997 14.4741C12.6872 14.2866 12.9416 14.1812 13.2068 14.1812Z" fill="black"/>
</svg>
