<svg width="24" height="24" viewBox="0 0 24 24" fill="none" xmlns="http://www.w3.org/2000/svg">
<g clip-path="url(#clip0)">
<path d="M23.7072 16.325C23.5197 16.1375 23.2654 16.0322 23.0002 16.0322C22.735 16.0322 22.4807 16.1375 22.2932 16.325L16.6662 21.953L13.9782 19.3C13.7925 19.1097 13.5389 19.001 13.2731 18.9977C13.0072 18.9944 12.751 19.0969 12.5607 19.2825C12.3704 19.4682 12.2617 19.7218 12.2584 19.9876C12.2551 20.2535 12.3576 20.5097 12.5432 20.7L15.2872 23.4C15.4593 23.5856 15.6672 23.7344 15.8984 23.8375C16.1295 23.9406 16.3791 23.9959 16.6322 24H16.6652C16.9133 24.0008 17.159 23.9524 17.3882 23.8574C17.6174 23.7625 17.8254 23.623 18.0002 23.447L23.7072 17.739C23.8947 17.5515 24 17.2972 24 17.032C24 16.7668 23.8947 16.5125 23.7072 16.325Z" fill="black"/>
<path d="M11.09 21.9594C9.15904 21.7829 7.32103 21.0489 5.79973 19.8467C4.27842 18.6444 3.13945 17.0258 2.52147 15.188C1.9035 13.3501 1.83317 11.3722 2.31906 9.49501C2.80494 7.61787 3.82608 5.92248 5.25816 4.61524C6.69024 3.30799 8.47147 2.44528 10.385 2.13214C12.2986 1.81899 14.2619 2.06892 16.036 2.85149C17.81 3.63407 19.3183 4.91553 20.3772 6.53987C21.4361 8.16422 21.9999 10.0614 22 12.0004C22 12.3074 21.985 12.6114 21.959 12.9114C21.9468 13.0425 21.9605 13.1747 21.9995 13.3005C22.0385 13.4263 22.102 13.5431 22.1863 13.6443C22.2706 13.7455 22.374 13.829 22.4906 13.8901C22.6073 13.9512 22.7348 13.9887 22.866 14.0004C22.9971 14.0136 23.1295 14.0004 23.2554 13.9618C23.3813 13.9231 23.4982 13.8596 23.5993 13.7751C23.7004 13.6906 23.7836 13.5868 23.844 13.4697C23.9043 13.3527 23.9407 13.2247 23.951 13.0934C23.983 12.7304 24 12.3674 24 12.0004C23.9999 9.67349 23.3233 7.39682 22.0525 5.44757C20.7817 3.49831 18.9717 1.96056 16.8427 1.02153C14.7137 0.0824959 12.3576 -0.217304 10.0613 0.15863C7.76496 0.534563 5.62746 1.57001 3.90904 3.13891C2.19062 4.70781 0.965399 6.74247 0.382551 8.99518C-0.200297 11.2479 -0.115628 13.6215 0.62625 15.8269C1.36813 18.0324 2.73521 19.9746 4.56105 21.417C6.38689 22.8595 8.59273 23.74 10.91 23.9514C10.941 23.9514 10.971 23.9514 11.001 23.9514C11.2662 23.9632 11.5253 23.8691 11.7211 23.69C11.917 23.5108 12.0337 23.2611 12.0455 22.9959C12.0573 22.7307 11.9633 22.4716 11.7841 22.2757C11.6049 22.0799 11.3552 21.9632 11.09 21.9514V21.9594Z" fill="black"/>
<path d="M11.0001 7V11.586L8.29308 14.293C8.19757 14.3852 8.12139 14.4956 8.06898 14.6176C8.01657 14.7396 7.98898 14.8708 7.98783 15.0036C7.98668 15.1364 8.01198 15.2681 8.06226 15.391C8.11254 15.5139 8.18679 15.6255 8.28069 15.7194C8.37458 15.8133 8.48623 15.8875 8.60913 15.9378C8.73202 15.9881 8.8637 16.0134 8.99648 16.0123C9.12926 16.0111 9.26048 15.9835 9.38249 15.9311C9.50449 15.8787 9.61483 15.8025 9.70708 15.707L12.7071 12.707C12.8946 12.5195 13 12.2652 13.0001 12V7C13.0001 6.73478 12.8947 6.48043 12.7072 6.29289C12.5197 6.10536 12.2653 6 12.0001 6C11.7349 6 11.4805 6.10536 11.293 6.29289C11.1054 6.48043 11.0001 6.73478 11.0001 7Z" fill="black"/>
</g>
<defs>
<clipPath id="clip0">
<rect width="24" height="24" fill="white"/>
</clipPath>
</defs>
</svg>
