<svg width="24" height="24" viewBox="0 0 24 24" fill="none" xmlns="http://www.w3.org/2000/svg">
<g clip-path="url(#clip0)">
<path d="M12 14.9997C11.7348 14.9997 11.4804 14.8944 11.2929 14.7069C11.1054 14.5193 11 14.265 11 13.9997C11.0371 13.3463 11.2359 12.7123 11.5785 12.1547C11.9212 11.597 12.3969 11.1332 12.963 10.8047C13.3329 10.602 13.629 10.2872 13.8087 9.90551C13.9884 9.52386 14.0424 9.09505 13.963 8.68075C13.886 8.28504 13.6925 7.92134 13.4075 7.63628C13.1224 7.35122 12.7587 7.15777 12.363 7.08075C12.0741 7.02743 11.7771 7.0384 11.4929 7.11288C11.2088 7.18736 10.9445 7.32352 10.7189 7.51167C10.4933 7.69983 10.312 7.93537 10.1877 8.20154C10.0635 8.46772 9.99938 8.758 10 9.05175C10 9.31697 9.89465 9.57132 9.70711 9.75886C9.51957 9.94639 9.26522 10.0517 9 10.0517C8.73479 10.0517 8.48043 9.94639 8.2929 9.75886C8.10536 9.57132 8 9.31697 8 9.05175C7.9999 8.4675 8.12779 7.89033 8.37467 7.36081C8.62155 6.83129 8.98143 6.36227 9.429 5.98675C9.85676 5.62915 10.3545 5.36493 10.8904 5.21103C11.4263 5.05713 11.9884 5.01696 12.5407 5.09309C13.0931 5.16922 13.6234 5.35998 14.0976 5.65311C14.5719 5.94624 14.9796 6.33529 15.2947 6.79527C15.6097 7.25525 15.8251 7.77602 15.9271 8.32416C16.029 8.87229 16.0153 9.43569 15.8867 9.97819C15.7581 10.5207 15.5175 11.0303 15.1804 11.4744C14.8432 11.9184 14.417 12.2871 13.929 12.5567C13.6762 12.7126 13.4614 12.9231 13.3007 13.1728C13.1399 13.4225 13.0372 13.7051 13 13.9997C13 14.265 12.8946 14.5193 12.7071 14.7069C12.5196 14.8944 12.2652 14.9997 12 14.9997ZM12.793 23.7598C14.953 22.8918 22 19.4787 22 12.0427V6.87175C22.0011 5.82076 21.6705 4.79622 21.0554 3.94406C20.4403 3.09191 19.5719 2.45559 18.574 2.12575L12.315 0.0507496C12.1107 -0.0182186 11.8893 -0.0182186 11.685 0.0507496L5.426 2.12575C4.42811 2.45559 3.55975 3.09191 2.9446 3.94406C2.32946 4.79622 1.99889 5.82076 2 6.87175V12.0427C2 18.6047 9.005 22.6188 11.153 23.6928C11.4127 23.8492 11.7004 23.9535 12 23.9998C12.277 23.9697 12.5459 23.8883 12.793 23.7598ZM17.944 4.02375C18.5425 4.22217 19.0633 4.60413 19.4324 5.11538C19.8015 5.62664 20.0001 6.24119 20 6.87175V12.0427C20 18.2257 13.913 21.1537 12.047 21.9037C10.159 20.9597 4 17.4587 4 12.0427V6.87175C3.99992 6.24119 4.19852 5.62664 4.56761 5.11538C4.93669 4.60413 5.45748 4.22217 6.056 4.02375L12 2.05375L17.944 4.02375ZM12 16.9998C11.8022 16.9998 11.6089 17.0584 11.4444 17.1683C11.28 17.2782 11.1518 17.4343 11.0761 17.6171C11.0004 17.7998 10.9806 18.0009 11.0192 18.1948C11.0578 18.3888 11.153 18.567 11.2929 18.7069C11.4327 18.8467 11.6109 18.9419 11.8049 18.9805C11.9989 19.0191 12.2 18.9993 12.3827 18.9236C12.5654 18.8479 12.7216 18.7198 12.8315 18.5553C12.9414 18.3909 13 18.1975 13 17.9998C13 17.7345 12.8946 17.4802 12.7071 17.2926C12.5196 17.1051 12.2652 16.9998 12 16.9998Z" fill="black"/>
</g>
<defs>
<clipPath id="clip0">
<rect width="24" height="24" fill="white"/>
</clipPath>
</defs>
</svg>
