<svg width="35" height="29" viewBox="0 0 35 29" fill="none" xmlns="http://www.w3.org/2000/svg">
<path d="M34.1445 4.17846C32.9197 4.7068 31.5868 5.08705 30.2139 5.23514C31.6393 4.38834 32.7067 3.05052 33.2159 1.4727C31.8783 2.26837 30.4131 2.82631 28.8851 3.12177C28.2464 2.43903 27.474 1.89514 26.616 1.52396C25.758 1.15279 24.8327 0.962307 23.8978 0.964372C20.1154 0.964372 17.0734 4.03036 17.0734 7.7928C17.0734 8.32115 17.1374 8.84949 17.2415 9.35782C11.5778 9.06163 6.52656 6.35587 3.16838 2.21318C2.55648 3.25832 2.23583 4.44834 2.23978 5.65942C2.23978 8.02896 3.44456 10.1183 5.28175 11.3471C4.19906 11.3045 3.14173 11.0069 2.19575 10.4785V10.5626C2.19575 13.8808 4.54127 16.6305 7.6673 17.2629C7.08035 17.4154 6.47655 17.4934 5.87013 17.4951C5.42584 17.4951 5.00557 17.4511 4.5813 17.391C5.44586 20.0968 7.96349 22.0621 10.9614 22.1261C8.61591 23.9633 5.67801 25.044 2.48794 25.044C1.91557 25.044 1.38722 25.024 0.838867 24.9599C3.86483 26.9012 7.45516 28.0219 11.3217 28.0219C23.8738 28.0219 30.7423 17.6232 30.7423 8.59733C30.7423 8.30113 30.7423 8.00494 30.7223 7.70875C32.0511 6.73612 33.2159 5.53134 34.1445 4.17846Z" fill="white"/>
</svg>
