<svg width="24" height="24" viewBox="0 0 24 24" fill="none" xmlns="http://www.w3.org/2000/svg">
<g clip-path="url(#clip0)">
<path d="M23.0002 11C22.735 11 22.4806 11.1054 22.2931 11.2929C22.1056 11.4804 22.0002 11.7348 22.0002 12C22.0083 14.3253 21.2086 16.5812 19.7377 18.3822C18.2669 20.1831 16.2161 21.4173 13.9361 21.8738C11.6561 22.3303 9.28826 21.9807 7.2374 20.8849C5.18654 19.789 3.57995 18.0148 2.69224 15.8657C1.80454 13.7165 1.69082 11.3257 2.37053 9.10201C3.05024 6.87828 4.48118 4.95966 6.41876 3.67407C8.35634 2.38849 10.6803 1.81575 12.9934 2.05377C15.3064 2.29179 17.465 3.32578 19.1002 4.979C19.0673 4.98797 19.0339 4.99498 19.0002 5H16.0002C15.735 5 15.4806 5.10536 15.2931 5.29289C15.1056 5.48043 15.0002 5.73478 15.0002 6C15.0002 6.26522 15.1056 6.51957 15.2931 6.70711C15.4806 6.89464 15.735 7 16.0002 7H19.0002C19.7959 7 20.5589 6.68393 21.1215 6.12132C21.6841 5.55871 22.0002 4.79565 22.0002 4V1C22.0002 0.734784 21.8949 0.48043 21.7073 0.292893C21.5198 0.105357 21.2654 0 21.0002 0C20.735 0 20.4806 0.105357 20.2931 0.292893C20.1056 0.48043 20.0002 0.734784 20.0002 1V3.065C17.9528 1.23453 15.3391 0.162166 12.5961 0.0271026C9.85299 -0.107961 7.14666 0.702457 4.92929 2.32293C2.71192 3.94341 1.11785 6.27578 0.413437 8.9303C-0.290973 11.5848 -0.0630447 14.4007 1.05913 16.9074C2.18131 19.414 4.12976 21.4596 6.57889 22.7024C9.02803 23.9451 11.8295 24.3097 14.5151 23.7353C17.2007 23.1608 19.6079 21.682 21.3343 19.5461C23.0607 17.4101 24.0017 14.7464 24.0002 12C24.0002 11.7348 23.8949 11.4804 23.7073 11.2929C23.5198 11.1054 23.2654 11 23.0002 11Z" fill="black"/>
<path d="M12 6C11.7348 6 11.4804 6.10536 11.2929 6.29289C11.1054 6.48043 11 6.73478 11 7V12C11.0001 12.2652 11.1055 12.5195 11.293 12.707L14.293 15.707C14.4816 15.8892 14.7342 15.99 14.9964 15.9877C15.2586 15.9854 15.5094 15.8802 15.6948 15.6948C15.8802 15.5094 15.9854 15.2586 15.9877 14.9964C15.99 14.7342 15.8892 14.4816 15.707 14.293L13 11.586V7C13 6.73478 12.8946 6.48043 12.7071 6.29289C12.5196 6.10536 12.2652 6 12 6Z" fill="black"/>
</g>
<defs>
<clipPath id="clip0">
<rect width="24" height="24" fill="white"/>
</clipPath>
</defs>
</svg>
