<svg width="24" height="24" viewBox="0 0 24 24" fill="none" xmlns="http://www.w3.org/2000/svg">
<path d="M6.99979 24.0004C6.80204 24.0004 6.60874 23.9417 6.44433 23.8318C6.27992 23.7219 6.15178 23.5658 6.07611 23.3831C6.00044 23.2004 5.98064 22.9993 6.0192 22.8054C6.05777 22.6114 6.15298 22.4333 6.29279 22.2934L14.4648 14.1214C15.0272 13.5588 15.3431 12.7959 15.3431 12.0004C15.3431 11.2049 15.0272 10.442 14.4648 9.87941L6.29279 1.70741C6.11063 1.5188 6.00983 1.2662 6.01211 1.00401C6.01439 0.741809 6.11956 0.490997 6.30497 0.305589C6.49038 0.12018 6.74119 0.0150115 7.00339 0.0127331C7.26558 0.0104547 7.51818 0.111249 7.70679 0.293407L15.8788 8.46541C16.8149 9.40369 17.3407 10.675 17.3407 12.0004C17.3407 13.3258 16.8149 14.5971 15.8788 15.5354L7.70679 23.7074C7.51929 23.895 7.26498 24.0003 6.99979 24.0004Z" fill="black"/>
</svg>
