<svg width="24" height="24" viewBox="0 0 24 24" fill="none" xmlns="http://www.w3.org/2000/svg">
<path d="M19 1H5C3.67441 1.00159 2.40356 1.52888 1.46622 2.46622C0.528882 3.40356 0.00158786 4.67441 0 6L0 14C0.00158786 15.3256 0.528882 16.5964 1.46622 17.5338C2.40356 18.4711 3.67441 18.9984 5 19H11V21H7C6.73478 21 6.48043 21.1054 6.29289 21.2929C6.10536 21.4804 6 21.7348 6 22C6 22.2652 6.10536 22.5196 6.29289 22.7071C6.48043 22.8946 6.73478 23 7 23H17C17.2652 23 17.5196 22.8946 17.7071 22.7071C17.8946 22.5196 18 22.2652 18 22C18 21.7348 17.8946 21.4804 17.7071 21.2929C17.5196 21.1054 17.2652 21 17 21H13V19H19C20.3256 18.9984 21.5964 18.4711 22.5338 17.5338C23.4711 16.5964 23.9984 15.3256 24 14V6C23.9984 4.67441 23.4711 3.40356 22.5338 2.46622C21.5964 1.52888 20.3256 1.00159 19 1ZM22 14C22 14.7956 21.6839 15.5587 21.1213 16.1213C20.5587 16.6839 19.7956 17 19 17H5C4.20435 17 3.44129 16.6839 2.87868 16.1213C2.31607 15.5587 2 14.7956 2 14V6C2 5.20435 2.31607 4.44129 2.87868 3.87868C3.44129 3.31607 4.20435 3 5 3H19C19.7956 3 20.5587 3.31607 21.1213 3.87868C21.6839 4.44129 22 5.20435 22 6V14ZM20 10C20 10.2652 19.8946 10.5196 19.7071 10.7071C19.5196 10.8946 19.2652 11 19 11H16.035L14.335 13.555C14.2434 13.6923 14.1192 13.8049 13.9735 13.8825C13.8278 13.9602 13.6651 14.0005 13.5 14C13.479 14 13.458 14 13.438 14C13.263 13.9892 13.094 13.9326 12.9478 13.8359C12.8016 13.7392 12.6834 13.6058 12.605 13.449L10.376 8.988L9.332 10.555C9.24065 10.6919 9.11692 10.8042 8.97178 10.8818C8.82665 10.9594 8.66459 11 8.5 11H5C4.73478 11 4.48043 10.8946 4.29289 10.7071C4.10536 10.5196 4 10.2652 4 10C4 9.73478 4.10536 9.48043 4.29289 9.29289C4.48043 9.10536 4.73478 9 5 9H7.965L9.665 6.445C9.76123 6.29756 9.89516 6.17855 10.0529 6.1003C10.2106 6.02206 10.3864 5.98743 10.562 6C10.737 6.01078 10.906 6.06735 11.0522 6.16406C11.1984 6.26077 11.3166 6.39421 11.395 6.551L13.624 11.01L14.668 9.443C14.7596 9.30645 14.8834 9.19459 15.0285 9.11732C15.1737 9.04005 15.3356 8.99976 15.5 9H19C19.2652 9 19.5196 9.10536 19.7071 9.29289C19.8946 9.48043 20 9.73478 20 10Z" fill="black"/>
</svg>
