<svg width="24" height="24" viewBox="0 0 24 24" fill="none" xmlns="http://www.w3.org/2000/svg">
<g clip-path="url(#clip0)">
<path d="M23 19C22.7348 19 22.4804 19.1054 22.2929 19.2929C22.1054 19.4804 22 19.7348 22 20C22 20.5304 21.7893 21.0391 21.4142 21.4142C21.0391 21.7893 20.5304 22 20 22H16V18H18.1C19.1339 17.9987 20.1251 17.5874 20.8563 16.8563C21.5874 16.1252 21.9987 15.1339 22 14.1C21.9973 12.7138 21.5157 11.3711 20.6369 10.299C19.758 9.22702 18.5358 8.49153 17.177 8.217L13.3 7.44C12.8903 7.35838 12.5165 7.15053 12.231 6.84565C11.9455 6.54076 11.7626 6.15413 11.708 5.74L11.3 2.576C11.2408 2.16166 11.0955 1.76429 10.8735 1.40944C10.6515 1.0546 10.3578 0.750127 10.0111 0.51561C9.66438 0.281094 9.27245 0.121718 8.86049 0.0477306C8.44852 -0.0262571 8.02563 -0.01322 7.619 0.086004L2.91 1.42C2.07333 1.65952 1.33714 2.16439 0.812295 2.85859C0.28745 3.55279 0.00237401 4.39873 0 5.269L0 14C0 15.0609 0.421427 16.0783 1.17157 16.8284C1.92172 17.5786 2.93913 18 4 18H5V22H1C0.734784 22 0.48043 22.1054 0.292893 22.2929C0.105357 22.4804 0 22.7348 0 23C0 23.2652 0.105357 23.5196 0.292893 23.7071C0.48043 23.8946 0.734784 24 1 24H20C21.0609 24 22.0783 23.5786 22.8284 22.8284C23.5786 22.0783 24 21.0609 24 20C24 19.7348 23.8946 19.4804 23.7071 19.2929C23.5196 19.1054 23.2652 19 23 19ZM2 14V5.269C2.00149 4.83388 2.14413 4.411 2.4065 4.06388C2.66887 3.71676 3.03679 3.46415 3.455 3.344L8.107 2.024C8.17961 2.00823 8.25369 2.00018 8.328 2C8.56647 2.00057 8.79688 2.08634 8.97768 2.24183C9.15847 2.39732 9.27775 2.61231 9.314 2.848L9.466 4H7C6.73478 4 6.48043 4.10536 6.29289 4.2929C6.10536 4.48043 6 4.73479 6 5C6 5.26522 6.10536 5.51957 6.29289 5.70711C6.48043 5.89465 6.73478 6 7 6H9.729C9.77374 6.31371 9.856 6.62091 9.974 6.915L7.635 8.338C7.40837 8.47578 7.24576 8.69795 7.18294 8.95562C7.15183 9.08321 7.14615 9.21568 7.16624 9.34546C7.18633 9.47524 7.23178 9.59979 7.3 9.712C7.36822 9.82422 7.45788 9.9219 7.56385 9.99946C7.66982 10.077 7.79003 10.133 7.91762 10.1641C8.17529 10.2269 8.44737 10.1848 8.674 10.047L11.14 8.547C11.4039 8.7651 11.695 8.94796 12.006 9.091L10.631 11.504C10.4997 11.7345 10.4654 12.0077 10.5355 12.2635C10.6056 12.5193 10.7745 12.7367 11.005 12.868C11.2355 12.9993 11.5087 13.0336 11.7645 12.9635C12.0203 12.8934 12.2377 12.7245 12.369 12.494L14.007 9.62L16.784 10.176C17.6902 10.3592 18.5052 10.8499 19.0912 11.5649C19.6773 12.28 19.9983 13.1755 20 14.1C20 14.6039 19.7998 15.0872 19.4435 15.4435C19.0872 15.7998 18.6039 16 18.1 16H4C3.46957 16 2.96086 15.7893 2.58579 15.4142C2.21071 15.0391 2 14.5304 2 14ZM7 18H14V22H7V18Z" fill="black"/>
</g>
<defs>
<clipPath id="clip0">
<rect width="24" height="24" fill="white"/>
</clipPath>
</defs>
</svg>
