<svg width="24" height="24" viewBox="0 0 24 24" fill="none" xmlns="http://www.w3.org/2000/svg">
<g clip-path="url(#clip0)">
<path d="M23.9672 10.4172C23.6655 8.19444 22.7488 6.10019 21.3206 4.37052C19.8924 2.64086 18.0094 1.34457 15.8838 0.627806C13.7583 -0.0889595 11.4748 -0.197697 9.29083 0.313852C7.10682 0.825401 5.10914 1.93689 3.52302 3.52302C1.93689 5.10914 0.825401 7.10682 0.313852 9.29083C-0.197697 11.4748 -0.0889595 13.7583 0.627806 15.8838C1.34457 18.0094 2.64086 19.8924 4.37052 21.3206C6.10019 22.7488 8.19444 23.6655 10.4172 23.9672C10.5793 23.9883 10.7427 23.999 10.9062 23.9992C11.9609 23.9905 12.9692 23.5648 13.7112 22.8152L22.8112 13.7152C23.2432 13.2904 23.5721 12.7723 23.7725 12.2005C23.9729 11.6288 24.0395 11.0187 23.9672 10.4172ZM2.06718 10.8912C2.33614 8.51791 3.44286 6.31841 5.18838 4.6881C6.9339 3.05778 9.20373 2.10359 11.5898 1.99706C13.9759 1.89053 16.3217 2.63865 18.2056 4.10692C20.0895 5.5752 21.3878 7.66732 21.8672 10.0072C18.7348 10.045 15.7413 11.3056 13.5255 13.5199C11.3097 15.7342 10.0471 18.7269 10.0072 21.8592C7.54737 21.3631 5.3644 19.9594 3.89245 17.9271C2.42051 15.8949 1.76745 13.383 2.06318 10.8912H2.06718ZM12.3002 21.4002C12.214 21.4829 12.121 21.5581 12.0222 21.6252C12.1193 19.1084 13.1625 16.721 14.9433 14.94C16.7241 13.159 19.1115 12.1155 21.6282 12.0182C21.5618 12.1176 21.4869 12.2109 21.4042 12.2972L12.3002 21.4002Z" fill="black"/>
</g>
<defs>
<clipPath id="clip0">
<rect width="24" height="24" fill="white"/>
</clipPath>
</defs>
</svg>
