<svg width="24" height="24" viewBox="0 0 24 24" fill="none" xmlns="http://www.w3.org/2000/svg">
<g clip-path="url(#clip0)">
<path d="M19 6.00007H14.321C13.9224 5.71598 13.4744 5.50846 13 5.38807V5.00007L16.53 3.34807C16.6747 3.25838 16.7941 3.13324 16.8769 2.98449C16.9598 2.83574 17.0032 2.66831 17.0032 2.49807C17.0032 2.32782 16.9598 2.16039 16.8769 2.01164C16.7941 1.86289 16.6747 1.73775 16.53 1.64807L13.33 0.148067C13.0802 0.0313185 12.8049 -0.0204169 12.5297 -0.00233746C12.2545 0.015742 11.9883 0.10305 11.7559 0.251483C11.5235 0.399916 11.3323 0.604662 11.2002 0.846717C11.068 1.08877 10.9992 1.36029 11 1.63607V5.38807C10.5258 5.50829 10.0782 5.71583 9.68 6.00007H5C3.67441 6.00165 2.40356 6.52895 1.46622 7.46629C0.528882 8.40362 0.00158786 9.67447 0 11.0001L0 21.0001C0 21.7957 0.31607 22.5588 0.87868 23.1214C1.44129 23.684 2.20435 24.0001 3 24.0001H21C21.7956 24.0001 22.5587 23.684 23.1213 23.1214C23.6839 22.5588 24 21.7957 24 21.0001V11.0001C23.9984 9.67447 23.4711 8.40362 22.5338 7.46629C21.5964 6.52895 20.3256 6.00165 19 6.00007ZM21.816 10.0001H19.657C18.8618 9.99804 18.0995 9.68214 17.536 9.12107L16.414 8.00007H19C19.6183 8.00263 20.2206 8.19615 20.7247 8.55415C21.2288 8.91216 21.6099 9.41716 21.816 10.0001ZM5 8.00007H7.586L6.464 9.12107C5.90047 9.68214 5.13821 9.99804 4.343 10.0001H2.184C2.39008 9.41716 2.77123 8.91216 3.2753 8.55415C3.77937 8.19615 4.38174 8.00263 5 8.00007ZM13 22.0001H11V19.0001C11 18.7348 11.1054 18.4805 11.2929 18.293C11.4804 18.1054 11.7348 18.0001 12 18.0001C12.2652 18.0001 12.5196 18.1054 12.7071 18.293C12.8946 18.4805 13 18.7348 13 19.0001V22.0001ZM21 22.0001H15V19.0001C15 18.2044 14.6839 17.4414 14.1213 16.8787C13.5587 16.3161 12.7956 16.0001 12 16.0001C11.2044 16.0001 10.4413 16.3161 9.87868 16.8787C9.31607 17.4414 9 18.2044 9 19.0001V22.0001H3C2.73478 22.0001 2.48043 21.8947 2.29289 21.7072C2.10536 21.5196 2 21.2653 2 21.0001V12.0001H4.343C4.99982 12.0017 5.65043 11.873 6.25721 11.6216C6.86398 11.3701 7.41487 11.0008 7.878 10.5351L10.586 7.82807C10.9611 7.45312 11.4697 7.24249 12 7.24249C12.5303 7.24249 13.0389 7.45312 13.414 7.82807L16.122 10.5351C16.5851 11.0008 17.136 11.3701 17.7428 11.6216C18.3496 11.873 19.0002 12.0017 19.657 12.0001H22V21.0001C22 21.2653 21.8946 21.5196 21.7071 21.7072C21.5196 21.8947 21.2652 22.0001 21 22.0001ZM7 15.0001C7 15.2653 6.89464 15.5196 6.70711 15.7072C6.51957 15.8947 6.26522 16.0001 6 16.0001H5C4.73478 16.0001 4.48043 15.8947 4.29289 15.7072C4.10536 15.5196 4 15.2653 4 15.0001C4 14.7348 4.10536 14.4805 4.29289 14.293C4.48043 14.1054 4.73478 14.0001 5 14.0001H6C6.26522 14.0001 6.51957 14.1054 6.70711 14.293C6.89464 14.4805 7 14.7348 7 15.0001ZM7 19.0001C7 19.2653 6.89464 19.5196 6.70711 19.7072C6.51957 19.8947 6.26522 20.0001 6 20.0001H5C4.73478 20.0001 4.48043 19.8947 4.29289 19.7072C4.10536 19.5196 4 19.2653 4 19.0001C4 18.7348 4.10536 18.4805 4.29289 18.293C4.48043 18.1054 4.73478 18.0001 5 18.0001H6C6.26522 18.0001 6.51957 18.1054 6.70711 18.293C6.89464 18.4805 7 18.7348 7 19.0001ZM20 15.0001C20 15.2653 19.8946 15.5196 19.7071 15.7072C19.5196 15.8947 19.2652 16.0001 19 16.0001H18C17.7348 16.0001 17.4804 15.8947 17.2929 15.7072C17.1054 15.5196 17 15.2653 17 15.0001C17 14.7348 17.1054 14.4805 17.2929 14.293C17.4804 14.1054 17.7348 14.0001 18 14.0001H19C19.2652 14.0001 19.5196 14.1054 19.7071 14.293C19.8946 14.4805 20 14.7348 20 15.0001ZM20 19.0001C20 19.2653 19.8946 19.5196 19.7071 19.7072C19.5196 19.8947 19.2652 20.0001 19 20.0001H18C17.7348 20.0001 17.4804 19.8947 17.2929 19.7072C17.1054 19.5196 17 19.2653 17 19.0001C17 18.7348 17.1054 18.4805 17.2929 18.293C17.4804 18.1054 17.7348 18.0001 18 18.0001H19C19.2652 18.0001 19.5196 18.1054 19.7071 18.293C19.8946 18.4805 20 18.7348 20 19.0001ZM14 12.0001C14 12.3956 13.8827 12.7823 13.6629 13.1112C13.4432 13.4401 13.1308 13.6965 12.7654 13.8478C12.3999 13.9992 11.9978 14.0388 11.6098 13.9616C11.2219 13.8845 10.8655 13.694 10.5858 13.4143C10.3061 13.1346 10.1156 12.7782 10.0384 12.3902C9.96126 12.0023 10.0009 11.6002 10.1522 11.2347C10.3036 10.8692 10.56 10.5569 10.8889 10.3371C11.2178 10.1174 11.6044 10.0001 12 10.0001C12.5304 10.0001 13.0391 10.2108 13.4142 10.5859C13.7893 10.9609 14 11.4696 14 12.0001Z" fill="black"/>
</g>
<defs>
<clipPath id="clip0">
<rect width="24" height="24" fill="white"/>
</clipPath>
</defs>
</svg>
