<svg width="24" height="24" viewBox="0 0 24 24" fill="none" xmlns="http://www.w3.org/2000/svg">
<g clip-path="url(#clip0)">
<path d="M20.8589 15.3312L17.0869 21.4862C16.6727 22.1662 16.1088 22.7428 15.4382 23.172C14.7676 23.6012 14.0079 23.8718 13.2169 23.9632C13.0085 23.9879 12.7988 24.0003 12.5889 24.0002C11.5144 23.9987 10.4666 23.6652 9.58894 23.0452C8.68199 23.7247 7.56167 24.0568 6.43095 23.9814C5.30022 23.906 4.2339 23.4281 3.42518 22.6343C2.61647 21.8404 2.11885 20.7832 2.0225 19.654C1.92614 18.5249 2.23742 17.3986 2.89994 16.4792L1.58494 15.1662C1.02343 14.6047 0.596253 13.9234 0.335389 13.1733C0.0745246 12.4233 -0.0132627 11.6239 0.0786013 10.8352C0.170465 10.0464 0.4396 9.28861 0.865849 8.61859C1.2921 7.94857 1.86441 7.38367 2.53994 6.9662L8.30694 3.4002C9.86915 2.39898 11.7063 1.91356 13.5592 2.01242C15.4121 2.11128 17.1871 2.78944 18.6339 3.9512L20.2929 2.2922C20.3852 2.19669 20.4955 2.12051 20.6175 2.0681C20.7395 2.01569 20.8708 1.98811 21.0035 1.98695C21.1363 1.9858 21.268 2.0111 21.3909 2.06138C21.5138 2.11166 21.6254 2.18592 21.7193 2.27981C21.8132 2.3737 21.8875 2.48535 21.9378 2.60825C21.988 2.73115 22.0133 2.86283 22.0122 2.9956C22.011 3.12838 21.9834 3.2596 21.931 3.38161C21.8786 3.50361 21.8024 3.61396 21.7069 3.7062L20.0499 5.3642C21.1613 6.75644 21.8319 8.44863 21.976 10.2242C22.1202 11.9998 21.7312 13.778 20.8589 15.3312ZM8.06494 21.6472L4.34594 17.9272C4.05531 18.447 3.94322 19.0477 4.02686 19.6373C4.11049 20.2269 4.38523 20.7728 4.80894 21.1912C5.23636 21.5972 5.78001 21.8594 6.36383 21.9412C6.94765 22.023 7.54243 21.9202 8.06494 21.6472ZM17.9859 6.0472C16.8755 4.92604 15.4137 4.22023 13.8451 4.04784C12.2766 3.87546 10.6964 4.24696 9.36894 5.1002L3.59194 8.6662C3.17298 8.92517 2.81804 9.27557 2.55369 9.69116C2.28935 10.1067 2.12246 10.5768 2.06551 11.066C2.00857 11.5552 2.06304 12.051 2.22487 12.5162C2.38669 12.9814 2.65166 13.4039 2.99994 13.7522L10.2899 21.0432C10.6388 21.3924 11.0623 21.658 11.5285 21.82C11.9948 21.982 12.4917 22.0361 12.982 21.9784C13.4722 21.9206 13.9429 21.7525 14.3588 21.4866C14.7746 21.2207 15.1248 20.8639 15.3829 20.4432L19.1379 14.3182C19.8714 13.0009 20.1556 11.4806 19.9478 9.9873C19.7399 8.49401 19.0512 7.1091 17.9859 6.0422V6.0472ZM19.2649 24.0002C19.0537 24.0006 18.8479 23.9341 18.6768 23.8103C18.5057 23.6865 18.3782 23.5116 18.3126 23.3109C18.247 23.1102 18.2466 22.8938 18.3115 22.6929C18.3764 22.4919 18.5033 22.3166 18.6739 22.1922C20.4249 20.8758 21.61 18.9429 21.9889 16.7852C22.0155 16.6553 22.0676 16.532 22.1423 16.4225C22.217 16.3129 22.3127 16.2193 22.4239 16.1471C22.535 16.0748 22.6595 16.0254 22.7899 16.0017C22.9203 15.978 23.0542 15.9805 23.1837 16.009C23.3131 16.0375 23.4357 16.0915 23.5441 16.1678C23.6525 16.2441 23.7447 16.3412 23.8153 16.4534C23.8858 16.5657 23.9333 16.6908 23.9551 16.8216C23.9768 16.9524 23.9724 17.0862 23.9419 17.2152C23.4519 19.8469 21.9933 22.1993 19.8539 23.8082C19.6829 23.9329 19.4766 24.0002 19.2649 24.0002ZM0.999937 5.7392C0.81524 5.73838 0.634379 5.68642 0.477408 5.58909C0.320437 5.49175 0.19349 5.35285 0.110642 5.18777C0.0277933 5.0227 -0.00771885 4.8379 0.00804285 4.65388C0.0238045 4.46985 0.0902242 4.29379 0.199937 4.1452C1.83092 1.96579 4.23176 0.490526 6.91294 0.020204C7.17285 -0.0328393 7.44319 0.0195396 7.66448 0.165818C7.88577 0.312096 8.03989 0.540292 8.09294 0.800204C8.14598 1.06012 8.0936 1.33045 7.94732 1.55175C7.80104 1.77304 7.57285 1.92716 7.31294 1.9802C5.11091 2.34383 3.13517 3.54583 1.79994 5.3342C1.70731 5.45932 1.58676 5.56109 1.44788 5.6314C1.30899 5.70171 1.15561 5.73862 0.999937 5.7392Z" fill="black"/>
</g>
<defs>
<clipPath id="clip0">
<rect width="24" height="24" fill="white"/>
</clipPath>
</defs>
</svg>
