<svg width="24" height="24" viewBox="0 0 24 24" fill="none" xmlns="http://www.w3.org/2000/svg">
<g clip-path="url(#clip0)">
<path d="M17.1148 8.04981C16.8281 8.12598 16.5704 8.28546 16.3744 8.50807C16.1783 8.73068 16.0526 9.00644 16.0133 9.30047C15.9739 9.59449 16.0226 9.89359 16.1532 10.1599C16.2838 10.4263 16.4905 10.6479 16.7471 10.7968C17.0036 10.9458 17.2986 11.0152 17.5946 10.9965C17.8907 10.9778 18.1746 10.8717 18.4103 10.6917C18.6461 10.5116 18.8232 10.2657 18.9192 9.98507C19.0153 9.70439 19.0259 9.40154 18.9498 9.11481C18.8993 8.92437 18.8117 8.74576 18.6922 8.58917C18.5726 8.43258 18.4234 8.30108 18.2529 8.20218C18.0825 8.10328 17.8943 8.03892 17.699 8.01278C17.5038 7.98663 17.3052 7.99922 17.1148 8.04981Z" fill="black"/>
<path d="M12.1148 5.04981C11.8281 5.12598 11.5704 5.28546 11.3744 5.50807C11.1783 5.73068 11.0526 6.00644 11.0133 6.30047C10.9739 6.59449 11.0226 6.89359 11.1532 7.15994C11.2838 7.42629 11.4905 7.64793 11.7471 7.79684C12.0036 7.94575 12.2986 8.01524 12.5946 7.99652C12.8907 7.97781 13.1746 7.87172 13.4103 7.69169C13.6461 7.51165 13.8232 7.26575 13.9192 6.98507C14.0153 6.70439 14.0259 6.40154 13.9498 6.11481C13.8993 5.92437 13.8117 5.74576 13.6922 5.58917C13.5726 5.43258 13.4234 5.30108 13.2529 5.20218C13.0825 5.10328 12.8943 5.03892 12.699 5.01278C12.5038 4.98663 12.3052 4.99922 12.1148 5.04981Z" fill="black"/>
<path d="M7.11483 8.04981C6.82812 8.12598 6.57044 8.28546 6.37437 8.50807C6.17829 8.73068 6.05263 9.00644 6.01327 9.30047C5.9739 9.59449 6.0226 9.89359 6.15322 10.1599C6.28383 10.4263 6.49048 10.6479 6.74705 10.7968C7.00362 10.9458 7.29859 11.0152 7.59465 10.9965C7.89071 10.9778 8.17457 10.8717 8.41034 10.6917C8.64612 10.5116 8.82321 10.2657 8.91924 9.98507C9.01527 9.70439 9.02591 9.40154 8.94983 9.11481C8.8993 8.92437 8.81175 8.74576 8.69217 8.58917C8.5726 8.43258 8.42335 8.30108 8.25295 8.20218C8.08254 8.10328 7.89433 8.03892 7.69905 8.01278C7.50377 7.98663 7.30525 7.99922 7.11483 8.04981Z" fill="black"/>
<path d="M7.11483 14.0498C6.82812 14.126 6.57044 14.2855 6.37437 14.5081C6.17829 14.7307 6.05263 15.0064 6.01327 15.3005C5.9739 15.5945 6.0226 15.8936 6.15322 16.1599C6.28383 16.4263 6.49048 16.6479 6.74705 16.7968C7.00362 16.9458 7.29859 17.0152 7.59465 16.9965C7.89071 16.9778 8.17457 16.8717 8.41034 16.6917C8.64612 16.5116 8.82321 16.2657 8.91924 15.9851C9.01527 15.7044 9.02591 15.4015 8.94983 15.1148C8.8993 14.9244 8.81175 14.7458 8.69217 14.5892C8.5726 14.4326 8.42335 14.3011 8.25295 14.2022C8.08254 14.1033 7.89433 14.0389 7.69905 14.0128C7.50377 13.9866 7.30525 13.9992 7.11483 14.0498Z" fill="black"/>
<path d="M12.5 0.0067597C10.89 -0.049222 9.28519 0.21955 7.78128 0.797052C6.27736 1.37455 4.90512 2.24896 3.74637 3.36814C2.58762 4.48733 1.66609 5.82837 1.0367 7.31132C0.407318 8.79428 0.0829746 10.3888 0.0830078 11.9998C0.086713 15.1812 1.35219 18.2313 3.60182 20.4809C5.85145 22.7306 8.90155 23.9961 12.083 23.9998C12.421 23.9998 12.753 23.9778 13.083 23.9498C13.3334 23.9287 13.5667 23.8141 13.7364 23.6288C13.9061 23.4435 13.9999 23.201 13.999 22.9498L13.967 19.3618C13.9589 18.6527 14.1623 17.9574 14.5512 17.3645C14.9402 16.7716 15.497 16.3081 16.1506 16.0331C16.8042 15.7582 17.5249 15.6842 18.2207 15.8208C18.9165 15.9573 19.5558 16.2982 20.057 16.7998L20.157 16.8998C20.384 17.1287 20.6653 17.2965 20.9745 17.3876C21.2838 17.4787 21.6111 17.4901 21.926 17.4208C22.2358 17.3557 22.5243 17.2139 22.7649 17.0082C23.0055 16.8025 23.1906 16.5397 23.303 16.2438C23.8551 14.7941 24.1191 13.2505 24.08 11.6998C23.9675 8.65377 22.7146 5.76124 20.5698 3.59549C18.425 1.42974 15.5448 0.148872 12.5 0.0067597ZM21.482 15.4068L21.468 15.3928C20.6864 14.6124 19.6902 14.0822 18.6064 13.8696C17.5225 13.657 16.3999 13.7716 15.3814 14.1989C14.3629 14.6261 13.4945 15.3467 12.8866 16.2689C12.2788 17.1911 11.959 18.2733 11.968 19.3778L11.992 21.9998C9.33984 21.9878 6.80104 20.9228 4.93412 19.039C3.0672 17.1552 2.02507 14.6069 2.03701 11.9548C2.04894 9.3026 3.11396 6.7638 4.99776 4.89687C6.88156 3.02995 9.42984 1.98782 12.082 1.99976C12.199 1.99976 12.317 1.99976 12.435 2.00576C14.9714 2.12489 17.3705 3.1925 19.1568 4.99702C20.9432 6.80155 21.9865 9.2113 22.08 11.7488C22.113 12.9923 21.9112 14.231 21.485 15.3998L21.482 15.4068Z" fill="black"/>
</g>
<defs>
<clipPath id="clip0">
<rect width="24" height="24" fill="white"/>
</clipPath>
</defs>
</svg>
