<svg width="24" height="24" viewBox="0 0 24 24" fill="none" xmlns="http://www.w3.org/2000/svg">
<g clip-path="url(#clip0)">
<path d="M12 9.99999C10.6514 9.99955 9.30605 10.1335 7.984 10.4L7.978 8.11499L12.987 6.03899C13.2921 5.88396 13.5523 5.65322 13.7428 5.36886C13.9332 5.08451 14.0475 4.75604 14.0747 4.41488C14.1019 4.07373 14.041 3.73131 13.8981 3.42037C13.7551 3.10944 13.5347 2.8404 13.258 2.63899C13.2263 2.61498 13.1928 2.59325 13.158 2.57399L8.9 0.211991C8.59494 0.0582676 8.25558 -0.0147548 7.91429 -0.000115495C7.573 0.0145239 7.24114 0.116337 6.95036 0.295618C6.65958 0.474899 6.41957 0.725672 6.2532 1.02403C6.08684 1.32239 5.99967 1.65838 6 1.99999V10.914C2.391 12.109 0 14.36 0 17C0 20.925 5.271 24 12 24C18.729 24 24 20.925 24 17C24 13.075 18.729 9.99999 12 9.99999ZM12.073 4.25499L7.973 5.95499L7.963 1.98399L12.073 4.25499ZM12 22C6.58 22 2 19.71 2 17C2 15.406 3.591 13.961 6 13.038V17C6 17.2652 6.10536 17.5196 6.29289 17.7071C6.48043 17.8946 6.73478 18 7 18C7.26522 18 7.51957 17.8946 7.70711 17.7071C7.89464 17.5196 8 17.2652 8 17L7.989 12.44C9.30562 12.1455 10.6508 11.9979 12 12C17.42 12 22 14.29 22 17C22 19.71 17.42 22 12 22ZM17 17C17 17.3956 16.8827 17.7822 16.6629 18.1111C16.4432 18.44 16.1308 18.6964 15.7654 18.8477C15.3999 18.9991 14.9978 19.0387 14.6098 18.9616C14.2219 18.8844 13.8655 18.6939 13.5858 18.4142C13.3061 18.1345 13.1156 17.7781 13.0384 17.3902C12.9613 17.0022 13.0009 16.6001 13.1522 16.2346C13.3036 15.8692 13.56 15.5568 13.8889 15.3371C14.2178 15.1173 14.6044 15 15 15C15.5304 15 16.0391 15.2107 16.4142 15.5858C16.7893 15.9608 17 16.4696 17 17Z" fill="black"/>
</g>
<defs>
<clipPath id="clip0">
<rect width="24" height="24" fill="white"/>
</clipPath>
</defs>
</svg>
