<svg width="24" height="24" viewBox="0 0 24 24" fill="none" xmlns="http://www.w3.org/2000/svg">
<g clip-path="url(#clip0)">
<path d="M22.9999 23.9996C22.7347 23.9996 22.4803 23.8943 22.2928 23.7067C22.1053 23.5192 21.9999 23.2649 21.9999 22.9996C21.9983 21.4088 21.3657 19.8836 20.2408 18.7587C19.1159 17.6339 17.5907 17.0012 15.9999 16.9996H10.1699V18.5856C10.1698 18.9811 10.0525 19.3677 9.8327 19.6966C9.61293 20.0254 9.3006 20.2817 8.9352 20.433C8.5698 20.5843 8.16774 20.6239 7.77983 20.5468C7.39193 20.4697 7.0356 20.2793 6.75589 19.9996L0.876894 14.1206C0.314481 13.5581 -0.00146484 12.7951 -0.00146484 11.9996C-0.00146484 11.2041 0.314481 10.4412 0.876894 9.87864L6.75589 3.99964C7.0356 3.72002 7.39193 3.5296 7.77983 3.45247C8.16774 3.37533 8.5698 3.41494 8.9352 3.56628C9.3006 3.71762 9.61293 3.9739 9.8327 4.30272C10.0525 4.63154 10.1698 5.01814 10.1699 5.41364V6.99964H14.9999C17.386 7.00228 19.6737 7.95134 21.3609 9.6386C23.0482 11.3259 23.9972 13.6135 23.9999 15.9996V22.9996C23.9999 23.2649 23.8945 23.5192 23.707 23.7067C23.5195 23.8943 23.2651 23.9996 22.9999 23.9996ZM8.16989 5.41364L2.29089 11.2926C2.10342 11.4802 1.99811 11.7345 1.99811 11.9996C1.99811 12.2648 2.10342 12.5191 2.29089 12.7066L8.16989 18.5856V15.9996C8.16989 15.7344 8.27525 15.4801 8.46279 15.2925C8.65032 15.105 8.90468 14.9996 9.16989 14.9996H15.9999C17.1355 14.9993 18.2581 15.2412 19.2927 15.7092C20.3274 16.1772 21.2503 16.8606 21.9999 17.7136V15.9996C21.9978 14.1438 21.2596 12.3645 19.9473 11.0522C18.635 9.73993 16.8558 9.00175 14.9999 8.99964H9.16989C8.90468 8.99964 8.65032 8.89428 8.46279 8.70674C8.27525 8.51921 8.16989 8.26485 8.16989 7.99964V5.41364Z" fill="black"/>
</g>
<defs>
<clipPath id="clip0">
<rect width="24" height="24" fill="white"/>
</clipPath>
</defs>
</svg>
