<svg width="24" height="24" viewBox="0 0 24 24" fill="none" xmlns="http://www.w3.org/2000/svg">
<g clip-path="url(#clip0)">
<path d="M15 12C15 12.2652 14.8946 12.5196 14.7071 12.7071C14.5196 12.8947 14.2652 13 14 13H13V17.5C13 17.9945 12.8534 18.4778 12.5787 18.8889C12.304 19.3001 11.9135 19.6205 11.4567 19.8097C10.9999 19.9989 10.4972 20.0484 10.0123 19.952C9.52732 19.8555 9.08186 19.6174 8.73223 19.2678C8.3826 18.9182 8.1445 18.4727 8.04804 17.9877C7.95157 17.5028 8.00108 17.0001 8.1903 16.5433C8.37952 16.0865 8.69995 15.6961 9.11107 15.4213C9.5222 15.1466 10.0055 15 10.5 15C10.6679 15.0004 10.8354 15.0171 11 15.05V13C11 12.4696 11.2107 11.9609 11.5858 11.5858C11.9609 11.2107 12.4696 11 13 11H14C14.2652 11 14.5196 11.1054 14.7071 11.2929C14.8946 11.4805 15 11.7348 15 12ZM22 10.485V19C21.9984 20.3256 21.4711 21.5965 20.5338 22.5338C19.5964 23.4711 18.3256 23.9984 17 24H7C5.67441 23.9984 4.40356 23.4711 3.46622 22.5338C2.52888 21.5965 2.00159 20.3256 2 19V5.00002C2.00159 3.67443 2.52888 2.40358 3.46622 1.46624C4.40356 0.528906 5.67441 0.00161157 7 2.37119e-05H11.515C12.4347 -0.00237779 13.3458 0.177659 14.1954 0.529713C15.0451 0.881767 15.8165 1.39885 16.465 2.05102L19.949 5.53502C20.6012 6.18352 21.1183 6.95492 21.4703 7.80459C21.8224 8.65425 22.0024 9.56531 22 10.485ZM15.051 3.46502C14.7365 3.15965 14.3831 2.89705 14 2.68402V7.00002C14 7.26524 14.1054 7.51959 14.2929 7.70713C14.4804 7.89467 14.7348 8.00002 15 8.00002H19.316C19.103 7.6169 18.8404 7.26352 18.535 6.94902L15.051 3.46502ZM20 10.485C20 10.32 19.968 10.162 19.953 10H15C14.2044 10 13.4413 9.68395 12.8787 9.12134C12.3161 8.55874 12 7.79567 12 7.00002V2.04702C11.838 2.03202 11.68 2.00002 11.515 2.00002H7C6.20435 2.00002 5.44129 2.31609 4.87868 2.8787C4.31607 3.44131 4 4.20437 4 5.00002V19C4 19.7957 4.31607 20.5587 4.87868 21.1213C5.44129 21.684 6.20435 22 7 22H17C17.7956 22 18.5587 21.684 19.1213 21.1213C19.6839 20.5587 20 19.7957 20 19V10.485Z" fill="black"/>
</g>
<defs>
<clipPath id="clip0">
<rect width="24" height="24" fill="white"/>
</clipPath>
</defs>
</svg>
