<svg width="24" height="24" viewBox="0 0 24 24" fill="none" xmlns="http://www.w3.org/2000/svg">
<g clip-path="url(#clip0)">
<path d="M12 6C11.7348 6 11.4804 6.10536 11.2929 6.29289C11.1054 6.48043 11 6.73478 11 7V12C11.0001 12.2652 11.1055 12.5195 11.293 12.707L14.293 15.707C14.4816 15.8892 14.7342 15.99 14.9964 15.9877C15.2586 15.9854 15.5094 15.8802 15.6948 15.6948C15.8802 15.5094 15.9854 15.2586 15.9877 14.9964C15.99 14.7342 15.8892 14.4816 15.707 14.293L13 11.586V7C13 6.73478 12.8946 6.48043 12.7071 6.29289C12.5196 6.10536 12.2652 6 12 6Z" fill="black"/>
<path d="M23.8119 10.132C23.4686 7.95784 22.534 5.91997 21.1102 4.24136C19.6865 2.56275 17.8285 1.30808 15.7395 0.614599C13.6505 -0.0788766 11.411 -0.184432 9.266 0.309482C7.12104 0.803396 5.15324 1.87775 3.57791 3.415V1C3.57791 0.734784 3.47255 0.48043 3.28502 0.292893C3.09748 0.105357 2.84313 0 2.57791 0C2.31269 0 2.05834 0.105357 1.8708 0.292893C1.68327 0.48043 1.57791 0.734784 1.57791 1V5C1.57791 5.53043 1.78862 6.03914 2.1637 6.41421C2.53877 6.78929 3.04748 7 3.57791 7H7.57791C7.84313 7 8.09748 6.89464 8.28502 6.70711C8.47255 6.51957 8.57791 6.26522 8.57791 6C8.57791 5.73478 8.47255 5.48043 8.28502 5.29289C8.09748 5.10536 7.84313 5 7.57791 5H4.82691C6.42491 3.37763 8.52923 2.3499 10.7912 2.08709C13.0532 1.82428 15.3371 2.34216 17.2645 3.55494C19.1919 4.76771 20.6471 6.60257 21.3891 8.75553C22.131 10.9085 22.1151 13.2503 21.344 15.393C20.573 17.5357 19.093 19.3507 17.1493 20.5372C15.2056 21.7237 12.9149 22.2105 10.6567 21.917C8.39846 21.6236 6.30828 20.5674 4.73244 18.9235C3.1566 17.2796 2.18969 15.1466 1.99191 12.878C1.96598 12.6342 1.84982 12.409 1.66626 12.2465C1.4827 12.0841 1.24501 11.9961 0.99991 12C0.860055 12.0004 0.721811 12.0299 0.593988 12.0866C0.466164 12.1434 0.351563 12.2261 0.257486 12.3296C0.163409 12.4331 0.0919196 12.555 0.0475725 12.6877C0.0032253 12.8203 -0.0130071 12.9607 -9.04682e-05 13.1C0.158045 14.6934 0.633486 16.2391 1.39822 17.6459C2.16296 19.0528 3.20153 20.2923 4.45273 21.2916C5.70394 22.2908 7.14248 23.0296 8.6836 23.4643C10.2247 23.899 11.8373 24.0208 13.4262 23.8227C15.0152 23.6245 16.5484 23.1104 17.9356 22.3105C19.3227 21.5106 20.5358 20.4412 21.5033 19.1653C22.4707 17.8894 23.1731 16.4327 23.5689 14.8811C23.9647 13.3296 24.046 11.7145 23.8079 10.131L23.8119 10.132Z" fill="black"/>
</g>
<defs>
<clipPath id="clip0">
<rect width="24" height="24" fill="white"/>
</clipPath>
</defs>
</svg>
