<svg width="24" height="24" viewBox="0 0 24 24" fill="none" xmlns="http://www.w3.org/2000/svg">
<g clip-path="url(#clip0)">
<path d="M23.7152 2.28515C23.5254 2.09597 23.2683 1.98975 23.0002 1.98975C22.7322 1.98975 22.4751 2.09597 22.2852 2.28515L17.5212 7.04915L17.2012 6.73615C16.3576 5.9121 15.2501 5.41224 14.0741 5.32461C12.898 5.23699 11.7287 5.56723 10.7722 6.25715C9.39178 7.29815 7.85732 8.11734 6.22424 8.68515L4.15024 9.29315C3.47629 9.49099 2.85118 9.82762 2.31506 10.2814C1.77894 10.7352 1.34368 11.2961 1.03724 11.9282C0.73585 12.5516 0.567982 13.2311 0.544391 13.9232C0.520799 14.6153 0.642005 15.3046 0.900244 15.9471C1.87902 18.3499 3.55696 20.4033 5.71657 21.8411C7.87617 23.279 10.4179 24.035 13.0122 24.0112H13.9362C14.143 24.011 14.3447 23.9475 14.5142 23.8292C16.2744 22.6802 17.7788 21.1806 18.9333 19.424C20.0878 17.6675 20.8677 15.6917 21.2242 13.6201C21.3483 12.828 21.2811 12.0178 21.0283 11.2569C20.7756 10.496 20.3446 9.80661 19.7712 9.24615L18.9712 8.46215L23.7182 3.71515C23.907 3.52489 24.0127 3.26756 24.0121 2.99953C24.0116 2.7315 23.9048 2.47462 23.7152 2.28515ZM13.6082 21.9852H13.0082C11.5307 21.9872 10.0671 21.6994 8.70024 21.1382L8.71124 21.1322C10.4601 20.2546 11.9573 18.947 13.0622 17.3322L13.5802 16.5711C13.7312 16.3497 13.7879 16.0774 13.738 15.8141C13.6881 15.5508 13.5357 15.3181 13.3142 15.1671C13.0928 15.0162 12.8205 14.9595 12.5572 15.0094C12.2939 15.0593 12.0612 15.2117 11.9102 15.4331L11.3922 16.1941C10.4794 17.5257 9.2435 18.6037 7.80024 19.3272L6.54924 19.9572C5.54836 19.2536 4.67483 18.3845 3.96624 17.3871C5.60522 16.8357 7.10054 15.9256 8.34324 14.7231C8.535 14.5356 8.64441 14.2796 8.64741 14.0115C8.65041 13.7433 8.54675 13.4849 8.35924 13.2931C8.17174 13.1014 7.91573 12.992 7.64756 12.989C7.37938 12.986 7.121 13.0896 6.92924 13.2772C5.81013 14.3615 4.44428 15.1577 2.94924 15.5971C2.88824 15.4621 2.82224 15.3301 2.76724 15.1911C2.61237 14.8108 2.53987 14.4019 2.55452 13.9915C2.56917 13.5811 2.67064 13.1785 2.85224 12.8102C3.0361 12.4319 3.29684 12.0962 3.6178 11.8245C3.93876 11.5528 4.31288 11.3511 4.71624 11.2322L6.78924 10.6241C7.9922 10.2377 9.14289 9.70434 10.2152 9.03615L18.1302 16.7481C17.0786 18.8416 15.5251 20.6422 13.6082 21.9892V21.9852ZM19.2282 13.3021C19.1518 13.77 19.0486 14.2331 18.9192 14.6891L11.9482 7.90015C12.4597 7.53258 13.0734 7.33463 13.7032 7.33415C14.4823 7.33316 15.2306 7.63803 15.7872 8.18315L18.3562 10.6922C18.6992 11.027 18.9573 11.4388 19.1089 11.8935C19.2606 12.3482 19.3015 12.8325 19.2282 13.3061V13.3021Z" fill="black"/>
</g>
<defs>
<clipPath id="clip0">
<rect width="24" height="24" fill="white"/>
</clipPath>
</defs>
</svg>
