<svg width="24" height="24" viewBox="0 0 24 24" fill="none" xmlns="http://www.w3.org/2000/svg">
<path d="M19 5H5C3.67441 5.00159 2.40356 5.52888 1.46622 6.46622C0.528882 7.40356 0.00158786 8.67441 0 10L0 14C0.00158786 15.3256 0.528882 16.5964 1.46622 17.5338C2.40356 18.4711 3.67441 18.9984 5 19H19C20.3256 18.9984 21.5964 18.4711 22.5338 17.5338C23.4711 16.5964 23.9984 15.3256 24 14V10C23.9984 8.67441 23.4711 7.40356 22.5338 6.46622C21.5964 5.52888 20.3256 5.00159 19 5ZM22 14C22 14.7956 21.6839 15.5587 21.1213 16.1213C20.5587 16.6839 19.7956 17 19 17H5C4.20435 17 3.44129 16.6839 2.87868 16.1213C2.31607 15.5587 2 14.7956 2 14V10C2 9.20435 2.31607 8.44129 2.87868 7.87868C3.44129 7.31607 4.20435 7 5 7H19C19.7956 7 20.5587 7.31607 21.1213 7.87868C21.6839 8.44129 22 9.20435 22 10V14Z" fill="black"/>
</svg>
