<svg width="24" height="24" viewBox="0 0 24 24" fill="none" xmlns="http://www.w3.org/2000/svg">
<g clip-path="url(#clip0)">
<path d="M11.9998 23.9999C10.5758 24.003 9.20791 23.4455 8.19178 22.4479L4.24978 18.8049C3.20462 17.7903 2.37137 16.5783 1.7984 15.2391C1.22542 13.8999 0.924126 12.4602 0.912002 11.0037C0.899878 9.5471 1.17716 8.10263 1.72777 6.75409C2.27837 5.40554 3.09133 4.17978 4.11946 3.14795C5.14759 2.11611 6.37041 1.29875 7.71696 0.743293C9.06351 0.187837 10.507 -0.094648 11.9636 -0.0877679C13.4202 -0.0808878 14.8609 0.21522 16.2022 0.783372C17.5434 1.35152 18.7584 2.1804 19.7768 3.2219C21.8396 5.28479 22.9984 8.08261 22.9984 10.9999C22.9984 13.9172 21.8396 16.715 19.7768 18.7779L15.7858 22.4669C14.7738 23.4548 13.414 24.0054 11.9998 23.9999ZM11.9998 1.9999C10.2197 1.99989 8.47967 2.52772 6.99961 3.51665C5.51955 4.50558 4.36599 5.9112 3.68479 7.55574C3.0036 9.20029 2.82537 11.0099 3.17264 12.7557C3.51991 14.5016 4.37709 16.1052 5.63578 17.3639L9.56978 20.9999C10.2205 21.6217 11.0849 21.9703 11.985 21.9738C12.885 21.9773 13.7522 21.6356 14.4078 21.0189L18.3918 17.3369C20.0672 15.6464 21.0048 13.361 20.9994 10.9809C20.994 8.6008 20.0459 6.31975 18.3628 4.6369C17.5292 3.79845 16.5376 3.13366 15.4454 2.68102C14.3532 2.22837 13.1821 1.99687 11.9998 1.9999ZM11.9998 17.9999C10.6153 17.9999 9.26193 17.5894 8.11079 16.8202C6.95965 16.051 6.06244 14.9578 5.53262 13.6787C5.00281 12.3996 4.86419 10.9921 5.13428 9.63427C5.40438 8.27641 6.07107 7.02912 7.05003 6.05016C8.029 5.07119 9.27628 4.4045 10.6341 4.13441C11.992 3.86431 13.3995 4.00293 14.6786 4.53275C15.9576 5.06256 17.0509 5.95977 17.8201 7.11091C18.5892 8.26206 18.9998 9.61544 18.9998 10.9999C18.9977 12.8558 18.2595 14.635 16.9472 15.9473C15.6349 17.2596 13.8556 17.9978 11.9998 17.9999ZM11.9998 5.9999C11.0109 5.9999 10.0442 6.29315 9.22193 6.84256C8.39968 7.39196 7.75882 8.17286 7.38038 9.08649C7.00195 10.0001 6.90293 11.0055 7.09586 11.9754C7.28878 12.9453 7.76499 13.8362 8.46425 14.5354C9.16351 15.2347 10.0544 15.7109 11.0243 15.9038C11.9942 16.0968 12.9996 15.9977 13.9132 15.6193C14.8268 15.2409 15.6077 14.6 16.1571 13.7778C16.7065 12.9555 16.9998 11.9888 16.9998 10.9999C16.9982 9.67431 16.4709 8.40346 15.5336 7.46612C14.5962 6.52879 13.3254 6.00149 11.9998 5.9999ZM13.7068 12.7069C13.8943 12.5194 13.9996 12.2651 13.9996 11.9999C13.9996 11.7347 13.8943 11.4804 13.7068 11.2929L12.9998 10.5859V8.9999C12.9998 8.73469 12.8944 8.48033 12.7069 8.2928C12.5194 8.10526 12.265 7.9999 11.9998 7.9999C11.7346 7.9999 11.4802 8.10526 11.2927 8.2928C11.1051 8.48033 10.9998 8.73469 10.9998 8.9999V10.9999C10.9998 11.2651 11.1052 11.5194 11.2928 11.7069L12.2928 12.7069C12.4803 12.8944 12.7346 12.9997 12.9998 12.9997C13.2649 12.9997 13.5193 12.8944 13.7068 12.7069Z" fill="black"/>
</g>
<defs>
<clipPath id="clip0">
<rect width="24" height="24" fill="white"/>
</clipPath>
</defs>
</svg>
