<svg width="24" height="24" viewBox="0 0 24 24" fill="none" xmlns="http://www.w3.org/2000/svg">
<g clip-path="url(#clip0)">
<path d="M18.7458 20.3338C18.8334 20.4318 18.9007 20.5462 18.9441 20.6703C18.9874 20.7944 19.0058 20.9258 18.9983 21.0571C18.9908 21.1883 18.9574 21.3168 18.9002 21.4351C18.843 21.5535 18.763 21.6594 18.6648 21.7468L17.0788 23.1608C16.8071 23.4298 16.4848 23.6424 16.1306 23.7864C15.7764 23.9304 15.3972 24.0029 15.0148 23.9998C14.6183 24.0006 14.2254 23.9231 13.8589 23.7717C13.4924 23.6204 13.1593 23.3981 12.8788 23.1178L11.3348 21.7438C11.2367 21.6565 11.1568 21.5507 11.0996 21.4324C11.0424 21.3142 11.009 21.1859 11.0014 21.0548C10.986 20.79 11.0764 20.5299 11.2528 20.3318C11.4292 20.1337 11.677 20.0137 11.9418 19.9984C12.0729 19.9907 12.2043 20.009 12.3283 20.0522C12.4524 20.0953 12.5667 20.1625 12.6648 20.2498L13.9998 21.4438V13.9998C13.9998 13.7346 14.1052 13.4802 14.2927 13.2927C14.4802 13.1051 14.7346 12.9998 14.9998 12.9998C15.265 12.9998 15.5194 13.1051 15.7069 13.2927C15.8945 13.4802 15.9998 13.7346 15.9998 13.9998V21.4448L17.3348 20.2528C17.5327 20.0766 17.7925 19.9861 18.0571 20.0013C18.3216 20.0165 18.5694 20.1361 18.7458 20.3338ZM18.3558 7.36079C18.1841 7.30747 18.0283 7.21243 17.9023 7.08417C17.7763 6.95591 17.6841 6.79842 17.6338 6.62579C17.1043 4.92588 16.0229 3.45118 14.5608 2.4352C13.0986 1.41923 11.3394 0.920037 9.56151 1.01668C7.78367 1.11333 6.08888 1.80028 4.74549 2.96877C3.40211 4.13726 2.48691 5.7205 2.14482 7.46779C1.7938 9.2348 2.07708 11.069 2.94482 12.6478C1.93326 13.17 1.11072 13.996 0.592733 15.0098C0.0747427 16.0235 -0.112671 17.1741 0.0568164 18.2998C0.317468 19.6076 1.01763 20.7869 2.04103 21.6419C3.06444 22.4968 4.3495 22.976 5.68282 22.9998H7.99982C8.26503 22.9998 8.51939 22.8944 8.70692 22.7069C8.89446 22.5194 8.99982 22.265 8.99982 21.9998C8.99982 21.7346 8.89446 21.4802 8.70692 21.2927C8.51939 21.1051 8.26503 20.9998 7.99982 20.9998H5.68282C4.82877 20.9834 4.00502 20.6805 3.34381 20.1397C2.6826 19.5989 2.2223 18.8516 2.03682 18.0178C1.92823 17.3014 2.04671 16.5689 2.37564 15.9232C2.70457 15.2776 3.22742 14.7511 3.87082 14.4178C4.32941 14.1643 4.66974 13.7405 4.81816 13.238C4.96657 12.7355 4.91112 12.1947 4.66382 11.7328C4.27553 10.9922 4.04631 10.1787 3.99087 9.34438C3.93544 8.51004 4.055 7.67334 4.3419 6.88792C4.6288 6.10251 5.0767 5.38574 5.65686 4.78358C6.23702 4.18142 6.93664 3.70718 7.71084 3.39127C8.48504 3.07536 9.31672 2.92476 10.1525 2.94913C10.9884 2.9735 11.8099 3.1723 12.5643 3.53279C13.3188 3.89327 13.9896 4.40747 14.5337 5.04241C15.0778 5.67734 15.4832 6.419 15.7238 7.21979C15.8718 7.7025 16.1355 8.14175 16.4919 8.49937C16.8483 8.85699 17.2866 9.12214 17.7688 9.27179C19.0751 9.66928 20.2057 10.5025 20.9722 11.6325C21.7386 12.7625 22.0946 14.1211 21.9808 15.4818C21.9055 16.5398 21.519 17.5519 20.8698 18.3908C20.7082 18.6011 20.6367 18.867 20.6711 19.13C20.7055 19.3931 20.843 19.6316 21.0533 19.7933C21.2636 19.9549 21.5296 20.0264 21.7926 19.992C22.0556 19.9576 22.2942 19.8201 22.4558 19.6098C23.3368 18.4611 23.8649 17.0812 23.9758 15.6378C24.1268 13.8235 23.6514 12.0122 22.6287 10.506C21.606 8.99982 20.0979 7.88971 18.3558 7.36079Z" fill="black"/>
</g>
<defs>
<clipPath id="clip0">
<rect width="24" height="24" fill="white"/>
</clipPath>
</defs>
</svg>
