<svg width="24" height="24" viewBox="0 0 24 24" fill="none" xmlns="http://www.w3.org/2000/svg">
<g clip-path="url(#clip0)">
<path d="M18.7071 5.46198L14.1211 0.874985C13.5576 0.31428 12.795 -0.000488281 12.0001 -0.000488281C11.2052 -0.000488281 10.4426 0.31428 9.87908 0.874985L5.29308 5.46198C5.19757 5.55423 5.12139 5.66458 5.06898 5.78658C5.01657 5.90858 4.98898 6.0398 4.98783 6.17258C4.98668 6.30536 5.01198 6.43704 5.06226 6.55994C5.11254 6.68284 5.18679 6.79449 5.28069 6.88838C5.37458 6.98227 5.48623 7.05653 5.60913 7.10681C5.73202 7.15709 5.8637 7.18239 5.99648 7.18124C6.12926 7.18008 6.26048 7.1525 6.38249 7.10009C6.50449 7.04768 6.61483 6.97149 6.70708 6.87598L11.0001 2.58398V23C11.0001 23.2652 11.1054 23.5196 11.293 23.7071C11.4805 23.8946 11.7349 24 12.0001 24C12.2653 24 12.5197 23.8946 12.7072 23.7071C12.8947 23.5196 13.0001 23.2652 13.0001 23V2.58298L17.2931 6.87598C17.3853 6.97149 17.4957 7.04768 17.6177 7.10009C17.7397 7.1525 17.8709 7.18008 18.0037 7.18124C18.1365 7.18239 18.2681 7.15709 18.391 7.10681C18.5139 7.05653 18.6256 6.98227 18.7195 6.88838C18.8134 6.79449 18.8876 6.68284 18.9379 6.55994C18.9882 6.43704 19.0135 6.30536 19.0123 6.17258C19.0112 6.0398 18.9836 5.90858 18.9312 5.78658C18.8788 5.66458 18.8026 5.55423 18.7071 5.46198Z" fill="black"/>
</g>
<defs>
<clipPath id="clip0">
<rect width="24" height="24" fill="white"/>
</clipPath>
</defs>
</svg>
