<svg width="24" height="24" viewBox="0 0 24 24" fill="none" xmlns="http://www.w3.org/2000/svg">
<path d="M23.1188 0.881892C22.7602 0.519019 22.3142 0.254747 21.8237 0.114608C21.3332 -0.0255306 20.8149 -0.036799 20.3188 0.0818918L4.31877 3.45189C3.39734 3.57826 2.5295 3.95937 1.81297 4.5523C1.09644 5.14524 0.559679 5.92645 0.263141 6.80796C-0.0333971 7.68946 -0.0779367 8.63626 0.134538 9.54171C0.347013 10.4472 0.808063 11.2753 1.46577 11.9329L3.18377 13.6499C3.27675 13.7428 3.35049 13.8532 3.40077 13.9747C3.45104 14.0962 3.47687 14.2264 3.47677 14.3579V17.5259C3.47897 17.9713 3.58151 18.4105 3.77677 18.8109L3.76877 18.8179L3.79477 18.8439C4.08778 19.433 4.56635 19.9095 5.15677 20.1999L5.18277 20.2259L5.18977 20.2179C5.59013 20.4131 6.02934 20.5157 6.47477 20.5179H9.64277C9.90782 20.5177 10.1621 20.6227 10.3498 20.8099L12.0668 22.5269C12.5273 22.9925 13.0754 23.3624 13.6795 23.6152C14.2837 23.868 14.9319 23.9988 15.5868 23.9999C16.1325 23.9992 16.6745 23.9101 17.1918 23.7359C18.0652 23.4491 18.8411 22.9239 19.432 22.2196C20.0229 21.5153 20.4052 20.6599 20.5358 19.7499L23.9108 3.71489C24.0356 3.21453 24.0283 2.69031 23.8894 2.19365C23.7506 1.697 23.485 1.24496 23.1188 0.881892ZM4.59977 12.2379L2.88077 10.5209C2.48049 10.1303 2.19994 9.63354 2.07205 9.08905C1.94417 8.54456 1.97425 7.97489 2.15877 7.44689C2.33766 6.90522 2.66837 6.42632 3.11156 6.06715C3.55475 5.70799 4.09178 5.48368 4.65877 5.42089L20.4998 2.08589L5.47477 17.1129V14.3579C5.47628 13.9642 5.39973 13.5742 5.24954 13.2103C5.09935 12.8464 4.8785 12.5159 4.59977 12.2379ZM18.5708 19.4079C18.494 19.9602 18.2648 20.4802 17.9089 20.9095C17.553 21.3388 17.0844 21.6604 16.5559 21.8382C16.0274 22.0161 15.4597 22.043 14.9167 21.9161C14.3737 21.7892 13.8768 21.5135 13.4818 21.1199L11.7618 19.3999C11.4841 19.1207 11.1539 18.8994 10.7902 18.7487C10.4265 18.598 10.0365 18.5209 9.64277 18.5219H6.88777L21.9148 3.49989L18.5708 19.4079Z" fill="black"/>
</svg>
