<svg width="24" height="24" viewBox="0 0 24 24" fill="none" xmlns="http://www.w3.org/2000/svg">
<g clip-path="url(#clip0)">
<path d="M20.0001 0.00992631C16.1881 0.00992631 11.8751 2.04793 8.46113 5.46093C5.02784 8.86476 2.26696 12.8853 0.323132 17.3119C0.00529513 18.0472 -0.0835135 18.8612 0.0682958 19.6477C0.220105 20.4343 0.605482 21.1567 1.17413 21.7209L2.28013 22.8259C2.84323 23.3933 3.56408 23.7779 4.34885 23.9299C5.13362 24.0819 5.94596 23.9941 6.68013 23.6779C11.1095 21.7369 15.1316 18.9754 18.5341 15.5389C21.9521 12.1259 23.9901 7.81293 23.9901 3.99993C24.0464 3.46214 23.9818 2.91858 23.8012 2.40892C23.6205 1.89926 23.3284 1.43637 22.946 1.05402C22.5637 0.671676 22.1008 0.379524 21.5911 0.198889C21.0815 0.0182551 20.5379 -0.0463032 20.0001 0.00992631ZM17.1251 14.1249C13.903 17.3809 10.0945 19.9986 5.90013 21.8399C5.56662 21.9765 5.20247 22.0208 4.84596 21.968C4.48945 21.9152 4.15374 21.7673 3.87413 21.5399L16.7071 8.70693C16.8026 8.61468 16.8788 8.50433 16.9312 8.38233C16.9836 8.26033 17.0112 8.12911 17.0124 7.99633C17.0135 7.86355 16.9882 7.73187 16.938 7.60897C16.8877 7.48608 16.8134 7.37442 16.7195 7.28053C16.6256 7.18664 16.514 7.11239 16.3911 7.0621C16.2682 7.01182 16.1365 6.98652 16.0037 6.98768C15.871 6.98883 15.7397 7.01642 15.6177 7.06882C15.4957 7.12123 15.3854 7.19742 15.2931 7.29293L2.45713 20.1289C2.22947 19.8491 2.08146 19.513 2.02866 19.1561C1.97587 18.7992 2.02025 18.4347 2.15713 18.1009C4.00123 13.907 6.61964 10.0985 9.87513 6.87493C13.4631 3.28793 17.4581 2.00993 20.0001 2.00993C21.4511 2.00993 21.9901 2.54893 21.9901 3.99993C21.9901 6.54293 20.7121 10.5379 17.1251 14.1249Z" fill="black"/>
</g>
<defs>
<clipPath id="clip0">
<rect width="24" height="24" fill="white"/>
</clipPath>
</defs>
</svg>
