<svg width="24" height="24" viewBox="0 0 24 24" fill="none" xmlns="http://www.w3.org/2000/svg">
<g clip-path="url(#clip0)">
<path d="M20.9999 17.9998C20.2242 18.0007 19.4793 18.3034 18.9229 18.8438L15.9629 17.3628C15.9828 17.2427 15.9952 17.1214 15.9999 16.9998C15.9952 16.8781 15.9828 16.7569 15.9629 16.6368L18.9229 15.1558C19.4213 15.6332 20.0694 15.9237 20.7574 15.9783C21.4454 16.0328 22.1311 15.8479 22.6985 15.455C23.2659 15.062 23.6801 14.4851 23.871 13.8218C24.062 13.1586 24.0179 12.4498 23.7463 11.8153C23.4746 11.1808 22.9921 10.6597 22.3804 10.34C21.7687 10.0204 21.0654 9.92192 20.3894 10.0613C19.7135 10.2006 19.1064 10.5692 18.671 11.1047C18.2355 11.6401 17.9985 12.3096 17.9999 12.9998C18.0046 13.1214 18.0169 13.2427 18.0369 13.3628L15.0769 14.8438C14.6535 14.4341 14.1189 14.1582 13.5397 14.0504C12.9605 13.9426 12.3624 14.0078 11.82 14.2377C11.2776 14.4676 10.8148 14.8522 10.4896 15.3434C10.1643 15.8346 9.99082 16.4107 9.99082 16.9998C9.99082 17.5889 10.1643 18.165 10.4896 18.6562C10.8148 19.1474 11.2776 19.5319 11.82 19.7619C12.3624 19.9918 12.9605 20.0569 13.5397 19.9492C14.1189 19.8414 14.6535 19.5654 15.0769 19.1558L18.0369 20.6368C18.0169 20.7569 18.0046 20.8781 17.9999 20.9998C17.9999 21.5931 18.1758 22.1731 18.5055 22.6665C18.8351 23.1598 19.3037 23.5444 19.8518 23.7714C20.4 23.9985 21.0032 24.0579 21.5852 23.9421C22.1671 23.8264 22.7016 23.5407 23.1212 23.1211C23.5408 22.7015 23.8265 22.167 23.9422 21.5851C24.058 21.0031 23.9986 20.3999 23.7715 19.8517C23.5445 19.3036 23.1599 18.835 22.6666 18.5054C22.1732 18.1757 21.5932 17.9998 20.9999 17.9998ZM20.9999 11.9998C21.1977 11.9998 21.391 12.0584 21.5555 12.1683C21.7199 12.2782 21.8481 12.4344 21.9238 12.6171C21.9995 12.7998 22.0193 13.0009 21.9807 13.1949C21.9421 13.3889 21.8468 13.567 21.707 13.7069C21.5671 13.8467 21.389 13.942 21.195 13.9806C21.001 14.0192 20.7999 13.9994 20.6172 13.9237C20.4345 13.848 20.2783 13.7198 20.1684 13.5554C20.0585 13.3909 19.9999 13.1976 19.9999 12.9998C19.9999 12.7346 20.1052 12.4802 20.2928 12.2927C20.4803 12.1051 20.7347 11.9998 20.9999 11.9998ZM12.9999 17.9998C12.8021 17.9998 12.6088 17.9411 12.4443 17.8313C12.2799 17.7214 12.1517 17.5652 12.076 17.3825C12.0003 17.1997 11.9805 16.9987 12.0191 16.8047C12.0577 16.6107 12.1529 16.4325 12.2928 16.2927C12.4326 16.1528 12.6108 16.0576 12.8048 16.019C12.9988 15.9804 13.1998 16.0002 13.3826 16.0759C13.5653 16.1516 13.7215 16.2798 13.8314 16.4442C13.9412 16.6087 13.9999 16.802 13.9999 16.9998C13.9999 17.265 13.8945 17.5194 13.707 17.7069C13.5195 17.8944 13.2651 17.9998 12.9999 17.9998ZM20.9999 21.9998C20.8021 21.9998 20.6088 21.9411 20.4443 21.8313C20.2799 21.7214 20.1517 21.5652 20.076 21.3825C20.0003 21.1997 19.9805 20.9987 20.0191 20.8047C20.0577 20.6107 20.1529 20.4325 20.2928 20.2927C20.4326 20.1528 20.6108 20.0576 20.8048 20.019C20.9988 19.9804 21.1998 20.0002 21.3826 20.0759C21.5653 20.1516 21.7215 20.2798 21.8314 20.4442C21.9412 20.6087 21.9999 20.802 21.9999 20.9998C21.9999 21.265 21.8945 21.5194 21.707 21.7069C21.5195 21.8944 21.2651 21.9998 20.9999 21.9998ZM11.9999 21.9998C11.9999 22.265 11.8945 22.5194 11.707 22.7069C11.5195 22.8944 11.2651 22.9998 10.9999 22.9998H5.67888C4.34616 22.9754 3.06184 22.496 2.03918 21.6411C1.01652 20.7861 0.317045 19.6071 0.056884 18.2998C-0.113407 17.1745 0.0733301 16.0241 0.590832 15.0104C1.10833 13.9968 1.93057 13.1708 2.94188 12.6488C2.07373 11.0701 1.79044 9.23579 2.14188 7.46879C2.48361 5.72107 3.3987 4.13733 4.7422 2.96845C6.0857 1.79956 7.78081 1.11236 9.55899 1.0157C11.3372 0.919046 13.0968 1.41846 14.5591 2.43482C16.0214 3.45119 17.1027 4.92641 17.6319 6.62679C17.6823 6.79933 17.7746 6.95674 17.9006 7.08498C18.0265 7.21321 18.1823 7.30831 18.3539 7.36179C18.4823 7.39791 18.6021 7.45935 18.7064 7.54248C18.8106 7.62562 18.8972 7.72877 18.961 7.84586C19.0249 7.96296 19.0646 8.09163 19.078 8.22432C19.0913 8.357 19.078 8.49102 19.0388 8.61848C18.9995 8.74594 18.9352 8.86426 18.8496 8.9665C18.764 9.06873 18.6588 9.1528 18.5402 9.21377C18.4215 9.27473 18.292 9.31136 18.159 9.3215C18.026 9.33163 17.8924 9.31507 17.7659 9.27279C17.2838 9.1229 16.8455 8.85753 16.4893 8.49974C16.1331 8.14195 15.8696 7.70257 15.7219 7.21979C15.4812 6.41899 15.0759 5.67734 14.5318 5.0424C13.9877 4.40747 13.3169 3.89326 12.5624 3.53278C11.8079 3.1723 10.9864 2.9735 10.1506 2.94913C9.31479 2.92476 8.48311 3.07536 7.70891 3.39127C6.93471 3.70718 6.23509 4.18142 5.65493 4.78358C5.07476 5.38573 4.62687 6.10251 4.33997 6.88792C4.05307 7.67333 3.9335 8.51004 3.98894 9.34437C4.04438 10.1787 4.27359 10.9922 4.66188 11.7328C4.90932 12.1947 4.96494 12.7355 4.81673 13.2382C4.66851 13.7409 4.32837 14.165 3.86988 14.4188C3.22621 14.7519 2.70305 15.2782 2.37392 15.9239C2.04479 16.5696 1.92623 17.3022 2.03488 18.0188C2.21999 18.8523 2.67994 19.5995 3.34083 20.1401C4.00172 20.6808 4.82518 20.9835 5.67888 20.9998H10.9999C11.2651 20.9998 11.5195 21.1051 11.707 21.2927C11.8945 21.4802 11.9999 21.7346 11.9999 21.9998Z" fill="black"/>
</g>
<defs>
<clipPath id="clip0">
<rect width="24" height="24" fill="white"/>
</clipPath>
</defs>
</svg>
