<svg width="24" height="24" viewBox="0 0 24 24" fill="none" xmlns="http://www.w3.org/2000/svg">
<g clip-path="url(#clip0)">
<path d="M22.9999 12.0001C22.7555 11.9972 22.5188 12.0856 22.3361 12.248C22.1534 12.4103 22.0378 12.635 22.0119 12.8781C21.8473 14.7821 21.1397 16.599 19.9732 18.1128C18.8067 19.6267 17.2303 20.774 15.4311 21.4186C13.6319 22.0632 11.6855 22.178 9.82305 21.7493C7.96058 21.3205 6.26026 20.3664 4.92394 19.0001H7.66895C7.93416 19.0001 8.18852 18.8947 8.37605 18.7072C8.56359 18.5196 8.66894 18.2653 8.66894 18.0001C8.66894 17.7349 8.56359 17.4805 8.37605 17.293C8.18852 17.1054 7.93416 17.0001 7.66895 17.0001H3.66895C3.13851 17.0001 2.6298 17.2108 2.25473 17.5859C1.87966 17.9609 1.66895 18.4696 1.66895 19.0001V23.0001C1.66895 23.2653 1.7743 23.5196 1.96184 23.7072C2.14937 23.8947 2.40373 24.0001 2.66895 24.0001C2.93416 24.0001 3.18852 23.8947 3.37605 23.7072C3.56359 23.5196 3.66895 23.2653 3.66895 23.0001V20.5621C5.28619 22.1541 7.32245 23.2539 9.54059 23.7334C11.7587 24.2128 14.0674 24.0523 16.1978 23.2704C18.3282 22.4884 20.1927 21.1174 21.574 19.3168C22.9552 17.5162 23.7966 15.3603 23.9999 13.1001C24.0129 12.9608 23.9966 12.8204 23.9523 12.6878C23.9079 12.5551 23.8364 12.4332 23.7424 12.3297C23.6483 12.2262 23.5337 12.1434 23.4059 12.0867C23.278 12.0299 23.1398 12.0004 22.9999 12.0001Z" fill="black"/>
<path d="M21.3309 -0.000226309C21.0657 -0.000226309 20.8113 0.105131 20.6238 0.292667C20.4363 0.480203 20.3309 0.734557 20.3309 0.999774V3.43777C18.7137 1.84575 16.6774 0.745961 14.4593 0.26648C12.2411 -0.213 9.93243 -0.0524332 7.80202 0.72948C5.67162 1.51139 3.8072 2.88247 2.4259 4.68303C1.0446 6.4836 0.203279 8.63954 -9.04682e-05 10.8998C-0.0130071 11.039 0.0032253 11.1795 0.0475725 11.3121C0.0919196 11.4447 0.163409 11.5667 0.257486 11.6702C0.351563 11.7736 0.466164 11.8564 0.593988 11.9131C0.721811 11.9699 0.860055 11.9994 0.99991 11.9998C1.24433 12.0026 1.48103 11.9142 1.66374 11.7519C1.84645 11.5895 1.96204 11.3648 1.98791 11.1218C2.15256 9.21771 2.86015 7.40089 4.02666 5.88701C5.19317 4.37314 6.7696 3.2258 8.56879 2.58122C10.368 1.93663 12.3143 1.82188 14.1768 2.25059C16.0393 2.6793 17.7396 3.63345 19.0759 4.99977H16.3309C16.0657 4.99977 15.8113 5.10513 15.6238 5.29267C15.4363 5.4802 15.3309 5.73456 15.3309 5.99977C15.3309 6.26499 15.4363 6.51934 15.6238 6.70688C15.8113 6.89442 16.0657 6.99977 16.3309 6.99977H20.3309C20.8613 6.99977 21.3701 6.78906 21.7451 6.41399C22.1202 6.03891 22.3309 5.53021 22.3309 4.99977V0.999774C22.3309 0.734557 22.2256 0.480203 22.038 0.292667C21.8505 0.105131 21.5961 -0.000226309 21.3309 -0.000226309Z" fill="black"/>
</g>
<defs>
<clipPath id="clip0">
<rect width="24" height="24" fill="white"/>
</clipPath>
</defs>
</svg>
