<svg width="24" height="24" viewBox="0 0 24 24" fill="none" xmlns="http://www.w3.org/2000/svg">
<g clip-path="url(#clip0)">
<path d="M19.0002 2.00002H9.95621C9.19442 1.99767 8.44231 2.1706 7.75806 2.50545C7.07381 2.84029 6.47577 3.32806 6.01021 3.93102L0.210206 11.386C0.0736511 11.5616 -0.000488281 11.7776 -0.000488281 12C-0.000488281 12.2224 0.0736511 12.4385 0.210206 12.614L6.01021 20.069C6.47577 20.672 7.07381 21.1598 7.75806 21.4946C8.44231 21.8294 9.19442 22.0024 9.95621 22H19.0002C20.3258 21.9984 21.5966 21.4711 22.534 20.5338C23.4713 19.5965 23.9986 18.3256 24.0002 17V7.00002C23.9986 5.67443 23.4713 4.40358 22.534 3.46624C21.5966 2.52891 20.3258 2.00161 19.0002 2.00002ZM22.0002 17C22.0002 17.7957 21.6841 18.5587 21.1215 19.1213C20.5589 19.684 19.7959 20 19.0002 20H9.95621C9.49911 20.0016 9.04778 19.898 8.63716 19.6972C8.22653 19.4964 7.86762 19.2038 7.58821 18.842L2.26721 12L7.58821 5.15802C7.86762 4.79627 8.22653 4.50366 8.63716 4.30286C9.04778 4.10205 9.49911 3.99843 9.95621 4.00002H19.0002C19.7959 4.00002 20.5589 4.31609 21.1215 4.8787C21.6841 5.44131 22.0002 6.20437 22.0002 7.00002V17ZM17.2072 10.207L15.4142 12L17.2072 13.793C17.3027 13.8853 17.3789 13.9956 17.4313 14.1176C17.4837 14.2396 17.5113 14.3708 17.5125 14.5036C17.5136 14.6364 17.4883 14.7681 17.438 14.891C17.3877 15.0139 17.3135 15.1255 17.2196 15.2194C17.1257 15.3133 17.0141 15.3876 16.8912 15.4378C16.7683 15.4881 16.6366 15.5134 16.5038 15.5123C16.371 15.5111 16.2398 15.4835 16.1178 15.4311C15.9958 15.3787 15.8855 15.3025 15.7932 15.207L14.0002 13.414L12.2072 15.207C12.0186 15.3892 11.766 15.49 11.5038 15.4877C11.2416 15.4854 10.9908 15.3803 10.8054 15.1948C10.62 15.0094 10.5148 14.7586 10.5125 14.4964C10.5103 14.2342 10.611 13.9816 10.7932 13.793L12.5862 12L10.7932 10.207C10.611 10.0184 10.5103 9.76582 10.5125 9.50362C10.5148 9.24143 10.62 8.99061 10.8054 8.80521C10.9908 8.6198 11.2416 8.51463 11.5038 8.51235C11.766 8.51007 12.0186 8.61087 12.2072 8.79302L14.0002 10.586L15.7932 8.79302C15.9818 8.61087 16.2344 8.51007 16.4966 8.51235C16.7588 8.51463 17.0096 8.6198 17.195 8.80521C17.3804 8.99061 17.4856 9.24143 17.4879 9.50362C17.4902 9.76582 17.3894 10.0184 17.2072 10.207Z" fill="black"/>
</g>
<defs>
<clipPath id="clip0">
<rect width="24" height="24" fill="white"/>
</clipPath>
</defs>
</svg>
