<svg width="24" height="24" viewBox="0 0 24 24" fill="none" xmlns="http://www.w3.org/2000/svg">
<g clip-path="url(#clip0)">
<path d="M14.5059 10.4687L11.2199 7.18492C11.0836 7.06164 10.9051 6.99552 10.7213 7.00024C10.5376 7.00495 10.3627 7.08015 10.2328 7.21027C10.103 7.34038 10.0282 7.51543 10.0238 7.69919C10.0195 7.88295 10.086 8.06134 10.2096 8.19742L13.4934 11.4812C13.6276 11.6155 13.7031 11.7976 13.7031 11.9875C13.7031 12.1774 13.6276 12.3595 13.4934 12.4937L10.2096 15.7776C10.0753 15.9119 9.99993 16.0941 10 16.2841C10.0001 16.474 10.0756 16.6561 10.2099 16.7904C10.3443 16.9247 10.5265 17.0001 10.7165 17C10.9064 16.9999 11.0885 16.9244 11.2228 16.7901L14.5059 13.5062C14.9086 13.1034 15.1349 12.5571 15.1349 11.9875C15.1349 11.4179 14.9086 10.8716 14.5059 10.4687Z" fill="black"/>
<path d="M12 0C9.62663 0 7.30655 0.703788 5.33316 2.02236C3.35977 3.34094 1.8217 5.21509 0.913451 7.4078C0.00519943 9.60051 -0.232441 12.0133 0.230582 14.3411C0.693605 16.6689 1.83649 18.8071 3.51472 20.4853C5.19295 22.1635 7.33115 23.3064 9.65892 23.7694C11.9867 24.2324 14.3995 23.9948 16.5922 23.0866C18.7849 22.1783 20.6591 20.6402 21.9776 18.6668C23.2962 16.6935 24 14.3734 24 12C23.9966 8.81846 22.7312 5.76821 20.4815 3.51852C18.2318 1.26883 15.1815 0.00344108 12 0V0ZM12 22C10.0222 22 8.08879 21.4135 6.4443 20.3147C4.79981 19.2159 3.51809 17.6541 2.76121 15.8268C2.00433 13.9996 1.8063 11.9889 2.19215 10.0491C2.578 8.10929 3.53041 6.32746 4.92894 4.92893C6.32746 3.53041 8.10929 2.578 10.0491 2.19215C11.9889 1.8063 13.9996 2.00433 15.8268 2.7612C17.6541 3.51808 19.2159 4.79981 20.3147 6.4443C21.4135 8.08879 22 10.0222 22 12C21.9971 14.6513 20.9426 17.1931 19.0679 19.0679C17.1931 20.9426 14.6513 21.9971 12 22Z" fill="black"/>
</g>
<defs>
<clipPath id="clip0">
<rect width="24" height="24" fill="white"/>
</clipPath>
</defs>
</svg>
