<svg width="24" height="24" viewBox="0 0 24 24" fill="none" xmlns="http://www.w3.org/2000/svg">
<path d="M23.8749 7.54298C23.5959 6.56328 22.943 5.73252 22.0569 5.22998L14.6829 1.71698C13.8857 1.24081 12.9761 0.985638 12.0475 0.977729C11.119 0.969819 10.2051 1.20946 9.39991 1.67198L1.94291 5.22998C1.91491 5.24398 1.88591 5.25899 1.85891 5.27498C1.28711 5.60193 0.813209 6.07593 0.486391 6.64781C0.159573 7.21968 -0.00825816 7.8686 0.000312565 8.52722C0.00888329 9.18584 0.193543 9.83016 0.535132 10.3933C0.876721 10.9565 1.36279 11.418 1.94291 11.73L3.99991 12.71V17.61C4.0005 18.6775 4.34227 19.7169 4.97534 20.5765C5.6084 21.436 6.49962 22.0707 7.51891 22.388C8.97479 22.8092 10.4844 23.0153 11.9999 23C13.5152 23.017 15.0248 22.8125 16.4809 22.393C17.5002 22.0757 18.3914 21.441 19.0245 20.5815C19.6575 19.7219 19.9993 18.6825 19.9999 17.615V12.708L21.9999 11.752V20C21.9999 20.2652 22.1053 20.5196 22.2928 20.7071C22.4803 20.8946 22.7347 21 22.9999 21C23.2651 21 23.5195 20.8946 23.707 20.7071C23.8946 20.5196 23.9999 20.2652 23.9999 20V7.99998C23.9967 7.83966 23.9537 7.68264 23.8749 7.54298ZM17.9999 17.615C18.0002 18.2536 17.7966 18.8756 17.4189 19.3905C17.0412 19.9054 16.5091 20.2864 15.8999 20.478C14.6321 20.8402 13.3183 21.0161 11.9999 21C10.6815 21.0161 9.36771 20.8402 8.09991 20.478C7.49073 20.2864 6.95858 19.9054 6.58088 19.3905C6.20319 18.8756 5.99966 18.2536 5.99991 17.615V13.663L9.31691 15.243C10.1353 15.729 11.0701 15.9844 12.0219 15.982C12.9279 15.9884 13.8187 15.7485 14.5989 15.288L17.9999 13.663V17.615ZM21.1999 9.92498L13.6579 13.525C13.1418 13.8255 12.5538 13.98 11.9567 13.9721C11.3596 13.9642 10.7758 13.7941 10.2679 13.48L2.88891 9.96999C2.62331 9.82676 2.40084 9.61512 2.24456 9.35698C2.08829 9.09884 2.00389 8.80361 2.00011 8.50187C1.99634 8.20014 2.07333 7.90288 2.2231 7.64092C2.37287 7.37895 2.58997 7.16181 2.85191 7.01198L10.3469 3.43198C10.8632 3.13212 11.4511 2.97794 12.0481 2.98586C12.6451 2.99379 13.2288 3.16352 13.7369 3.47698L21.1109 6.98998C21.3773 7.13791 21.5998 7.35365 21.756 7.61532C21.9121 7.87699 21.9963 8.1753 21.9999 8.47998C22.0004 8.76898 21.9272 9.05333 21.7872 9.30617C21.6472 9.55901 21.4451 9.77199 21.1999 9.92498Z" fill="black"/>
</svg>
