<svg width="24" height="24" viewBox="0 0 24 24" fill="none" xmlns="http://www.w3.org/2000/svg">
<g clip-path="url(#clip0)">
<path d="M20.457 4.55504L12.486 0.126041C12.3374 0.043381 12.1701 0 12 0C11.8299 0 11.6626 0.043381 11.514 0.126041L3.543 4.55504C3.0754 4.81483 2.68578 5.19492 2.41448 5.65594C2.14318 6.11695 2.00008 6.64212 2 7.17704V19C2.00159 20.3256 2.52888 21.5965 3.46622 22.5338C4.40356 23.4712 5.67441 23.9985 7 24H17C18.3256 23.9985 19.5964 23.4712 20.5338 22.5338C21.4711 21.5965 21.9984 20.3256 22 19V7.17704C21.9999 6.64212 21.8568 6.11695 21.5855 5.65594C21.3142 5.19492 20.9246 4.81483 20.457 4.55504ZM20 19C20 19.7957 19.6839 20.5588 19.1213 21.1214C18.5587 21.684 17.7956 22 17 22H7C6.20435 22 5.44129 21.684 4.87868 21.1214C4.31607 20.5588 4 19.7957 4 19V7.17704C3.99956 6.99816 4.0471 6.82243 4.13768 6.66818C4.22827 6.51393 4.35856 6.3868 4.515 6.30004L12 2.14404L19.486 6.30004C19.6422 6.38693 19.7723 6.51412 19.8627 6.66836C19.9531 6.8226 20.0005 6.99826 20 7.17704V19Z" fill="black"/>
<path d="M12 8.5C12.8284 8.5 13.5 7.82843 13.5 7C13.5 6.17157 12.8284 5.5 12 5.5C11.1716 5.5 10.5 6.17157 10.5 7C10.5 7.82843 11.1716 8.5 12 8.5Z" fill="black"/>
</g>
<defs>
<clipPath id="clip0">
<rect width="24" height="24" fill="white"/>
</clipPath>
</defs>
</svg>
