<svg width="24" height="24" viewBox="0 0 24 24" fill="none" xmlns="http://www.w3.org/2000/svg">
<path d="M13.2928 18.5858L7.70685 12.9998C7.51938 12.8123 7.41406 12.558 7.41406 12.2928C7.41406 12.0277 7.51938 11.7733 7.70685 11.5858L13.2928 5.99982C13.4327 5.86001 13.6109 5.7648 13.8048 5.72623C13.9988 5.68767 14.1998 5.70747 14.3825 5.78314C14.5652 5.85881 14.7214 5.98695 14.8313 6.15136C14.9411 6.31577 14.9998 6.50907 14.9998 6.70682V17.8788C14.9998 18.0766 14.9411 18.2699 14.8313 18.4343C14.7214 18.5987 14.5652 18.7268 14.3825 18.8025C14.1998 18.8782 13.9988 18.898 13.8048 18.8594C13.6109 18.8208 13.4327 18.7256 13.2928 18.5858Z" fill="black"/>
</svg>
