<svg width="24" height="24" viewBox="0 0 24 24" fill="none" xmlns="http://www.w3.org/2000/svg">
<g clip-path="url(#clip0)">
<path d="M21.2612 2.73897C19.5447 1.0795 17.2832 0.10103 14.8984 -0.0139669C12.5137 -0.128964 10.1685 0.627367 8.30024 2.11397C7.89486 1.46348 7.32968 0.927606 6.65854 0.557418C5.98739 0.187229 5.23264 -0.004948 4.46618 -0.000805287C3.69972 0.00333743 2.94709 0.203662 2.27999 0.581084C1.61288 0.958506 1.05353 1.50045 0.655213 2.1553C0.256896 2.81014 0.0328849 3.55606 0.00452049 4.32201C-0.0238439 5.08795 0.144383 5.8484 0.493176 6.53091C0.841968 7.21342 1.35971 7.79525 1.99707 8.22098C2.63443 8.64671 3.37018 8.90215 4.13424 8.96297C3.81917 10.8939 4.11347 12.875 4.97624 14.631C5.0232 14.721 5.04166 14.8231 5.02916 14.9239C5.01666 15.0246 4.97378 15.1192 4.90624 15.195L2.00024 16.945C1.26076 17.3343 0.672838 17.9599 0.330146 18.7221C-0.0125463 19.4843 -0.090298 20.3393 0.109277 21.1508C0.308853 21.9624 0.774274 22.6838 1.43139 23.2001C2.08851 23.7164 2.89953 23.998 3.73524 24C3.88797 24 4.04057 23.9909 4.19224 23.973C4.74797 23.9083 5.28184 23.7186 5.75379 23.4181C6.22574 23.1176 6.6235 22.7142 6.91724 22.238L8.98524 19.111C9.05981 19.038 9.15535 18.9902 9.25846 18.9742C9.36157 18.9583 9.46709 18.975 9.56024 19.022C11.4269 19.9258 13.5349 20.205 15.5725 19.8183C17.6102 19.4317 19.4693 18.3997 20.8752 16.875C22.789 14.9897 23.9073 12.4427 24.0002 9.75797C24.0519 8.46244 23.8353 7.1702 23.364 5.96234C22.8926 4.75448 22.1768 3.65707 21.2612 2.73897ZM2.00024 4.49997C2.00024 4.00552 2.14686 3.52217 2.42156 3.11105C2.69627 2.69993 3.08671 2.37949 3.54353 2.19028C4.00034 2.00106 4.50301 1.95155 4.98796 2.04801C5.47291 2.14447 5.91837 2.38258 6.268 2.73221C6.61763 3.08184 6.85574 3.5273 6.9522 4.01225C7.04866 4.4972 6.99915 4.99987 6.80994 5.45668C6.62072 5.9135 6.30028 6.30394 5.88916 6.57865C5.47804 6.85335 4.99469 6.99997 4.50024 6.99997C3.8372 6.99997 3.20131 6.73658 2.73247 6.26774C2.26363 5.7989 2.00024 5.16301 2.00024 4.49997ZM10.4402 17.226C9.93927 16.978 9.36952 16.9055 8.82241 17.0201C8.2753 17.1347 7.78255 17.4298 7.42324 17.858C7.39924 17.887 7.37724 17.917 7.35624 17.948L5.22924 21.166C5.01958 21.5087 4.69788 21.7685 4.31863 21.9012C3.93938 22.034 3.52591 22.0315 3.14826 21.8943C2.77061 21.7571 2.452 21.4935 2.24643 21.1483C2.04085 20.8031 1.96094 20.3974 2.02024 20C2.06308 19.7201 2.17281 19.4547 2.34011 19.2263C2.50741 18.9979 2.72734 18.8132 2.98124 18.688L6.02224 16.857C6.0666 16.8304 6.10874 16.8003 6.14824 16.767C6.57531 16.407 6.86894 15.9138 6.98193 15.3668C7.09492 14.8198 7.02071 14.2507 6.77124 13.751C6.1182 12.433 5.87674 10.949 6.07824 9.49197L14.5112 17.925C13.1153 18.0882 11.7018 17.8455 10.4402 17.226ZM19.4612 15.461C18.6756 16.2484 17.7488 16.8811 16.7292 17.326C16.7202 17.316 16.7172 17.303 16.7072 17.293L7.36024 7.94497C7.8707 7.5272 8.28245 7.00169 8.56598 6.40611C8.84951 5.81052 8.9978 5.1596 9.00024 4.49997C9.00024 4.38097 8.97424 4.26897 8.96524 4.15297C10.4458 2.78261 12.3889 2.02138 14.4062 2.02138C16.4236 2.02138 18.3667 2.78261 19.8472 4.15297C20.5693 4.87906 21.1333 5.74669 21.5039 6.70131C21.8744 7.65593 22.0434 8.67688 22.0002 9.69997C21.9219 11.8744 21.0132 13.9361 19.4612 15.461Z" fill="black"/>
</g>
<defs>
<clipPath id="clip0">
<rect width="24" height="24" fill="white"/>
</clipPath>
</defs>
</svg>
