<svg width="24" height="24" viewBox="0 0 24 24" fill="none" xmlns="http://www.w3.org/2000/svg">
<g clip-path="url(#clip0)">
<path d="M12 1.82639e-05C9.89182 7.76941e-05 7.82139 0.559438 6 1.62102C5.9543 1.6442 5.9105 1.67095 5.869 1.70102C3.38272 3.18977 1.52064 5.5296 0.628069 8.28664C-0.264506 11.0437 -0.127021 14.0309 1.01503 16.6943C2.15708 19.3577 4.22621 21.5166 6.83873 22.7706C9.45125 24.0247 12.4299 24.2889 15.2223 23.5141C18.0148 22.7394 20.4316 20.9783 22.0245 18.5575C23.6174 16.1366 24.2785 13.2202 23.885 10.3492C23.4916 7.47806 22.0703 4.84705 19.8848 2.94399C17.6994 1.04094 14.8979 -0.00504048 12 1.82639e-05ZM21.022 16.285C17.3295 17.4271 13.351 17.2161 9.8 15.69C10.4339 14.7076 11.2358 13.8444 12.169 13.14C13.5825 13.7116 15.0923 14.0079 16.617 14.013C18.472 14.0128 20.3021 13.5851 21.965 12.763C21.8713 13.9853 21.5515 15.1795 21.022 16.285ZM21.875 10.503C20.9678 11.0679 19.9759 11.4835 18.937 11.734C18.7216 8.53091 17.6628 5.44177 15.868 2.78002C17.4457 3.44603 18.8262 4.5054 19.8779 5.85694C20.9295 7.20847 21.6171 8.80706 21.875 10.5V10.503ZM12.749 2.03802C15.2438 4.77757 16.7259 8.28843 16.949 11.987C15.5825 12.0338 14.2209 11.7989 12.949 11.297C12.8506 9.62476 12.404 7.9915 11.6379 6.5018C10.8717 5.0121 9.80298 3.69881 8.5 2.64602C9.61819 2.22149 10.8039 2.00263 12 2.00002C12.253 2.00002 12.5 2.01902 12.749 2.03802ZM6.487 3.66502C7.4264 4.27761 8.25627 5.04359 8.942 5.93102C5.9445 7.94108 3.61016 10.7946 2.234 14.131C1.79918 12.161 1.97302 10.1054 2.73251 8.23646C3.49199 6.36749 4.80129 4.7733 6.487 3.66502ZM3.356 17.005C4.35427 13.1866 6.70717 9.86165 9.976 7.65002C10.5679 8.86609 10.9058 10.19 10.969 11.541C9.61969 12.5664 8.50218 13.8652 7.68965 15.3524C6.87711 16.8396 6.38789 18.4816 6.254 20.171C5.07143 19.3365 4.08292 18.2566 3.356 17.005ZM12 22C10.7062 21.9997 9.42499 21.7469 8.228 21.256C8.20597 19.9661 8.43418 18.6841 8.9 17.481C12.1869 18.9402 15.8371 19.3754 19.375 18.73C18.4417 19.7592 17.3034 20.5817 16.0333 21.1449C14.7632 21.708 13.3893 21.9993 12 22Z" fill="black"/>
</g>
<defs>
<clipPath id="clip0">
<rect width="24" height="24" fill="white"/>
</clipPath>
</defs>
</svg>
