<svg width="24" height="24" viewBox="0 0 24 24" fill="none" xmlns="http://www.w3.org/2000/svg">
<path d="M10.4819 19.0004C10.2167 19.0004 9.9624 18.895 9.77491 18.7074L5.18891 14.1214C4.62649 13.5588 4.31055 12.7959 4.31055 12.0004C4.31055 11.2049 4.62649 10.442 5.18891 9.87941L9.77491 5.29341C9.96351 5.11125 10.2161 5.01045 10.4783 5.01273C10.7405 5.01501 10.9913 5.12018 11.1767 5.30559C11.3621 5.491 11.4673 5.74181 11.4696 6.00401C11.4719 6.2662 11.3711 6.5188 11.1889 6.70741L6.59991 11.2934C6.41243 11.4809 6.30712 11.7352 6.30712 12.0004C6.30712 12.2656 6.41243 12.5199 6.59991 12.7074L11.1849 17.2934C11.3245 17.433 11.4196 17.6108 11.4583 17.8044C11.497 17.998 11.4775 18.1987 11.4024 18.3812C11.3272 18.5638 11.1997 18.72 11.0359 18.8301C10.8721 18.9403 10.6793 18.9996 10.4819 19.0004Z" fill="black"/>
<path d="M17.4822 18.9996C17.217 18.9995 16.9627 18.8941 16.7752 18.7066L10.7752 12.7066C10.5877 12.5191 10.4824 12.2648 10.4824 11.9996C10.4824 11.7344 10.5877 11.4801 10.7752 11.2926L16.7752 5.29259C16.8675 5.19708 16.9778 5.1209 17.0998 5.06849C17.2218 5.01608 17.353 4.9885 17.4858 4.98734C17.6186 4.98619 17.7503 5.01149 17.8732 5.06177C17.9961 5.11205 18.1077 5.18631 18.2016 5.2802C18.2955 5.37409 18.3697 5.48574 18.42 5.60864C18.4703 5.73154 18.4956 5.86321 18.4945 5.99599C18.4933 6.12877 18.4657 6.25999 18.4133 6.382C18.3609 6.504 18.2847 6.61435 18.1892 6.70659L12.9002 11.9996L18.1932 17.2926C18.3333 17.4327 18.4286 17.6112 18.467 17.8055C18.5054 17.9999 18.4853 18.2012 18.4091 18.3841C18.333 18.567 18.2042 18.7231 18.0392 18.8327C17.8742 18.9422 17.6803 19.0003 17.4822 18.9996Z" fill="black"/>
</svg>
