<svg width="24" height="24" viewBox="0 0 24 24" fill="none" xmlns="http://www.w3.org/2000/svg">
<g clip-path="url(#clip0)">
<path d="M22.485 10.9745L12 17.2665L1.515 10.9745C1.28758 10.8381 1.01526 10.7976 0.757962 10.8619C0.500662 10.9262 0.279453 11.0901 0.143 11.3175C0.00654566 11.545 -0.0339759 11.8173 0.030349 12.0746C0.094674 12.3319 0.258576 12.5531 0.486 12.6895L11.486 19.2895C11.6415 19.383 11.8196 19.4324 12.001 19.4324C12.1824 19.4324 12.3605 19.383 12.516 19.2895L23.516 12.6895C23.7434 12.5531 23.9073 12.3319 23.9717 12.0746C24.036 11.8173 23.9955 11.545 23.859 11.3175C23.7225 11.0901 23.5013 10.9262 23.244 10.8619C22.9867 10.7976 22.7144 10.8381 22.487 10.9745H22.485Z" fill="black"/>
<path d="M22.485 15.5429L12 21.8339L1.515 15.5429C1.40239 15.4753 1.27757 15.4306 1.14768 15.4113C1.01779 15.392 0.885361 15.3984 0.757959 15.4303C0.630557 15.4621 0.510676 15.5187 0.40516 15.5969C0.299645 15.6751 0.210562 15.7733 0.142997 15.8859C0.0754315 15.9985 0.0307078 16.1233 0.0113792 16.2532C-0.00794938 16.3831 -0.00150444 16.5155 0.0303461 16.6429C0.094671 16.9002 0.258573 17.1214 0.485997 17.2579L11.486 23.8579C11.6415 23.9513 11.8196 24.0007 12.001 24.0007C12.1824 24.0007 12.3605 23.9513 12.516 23.8579L23.516 17.2579C23.7434 17.1214 23.9073 16.9002 23.9716 16.6429C24.036 16.3856 23.9954 16.1133 23.859 15.8859C23.7225 15.6585 23.5013 15.4946 23.244 15.4303C22.9867 15.3659 22.7144 15.4064 22.487 15.5429H22.485Z" fill="black"/>
<path d="M12.0002 14.7731C11.4608 14.7728 10.9316 14.6259 10.4692 14.3481L0.485172 8.35706C0.33732 8.26815 0.214983 8.14251 0.130053 7.99234C0.0451225 7.84217 0.000488281 7.67258 0.000488281 7.50006C0.000488281 7.32753 0.0451225 7.15794 0.130053 7.00777C0.214983 6.8576 0.33732 6.73196 0.485172 6.64306L10.4692 0.652056C10.9315 0.374285 11.4608 0.227539 12.0002 0.227539C12.5396 0.227539 13.0688 0.374285 13.5312 0.652056L23.5152 6.64306C23.663 6.73196 23.7854 6.8576 23.8703 7.00777C23.9552 7.15794 23.9999 7.32753 23.9999 7.50006C23.9999 7.67258 23.9552 7.84217 23.8703 7.99234C23.7854 8.14251 23.663 8.26815 23.5152 8.35706L13.5312 14.3481C13.0688 14.6259 12.5396 14.7728 12.0002 14.7731ZM2.94417 7.50006L11.5002 12.6331C11.6513 12.7235 11.8241 12.7712 12.0002 12.7712C12.1763 12.7712 12.3491 12.7235 12.5002 12.6331L21.0562 7.50006L12.5002 2.36706C12.3491 2.27666 12.1763 2.22892 12.0002 2.22892C11.8241 2.22892 11.6513 2.27666 11.5002 2.36706L2.94417 7.50006Z" fill="black"/>
</g>
<defs>
<clipPath id="clip0">
<rect width="24" height="24" fill="white"/>
</clipPath>
</defs>
</svg>
