<svg width="24" height="24" viewBox="0 0 24 24" fill="none" xmlns="http://www.w3.org/2000/svg">
<g clip-path="url(#clip0)">
<path d="M23.1 0.899787C22.5163 0.343809 21.7411 0.0336914 20.935 0.0336914C20.1289 0.0336914 19.3537 0.343809 18.77 0.899787L7.56302 12.0998C7.21437 12.0327 6.86008 11.9992 6.50502 11.9998C5.78323 11.9977 5.06819 12.1389 4.40132 12.4151C3.73445 12.6912 3.129 13.097 2.62002 13.6088C1.26802 14.9618 0.314022 18.5918 0.0310225 20.5628C-0.0317577 20.9892 -0.00192951 21.4241 0.118477 21.8379C0.238883 22.2517 0.44704 22.6348 0.728777 22.9609C1.01051 23.2871 1.35922 23.5487 1.75115 23.7279C2.14308 23.9072 2.56904 23.9999 3.00002 23.9998C3.14691 23.9999 3.29361 23.9895 3.43902 23.9688C5.41002 23.6858 9.03902 22.7318 10.393 21.3798C11.0288 20.7422 11.4981 19.9581 11.7597 19.0965C12.0212 18.2349 12.067 17.3222 11.893 16.4388L23.1 5.22979C23.6727 4.65479 23.9942 3.87632 23.9942 3.06479C23.9942 2.25326 23.6727 1.47479 23.1 0.899787ZM8.97702 19.9658C8.25202 20.6908 5.47702 21.6548 3.15302 21.9888C2.99771 22.0112 2.83931 21.9974 2.69026 21.9482C2.54121 21.8991 2.40558 21.8162 2.29402 21.7058C2.18286 21.5948 2.0994 21.4592 2.0504 21.31C2.00141 21.1607 1.98826 21.0021 2.01202 20.8468C2.34502 18.5238 3.31202 15.7468 4.03402 15.0228C4.70027 14.4227 5.57139 14.1013 6.46772 14.1247C7.36404 14.1481 8.2172 14.5146 8.85122 15.1486C9.48523 15.7826 9.85174 16.6358 9.87515 17.5321C9.89856 18.4284 9.57708 19.2995 8.97702 19.9658ZM21.688 3.81579L11.067 14.4378C10.6724 13.8403 10.1624 13.3276 9.56702 12.9298L20.184 2.31179C20.3861 2.11886 20.6547 2.01121 20.934 2.01121C21.2134 2.01121 21.482 2.11886 21.684 2.31179C21.7832 2.41018 21.862 2.52717 21.9159 2.65607C21.9698 2.78497 21.9978 2.92324 21.9981 3.06296C21.9985 3.20267 21.9713 3.34109 21.9181 3.47027C21.8649 3.59945 21.7867 3.71687 21.688 3.81579Z" fill="black"/>
</g>
<defs>
<clipPath id="clip0">
<rect width="24" height="24" fill="white"/>
</clipPath>
</defs>
</svg>
