<svg width="24" height="24" viewBox="0 0 24 24" fill="none" xmlns="http://www.w3.org/2000/svg">
<g clip-path="url(#clip0)">
<path d="M18.581 2.14024L12.316 0.0512408C12.1109 -0.0170803 11.8891 -0.0170803 11.684 0.0512408L5.419 2.14024C4.42291 2.47112 3.55642 3.1075 2.94265 3.95895C2.32887 4.8104 1.99904 5.83363 2 6.88324V12.0002C2 19.5632 11.2 23.7402 11.594 23.9142C11.7218 23.971 11.8601 24.0004 12 24.0004C12.1399 24.0004 12.2782 23.971 12.406 23.9142C12.8 23.7402 22 19.5632 22 12.0002V6.88324C22.001 5.83363 21.6711 4.8104 21.0574 3.95895C20.4436 3.1075 19.5771 2.47112 18.581 2.14024ZM20 12.0002C20 17.4552 13.681 21.0332 12 21.8892C10.317 21.0362 4 17.4692 4 12.0002V6.88324C4.00006 6.25352 4.19828 5.63978 4.56657 5.12898C4.93486 4.61819 5.45455 4.23623 6.052 4.03724L12 2.05424L17.948 4.03724C18.5455 4.23623 19.0651 4.61819 19.4334 5.12898C19.8017 5.63978 19.9999 6.25352 20 6.88324V12.0002Z" fill="black"/>
<path d="M15 10H13V8C13 7.73478 12.8946 7.48043 12.7071 7.29289C12.5196 7.10536 12.2652 7 12 7C11.7348 7 11.4804 7.10536 11.2929 7.29289C11.1054 7.48043 11 7.73478 11 8V10H9C8.73478 10 8.48043 10.1054 8.29289 10.2929C8.10536 10.4804 8 10.7348 8 11C8 11.2652 8.10536 11.5196 8.29289 11.7071C8.48043 11.8946 8.73478 12 9 12H11V14C11 14.2652 11.1054 14.5196 11.2929 14.7071C11.4804 14.8946 11.7348 15 12 15C12.2652 15 12.5196 14.8946 12.7071 14.7071C12.8946 14.5196 13 14.2652 13 14V12H15C15.2652 12 15.5196 11.8946 15.7071 11.7071C15.8946 11.5196 16 11.2652 16 11C16 10.7348 15.8946 10.4804 15.7071 10.2929C15.5196 10.1054 15.2652 10 15 10Z" fill="black"/>
</g>
<defs>
<clipPath id="clip0">
<rect width="24" height="24" fill="white"/>
</clipPath>
</defs>
</svg>
