<svg width="24" height="24" viewBox="0 0 24 24" fill="none" xmlns="http://www.w3.org/2000/svg">
<g clip-path="url(#clip0)">
<path d="M23 12.9995H1C0.734784 12.9995 0.48043 12.8942 0.292893 12.7066C0.105357 12.5191 0 12.2647 0 11.9995C0 11.7343 0.105357 11.4799 0.292893 11.2924C0.48043 11.1049 0.734784 10.9995 1 10.9995H23C23.2652 10.9995 23.5196 11.1049 23.7071 11.2924C23.8946 11.4799 24 11.7343 24 11.9995C24 12.2647 23.8946 12.5191 23.7071 12.7066C23.5196 12.8942 23.2652 12.9995 23 12.9995ZM18.934 7.12551C19.0597 6.5922 19.0012 6.03204 18.7681 5.53619C18.5349 5.04033 18.1409 4.63795 17.65 4.39451L9.668 0.427513C9.16973 0.144544 8.60635 -0.00380253 8.03334 -0.00292582C7.46032 -0.00204911 6.89741 0.148021 6.4 0.432513C5.96664 0.683676 5.60832 1.04615 5.36216 1.48237C5.116 1.9186 4.99096 2.41271 5 2.91351V5.99951C5 6.79516 5.31607 7.55822 5.87868 8.12083C6.44129 8.68344 7.20435 8.99951 8 8.99951H16.318C16.9035 9.03764 17.484 8.87177 17.961 8.53011C18.4379 8.18845 18.7817 7.6921 18.934 7.12551ZM8.737 2.19951L16.749 6.17951C16.838 6.21901 16.9105 6.28812 16.9543 6.3751C16.9981 6.46207 17.0103 6.56152 16.989 6.65651C16.915 6.96451 16.495 6.99751 16.318 6.99751H8C7.73513 6.99751 7.48108 6.89243 7.2936 6.70533C7.10612 6.51822 7.00053 6.26438 7 5.99951V2.91351C6.99262 2.76085 7.02779 2.60913 7.1016 2.47529C7.17541 2.34145 7.28495 2.23074 7.418 2.15551C7.59825 2.05163 7.80297 1.99777 8.011 1.99951C8.26607 2.00336 8.51594 2.0722 8.737 2.19951ZM9.628 23.5935L17.661 19.5995C18.1491 19.3548 18.5403 18.9525 18.7713 18.4578C19.0024 17.9631 19.0597 17.4049 18.934 16.8735C18.7817 16.3069 18.4379 15.8106 17.961 15.4689C17.484 15.1273 16.9035 14.9614 16.318 14.9995H8C7.20435 14.9995 6.44129 15.3156 5.87868 15.8782C5.31607 16.4408 5 17.2039 5 17.9995V21.0845C4.99086 21.5853 5.11585 22.0795 5.36202 22.5157C5.60819 22.952 5.96657 23.3144 6.4 23.5655C6.89555 23.8532 7.45903 24.003 8.032 23.9995C8.59001 24.0012 9.13926 23.8608 9.628 23.5915V23.5935ZM16.318 16.9995C16.495 16.9995 16.918 17.0325 16.989 17.3405C17.0106 17.4335 16.9997 17.5311 16.958 17.617C16.9163 17.7029 16.8464 17.7719 16.76 17.8125L8.7 21.8215C8.5062 21.9336 8.28696 21.9943 8.0631 21.9978C7.83924 22.0013 7.61821 21.9475 7.421 21.8415C7.28731 21.7668 7.1771 21.6563 7.10274 21.5224C7.02837 21.3885 6.99279 21.2365 7 21.0835V17.9995C7 17.7343 7.10536 17.4799 7.29289 17.2924C7.48043 17.1049 7.73478 16.9995 8 16.9995H16.318Z" fill="black"/>
</g>
<defs>
<clipPath id="clip0">
<rect width="24" height="24" fill="white"/>
</clipPath>
</defs>
</svg>
