<svg width="24" height="24" viewBox="0 0 24 24" fill="none" xmlns="http://www.w3.org/2000/svg">
<g clip-path="url(#clip0)">
<path d="M21.835 2.16488C21.1488 1.47854 20.3342 0.934094 19.4376 0.56264C18.541 0.191187 17.58 0 16.6095 0C15.639 0 14.678 0.191187 13.7814 0.56264C12.8848 0.934094 12.0701 1.47854 11.384 2.16488L2.16496 11.3839C1.47569 12.0694 0.928456 12.8842 0.554609 13.7816C0.180762 14.679 -0.0123504 15.6414 -0.0136651 16.6135C-0.0149798 17.5857 0.175529 18.5485 0.546948 19.4469C0.918366 20.3453 1.46339 21.1616 2.15081 21.849C2.83822 22.5364 3.65451 23.0815 4.55291 23.4529C5.45132 23.8243 6.41417 24.0148 7.38632 24.0135C8.35847 24.0122 9.32081 23.8191 10.2182 23.4452C11.1156 23.0714 11.9304 22.5241 12.616 21.8349L21.835 12.6159C22.5213 11.9297 23.0657 11.1151 23.4372 10.2185C23.8087 9.32187 23.9998 8.36088 23.9998 7.39038C23.9998 6.41988 23.8087 5.45888 23.4372 4.56228C23.0657 3.66568 22.5213 2.85103 21.835 2.16488ZM20.421 11.1999L11.2 20.4209C10.7034 20.9383 10.1086 21.3514 9.45031 21.636C8.79206 21.9207 8.08363 22.0711 7.36651 22.0784C6.6494 22.0858 5.93803 21.95 5.27406 21.679C4.6101 21.4079 4.0069 21.0071 3.4998 20.5C2.9927 19.9929 2.59189 19.3897 2.32086 18.7258C2.04983 18.0618 1.91402 17.3504 1.92139 16.6333C1.92876 15.9162 2.07917 15.2078 2.36379 14.5495C2.64842 13.8913 3.06154 13.2964 3.57896 12.7999L12.8 3.57888C13.2965 3.06146 13.8914 2.64833 14.5496 2.36371C15.2079 2.07908 15.9163 1.92868 16.6334 1.9213C17.3505 1.91393 18.0619 2.04974 18.7259 2.32077C19.3898 2.5918 19.993 2.99261 20.5001 3.49971C21.0072 4.00682 21.408 4.61002 21.6791 5.27398C21.9501 5.93794 22.0859 6.64932 22.0785 7.36643C22.0712 8.08354 21.9208 8.79197 21.6361 9.45022C21.3515 10.1085 20.9384 10.7033 20.421 11.1999ZM19.707 8.29088C19.8944 8.4784 19.9997 8.73271 19.9997 8.99788C19.9997 9.26304 19.8944 9.51735 19.707 9.70488L16.707 12.7049C16.5184 12.887 16.2658 12.9878 16.0036 12.9855C15.7414 12.9833 15.4906 12.8781 15.3051 12.6927C15.1197 12.5073 15.0146 12.2565 15.0123 11.9943C15.01 11.7321 15.1108 11.4795 15.293 11.2909L16.086 10.4979L13.5 7.91388L12.707 8.70688C12.5184 8.88903 12.2658 8.98983 12.0036 8.98755C11.7414 8.98527 11.4906 8.8801 11.3051 8.69469C11.1197 8.50929 11.0146 8.25847 11.0123 7.99628C11.01 7.73408 11.1108 7.48148 11.293 7.29288L14.293 4.29288C14.3852 4.19737 14.4956 4.12118 14.6176 4.06877C14.7396 4.01637 14.8708 3.98878 15.0036 3.98763C15.1363 3.98647 15.268 4.01177 15.3909 4.06205C15.5138 4.11234 15.6255 4.18659 15.7194 4.28048C15.8132 4.37437 15.8875 4.48603 15.9378 4.60892C15.9881 4.73182 16.0134 4.8635 16.0122 4.99628C16.0111 5.12906 15.9835 5.26028 15.9311 5.38228C15.8787 5.50428 15.8025 5.61463 15.707 5.70688L14.914 6.49988L17.5 9.08588L18.293 8.29288C18.4805 8.1054 18.7348 8.00009 19 8.00009C19.2651 8.00009 19.5194 8.1054 19.707 8.29288V8.29088ZM12.707 15.2909C12.8944 15.4784 12.9997 15.7327 12.9997 15.9979C12.9997 16.263 12.8944 16.5173 12.707 16.7049L9.70696 19.7049C9.51836 19.887 9.26576 19.9878 9.00356 19.9855C8.74136 19.9833 8.49055 19.8781 8.30514 19.6927C8.11974 19.5073 8.01457 19.2565 8.01229 18.9943C8.01001 18.7321 8.1108 18.4795 8.29296 18.2909L9.08596 17.4979L6.49996 14.9139L5.70696 15.7069C5.51836 15.889 5.26576 15.9898 5.00356 15.9875C4.74136 15.9853 4.49055 15.8801 4.30514 15.6947C4.11973 15.5093 4.01457 15.2585 4.01229 14.9963C4.01001 14.7341 4.1108 14.4815 4.29296 14.2929L7.29296 11.2929C7.48156 11.1107 7.73417 11.0099 7.99636 11.0122C8.25856 11.0145 8.50937 11.1196 8.69478 11.3051C8.88019 11.4905 8.98536 11.7413 8.98764 12.0035C8.98991 12.2657 8.88912 12.5183 8.70696 12.7069L7.91396 13.4999L10.5 16.0859L11.293 15.2929C11.4805 15.1054 11.7348 15.0001 12 15.0001C12.2651 15.0001 12.5194 15.1054 12.707 15.2929V15.2909Z" fill="black"/>
</g>
<defs>
<clipPath id="clip0">
<rect width="24" height="24" fill="white"/>
</clipPath>
</defs>
</svg>
