<svg width="24" height="24" viewBox="0 0 24 24" fill="none" xmlns="http://www.w3.org/2000/svg">
<g clip-path="url(#clip0)">
<path d="M21 16V12C20.9997 10.6566 20.698 9.33026 20.1172 8.11881C19.5364 6.90735 18.6912 5.84161 17.644 5.00004H20.277C20.4986 5.37765 20.8385 5.67169 21.2441 5.83662C21.6497 6.00156 22.0983 6.0282 22.5206 5.91243C22.9429 5.79665 23.3152 5.54491 23.5799 5.19618C23.8447 4.84745 23.9871 4.42117 23.9851 3.98333C23.9831 3.5455 23.8369 3.12052 23.569 2.77418C23.3011 2.42785 22.9266 2.17947 22.5033 2.0675C22.08 1.95553 21.6316 1.98621 21.2275 2.15479C20.8235 2.32337 20.4862 2.62045 20.268 3.00004H15.858C15.6397 2.14246 15.1419 1.38204 14.4433 0.838933C13.7446 0.295822 12.8849 0.000976563 12 0.000976562C11.1151 0.000976563 10.2554 0.295822 9.55672 0.838933C8.85806 1.38204 8.36027 2.14246 8.142 3.00004H3.723C3.50139 2.62243 3.16148 2.32839 2.75589 2.16346C2.3503 1.99852 1.90166 1.97188 1.4794 2.08766C1.05714 2.20343 0.684827 2.45517 0.42008 2.8039C0.155333 3.15263 0.0129225 3.57891 0.0148928 4.01675C0.0168631 4.45458 0.163104 4.87956 0.430979 5.2259C0.698853 5.57223 1.07342 5.82061 1.4967 5.93258C1.91999 6.04455 2.36837 6.01387 2.77246 5.84529C3.17655 5.67671 3.51379 5.37963 3.732 5.00004H6.356C5.30876 5.84161 4.46362 6.90735 3.88281 8.11881C3.30201 9.33026 3.00033 10.6566 3 12V16C2.20435 16 1.44129 16.3161 0.87868 16.8787C0.31607 17.4413 0 18.2044 0 19L0 21C0 21.7957 0.31607 22.5588 0.87868 23.1214C1.44129 23.684 2.20435 24 3 24H5C5.79565 24 6.55871 23.684 7.12132 23.1214C7.68393 22.5588 8 21.7957 8 21V19C8 18.2044 7.68393 17.4413 7.12132 16.8787C6.55871 16.3161 5.79565 16 5 16V12C5.00163 10.7687 5.32801 9.55966 5.94621 8.49481C6.5644 7.42995 7.45254 6.54699 8.521 5.93504C8.86194 6.56001 9.36493 7.08161 9.97712 7.445C10.5893 7.80839 11.2881 8.00017 12 8.00017C12.7119 8.00017 13.4107 7.80839 14.0229 7.445C14.6351 7.08161 15.1381 6.56001 15.479 5.93504C16.5475 6.54699 17.4356 7.42995 18.0538 8.49481C18.672 9.55966 18.9984 10.7687 19 12V16C18.2044 16 17.4413 16.3161 16.8787 16.8787C16.3161 17.4413 16 18.2044 16 19V21C16 21.7957 16.3161 22.5588 16.8787 23.1214C17.4413 23.684 18.2044 24 19 24H21C21.7956 24 22.5587 23.684 23.1213 23.1214C23.6839 22.5588 24 21.7957 24 21V19C24 18.2044 23.6839 17.4413 23.1213 16.8787C22.5587 16.3161 21.7956 16 21 16ZM6 19V21C6 21.2653 5.89464 21.5196 5.70711 21.7071C5.51957 21.8947 5.26522 22 5 22H3C2.73478 22 2.48043 21.8947 2.29289 21.7071C2.10536 21.5196 2 21.2653 2 21V19C2 18.7348 2.10536 18.4805 2.29289 18.2929C2.48043 18.1054 2.73478 18 3 18H5C5.26522 18 5.51957 18.1054 5.70711 18.2929C5.89464 18.4805 6 18.7348 6 19ZM12 6.00004C11.6044 6.00004 11.2178 5.88274 10.8889 5.66298C10.56 5.44322 10.3036 5.13086 10.1522 4.76541C10.0009 4.39996 9.96126 3.99782 10.0384 3.60986C10.1156 3.2219 10.3061 2.86553 10.5858 2.58583C10.8655 2.30612 11.2219 2.11564 11.6098 2.03847C11.9978 1.9613 12.3999 2.00091 12.7654 2.15228C13.1308 2.30366 13.4432 2.56 13.6629 2.8889C13.8827 3.2178 14 3.60448 14 4.00004C14 4.53047 13.7893 5.03918 13.4142 5.41425C13.0391 5.78933 12.5304 6.00004 12 6.00004ZM22 21C22 21.2653 21.8946 21.5196 21.7071 21.7071C21.5196 21.8947 21.2652 22 21 22H19C18.7348 22 18.4804 21.8947 18.2929 21.7071C18.1054 21.5196 18 21.2653 18 21V19C18 18.7348 18.1054 18.4805 18.2929 18.2929C18.4804 18.1054 18.7348 18 19 18H21C21.2652 18 21.5196 18.1054 21.7071 18.2929C21.8946 18.4805 22 18.7348 22 19V21Z" fill="black"/>
</g>
<defs>
<clipPath id="clip0">
<rect width="24" height="24" fill="white"/>
</clipPath>
</defs>
</svg>
