<svg width="24" height="24" viewBox="0 0 24 24" fill="none" xmlns="http://www.w3.org/2000/svg">
<g clip-path="url(#clip0)">
<path d="M7 0C6.73478 0 6.48043 0.105357 6.29289 0.292893C6.10536 0.48043 6 0.734784 6 1V3C6 3.79565 5.68393 4.55871 5.12132 5.12132C4.55871 5.68393 3.79565 6 3 6H1C0.734784 6 0.48043 6.10536 0.292893 6.29289C0.105357 6.48043 0 6.73478 0 7C0 7.26522 0.105357 7.51957 0.292893 7.70711C0.48043 7.89464 0.734784 8 1 8H3C4.32559 7.99841 5.59644 7.47112 6.53378 6.53378C7.47112 5.59644 7.99841 4.32559 8 3V1C8 0.734784 7.89464 0.48043 7.70711 0.292893C7.51957 0.105357 7.26522 0 7 0V0Z" fill="black"/>
<path d="M23 16H21C19.6744 16.0016 18.4036 16.5289 17.4662 17.4662C16.5289 18.4036 16.0016 19.6744 16 21V23C16 23.2652 16.1054 23.5196 16.2929 23.7071C16.4804 23.8946 16.7348 24 17 24C17.2652 24 17.5196 23.8946 17.7071 23.7071C17.8946 23.5196 18 23.2652 18 23V21C18 20.2044 18.3161 19.4413 18.8787 18.8787C19.4413 18.3161 20.2044 18 21 18H23C23.2652 18 23.5196 17.8946 23.7071 17.7071C23.8946 17.5196 24 17.2652 24 17C24 16.7348 23.8946 16.4804 23.7071 16.2929C23.5196 16.1054 23.2652 16 23 16Z" fill="black"/>
<path d="M21 8H23C23.2652 8 23.5196 7.89464 23.7071 7.70711C23.8946 7.51957 24 7.26522 24 7C24 6.73478 23.8946 6.48043 23.7071 6.29289C23.5196 6.10536 23.2652 6 23 6H21C20.2044 6 19.4413 5.68393 18.8787 5.12132C18.3161 4.55871 18 3.79565 18 3V1C18 0.734784 17.8946 0.48043 17.7071 0.292893C17.5196 0.105357 17.2652 0 17 0C16.7348 0 16.4804 0.105357 16.2929 0.292893C16.1054 0.48043 16 0.734784 16 1V3C16.0016 4.32559 16.5289 5.59644 17.4662 6.53378C18.4036 7.47112 19.6744 7.99841 21 8Z" fill="black"/>
<path d="M3 16H1C0.734784 16 0.48043 16.1054 0.292893 16.2929C0.105357 16.4804 0 16.7348 0 17C0 17.2652 0.105357 17.5196 0.292893 17.7071C0.48043 17.8946 0.734784 18 1 18H3C3.79565 18 4.55871 18.3161 5.12132 18.8787C5.68393 19.4413 6 20.2044 6 21V23C6 23.2652 6.10536 23.5196 6.29289 23.7071C6.48043 23.8946 6.73478 24 7 24C7.26522 24 7.51957 23.8946 7.70711 23.7071C7.89464 23.5196 8 23.2652 8 23V21C7.99841 19.6744 7.47112 18.4036 6.53378 17.4662C5.59644 16.5289 4.32559 16.0016 3 16Z" fill="black"/>
</g>
<defs>
<clipPath id="clip0">
<rect width="24" height="24" fill="white"/>
</clipPath>
</defs>
</svg>
