<svg width="24" height="24" viewBox="0 0 24 24" fill="none" xmlns="http://www.w3.org/2000/svg">
<path d="M21.0002 12.424V11C21.0002 8.61305 20.052 6.32387 18.3642 4.63604C16.6763 2.94821 14.3871 2 12.0002 2C9.61325 2 7.32406 2.94821 5.63623 4.63604C3.94841 6.32387 3.00019 8.61305 3.00019 11V12.424C1.95135 12.8858 1.093 13.694 0.568816 14.7131C0.0446374 15.7322 -0.113544 16.9004 0.120752 18.0222C0.355049 19.1441 0.967602 20.1513 1.85586 20.8755C2.74413 21.5996 3.85418 21.9966 5.00019 22C5.53063 22 6.03934 21.7893 6.41441 21.4142C6.78948 21.0391 7.00019 20.5304 7.00019 20V14C7.00019 13.4696 6.78948 12.9609 6.41441 12.5858C6.03934 12.2107 5.53063 12 5.00019 12V11C5.00019 9.14348 5.73769 7.36301 7.05045 6.05025C8.3632 4.7375 10.1437 4 12.0002 4C13.8567 4 15.6372 4.7375 16.9499 6.05025C18.2627 7.36301 19.0002 9.14348 19.0002 11V12C18.4698 12 17.9611 12.2107 17.586 12.5858C17.2109 12.9609 17.0002 13.4696 17.0002 14V20C17.0002 20.5304 17.2109 21.0391 17.586 21.4142C17.9611 21.7893 18.4698 22 19.0002 22C20.1462 21.9966 21.2563 21.5996 22.1445 20.8755C23.0328 20.1513 23.6453 19.1441 23.8796 18.0222C24.1139 16.9004 23.9558 15.7322 23.4316 14.7131C22.9074 13.694 22.049 12.8858 21.0002 12.424ZM5.00019 20C4.20455 20 3.44148 19.6839 2.87887 19.1213C2.31627 18.5587 2.00019 17.7956 2.00019 17C2.00019 16.2044 2.31627 15.4413 2.87887 14.8787C3.44148 14.3161 4.20455 14 5.00019 14V20ZM19.0002 20V14C19.7958 14 20.5589 14.3161 21.1215 14.8787C21.6841 15.4413 22.0002 16.2044 22.0002 17C22.0002 17.7956 21.6841 18.5587 21.1215 19.1213C20.5589 19.6839 19.7958 20 19.0002 20Z" fill="black"/>
</svg>
