<svg width="24" height="24" viewBox="0 0 24 24" fill="none" xmlns="http://www.w3.org/2000/svg">
<g clip-path="url(#clip0)">
<path d="M13.9998 17.9996C13.6592 17.9996 13.3211 18.0574 12.9998 18.1706V17.9996C12.9998 17.7343 13.1052 17.48 13.2927 17.2925C13.4802 17.1049 13.7346 16.9996 13.9998 16.9996C14.1419 16.9986 14.2824 17.0285 14.4119 17.087C14.5414 17.1455 14.6566 17.2313 14.7498 17.3386C14.8355 17.4407 14.9408 17.5246 15.0595 17.5855C15.1782 17.6463 15.3078 17.6828 15.4408 17.6928C15.5737 17.7028 15.7074 17.6861 15.8338 17.6437C15.9602 17.6013 16.0769 17.534 16.1769 17.4458C16.2769 17.3577 16.3583 17.2504 16.4163 17.1303C16.4743 17.0102 16.5076 16.8797 16.5144 16.7466C16.5212 16.6134 16.5013 16.4802 16.4559 16.3548C16.4104 16.2295 16.3404 16.1145 16.2498 16.0166C15.8468 15.5596 15.3143 15.2362 14.723 15.0893C14.1317 14.9425 13.5097 14.9791 12.9398 15.1944C12.3698 15.4097 11.8789 15.7934 11.5324 16.2945C11.1858 16.7956 11.0001 17.3903 10.9998 17.9996V20.9996C11 21.6509 11.2122 22.2845 11.6043 22.8046C11.9964 23.3246 12.5471 23.703 13.1732 23.8825C13.7994 24.0619 14.4669 24.0327 15.0749 23.7993C15.683 23.5659 16.1986 23.1409 16.5438 22.5886C16.8223 22.1402 16.9798 21.6274 17.001 21.1C17.0222 20.5727 16.9064 20.0488 16.6648 19.5796C16.4115 19.0944 16.0279 18.6895 15.5571 18.4103C15.0863 18.1312 14.547 17.989 13.9998 17.9996ZM14.8488 21.5286C14.7567 21.6763 14.6276 21.7974 14.4744 21.88C14.3211 21.9625 14.1489 22.0036 13.9749 21.9992C13.8009 21.9948 13.631 21.9451 13.4821 21.8549C13.3332 21.7647 13.2104 21.6372 13.1259 21.485C13.0414 21.3328 12.9981 21.1612 13.0003 20.9871C13.0024 20.813 13.05 20.6425 13.1383 20.4925C13.2265 20.3425 13.3525 20.2181 13.5036 20.1316C13.6547 20.0451 13.8257 19.9996 13.9998 19.9996C14.1718 19.9902 14.3431 20.0275 14.4956 20.1076C14.648 20.1877 14.776 20.3076 14.8658 20.4546C14.9581 20.6191 15.0051 20.8052 15.0021 20.9939C14.9992 21.1825 14.9462 21.367 14.8488 21.5286ZM20.9998 14.9996C20.2042 14.9996 19.4411 15.3156 18.8785 15.8782C18.3159 16.4408 17.9998 17.2039 17.9998 17.9996V20.9996C17.9998 21.7952 18.3159 22.5583 18.8785 23.1209C19.4411 23.6835 20.2042 23.9996 20.9998 23.9996C21.7955 23.9996 22.5585 23.6835 23.1211 23.1209C23.6837 22.5583 23.9998 21.7952 23.9998 20.9996V17.9996C23.9998 17.2039 23.6837 16.4408 23.1211 15.8782C22.5585 15.3156 21.7955 14.9996 20.9998 14.9996ZM21.9998 20.9996C21.9998 21.2648 21.8944 21.5191 21.7069 21.7067C21.5194 21.8942 21.265 21.9996 20.9998 21.9996C20.7346 21.9996 20.4802 21.8942 20.2927 21.7067C20.1052 21.5191 19.9998 21.2648 19.9998 20.9996V17.9996C19.9998 17.7343 20.1052 17.48 20.2927 17.2925C20.4802 17.1049 20.7346 16.9996 20.9998 16.9996C21.265 16.9996 21.5194 17.1049 21.7069 17.2925C21.8944 17.48 21.9998 17.7343 21.9998 17.9996V20.9996ZM11.9998 12.9996H7.9998C7.73459 12.9996 7.48023 12.8942 7.29269 12.7067C7.10516 12.5191 6.9998 12.2648 6.9998 11.9996C6.9998 11.7343 7.10516 11.48 7.29269 11.2925C7.48023 11.1049 7.73459 10.9996 7.9998 10.9996H10.9998V6.99956C10.9998 6.73434 11.1052 6.47999 11.2927 6.29245C11.4802 6.10492 11.7346 5.99956 11.9998 5.99956C12.265 5.99956 12.5194 6.10492 12.7069 6.29245C12.8944 6.47999 12.9998 6.73434 12.9998 6.99956V11.9996C12.9998 12.2648 12.8944 12.5191 12.7069 12.7067C12.5194 12.8942 12.265 12.9996 11.9998 12.9996ZM23.9998 2.99956V5.99956C23.9998 6.79521 23.6837 7.55827 23.1211 8.12088C22.5585 8.68349 21.7955 8.99956 20.9998 8.99956H17.9998C17.7346 8.99956 17.4802 8.8942 17.2927 8.70667C17.1052 8.51913 16.9998 8.26478 16.9998 7.99956C16.9998 7.73434 17.1052 7.47999 17.2927 7.29245C17.4802 7.10492 17.7346 6.99956 17.9998 6.99956H20.6368C19.8366 5.61869 18.7173 4.4496 17.3726 3.59015C16.0278 2.73071 14.4967 2.20592 12.9075 2.05973C11.3182 1.91353 9.71708 2.15018 8.23809 2.74987C6.75909 3.34955 5.44527 4.29482 4.40662 5.50653C3.36797 6.71825 2.63471 8.16115 2.26823 9.71446C1.90175 11.2678 1.91271 12.8862 2.30019 14.4344C2.68767 15.9826 3.4404 17.4155 4.49536 18.613C5.55032 19.8106 6.87682 20.738 8.3638 21.3176C8.61098 21.4141 8.80969 21.6049 8.91621 21.8479C9.02273 22.091 9.02834 22.3664 8.9318 22.6136C8.83526 22.8607 8.64449 23.0595 8.40144 23.166C8.15839 23.2725 7.88298 23.2781 7.6358 23.1816C5.87846 22.4961 4.30746 21.406 3.05028 19.9997C1.7931 18.5934 0.88515 16.9105 0.400101 15.0877C-0.0849487 13.2648 -0.133435 11.3532 0.258576 9.50812C0.650587 7.663 1.47205 5.93628 2.65632 4.46806C3.84059 2.99985 5.3543 1.8315 7.07463 1.0578C8.79497 0.284113 10.6735 -0.0731234 12.5577 0.0150807C14.4419 0.103285 16.2789 0.634445 17.9194 1.56546C19.5599 2.49648 20.9579 3.80113 21.9998 5.37356V2.99956C21.9998 2.73434 22.1052 2.47999 22.2927 2.29245C22.4802 2.10492 22.7346 1.99956 22.9998 1.99956C23.265 1.99956 23.5194 2.10492 23.7069 2.29245C23.8944 2.47999 23.9998 2.73434 23.9998 2.99956Z" fill="black"/>
</g>
<defs>
<clipPath id="clip0">
<rect width="24" height="24" fill="white"/>
</clipPath>
</defs>
</svg>
