<svg width="24" height="24" viewBox="0 0 24 24" fill="none" xmlns="http://www.w3.org/2000/svg">
<path d="M22.6102 0.20757C22.4003 0.0464985 22.1351 -0.0247889 21.8726 0.00932478C21.6102 0.0434384 21.372 0.180172 21.2102 0.38957L12.0002 12.3596L2.79224 0.38957C2.62791 0.186991 2.39093 0.0566413 2.13185 0.0263258C1.87277 -0.0039897 1.61209 0.0681288 1.40543 0.227298C1.19878 0.386466 1.06249 0.620085 1.02565 0.87832C0.988812 1.13655 1.05433 1.39896 1.20824 1.60957L10.7382 13.9996H6.00024C5.73502 13.9996 5.48067 14.1049 5.29313 14.2925C5.1056 14.48 5.00024 14.7344 5.00024 14.9996C5.00024 15.2648 5.1056 15.5191 5.29313 15.7067C5.48067 15.8942 5.73502 15.9996 6.00024 15.9996H11.0002V17.9996H6.00024C5.73502 17.9996 5.48067 18.1049 5.29313 18.2925C5.1056 18.48 5.00024 18.7344 5.00024 18.9996C5.00024 19.2648 5.1056 19.5191 5.29313 19.7067C5.48067 19.8942 5.73502 19.9996 6.00024 19.9996H11.0002V22.9996C11.0002 23.2648 11.1056 23.5191 11.2931 23.7067C11.4807 23.8942 11.735 23.9996 12.0002 23.9996C12.2655 23.9996 12.5198 23.8942 12.7073 23.7067C12.8949 23.5191 13.0002 23.2648 13.0002 22.9996V19.9996H18.0002C18.2655 19.9996 18.5198 19.8942 18.7073 19.7067C18.8949 19.5191 19.0002 19.2648 19.0002 18.9996C19.0002 18.7344 18.8949 18.48 18.7073 18.2925C18.5198 18.1049 18.2655 17.9996 18.0002 17.9996H13.0002V15.9996H18.0002C18.2655 15.9996 18.5198 15.8942 18.7073 15.7067C18.8949 15.5191 19.0002 15.2648 19.0002 14.9996C19.0002 14.7344 18.8949 14.48 18.7073 14.2925C18.5198 14.1049 18.2655 13.9996 18.0002 13.9996H13.2622L22.7922 1.60957C22.9539 1.39949 23.0256 1.13379 22.9915 0.870893C22.9573 0.607993 22.8202 0.369403 22.6102 0.20757Z" fill="black"/>
</svg>
