<svg width="24" height="24" viewBox="0 0 24 24" fill="none" xmlns="http://www.w3.org/2000/svg">
<g clip-path="url(#clip0)">
<path d="M23.2711 9.41885C22.3683 7.94057 21.2296 6.6201 19.9001 5.50985L22.7001 2.70985C22.8822 2.52125 22.983 2.26864 22.9807 2.00645C22.9784 1.74425 22.8733 1.49344 22.6879 1.30803C22.5025 1.12262 22.2516 1.01745 21.9895 1.01517C21.7273 1.0129 21.4747 1.11369 21.2861 1.29585L18.2411 4.34485C16.3534 3.22367 14.1955 2.63931 12.0001 2.65485C5.80905 2.65485 2.28105 6.89285 0.729051 9.41885C0.249579 10.1944 -0.00439453 11.0881 -0.00439453 11.9998C-0.00439453 12.9116 0.249579 13.8053 0.729051 14.5808C1.63181 16.0591 2.77054 17.3796 4.10005 18.4898L1.30005 21.2899C1.20454 21.3821 1.12836 21.4924 1.07595 21.6144C1.02354 21.7364 0.995955 21.8677 0.994801 22.0004C0.993647 22.1332 1.01895 22.2649 1.06923 22.3878C1.11951 22.5107 1.19376 22.6224 1.28766 22.7162C1.38155 22.8101 1.4932 22.8844 1.6161 22.9347C1.73899 22.985 1.87067 23.0103 2.00345 23.0091C2.13623 23.0079 2.26745 22.9804 2.38946 22.9279C2.51146 22.8755 2.6218 22.7994 2.71405 22.7038L5.76605 19.6518C7.65132 20.7728 9.80672 21.3582 12.0001 21.3448C18.1911 21.3448 21.7191 17.1068 23.2711 14.5808C23.7505 13.8053 24.0045 12.9116 24.0045 11.9998C24.0045 11.0881 23.7505 10.1944 23.2711 9.41885ZM2.43305 13.5338C2.14819 13.0729 1.9973 12.5417 1.9973 11.9998C1.9973 11.458 2.14819 10.9268 2.43305 10.4658C3.76705 8.29985 6.78205 4.65485 12.0001 4.65485C13.6603 4.64555 15.2973 5.04569 16.7661 5.81985L14.7531 7.83285C13.793 7.19545 12.642 6.90984 11.4953 7.02449C10.3486 7.13914 9.27692 7.64699 8.46205 8.46185C7.64719 9.27671 7.13935 10.3484 7.0247 11.4951C6.91005 12.6418 7.19565 13.7928 7.83305 14.7528L5.52305 17.0628C4.29815 16.0726 3.25289 14.8788 2.43305 13.5338ZM15.0001 11.9998C15.0001 12.7955 14.684 13.5586 14.1214 14.1212C13.5588 14.6838 12.7957 14.9998 12.0001 14.9998C11.5546 14.9981 11.1152 14.8956 10.7151 14.6998L14.7001 10.7148C14.8958 11.115 14.9983 11.5544 15.0001 11.9998ZM9.00005 11.9998C9.00005 11.2042 9.31612 10.4411 9.87873 9.87853C10.4413 9.31592 11.2044 8.99985 12.0001 8.99985C12.4455 9.00157 12.8849 9.10414 13.2851 9.29985L9.30005 13.2848C9.10434 12.8847 9.00178 12.4453 9.00005 11.9998ZM21.5671 13.5338C20.2331 15.6998 17.2181 19.3448 12.0001 19.3448C10.3398 19.3542 8.70282 18.954 7.23405 18.1798L9.24705 16.1668C10.2071 16.8042 11.3581 17.0899 12.5048 16.9752C13.6515 16.8606 14.7232 16.3527 15.538 15.5378C16.3529 14.723 16.8608 13.6513 16.9754 12.5046C17.0901 11.3579 16.8044 10.2069 16.1671 9.24685L18.4771 6.93685C19.7019 7.92713 20.7472 9.1209 21.5671 10.4658C21.8519 10.9268 22.0028 11.458 22.0028 11.9998C22.0028 12.5417 21.8519 13.0729 21.5671 13.5338Z" fill="black"/>
</g>
<defs>
<clipPath id="clip0">
<rect width="24" height="24" fill="white"/>
</clipPath>
</defs>
</svg>
