<svg width="24" height="24" viewBox="0 0 24 24" fill="none" xmlns="http://www.w3.org/2000/svg">
<g clip-path="url(#clip0)">
<path d="M19 2.00009H16.461C15.7695 1.2119 14.8807 0.622029 13.8858 0.291097C12.8909 -0.0398354 11.8258 -0.099895 10.8 0.11709C9.55068 0.37186 8.42128 1.03416 7.589 2.00009H5C3.67441 2.00168 2.40356 2.52897 1.46622 3.46631C0.528882 4.40365 0.00158786 5.6745 0 7.00009L0 19.0001C0.00158786 20.3257 0.528882 21.5965 1.46622 22.5339C2.40356 23.4712 3.67441 23.9985 5 24.0001H19C20.3256 23.9985 21.5964 23.4712 22.5338 22.5339C23.4711 21.5965 23.9984 20.3257 24 19.0001V7.00009C23.9984 5.6745 23.4711 4.40365 22.5338 3.46631C21.5964 2.52897 20.3256 2.00168 19 2.00009ZM12 2.00009C13.0609 2.00009 14.0783 2.42152 14.8284 3.17166C15.5786 3.92181 16 4.93922 16 6.00009C16 6.26531 15.8946 6.51966 15.7071 6.7072C15.5196 6.89473 15.2652 7.00009 15 7.00009H12.868L13.832 5.55509C13.9792 5.33443 14.0327 5.06433 13.9808 4.80422C13.9288 4.54411 13.7757 4.31529 13.555 4.16809C13.3343 4.0209 13.0642 3.96739 12.8041 4.01933C12.544 4.07128 12.3152 4.22443 12.168 4.44509L10.465 7.00009H9C8.73478 7.00009 8.48043 6.89473 8.29289 6.7072C8.10536 6.51966 8 6.26531 8 6.00009C8 4.93922 8.42143 3.92181 9.17157 3.17166C9.92172 2.42152 10.9391 2.00009 12 2.00009ZM22 19.0001C22 19.7957 21.6839 20.5588 21.1213 21.1214C20.5587 21.684 19.7956 22.0001 19 22.0001H5C4.20435 22.0001 3.44129 21.684 2.87868 21.1214C2.31607 20.5588 2 19.7957 2 19.0001V7.00009C2 6.20444 2.31607 5.44138 2.87868 4.87877C3.44129 4.31616 4.20435 4.00009 5 4.00009H6.393C6.1339 4.70987 6.0009 5.45949 6 6.21509C6.00079 6.95347 6.29447 7.66139 6.81658 8.18351C7.3387 8.70562 8.04662 8.9993 8.785 9.00009H15.215C15.932 9.00668 16.6235 8.73418 17.1432 8.24021C17.6629 7.74623 17.9702 7.0695 18 6.35309C18.01 5.55553 17.8939 4.76139 17.656 4.00009H19C19.7956 4.00009 20.5587 4.31616 21.1213 4.87877C21.6839 5.44138 22 6.20444 22 7.00009V19.0001Z" fill="black"/>
</g>
<defs>
<clipPath id="clip0">
<rect width="24" height="24" fill="white"/>
</clipPath>
</defs>
</svg>
