<svg width="24" height="24" viewBox="0 0 24 24" fill="none" xmlns="http://www.w3.org/2000/svg">
<path d="M17.172 24.0004C16.9068 24.0003 16.6525 23.895 16.465 23.7074L8.29303 15.5354C7.35568 14.5978 6.8291 13.3262 6.8291 12.0004C6.8291 10.6746 7.35568 9.40305 8.29303 8.46541L16.465 0.293407C16.6536 0.111249 16.9062 0.0104547 17.1684 0.0127331C17.4306 0.0150115 17.6814 0.12018 17.8669 0.305589C18.0523 0.490997 18.1574 0.741809 18.1597 1.00401C18.162 1.2662 18.0612 1.5188 17.879 1.70741L9.70703 9.87941C9.14462 10.442 8.82867 11.2049 8.82867 12.0004C8.82867 12.7959 9.14462 13.5588 9.70703 14.1214L17.879 22.2934C18.0188 22.4333 18.1141 22.6114 18.1526 22.8054C18.1912 22.9993 18.1714 23.2004 18.0957 23.3831C18.02 23.5658 17.8919 23.7219 17.7275 23.8318C17.5631 23.9417 17.3698 24.0004 17.172 24.0004Z" fill="black"/>
</svg>
