<svg width="24" height="24" viewBox="0 0 24 24" fill="none" xmlns="http://www.w3.org/2000/svg">
<g clip-path="url(#clip0)">
<path d="M8 4H4C2.93913 4 1.92172 4.42143 1.17157 5.17157C0.421427 5.92172 0 6.93913 0 8L0 12C0 12.5304 0.210714 13.0391 0.585786 13.4142C0.960859 13.7893 1.46957 14 2 14H7.91C7.67273 15.3965 6.94948 16.6643 5.86803 17.5792C4.78658 18.4941 3.41655 18.9974 2 19C1.73478 19 1.48043 19.1054 1.29289 19.2929C1.10536 19.4804 1 19.7348 1 20C1 20.2652 1.10536 20.5196 1.29289 20.7071C1.48043 20.8946 1.73478 21 2 21C4.121 20.9976 6.15445 20.154 7.65422 18.6542C9.154 17.1544 9.99762 15.121 10 13V6C10 5.46957 9.78929 4.96086 9.41421 4.58579C9.03914 4.21071 8.53043 4 8 4Z" fill="black"/>
<path d="M22 4H18C16.9391 4 15.9217 4.42143 15.1716 5.17157C14.4214 5.92172 14 6.93913 14 8V12C14 12.5304 14.2107 13.0391 14.5858 13.4142C14.9609 13.7893 15.4696 14 16 14H21.91C21.6727 15.3965 20.9495 16.6643 19.868 17.5792C18.7866 18.4941 17.4166 18.9974 16 19C15.7348 19 15.4804 19.1054 15.2929 19.2929C15.1054 19.4804 15 19.7348 15 20C15 20.2652 15.1054 20.5196 15.2929 20.7071C15.4804 20.8946 15.7348 21 16 21C18.121 20.9976 20.1544 20.154 21.6542 18.6542C23.154 17.1544 23.9976 15.121 24 13V6C24 5.46957 23.7893 4.96086 23.4142 4.58579C23.0391 4.21071 22.5304 4 22 4Z" fill="black"/>
</g>
<defs>
<clipPath id="clip0">
<rect width="24" height="24" fill="white"/>
</clipPath>
</defs>
</svg>
