<svg width="24" height="24" viewBox="0 0 24 24" fill="none" xmlns="http://www.w3.org/2000/svg">
<g clip-path="url(#clip0)">
<path d="M15.9088 24.0002C15.1375 23.9995 14.398 23.6927 13.8527 23.1473C13.3073 22.602 13.0006 21.8625 12.9998 21.0912V15.0002C12.9998 14.735 12.8944 14.4807 12.7069 14.2931C12.5193 14.1056 12.265 14.0002 11.9998 14.0002C11.7345 14.0002 11.4802 14.1056 11.2927 14.2931C11.1051 14.4807 10.9998 14.735 10.9998 15.0002V21.0912C10.9998 21.7298 10.7898 22.3506 10.4022 22.858C10.0145 23.3654 9.47073 23.7313 8.85464 23.8991C8.23855 24.0669 7.58436 24.0275 6.99291 23.7868C6.40146 23.5461 5.9056 23.1176 5.58176 22.5672C3.18576 18.4632 -0.00024172 12.2792 -0.00024172 6.00025C-0.0304194 5.20422 0.104132 4.41053 0.394981 3.66892C0.685831 2.92731 1.12671 2.25376 1.68999 1.69048C2.25328 1.1272 2.92682 0.686319 3.66843 0.39547C4.41004 0.10462 5.20373 -0.0299311 5.99976 0.000246562C7.32877 0.000757736 8.6496 0.208244 9.91476 0.615247C10.5863 0.848146 11.2893 0.977952 11.9998 1.00025C12.7102 0.977952 13.4132 0.848146 14.0848 0.615247C15.3499 0.208117 16.6707 0.000627501 17.9998 0.000246562C18.7958 -0.0299311 19.5895 0.10462 20.3311 0.39547C21.0727 0.686319 21.7462 1.1272 22.3095 1.69048C22.8728 2.25376 23.3137 2.92731 23.6045 3.66892C23.8954 4.41053 24.0299 5.20422 23.9998 6.00025C23.9998 12.2782 20.8138 18.4622 18.4178 22.5672C18.1605 23.0038 17.7936 23.3657 17.3536 23.617C16.9136 23.8683 16.4155 24.0004 15.9088 24.0002ZM11.9998 12.0002C12.7954 12.0002 13.5585 12.3163 14.1211 12.8789C14.6837 13.4415 14.9998 14.2046 14.9998 15.0002V21.0912C15.0001 21.2901 15.0656 21.4834 15.1861 21.6417C15.3066 21.7999 15.4756 21.9143 15.6673 21.9674C15.8589 22.0206 16.0627 22.0096 16.2475 21.9361C16.4323 21.8625 16.588 21.7305 16.6908 21.5602C18.9698 17.6542 21.9998 11.7932 21.9998 6.00025C22.0209 5.4693 21.9319 4.93974 21.7383 4.44487C21.5448 3.95001 21.2509 3.50057 20.8752 3.12484C20.4994 2.74911 20.05 2.45523 19.5551 2.26168C19.0603 2.06814 18.5307 1.97912 17.9998 2.00025C16.8591 1.99966 15.7256 2.18059 14.6418 2.53625C13.7894 2.82263 12.8987 2.97904 11.9998 3.00025C11.1008 2.97914 10.2101 2.82271 9.35776 2.53625C8.27392 2.18069 7.14043 1.99976 5.99976 2.00025C2.04476 2.00025 1.99976 5.83725 1.99976 6.00025C1.99976 11.7942 5.02976 17.6552 7.30976 21.5602C7.41225 21.7308 7.56782 21.8631 7.75265 21.9368C7.93747 22.0105 8.14136 22.0216 8.3331 21.9684C8.52484 21.9152 8.69385 21.8006 8.81425 21.6422C8.93466 21.4837 8.99982 21.2902 8.99976 21.0912V15.0002C8.99976 14.2046 9.31583 13.4415 9.87844 12.8789C10.441 12.3163 11.2041 12.0002 11.9998 12.0002Z" fill="black"/>
</g>
<defs>
<clipPath id="clip0">
<rect width="24" height="24" fill="white"/>
</clipPath>
</defs>
</svg>
