<svg width="24" height="24" viewBox="0 0 24 24" fill="none" xmlns="http://www.w3.org/2000/svg">
<g clip-path="url(#clip0)">
<path d="M7 22H5C4.20435 22 3.44129 21.6839 2.87868 21.1213C2.31607 20.5587 2 19.7956 2 19V5C2 4.20435 2.31607 3.44129 2.87868 2.87868C3.44129 2.31607 4.20435 2 5 2H7C7.26522 2 7.51957 1.89464 7.70711 1.70711C7.89464 1.51957 8 1.26522 8 1C8 0.734784 7.89464 0.48043 7.70711 0.292893C7.51957 0.105357 7.26522 0 7 0L5 0C3.67441 0.00158786 2.40356 0.528882 1.46622 1.46622C0.528882 2.40356 0.00158786 3.67441 0 5L0 19C0.00158786 20.3256 0.528882 21.5964 1.46622 22.5338C2.40356 23.4711 3.67441 23.9984 5 24H7C7.26522 24 7.51957 23.8946 7.70711 23.7071C7.89464 23.5196 8 23.2652 8 23C8 22.7348 7.89464 22.4804 7.70711 22.2929C7.51957 22.1054 7.26522 22 7 22Z" fill="black"/>
<path d="M18.538 18.7074L23.125 14.1214C23.6857 13.5579 24.0005 12.7953 24.0005 12.0004C24.0005 11.2055 23.6857 10.4429 23.125 9.87941L18.538 5.29341C18.3494 5.11125 18.0968 5.01045 17.8346 5.01273C17.5724 5.01501 17.3216 5.12018 17.1362 5.30559C16.9508 5.491 16.8456 5.74181 16.8433 6.00401C16.841 6.2662 16.9418 6.5188 17.124 6.70741L21.416 11.0004H6C5.73478 11.0004 5.48043 11.1058 5.29289 11.2933C5.10536 11.4808 5 11.7352 5 12.0004C5 12.2656 5.10536 12.52 5.29289 12.7075C5.48043 12.8951 5.73478 13.0004 6 13.0004H21.417L17.124 17.2934C17.0285 17.3857 16.9523 17.496 16.8999 17.618C16.8475 17.74 16.8199 17.8712 16.8188 18.004C16.8176 18.1368 16.8429 18.2685 16.8932 18.3914C16.9435 18.5143 17.0177 18.6259 17.1116 18.7198C17.2055 18.8137 17.3172 18.8879 17.44 18.9382C17.5629 18.9885 17.6946 19.0138 17.8274 19.0127C17.9602 19.0115 18.0914 18.9839 18.2134 18.9315C18.3354 18.8791 18.4458 18.8029 18.538 18.7074Z" fill="black"/>
</g>
<defs>
<clipPath id="clip0">
<rect width="24" height="24" fill="white"/>
</clipPath>
</defs>
</svg>
