<svg width="24" height="24" viewBox="0 0 24 24" fill="none" xmlns="http://www.w3.org/2000/svg">
<path d="M17.7918 7.21221C17.3475 5.30149 16.2165 3.62065 14.614 2.48919C13.0114 1.35773 11.049 0.854523 9.09978 1.07522C7.15052 1.29592 5.3503 2.22514 4.0413 3.68625C2.7323 5.14736 2.00578 7.0385 1.99984 9.00021C1.99898 10.2786 2.30778 11.5382 2.89984 12.6712C1.82097 13.2493 0.966238 14.1714 0.471458 15.291C-0.0233229 16.4106 -0.129776 17.6634 0.16901 18.8503C0.467797 20.0373 1.15469 21.0904 2.12054 21.8423C3.0864 22.5942 4.27582 23.0017 5.49984 23.0002H15.9998C17.9589 22.9911 19.8466 22.2635 21.3049 20.9552C22.7632 19.647 23.6907 17.8491 23.9117 15.9025C24.1326 13.9559 23.6316 11.9959 22.5036 10.3941C21.3756 8.79234 19.6991 7.66014 17.7918 7.21221ZM15.9998 21.0002H5.49984C4.64826 21.0028 3.82512 20.6939 3.18536 20.1319C2.54559 19.5699 2.13332 18.7934 2.02615 17.9486C1.91899 17.1037 2.12431 16.2489 2.60347 15.5449C3.08264 14.8409 3.8026 14.3364 4.62784 14.1262C4.78639 14.0853 4.93246 14.0061 5.05323 13.8955C5.17399 13.7849 5.26576 13.6464 5.32046 13.492C5.37516 13.3377 5.39113 13.1723 5.36696 13.0103C5.34279 12.8484 5.27922 12.6948 5.18184 12.5632C4.41311 11.5345 3.9984 10.2844 3.99984 9.00021C4.01125 7.48619 4.59462 6.03246 5.63298 4.93056C6.67133 3.82866 8.08789 3.16005 9.59856 3.05884C11.1092 2.95762 12.6023 3.43127 13.7784 4.3848C14.9545 5.33834 15.7266 6.70125 15.9398 8.20021C15.9686 8.41786 16.0682 8.62 16.2233 8.77542C16.3783 8.93085 16.5803 9.03093 16.7978 9.06021C18.2967 9.27344 19.6595 10.0454 20.613 11.2212C21.5665 12.3971 22.0403 13.89 21.9394 15.4005C21.8384 16.911 21.1702 18.3276 20.0686 19.3661C18.9671 20.4046 17.5137 20.9883 15.9998 21.0002Z" fill="black"/>
</svg>
