<svg width="24" height="24" viewBox="0 0 24 24" fill="none" xmlns="http://www.w3.org/2000/svg">
<g clip-path="url(#clip0)">
<path d="M20.0249 22.0258H19.0249V20.3708C19.0228 19.8347 18.9133 19.3045 18.7029 18.8114C18.4925 18.3183 18.1854 17.8723 17.7999 17.4998C15.8759 15.6408 15.0909 13.5108 15.0339 10.0238H16.0219C16.2871 10.0238 16.5414 9.91849 16.729 9.73095C16.9165 9.54342 17.0219 9.28906 17.0219 9.02384C17.0219 8.75863 16.9165 8.50427 16.729 8.31674C16.5414 8.1292 16.2871 8.02384 16.0219 8.02384H15.4659C15.8263 7.41869 16.0182 6.72817 16.0219 6.02385C16.0219 4.64885 14.8599 2.30684 14.1289 1.15384C13.9028 0.800391 13.5914 0.509527 13.2233 0.308053C12.8553 0.106579 12.4425 0.000976562 12.0229 0.000976562C11.6033 0.000976562 11.1905 0.106579 10.8224 0.308053C10.4544 0.509527 10.143 0.800391 9.91688 1.15384C9.18488 2.30784 8.02288 4.65384 8.02288 6.02485C8.02702 6.7291 8.21896 7.4195 8.57888 8.02484H8.02588C7.76066 8.02484 7.50631 8.1302 7.31877 8.31774C7.13124 8.50527 7.02588 8.75963 7.02588 9.02484C7.02588 9.29006 7.13124 9.54442 7.31877 9.73195C7.50631 9.91949 7.76066 10.0248 8.02588 10.0248H9.01488C8.95688 13.5118 8.17088 15.6408 6.24888 17.4998C5.86402 17.8726 5.55757 18.3185 5.34754 18.8113C5.13751 19.3042 5.02815 19.8341 5.02588 20.3698V22.0248H4.02588C3.76066 22.0248 3.50631 22.1302 3.31877 22.3177C3.13124 22.5053 3.02588 22.7596 3.02588 23.0248C3.02588 23.2901 3.13124 23.5444 3.31877 23.732C3.50631 23.9195 3.76066 24.0248 4.02588 24.0248H20.0259C20.2911 24.0248 20.5455 23.9195 20.733 23.732C20.9205 23.5444 21.0259 23.2901 21.0259 23.0248C21.0259 22.7596 20.9205 22.5053 20.733 22.3177C20.5455 22.1302 20.2911 22.0248 20.0259 22.0248L20.0249 22.0258ZM11.6079 2.22584C11.6534 2.15674 11.7154 2.10001 11.7883 2.06076C11.8611 2.02152 11.9426 2.00097 12.0254 2.00097C12.1081 2.00097 12.1896 2.02152 12.2625 2.06076C12.3354 2.10001 12.3973 2.15674 12.4429 2.22584C13.21 3.37881 13.7472 4.66912 14.0249 6.02585C14.0249 6.55628 13.8142 7.06499 13.4391 7.44006C13.064 7.81513 12.5553 8.02584 12.0249 8.02584C11.4944 8.02584 10.9857 7.81513 10.6107 7.44006C10.2356 7.06499 10.0249 6.55628 10.0249 6.02585C10.3033 4.66948 10.8408 3.37956 11.6079 2.22684V2.22584ZM13.0379 10.0258C13.0919 13.5418 13.8379 15.9768 15.5599 18.0258H8.49088C10.2109 15.9768 10.9589 13.5408 11.0139 10.0258H13.0379ZM7.02588 20.3708C7.02736 20.255 7.03941 20.1395 7.06188 20.0258H16.9899C17.0115 20.1396 17.0232 20.255 17.0249 20.3708V22.0258H7.02488L7.02588 20.3708Z" fill="black"/>
</g>
<defs>
<clipPath id="clip0">
<rect width="24" height="24" fill="white"/>
</clipPath>
</defs>
</svg>
