<svg width="24" height="24" viewBox="0 0 24 24" fill="none" xmlns="http://www.w3.org/2000/svg">
<path d="M19 20H5C3.67441 19.9984 2.40356 19.4711 1.46622 18.5338C0.528882 17.5964 0.00158786 16.3256 0 15L0 9C0.00158786 7.67441 0.528882 6.40356 1.46622 5.46622C2.40356 4.52888 3.67441 4.00159 5 4H19C20.3256 4.00159 21.5964 4.52888 22.5338 5.46622C23.4711 6.40356 23.9984 7.67441 24 9V15C23.9984 16.3256 23.4711 17.5964 22.5338 18.5338C21.5964 19.4711 20.3256 19.9984 19 20ZM5 6C4.20435 6 3.44129 6.31607 2.87868 6.87868C2.31607 7.44129 2 8.20435 2 9V15C2 15.7956 2.31607 16.5587 2.87868 17.1213C3.44129 17.6839 4.20435 18 5 18H19C19.7956 18 20.5587 17.6839 21.1213 17.1213C21.6839 16.5587 22 15.7956 22 15V9C22 8.20435 21.6839 7.44129 21.1213 6.87868C20.5587 6.31607 19.7956 6 19 6H5ZM12 16C11.2089 16 10.4355 15.7654 9.77772 15.3259C9.11992 14.8864 8.60723 14.2616 8.30448 13.5307C8.00173 12.7998 7.92252 11.9956 8.07686 11.2196C8.2312 10.4437 8.61216 9.73098 9.17157 9.17157C9.73098 8.61216 10.4437 8.2312 11.2196 8.07686C11.9956 7.92252 12.7998 8.00173 13.5307 8.30448C14.2616 8.60723 14.8864 9.11992 15.3259 9.77772C15.7654 10.4355 16 11.2089 16 12C16 13.0609 15.5786 14.0783 14.8284 14.8284C14.0783 15.5786 13.0609 16 12 16ZM12 10C11.6044 10 11.2178 10.1173 10.8889 10.3371C10.56 10.5568 10.3036 10.8692 10.1522 11.2346C10.0009 11.6001 9.96126 12.0022 10.0384 12.3902C10.1156 12.7781 10.3061 13.1345 10.5858 13.4142C10.8655 13.6939 11.2219 13.8844 11.6098 13.9616C11.9978 14.0387 12.3999 13.9991 12.7654 13.8478C13.1308 13.6964 13.4432 13.44 13.6629 13.1111C13.8827 12.7822 14 12.3956 14 12C14 11.4696 13.7893 10.9609 13.4142 10.5858C13.0391 10.2107 12.5304 10 12 10ZM5 8C4.80222 8 4.60888 8.05865 4.44443 8.16853C4.27998 8.27841 4.15181 8.43459 4.07612 8.61732C4.00043 8.80004 3.98063 9.00111 4.01921 9.19509C4.0578 9.38907 4.15304 9.56725 4.29289 9.70711C4.43275 9.84696 4.61093 9.9422 4.80491 9.98079C4.99889 10.0194 5.19996 9.99957 5.38268 9.92388C5.56541 9.84819 5.72159 9.72002 5.83147 9.55557C5.94135 9.39112 6 9.19778 6 9C6 8.73478 5.89464 8.48043 5.70711 8.29289C5.51957 8.10536 5.26522 8 5 8ZM18 9C18 9.19778 18.0586 9.39112 18.1685 9.55557C18.2784 9.72002 18.4346 9.84819 18.6173 9.92388C18.8 9.99957 19.0011 10.0194 19.1951 9.98079C19.3891 9.9422 19.5673 9.84696 19.7071 9.70711C19.847 9.56725 19.9422 9.38907 19.9808 9.19509C20.0194 9.00111 19.9996 8.80004 19.9239 8.61732C19.8482 8.43459 19.72 8.27841 19.5556 8.16853C19.3911 8.05865 19.1978 8 19 8C18.7348 8 18.4804 8.10536 18.2929 8.29289C18.1054 8.48043 18 8.73478 18 9ZM5 14C4.80222 14 4.60888 14.0586 4.44443 14.1685C4.27998 14.2784 4.15181 14.4346 4.07612 14.6173C4.00043 14.8 3.98063 15.0011 4.01921 15.1951C4.0578 15.3891 4.15304 15.5673 4.29289 15.7071C4.43275 15.847 4.61093 15.9422 4.80491 15.9808C4.99889 16.0194 5.19996 15.9996 5.38268 15.9239C5.56541 15.8482 5.72159 15.72 5.83147 15.5556C5.94135 15.3911 6 15.1978 6 15C6 14.7348 5.89464 14.4804 5.70711 14.2929C5.51957 14.1054 5.26522 14 5 14ZM18 15C18 15.1978 18.0586 15.3911 18.1685 15.5556C18.2784 15.72 18.4346 15.8482 18.6173 15.9239C18.8 15.9996 19.0011 16.0194 19.1951 15.9808C19.3891 15.9422 19.5673 15.847 19.7071 15.7071C19.847 15.5673 19.9422 15.3891 19.9808 15.1951C20.0194 15.0011 19.9996 14.8 19.9239 14.6173C19.8482 14.4346 19.72 14.2784 19.5556 14.1685C19.3911 14.0586 19.1978 14 19 14C18.7348 14 18.4804 14.1054 18.2929 14.2929C18.1054 14.4804 18 14.7348 18 15Z" fill="black"/>
</svg>
