<svg width="24" height="24" viewBox="0 0 24 24" fill="none" xmlns="http://www.w3.org/2000/svg">
<g clip-path="url(#clip0)">
<path d="M17.9939 2.28638C16.7733 1.19592 15.2785 0.45896 13.6703 0.154808C12.062 -0.149344 10.4013 -0.00917345 8.86679 0.560236C7.33228 1.12964 5.9821 2.10673 4.96156 3.38635C3.94101 4.66596 3.28874 6.19966 3.07493 7.82238C2.88291 9.24522 3.03648 10.6934 3.52265 12.0443C4.00881 13.3952 4.81327 14.6092 5.86793 15.5834C6.52013 16.1553 7.04641 16.8565 7.41341 17.6425C7.78042 18.4285 7.98014 19.2821 7.99993 20.1494V20.3104C8.00099 21.2887 8.39009 22.2267 9.08187 22.9184C9.77365 23.6102 10.7116 23.9993 11.6899 24.0004H12.3099C13.2883 23.9993 14.2262 23.6102 14.918 22.9184C15.6098 22.2267 15.9989 21.2887 15.9999 20.3104V19.7614C16.0149 18.9948 16.1953 18.2406 16.5287 17.5502C16.8622 16.8598 17.3408 16.2496 17.9319 15.7614C18.8905 14.9218 19.6598 13.8882 20.1887 12.7289C20.7177 11.5696 20.9942 10.3111 21.0001 9.03685C21.0059 7.7626 20.741 6.50165 20.2227 5.33753C19.7045 4.17342 18.9448 3.13272 17.9939 2.28438V2.28638ZM12.3099 22.0004H11.6899C11.2419 21.9998 10.8123 21.8216 10.4955 21.5048C10.1787 21.188 10.0005 20.7584 9.99993 20.3104C9.99993 20.3104 9.99293 20.0504 9.99193 20.0004H13.9999V20.3104C13.9994 20.7584 13.8212 21.188 13.5044 21.5048C13.1875 21.8216 12.758 21.9998 12.3099 22.0004ZM16.6099 14.2594C15.4714 15.2469 14.6491 16.5481 14.2459 18.0004H12.9999V10.8164C13.5828 10.6103 14.0878 10.2291 14.4458 9.72508C14.8038 9.22101 14.9974 8.61864 14.9999 8.00038C14.9999 7.73516 14.8946 7.48081 14.707 7.29327C14.5195 7.10573 14.2651 7.00038 13.9999 7.00038C13.7347 7.00038 13.4804 7.10573 13.2928 7.29327C13.1053 7.48081 12.9999 7.73516 12.9999 8.00038C12.9999 8.26559 12.8946 8.51995 12.707 8.70748C12.5195 8.89502 12.2651 9.00038 11.9999 9.00038C11.7347 9.00038 11.4804 8.89502 11.2928 8.70748C11.1053 8.51995 10.9999 8.26559 10.9999 8.00038C10.9999 7.73516 10.8946 7.48081 10.707 7.29327C10.5195 7.10573 10.2651 7.00038 9.99993 7.00038C9.73471 7.00038 9.48036 7.10573 9.29282 7.29327C9.10529 7.48081 8.99993 7.73516 8.99993 8.00038C9.00249 8.61864 9.19601 9.22101 9.55402 9.72508C9.91202 10.2291 10.417 10.6103 10.9999 10.8164V18.0004H9.67793C9.22692 16.5096 8.38105 15.1686 7.22993 14.1194C6.25288 13.209 5.55665 12.0381 5.2234 10.7449C4.89014 9.45165 4.93377 8.09009 5.34914 6.82087C5.7645 5.55165 6.53427 4.42773 7.5676 3.58174C8.60092 2.73575 9.85468 2.20301 11.1809 2.04638C11.4559 2.01569 11.7323 2.00033 12.0089 2.00038C13.7265 1.99527 15.3846 2.629 16.6609 3.77838C17.4006 4.43797 17.9917 5.24726 18.3949 6.1526C18.7981 7.05794 19.0043 8.03864 18.9997 9.0297C18.9952 10.0208 18.78 10.9995 18.3685 11.9011C17.9571 12.8027 17.3586 13.6066 16.6129 14.2594H16.6099Z" fill="black"/>
</g>
<defs>
<clipPath id="clip0">
<rect width="24" height="24" fill="white"/>
</clipPath>
</defs>
</svg>
