<svg width="24" height="24" viewBox="0 0 24 24" fill="none" xmlns="http://www.w3.org/2000/svg">
<path d="M10.5999 12.7074C10.4124 12.5199 10.3071 12.2656 10.3071 12.0004C10.3071 11.7352 10.4124 11.4809 10.5999 11.2934L15.1849 6.70741C15.3671 6.5188 15.4679 6.2662 15.4656 6.00401C15.4633 5.74181 15.3581 5.491 15.1727 5.30559C14.9873 5.12018 14.7365 5.01501 14.4743 5.01273C14.2121 5.01045 13.9595 5.11125 13.7709 5.29341L9.18891 9.87941C8.62649 10.442 8.31055 11.2049 8.31055 12.0004C8.31055 12.7959 8.62649 13.5588 9.18891 14.1214L13.7749 18.7074C13.9635 18.8896 14.2161 18.9904 14.4783 18.9881C14.7405 18.9858 14.9913 18.8806 15.1767 18.6952C15.3621 18.5098 15.4673 18.259 15.4696 17.9968C15.4719 17.7346 15.3711 17.482 15.1889 17.2934L10.5999 12.7074Z" fill="black"/>
</svg>
