<svg width="24" height="24" viewBox="0 0 24 24" fill="none" xmlns="http://www.w3.org/2000/svg">
<path d="M12.0001 24.0004C11.7349 24.0003 11.4806 23.895 11.2931 23.7074L3.12214 15.5354C2.18478 14.5978 1.6582 13.3262 1.6582 12.0004C1.6582 10.6746 2.18478 9.40305 3.12214 8.46541L11.2931 0.293407C11.4817 0.111249 11.7343 0.0104547 11.9965 0.0127331C12.2587 0.0150115 12.5095 0.12018 12.695 0.305589C12.8804 0.490997 12.9855 0.741809 12.9878 1.00401C12.9901 1.2662 12.8893 1.5188 12.7071 1.70741L4.53614 9.87941C3.97372 10.442 3.65778 11.2049 3.65778 12.0004C3.65778 12.7959 3.97372 13.5588 4.53614 14.1214L12.7071 22.2934C12.8469 22.4333 12.9422 22.6114 12.9807 22.8054C13.0193 22.9993 12.9995 23.2004 12.9238 23.3831C12.8481 23.5658 12.72 23.7219 12.5556 23.8318C12.3912 23.9417 12.1979 24.0004 12.0001 24.0004Z" fill="black"/>
<path d="M22 24.0004C21.7348 24.0003 21.4805 23.895 21.293 23.7074L11.707 14.1214C11.1446 13.5588 10.8286 12.7959 10.8286 12.0004C10.8286 11.2049 11.1446 10.442 11.707 9.87941L21.293 0.293407C21.4816 0.111249 21.7342 0.0104547 21.9964 0.0127331C22.2586 0.0150115 22.5094 0.12018 22.6948 0.305589C22.8802 0.490997 22.9854 0.741809 22.9876 1.00401C22.9899 1.2662 22.8891 1.5188 22.707 1.70741L13.121 11.2934C12.9335 11.4809 12.8282 11.7352 12.8282 12.0004C12.8282 12.2656 12.9335 12.5199 13.121 12.7074L22.707 22.2934C22.8468 22.4333 22.942 22.6114 22.9806 22.8054C23.0191 22.9993 22.9993 23.2004 22.9236 23.3831C22.848 23.5658 22.7198 23.7219 22.5554 23.8318C22.391 23.9417 22.1977 24.0004 22 24.0004Z" fill="black"/>
</svg>
