<svg width="24" height="24" viewBox="0 0 24 24" fill="none" xmlns="http://www.w3.org/2000/svg">
<g clip-path="url(#clip0)">
<path d="M22.9498 9.60019C22.7623 9.41271 22.5079 9.3074 22.2428 9.3074C21.9776 9.3074 21.7233 9.41271 21.5358 9.60019L10.6438 20.5392C10.1795 21.0035 9.62829 21.3719 9.02164 21.6232C8.41499 21.8746 7.76478 22.0039 7.10813 22.004C5.78197 22.0041 4.51008 21.4774 3.57228 20.5397C2.63447 19.602 2.10757 18.3302 2.10747 17.004C2.10738 15.6779 2.63411 14.406 3.57178 13.4682L14.1208 2.87619C14.6849 2.32108 15.4455 2.01136 16.2369 2.01448C17.0283 2.01761 17.7864 2.33334 18.3461 2.89289C18.9058 3.45244 19.2217 4.21048 19.225 5.00189C19.2283 5.7933 18.9188 6.55397 18.3638 7.11819L7.81478 17.7102C7.62453 17.8924 7.37124 17.9942 7.10778 17.9942C6.84431 17.9942 6.59103 17.8924 6.40078 17.7102C6.21331 17.5227 6.10799 17.2683 6.10799 17.0032C6.10799 16.738 6.21331 16.4837 6.40078 16.2962L15.7928 6.86119C15.9749 6.67258 16.0757 6.41998 16.0735 6.15778C16.0712 5.89559 15.966 5.64477 15.7806 5.45937C15.5952 5.27396 15.3444 5.16879 15.0822 5.16651C14.82 5.16423 14.5674 5.26503 14.3788 5.44719L4.98678 14.8822C4.70815 15.1608 4.48713 15.4915 4.33633 15.8555C4.18553 16.2195 4.10792 16.6097 4.10792 17.0037C4.10792 17.3977 4.18553 17.7878 4.33633 18.1519C4.48713 18.5159 4.70815 18.8466 4.98678 19.1252C5.5584 19.6707 6.31816 19.975 7.10828 19.975C7.8984 19.975 8.65816 19.6707 9.22978 19.1252L19.7778 8.53218C20.6958 7.59049 21.2058 6.32504 21.1974 5.00996C21.1889 3.69488 20.6627 2.43606 19.7328 1.50621C18.8028 0.576353 17.5439 0.0503304 16.2288 0.0420905C14.9137 0.0338505 13.6483 0.544056 12.7068 1.46219L2.15778 12.0542C0.844957 13.367 0.107422 15.1476 0.107422 17.0042C0.107422 18.8608 0.844957 20.6414 2.15778 21.9542C3.4706 23.267 5.25117 24.0045 7.10778 24.0045C8.96439 24.0045 10.745 23.267 12.0578 21.9542L22.9498 11.0182C23.0432 10.9253 23.1173 10.8148 23.1679 10.6931C23.2185 10.5714 23.2446 10.441 23.2446 10.3092C23.2446 10.1774 23.2185 10.0469 23.1679 9.92526C23.1173 9.80359 23.0432 9.69311 22.9498 9.60019Z" fill="black"/>
</g>
<defs>
<clipPath id="clip0">
<rect width="24" height="24" fill="white"/>
</clipPath>
</defs>
</svg>
